<svg width="24" height="20" viewBox="0 0 24 20" fill="none" xmlns="http://www.w3.org/2000/svg">
<path d="M23.9008 18.234L22.0008 13.698V0.665C22.0008 0.297 21.7038 0 21.3358 0H2.62183C2.25383 0 1.95683 0.297 1.95683 0.665V13.698L0.0518336 18.234C-0.0331664 18.441 -0.0141665 18.672 0.112834 18.861C0.235834 19.045 0.442834 19.158 0.669834 19.158H23.2928C23.5138 19.158 23.7218 19.045 23.8438 18.861C23.9668 18.672 23.9858 18.437 23.9008 18.234ZM3.28583 1.33H20.6708V13.165H3.28583V1.33ZM1.66383 17.824L3.05983 14.494H20.8878L22.2838 17.824H1.66383Z" fill="#F59730"/>
<path d="M5.13483 10.053C4.76683 10.053 4.46983 10.35 4.46983 10.718V11.317C4.46983 11.685 4.76683 11.982 5.13483 11.982C5.50283 11.982 5.79983 11.685 5.79983 11.317V10.717C5.79983 10.35 5.50283 10.053 5.13483 10.053V10.053ZM7.64783 8.16701C7.27983 8.16701 6.98283 8.46401 6.98283 8.83201V11.317C6.98283 11.685 7.27983 11.982 7.64783 11.982C8.01583 11.982 8.31283 11.685 8.31283 11.317V8.83201C8.31283 8.46401 8.01583 8.16701 7.64783 8.16701V8.16701ZM10.1608 5.65401C9.79283 5.65401 9.49583 5.95101 9.49583 6.31901V11.317C9.49583 11.685 9.79283 11.982 10.1608 11.982C10.5288 11.982 10.8258 11.685 10.8258 11.317V6.31801C10.8258 5.95001 10.5288 5.65301 10.1608 5.65301V5.65401ZM11.6648 2.95801C11.2968 2.95801 10.9998 3.25501 10.9998 3.62301V11.134C10.9998 11.502 11.2968 11.799 11.6648 11.799C12.0328 11.799 12.3298 11.502 12.3298 11.134V3.62301C12.3298 3.25501 12.0328 2.95801 11.6648 2.95801ZM13.3248 15.494H10.6278C10.2598 15.494 9.96283 15.791 9.96283 16.159C9.96283 16.527 10.2598 16.824 10.6278 16.824H13.3248C13.6928 16.824 13.9898 16.527 13.9898 16.159C13.9898 15.791 13.6928 15.494 13.3248 15.494V15.494ZM17.6198 6.38901H18.3508C18.7188 6.38901 19.0158 6.09201 19.0158 5.72501C19.0158 5.35701 18.7188 5.06001 18.3508 5.06001H16.0168C15.6498 5.06001 15.3518 5.35701 15.3518 5.72501V8.05801C15.3518 8.42501 15.6498 8.72201 16.0168 8.72201C16.3848 8.72201 16.6818 8.42501 16.6818 8.05801V7.32801L18.3518 8.99701C18.5918 9.23701 19.0488 9.24201 19.2938 8.99701C19.5538 8.73701 19.5538 8.31701 19.2938 8.05401L17.6198 6.38801V6.38901Z" fill="#F59730"/>
</svg>
