<svg width="24" height="24" viewBox="0 0 24 24" fill="none" xmlns="http://www.w3.org/2000/svg">
<path d="M23.542 16.0078C23.428 15.7758 23.197 15.6297 22.942 15.6297H4.578C2.272 15.6297 0.392 17.5048 0.392 19.8148C0.392 22.1208 2.268 24.0008 4.578 24.0008H22.942C23.197 24.0008 23.428 23.8548 23.542 23.6228C23.655 23.3918 23.622 23.1228 23.466 22.9188C22.748 22.0168 22.389 20.9297 22.384 19.8438C22.384 19.8338 22.45 17.7228 23.466 16.7108C23.646 16.5318 23.65 16.2388 23.542 16.0078ZM4.762 20.4818H21.085C21.165 21.2318 21.378 21.9737 21.728 22.6637H4.578C3.005 22.6637 1.724 21.3838 1.724 19.8108C1.724 18.2368 3.004 16.9568 4.578 16.9568H21.728C21.378 17.6518 21.165 18.3888 21.085 19.1398H4.762C4.394 19.1398 4.096 19.4367 4.096 19.8057C4.096 20.1837 4.394 20.4818 4.762 20.4818V20.4818ZM23.518 3.25575L12.184 0.02475C12.066 -0.00825 11.939 -0.00825 11.82 0.02475L0.482 3.25575C0.198 3.34075 0 3.60075 0 3.89875C0 4.19675 0.198 4.45575 0.482 4.54075L4.672 5.73675V13.6027C4.672 13.8427 4.805 14.0657 5.012 14.1827C5.225 14.3017 5.48 14.2967 5.688 14.1697C7.791 12.8797 9.912 12.2277 12 12.2277C14.088 12.2277 16.205 12.8797 18.312 14.1697C18.42 14.2357 18.742 14.3197 18.987 14.1837C19.2 14.0657 19.327 13.8437 19.327 13.6027V5.73675L21.534 5.10775V8.80375C21.534 9.17175 21.831 9.46975 22.2 9.46975C22.569 9.46975 22.866 9.17175 22.866 8.80375V4.72575L23.518 4.54075C23.806 4.46075 24 4.19675 24 3.89875C24 3.60075 23.802 3.34075 23.518 3.25575V3.25575ZM17.991 12.4597C16 11.4197 13.994 10.8958 12 10.8958C10.006 10.8958 7.994 11.4197 6.01 12.4597V6.11975L11.816 7.77775C11.934 7.81075 12.061 7.81075 12.18 7.77775L17.986 6.11875V12.4587H17.991V12.4597ZM12 6.43975L3.1 3.89975L12 1.36175L20.9 3.89875L12 6.44075V6.43975Z" fill="#F59730"/>
</svg>
