<svg width="24" height="24" viewBox="0 0 24 24" fill="none" xmlns="http://www.w3.org/2000/svg">
<path d="M3.78401 15.746H3.33501C2.96701 15.746 2.66901 16.044 2.66901 16.413C2.66901 16.781 2.96701 17.079 3.33501 17.079H3.78501C4.15301 17.079 4.45001 16.781 4.45001 16.413C4.45001 16.044 4.15301 15.746 3.78401 15.746V15.746ZM7.36001 15.746H6.91201C6.54301 15.746 6.24601 16.044 6.24601 16.413C6.24601 16.781 6.54301 17.079 6.91201 17.079H7.36101C7.72901 17.079 8.02701 16.781 8.02701 16.413C8.02701 16.044 7.72401 15.746 7.36101 15.746H7.36001ZM3.78401 13.318H3.33501C2.96701 13.318 2.66901 13.616 2.66901 13.984C2.66901 14.353 2.96701 14.65 3.33501 14.65H3.78501C4.15301 14.65 4.45001 14.353 4.45001 13.984C4.45001 13.616 4.15301 13.318 3.78401 13.318V13.318ZM7.36001 13.318H6.91201C6.54301 13.318 6.24601 13.616 6.24601 13.984C6.24601 14.353 6.54301 14.65 6.91201 14.65H7.36101C7.72901 14.65 8.02701 14.353 8.02701 13.984C8.02701 13.616 7.72401 13.318 7.36101 13.318H7.36001ZM10.932 13.318H10.483C10.115 13.318 9.81701 13.616 9.81701 13.984C9.81701 14.353 10.115 14.65 10.483 14.65H10.933C11.301 14.65 11.598 14.353 11.598 13.984C11.598 13.616 11.301 13.318 10.932 13.318V13.318ZM3.78401 10.89H3.33501C2.96701 10.89 2.66901 11.187 2.66901 11.556C2.66901 11.924 2.96701 12.222 3.33501 12.222H3.78501C4.15301 12.222 4.45001 11.924 4.45001 11.556C4.45001 11.187 4.15301 10.89 3.78401 10.89V10.89ZM7.36001 10.89H6.91201C6.54301 10.89 6.24601 11.187 6.24601 11.556C6.24601 11.924 6.54301 12.222 6.91201 12.222H7.36101C7.72901 12.222 8.02701 11.924 8.02701 11.556C8.02701 11.187 7.72401 10.89 7.36101 10.89H7.36001ZM10.932 10.89H10.483C10.115 10.89 9.81701 11.187 9.81701 11.556C9.81701 11.924 10.115 12.222 10.483 12.222H10.933C11.301 12.222 11.598 11.924 11.598 11.556C11.598 11.187 11.301 10.89 10.932 10.89V10.89ZM3.78401 8.461H3.33501C2.96701 8.461 2.66901 8.759 2.66901 9.128C2.66901 9.496 2.96701 9.794 3.33501 9.794H3.78501C4.15301 9.794 4.45001 9.496 4.45001 9.128C4.45001 8.759 4.15301 8.461 3.78401 8.461V8.461ZM7.36001 8.461H6.91201C6.54301 8.461 6.24601 8.759 6.24601 9.128C6.24601 9.496 6.54301 9.794 6.91201 9.794H7.36101C7.72901 9.794 8.02701 9.496 8.02701 9.128C8.02701 8.759 7.72401 8.461 7.36101 8.461H7.36001ZM10.932 8.461H10.483C10.115 8.461 9.81701 8.759 9.81701 9.128C9.81701 9.496 10.115 9.794 10.483 9.794H10.933C11.301 9.794 11.598 9.496 11.598 9.128C11.598 8.759 11.301 8.461 10.932 8.461V8.461ZM17.631 9.794H18.081C18.449 9.794 18.746 9.496 18.746 9.128C18.746 8.759 18.449 8.461 18.08 8.461H17.631C17.263 8.461 16.965 8.759 16.965 9.128C16.965 9.496 17.263 9.794 17.631 9.794V9.794ZM14.06 9.794H14.509C14.877 9.794 15.175 9.496 15.175 9.128C15.175 8.759 14.877 8.461 14.509 8.461H14.059C13.691 8.461 13.394 8.759 13.394 9.128C13.394 9.496 13.691 9.794 14.06 9.794V9.794Z" fill="#F59730"/>
<path d="M21.416 12.576V0.666C21.416 0.298 21.118 0 20.75 0H0.666C0.298 0 0 0.298 0 0.666V19.082C0 19.45 0.298 19.748 0.666 19.748H11.688C12.553 22.218 14.901 24 17.665 24C21.155 24 24 21.16 24 17.665C24 15.581 22.98 13.729 21.416 12.576V12.576ZM1.332 1.332H20.083V5.594H1.333V1.332H1.332ZM11.382 18.416H1.331V6.926H20.082V11.811C19.336 11.504 18.519 11.329 17.664 11.329C14.172 11.329 11.328 14.169 11.328 17.665C11.333 17.92 11.352 18.17 11.38 18.415L11.382 18.416ZM17.665 22.668C14.905 22.668 12.666 20.424 12.666 17.669C12.666 14.915 14.91 12.671 17.665 12.671C20.424 12.671 22.663 14.915 22.663 17.669C22.663 20.424 20.423 22.668 17.665 22.668Z" fill="#F59730"/>
<path d="M17.665 13.876C17.296 13.876 16.998 14.173 16.998 14.542V16.998H16.02C15.652 16.998 15.354 17.296 15.354 17.665C15.354 18.033 15.652 18.331 16.02 18.331H17.67C18.038 18.331 18.335 18.033 18.335 17.665V14.542C18.335 14.173 18.033 13.876 17.665 13.876V13.876ZM5.102 2.797H4.706C4.337 2.797 4.039 3.094 4.039 3.463C4.039 3.831 4.337 4.129 4.706 4.129H5.102C5.471 4.129 5.769 3.831 5.769 3.463C5.769 3.094 5.471 2.797 5.102 2.797V2.797ZM16.71 2.797H16.313C15.945 2.797 15.647 3.094 15.647 3.463C15.647 3.831 15.945 4.129 16.313 4.129H16.71C17.079 4.129 17.376 3.831 17.376 3.463C17.376 3.094 17.079 2.797 16.71 2.797V2.797Z" fill="#F59730"/>
</svg>
