<svg width="24" height="24" viewBox="0 0 24 24" fill="none" xmlns="http://www.w3.org/2000/svg">
<path d="M17.5443 23.2291V13.6811L22.6602 8.56607C22.7632 8.46207 22.8302 8.33006 22.8482 8.18906L23.8983 0.754066C23.9263 0.547066 23.8552 0.340066 23.7092 0.194066C23.5632 0.0480657 23.3523 -0.0219343 23.1493 0.00606573L15.7093 1.05607C15.5693 1.07407 15.4363 1.14007 15.3333 1.24307L10.2183 6.35907H0.66425C0.39525 6.35907 0.15125 6.51907 0.05225 6.76907C-0.05175 7.01807 0.00525001 7.29907 0.19825 7.49307L4.64025 11.9351L4.23025 12.3451C4.10825 12.4671 3.78425 12.8341 4.23025 13.2811L10.6213 19.6671C11.0313 20.0771 11.4353 19.7891 11.5623 19.6671L11.9722 19.2571L16.4142 23.7001C16.6782 23.9631 16.9272 23.9301 17.1392 23.8461C17.3842 23.7421 17.5443 23.4981 17.5443 23.2291V23.2291ZM5.57925 10.9941L2.26925 7.68607H8.89025L5.57825 10.9941H5.57925ZM11.0893 18.2601L5.63925 12.8101L16.1143 2.34007L22.4622 1.44607L21.5683 7.78907L11.0883 18.2591L11.0893 18.2601ZM12.9103 18.3211L16.2192 15.0131V21.6291L12.9103 18.3211ZM3.51625 16.0621C3.25825 15.8031 2.83925 15.8031 2.57625 16.0621L0.19425 18.4441C-0.06475 18.7041 -0.06475 19.1221 0.19425 19.3811C0.42025 19.6071 0.87225 19.6441 1.13525 19.3811L3.52125 17.0001C3.78025 16.7461 3.78025 16.3221 3.51625 16.0631V16.0621ZM6.83425 17.0641C6.57525 16.8061 6.15625 16.8061 5.89325 17.0641L3.50725 19.4461C3.24825 19.7051 3.24825 20.1231 3.50725 20.3821C3.73325 20.6081 4.18525 20.6461 4.44825 20.3821L6.83425 18.0021C7.09325 17.7421 7.09325 17.3231 6.83425 17.0651V17.0641ZM7.83625 20.3781C7.57825 20.1181 7.15925 20.1181 6.89625 20.3781L4.50925 22.7581C4.25025 23.0181 4.25025 23.4361 4.50925 23.6951C4.73525 23.9211 5.18725 23.9591 5.45025 23.6951L7.83625 21.3141C8.09625 21.0601 8.09625 20.6361 7.83625 20.3781Z" fill="#F59730"/>
<path d="M13.9733 7.61005C12.6933 7.61005 11.6483 8.65005 11.6483 9.93505C11.6483 11.215 12.6933 12.26 13.9733 12.26C15.2533 12.26 16.2983 11.22 16.2983 9.93505C16.2983 8.65005 15.2533 7.61005 13.9733 7.61005V7.61005ZM14.9663 9.93005C14.9663 10.481 14.5193 10.928 13.9683 10.928C13.4183 10.928 12.9703 10.481 12.9703 9.93005C12.9703 9.38005 13.4183 8.93305 13.9683 8.93305C14.5183 8.93805 14.9663 9.38505 14.9663 9.93005Z" fill="#F59730"/>
</svg>
