<svg width="24" height="24" viewBox="0 0 24 24" fill="none" xmlns="http://www.w3.org/2000/svg">
<path d="M15.93 3.5H12.53L12.08 2.315C11.981 2.055 11.735 1.885 11.457 1.885H10.517V1.531C10.517 0.685 9.83 0 8.986 0H7.606C6.761 0 6.076 0.685 6.076 1.53V1.885H4.819C4.54 1.885 4.294 2.055 4.195 2.315L3.746 3.501H0.666C0.298 3.5 0 3.798 0 4.167V23.334C0 23.702 0.298 24 0.666 24H15.931C16.299 24 16.597 23.702 16.597 23.334V4.167C16.597 3.798 16.299 3.501 15.931 3.501L15.93 3.5ZM5.278 3.218H6.743C7.111 3.218 7.409 2.921 7.409 2.552V1.532C7.409 1.423 7.499 1.333 7.607 1.333H8.987C9.095 1.333 9.185 1.423 9.185 1.532V2.552C9.185 2.921 9.483 3.218 9.851 3.218H10.999L11.755 5.208H4.526L5.277 3.218H5.278ZM15.266 22.668H1.332V4.834H3.241L2.934 5.637C2.858 5.84 2.934 6.54 3.557 6.54H12.718C13.498 6.54 13.356 5.647 13.304 5.552L13.03 4.829H15.26V22.669H15.265L15.266 22.668Z" fill="#F59730"/>
<path d="M3.50001 8.79699C3.13201 8.79699 2.83501 9.09399 2.83501 9.46299C2.83501 9.83099 3.13201 10.129 3.50101 10.129H13.096C13.465 10.129 13.762 9.83099 13.762 9.46299C13.762 9.09399 13.465 8.79699 13.096 8.79699H3.50101H3.50001ZM13.096 12.345H3.50101C3.13201 12.345 2.83501 12.643 2.83501 13.011C2.83501 13.38 3.13201 13.677 3.50101 13.677H13.096C13.465 13.677 13.762 13.38 13.762 13.011C13.762 12.647 13.465 12.345 13.096 12.345ZM13.096 15.898H3.50101C3.13201 15.898 2.83501 16.195 2.83501 16.564C2.83501 16.932 3.13201 17.23 3.50101 17.23H13.096C13.465 17.23 13.762 16.932 13.762 16.564C13.762 16.195 13.465 15.898 13.096 15.898ZM9.73201 19.446H3.50101C3.13201 19.446 2.83501 19.743 2.83501 20.112C2.83501 20.48 3.13201 20.778 3.50101 20.778H9.73201C10.101 20.778 10.398 20.48 10.398 20.112C10.398 19.743 10.101 19.446 9.73201 19.446ZM23.906 6.50999L21.954 3.26499C21.831 3.06599 21.619 2.94299 21.383 2.94299C21.146 2.94299 20.933 3.06599 20.811 3.26499L18.86 6.50999C18.798 6.61399 18.765 6.73199 18.765 6.85499V18.445C18.765 19.89 19.942 21.061 21.383 21.061C22.828 21.061 24 19.885 24 18.444V6.84999C24 6.73199 23.967 6.61399 23.906 6.50999ZM21.383 4.89999L22.157 6.18399H20.607L21.383 4.89899V4.89999ZM22.668 18.44C22.668 19.148 22.091 19.724 21.383 19.724C20.674 19.724 20.098 19.148 20.098 18.439V18.227H22.672V18.439H22.668V18.44ZM22.668 16.894H20.093V7.52099H22.668V16.894Z" fill="#F59730"/>
</svg>
