<svg width="24" height="23" viewBox="0 0 24 23" fill="none" xmlns="http://www.w3.org/2000/svg">
<path d="M22.369 0H3.439C2.239 0 1.269 0.86 1.269 1.915V2.984H0.724C0.324 2.984 0 3.269 0 3.622C0 3.975 0.323 4.26 0.724 4.26H1.267V5.922H0.725C0.325 5.922 0.001 6.207 0.001 6.56C0.001 6.914 0.324 7.199 0.725 7.199H1.268V15.8H0.725C0.325 15.8 0.001 16.085 0.001 16.439C0.001 16.792 0.324 17.077 0.725 17.077H1.268V18.739H0.725C0.325 18.739 0.001 19.024 0.001 19.377C0.001 19.73 0.324 20.015 0.725 20.015H1.268V21.084C1.268 22.139 2.243 22.999 3.439 22.999H22.374C22.774 22.999 23.098 22.714 23.098 22.361V0.638C23.098 0.285 22.769 0 22.369 0ZM5.389 21.553H3.439C3.039 21.553 2.716 21.273 2.716 20.928V19.883H3.218C3.618 19.883 3.942 19.604 3.942 19.259C3.942 18.913 3.619 18.634 3.218 18.634H2.716V17.01H3.218C3.618 17.01 3.942 16.731 3.942 16.386C3.942 16.04 3.619 15.761 3.218 15.761H2.716V7.346H3.218C3.618 7.346 3.942 7.066 3.942 6.721C3.942 6.376 3.619 6.097 3.218 6.097H2.716V4.47H3.218C3.618 4.47 3.942 4.191 3.942 3.846C3.942 3.501 3.619 3.222 3.218 3.222H2.716V2.177C2.716 1.832 3.039 1.553 3.439 1.553H5.389V21.553ZM21.645 21.553H6.836V1.553H21.646V21.553H21.645Z" fill="#F59730"/>
<path d="M9.731 18.043H18.751C19.151 18.043 19.475 17.72 19.475 17.32V14.02C19.475 12.81 18.735 11.742 17.592 11.306C15.447 10.485 13.035 10.485 10.89 11.306C9.746 11.742 9.007 12.809 9.007 14.02V17.32C9.007 17.715 9.33 18.043 9.73 18.043H9.731ZM10.459 14.02C10.459 13.415 10.833 12.876 11.413 12.655C13.225 11.963 15.267 11.958 17.078 12.655C17.658 12.876 18.033 13.415 18.033 14.02V16.596H10.459V14.02ZM14.241 9.73599C15.816 9.73599 17.094 8.45799 17.094 6.88299C17.094 5.30699 15.816 4.02899 14.241 4.02899C12.665 4.02899 11.388 5.30699 11.388 6.88299C11.388 8.45799 12.665 9.73599 14.241 9.73599ZM14.241 5.47599C15.016 5.47599 15.647 6.10799 15.647 6.88299C15.647 7.65699 15.016 8.28899 14.241 8.28899C13.466 8.28899 12.835 7.65699 12.835 6.88299C12.835 6.10799 13.465 5.47699 14.241 5.47699V5.47599Z" fill="#F59730"/>
</svg>
