<svg width="25" height="25" viewBox="0 0 25 25" fill="none" xmlns="http://www.w3.org/2000/svg">
<path d="M24.8883 10.86L22.5263 7.281C22.3983 7.084 22.1813 6.971 21.9453 6.971H19.5053V4.968H20.6553C20.9123 4.968 21.1483 4.825 21.2663 4.603C21.3893 4.377 21.3743 4.106 21.2363 3.889L18.8743 0.31C18.7463 0.113 18.5303 0 18.2943 0H6.71031C6.47931 0 6.25731 0.118 6.13031 0.31L3.76631 3.884C3.62431 4.096 3.61431 4.372 3.73631 4.598C3.86031 4.825 4.09131 4.963 4.34631 4.963H5.49831V6.966H3.05831C2.82631 6.966 2.60531 7.084 2.47731 7.276L0.115314 10.856C-0.0276861 11.067 -0.0376861 11.343 0.0853139 11.57C0.208314 11.796 0.440314 11.934 0.695314 11.934H2.36431V24.306C2.36431 24.69 2.67431 25 3.05831 25H21.9443C22.3283 25 22.6383 24.69 22.6383 24.306V11.939H24.3063C24.5623 11.939 24.7983 11.796 24.9163 11.574C25.0393 11.348 25.0253 11.072 24.8863 10.861L24.8883 10.86ZM7.08431 1.384H17.9243L19.3713 3.575H5.64231L7.08431 1.385V1.384ZM1.98631 10.546L3.43331 8.356H5.49931V10.546H1.98631V10.546ZM14.2143 23.618H10.7943V18.498H14.2143V23.618ZM21.2513 23.618H15.6023V17.798C15.6023 17.414 15.2923 17.104 14.9083 17.104H10.0963C9.71231 17.104 9.40231 17.414 9.40231 17.798V23.613H3.75131V11.939H6.19231C6.57631 11.939 6.88631 11.629 6.88631 11.245V4.963H18.1163V11.24C18.1163 11.624 18.4263 11.934 18.8093 11.934H21.2503V23.617L21.2513 23.618ZM19.5043 10.546V8.356H21.5713L23.0183 10.546H19.5043Z" fill="#F59730"/>
<path d="M12.5393 6.34601C10.2243 6.34601 8.33431 8.24701 8.33431 10.589C8.33431 12.925 10.2193 14.832 12.5393 14.832C14.8553 14.832 16.7443 12.93 16.7443 10.589C16.7443 8.25201 14.8543 6.34601 12.5393 6.34601V6.34601ZM12.5393 13.434C10.9833 13.434 9.71931 12.154 9.71931 10.589C9.71931 9.01801 10.9873 7.74301 12.5393 7.74301C14.0913 7.74301 15.3593 9.02301 15.3593 10.589C15.3593 12.159 14.0963 13.434 12.5393 13.434Z" fill="#F59730"/>
<path d="M12.5293 8.48602C12.1433 8.48602 11.8323 8.79702 11.8323 9.18202V9.92202H11.7083C11.3223 9.92202 11.0103 10.234 11.0103 10.619C11.0103 11.004 11.3223 11.315 11.7083 11.315H12.5293C12.9163 11.315 13.2273 11.004 13.2273 10.619V9.18202C13.2273 8.79702 12.9163 8.48602 12.5293 8.48602ZM6.79931 13.99H6.04731C5.66331 13.99 5.35331 14.298 5.35331 14.679C5.35331 15.059 5.66331 15.367 6.04731 15.367H6.79931C7.18331 15.367 7.49331 15.06 7.49331 14.679C7.49331 14.299 7.18331 13.991 6.79931 13.991V13.99ZM6.79931 17.355H6.04731C5.66331 17.355 5.35331 17.662 5.35331 18.043C5.35331 18.423 5.66331 18.731 6.04731 18.731H6.79931C7.18331 18.731 7.49331 18.423 7.49331 18.043C7.49331 17.663 7.18331 17.355 6.79931 17.355ZM6.79931 20.642H6.04731C5.66331 20.642 5.35331 20.95 5.35331 21.33C5.35331 21.71 5.66331 22.018 6.04731 22.018H6.79931C7.18331 22.018 7.49331 21.711 7.49331 21.33C7.49331 20.955 7.18331 20.642 6.79931 20.642ZM17.5853 14.679C17.5853 15.059 17.8953 15.367 18.2793 15.367H19.0323C19.4163 15.367 19.7263 15.06 19.7263 14.679C19.7263 14.299 19.4163 13.991 19.0323 13.991H18.2793C17.8953 13.991 17.5853 14.298 17.5853 14.679ZM19.0313 17.355H18.2793C17.8953 17.355 17.5853 17.662 17.5853 18.043C17.5853 18.423 17.8953 18.731 18.2793 18.731H19.0323C19.4163 18.731 19.7263 18.423 19.7263 18.043C19.7263 17.663 19.4163 17.355 19.0323 17.355H19.0313ZM19.0313 20.642H18.2793C17.8953 20.642 17.5853 20.95 17.5853 21.33C17.5853 21.71 17.8953 22.018 18.2793 22.018H19.0323C19.4163 22.018 19.7263 21.711 19.7263 21.33C19.7263 20.955 19.4163 20.642 19.0323 20.642H19.0313Z" fill="#F59730"/>
</svg>
