<svg xmlns="http://www.w3.org/2000/svg" width="18" height="18" viewBox="0 0 18 18">
    <g fill="#08A1E8">
        <path d="M17.918 7.82l-1.7-2.577c-.092-.142-.248-.224-.418-.224h-1.758V3.577h.83c.184 0 .354-.103.439-.263.088-.163.078-.358-.021-.514L13.589.223C13.497.082 13.34 0 13.17 0H4.83c-.167 0-.327.085-.419.223l-1.7 2.574c-.103.152-.11.35-.022.514.089.163.256.262.44.262h.829v1.443H2.202c-.167 0-.326.085-.419.223l-1.7 2.577c-.103.152-.11.351-.021.514.088.163.255.262.439.262h1.2V17.5c0 .277.224.5.5.5H15.8c.276 0 .5-.223.5-.5V8.596h1.2c.185 0 .355-.103.44-.262.088-.163.078-.362-.022-.514zM5.1.996h7.805l1.042 1.577H4.062L5.1.996zM1.43 7.593l1.04-1.578H3.96v1.578h-2.53zm8.804 9.41H7.77v-3.686h2.463v3.687zm5.066 0h-4.067v-4.189c0-.276-.223-.5-.5-.5H7.268c-.276 0-.5.224-.5.5V17H2.701V8.596h1.757c.277 0 .5-.223.5-.5V3.573h8.085v4.52c0 .276.223.5.5.5H15.3v8.41zm-1.258-9.41V6.015h1.488l1.042 1.578h-2.53z"/>
        <path d="M9.028 4.569C7.36 4.569 6 5.939 6 7.624c0 1.682 1.357 3.055 3.028 3.055 1.667 0 3.027-1.37 3.027-3.055 0-1.682-1.36-3.055-3.027-3.055zm0 5.103c-1.121 0-2.03-.92-2.03-2.048 0-1.131.912-2.049 2.03-2.049 1.117 0 2.03.921 2.03 2.049 0 1.13-.91 2.048-2.03 2.048z"/>
        <path d="M9.02 6.11c-.277 0-.502.224-.502.501v.533H8.43c-.278 0-.502.224-.502.502 0 .277.224.5.502.5h.592c.277 0 .502-.223.502-.5V6.61c0-.277-.225-.5-.502-.5zM4.895 10.073h-.542c-.277 0-.5.222-.5.496s.223.495.5.495h.542c.276 0 .5-.221.5-.495s-.224-.496-.5-.496zM4.895 12.495h-.542c-.277 0-.5.222-.5.496s.223.495.5.495h.542c.276 0 .5-.221.5-.495s-.224-.496-.5-.496zM4.895 14.862h-.542c-.277 0-.5.222-.5.496s.223.495.5.495h.542c.276 0 .5-.221.5-.495 0-.27-.224-.496-.5-.496zM12.66 10.569c0 .274.224.495.5.495h.542c.277 0 .5-.221.5-.495s-.223-.496-.5-.496h-.542c-.276 0-.5.222-.5.496zM13.702 12.495h-.542c-.276 0-.5.222-.5.496s.224.495.5.495h.542c.277 0 .5-.221.5-.495s-.223-.496-.5-.496zM13.702 14.862h-.542c-.276 0-.5.222-.5.496s.224.495.5.495h.542c.277 0 .5-.221.5-.495 0-.27-.223-.496-.5-.496z"/>
    </g>
</svg>
