<svg width="22" height="24" viewBox="0 0 22 24" fill="none" xmlns="http://www.w3.org/2000/svg">
<path d="M16.3611 3V3.75H17.1111H21.0833L21.0835 3.75C21.0846 3.74998 21.0879 3.74993 21.0963 3.75428C21.1066 3.75961 21.1268 3.77309 21.1507 3.80247C21.2001 3.86299 21.25 3.97394 21.25 4.125V6.75C21.25 8.16552 20.5143 9.69298 19.1391 10.9083L19.138 10.9093C18.0475 11.8769 16.721 12.4874 15.3303 12.6823L14.9365 12.7374L14.7612 13.0944C14.1948 14.2478 13.585 15.0537 13.1261 15.5647C12.8965 15.8204 12.7045 16.0025 12.5746 16.1173C12.5096 16.1747 12.4601 16.2153 12.4292 16.2398C12.4234 16.2444 12.4183 16.2484 12.4138 16.2519C12.4064 16.2577 12.4009 16.262 12.3973 16.2647L12.394 16.2671L12.393 16.2679L12.393 16.2679L12.3925 16.2683L12.0833 16.4905V16.875V20.25V21H12.8333H14.6667C15.158 21 15.5707 21.1744 15.8601 21.4682C16.1472 21.7598 16.3611 22.2185 16.3611 22.875V23.25H5.63889V22.875C5.63889 22.2185 5.85275 21.7598 6.13989 21.4682C6.42927 21.1744 6.84199 21 7.33333 21H9.16667H9.91667V20.25V16.875V16.4905L9.60753 16.2683L9.60704 16.2679L9.60701 16.2679L9.606 16.2671L9.60274 16.2647C9.59699 16.2603 9.5862 16.2521 9.57077 16.2398C9.53989 16.2153 9.49043 16.1747 9.42545 16.1173C9.29546 16.0025 9.10351 15.8204 8.87393 15.5647C8.41502 15.0537 7.80522 14.2478 7.23883 13.0944L7.0636 12.7376L6.66993 12.6823C5.28319 12.4875 3.95618 11.877 2.8611 10.9085L2.86019 10.9077C1.48255 9.69328 0.75 8.16628 0.75 6.75V4.125C0.75 3.97394 0.799948 3.86299 0.849265 3.80247C0.873204 3.77309 0.893372 3.75961 0.903678 3.75428C0.912095 3.74993 0.9154 3.74998 0.916505 3.75C0.916565 3.75 0.916619 3.75 0.916667 3.75H4.88889H5.63889V3V1.125C5.63889 0.973942 5.68884 0.862991 5.73815 0.802466C5.76209 0.773085 5.78226 0.759614 5.79257 0.754284C5.80098 0.749931 5.80429 0.749981 5.80539 0.749998L5.80556 0.75H16.1944C16.1954 0.75 16.1986 0.749692 16.2074 0.754284C16.2177 0.759614 16.2379 0.773085 16.2618 0.802465C16.3112 0.862991 16.3611 0.973942 16.3611 1.125V3ZM3.29558 9.59907L3.29609 9.59952C3.83454 10.0753 4.44225 10.4562 5.09344 10.7315L6.44237 11.3016L6.11663 9.8738C5.86044 8.75091 5.68325 7.45991 5.64629 5.98126L5.62802 5.25H4.89653H2.44444H1.69444V6V6.75C1.69444 7.19056 1.85475 7.68242 2.11203 8.1499C2.37629 8.63005 2.76878 9.13272 3.29558 9.59907ZM18.7039 9.59952L18.7045 9.59898C19.0883 9.25914 19.4737 8.82224 19.7687 8.35224C20.0545 7.89691 20.3056 7.33097 20.3056 6.75V6V5.25H19.5556H17.0997H16.3682L16.3499 5.98126C16.3129 7.45991 16.1357 8.75091 15.8796 9.8738L15.5538 11.3016L16.9027 10.7315C17.5524 10.4569 18.1642 10.0764 18.7039 9.59952Z" stroke="#66AEFD" stroke-width="1.5"/>
</svg>
