<svg xmlns="http://www.w3.org/2000/svg" width="15" height="20" viewBox="0 0 15 20">
    <g fill="none">
        <path fill="#A4A3AE" d="M11.265 19.265H3.43C1.536 19.264.002 17.73 0 15.837V5.714c.002-1.893 1.536-3.426 3.429-3.428h7.836c1.893.002 3.427 1.535 3.429 3.428v10.123c-.002 1.893-1.536 3.427-3.429 3.428zM3.43 3.918c-.992.002-1.795.805-1.796 1.796v10.123c.001.99.804 1.794 1.796 1.796h7.836c.991-.002 1.794-.805 1.796-1.796V5.714c-.002-.99-.805-1.794-1.796-1.796H3.43z"/>
        <path fill="#A4A3AE" d="M9.633 3.102C9.633 1.84 8.609.816 7.347.816S5.06 1.84 5.06 3.102h4.572z"/>
        <path fill="#A4A3AE" d="M9.633 3.918H5.06c-.45 0-.816-.365-.816-.816C4.245 1.389 5.634 0 7.347 0c1.713 0 3.102 1.389 3.102 3.102 0 .217-.086.424-.24.577-.152.153-.36.24-.576.24zM6.126 2.286h2.442c-.273-.408-.73-.653-1.221-.653-.49 0-.949.245-1.221.653z"/>
        <circle cx="7.347" cy="2.286" r="1" fill="#FFF"/>
        <path fill="#A4A3AE" d="M6.485 13.9c-.217 0-.424-.086-.578-.238l-2.24-2.233c-.212-.206-.297-.51-.222-.795.076-.285.299-.507.584-.582.286-.074.59.011.794.224l1.662 1.662L9.87 8.542c.32-.32.837-.32 1.156 0 .32.32.32.837 0 1.156l-3.964 3.964c-.154.152-.362.238-.578.238z"/>
    </g>
</svg>
