<svg xmlns="http://www.w3.org/2000/svg" width="19" height="18" viewBox="0 0 19 18">
    <g fill="#3699FF">
        <path d="M12.665 16.758V9.883L16.348 6.2c.075-.074.122-.169.136-.27l.755-5.354c.02-.15-.03-.298-.135-.403-.105-.105-.258-.156-.403-.136l-5.357.756c-.102.013-.197.06-.271.135L7.39 4.611H.512c-.194 0-.37.116-.44.295-.075.18-.035.383.104.522l3.199 3.198-.295.295c-.088.088-.322.353 0 .674l4.601 4.598c.295.295.586.088.678 0l.295-.294 3.198 3.198c.19.19.37.166.522.105.176-.074.291-.25.291-.444zM4.05 7.948L1.667 5.568h4.767L4.05 7.949zm3.968 5.232L4.093 9.257l7.542-7.54 4.57-.643-.643 4.567-7.545 7.54zm1.31.044l2.383-2.382v4.764l-2.382-2.382zM2.565 11.598c-.186-.186-.488-.186-.678 0L.173 13.312c-.187.187-.187.488 0 .675.162.162.488.19.677 0l1.718-1.715c.187-.183.187-.488-.003-.674zM4.954 12.32c-.187-.187-.488-.187-.678 0l-1.718 1.714c-.186.186-.186.488 0 .674.163.163.488.19.678 0l1.718-1.714c.186-.186.186-.488 0-.674zM5.675 14.705c-.186-.186-.488-.186-.677 0L3.28 16.419c-.187.187-.187.488 0 .675.162.162.488.19.677 0l1.718-1.715c.187-.183.187-.488 0-.674z" transform="translate(.034)"/>
        <path d="M10.094 5.513c-.922 0-1.674.748-1.674 1.673 0 .922.752 1.674 1.674 1.674.921 0 1.673-.749 1.673-1.674 0-.925-.752-1.673-1.673-1.673zm.714 1.67c0 .396-.321.718-.718.718-.396 0-.718-.322-.718-.718 0-.396.322-.718.718-.718.397.003.718.325.718.718z" transform="translate(.034)"/>
    </g>
</svg>
