<svg xmlns="http://www.w3.org/2000/svg" width="18" height="18" viewBox="0 0 18 18">
    <g fill="#3699FF">
        <path d="M10.943 18h-3.66c-.422 0-.763-.341-.763-.763V15.62c.008-.443-.226-.856-.61-1.078-.384-.222-.859-.218-1.24.01l-1.393.809c-.364.21-.83.086-1.04-.278L.405 11.917c-.104-.174-.131-.382-.077-.577.052-.195.18-.362.354-.464l1.404-.808c.388-.215.63-.624.63-1.068 0-.444-.242-.853-.63-1.068l-1.4-.808C.511 7.022.383 6.855.332 6.66c-.055-.195-.028-.403.076-.577l1.83-3.166c.211-.364.677-.488 1.04-.278l1.401.808c.38.23.855.233 1.239.011.384-.222.618-.635.61-1.078V.763c0-.42.34-.761.76-.763h3.66c.422 0 .763.341.763.763V2.38c-.004.44.23.848.61 1.067.38.212.842.212 1.22 0l1.407-.808c.364-.21.83-.086 1.04.278l1.831 3.166c.21.364.086.83-.278 1.04l-1.397.81c-.388.214-.63.623-.63 1.067 0 .444.242.853.63 1.068l1.4.808c.364.211.488.677.278 1.04l-1.83 3.167c-.212.364-.677.488-1.04.278l-1.398-.808c-.38-.212-.841-.212-1.22 0-.381.22-.615.627-.61 1.067v1.617c0 .206-.083.403-.23.546-.147.144-.346.222-.552.217zm-2.892-1.525h2.136v-.855c-.008-.988.516-1.905 1.372-2.4.857-.493 1.912-.49 2.765.012l.738.427 1.065-1.83-.739-.428c-.86-.488-1.391-1.4-1.391-2.389 0-.989.531-1.901 1.391-2.389l.739-.427-1.065-1.83-.738.427c-.857.506-1.92.51-2.78.01-.86-.502-1.381-1.428-1.363-2.423v-.855H8.045v.855c.008.988-.516 1.905-1.373 2.4-.856.493-1.912.49-2.764-.012l-.738-.427-1.065 1.83.738.428c.86.488 1.392 1.4 1.392 2.389 0 .989-.531 1.901-1.392 2.389l-.738.427 1.065 1.83.738-.427c.857-.506 1.92-.51 2.78-.01.86.502 1.381 1.428 1.363 2.423v.855z"/>
        <path d="M9.116 11.898c-1.172 0-2.23-.706-2.678-1.789-.448-1.083-.2-2.33.629-3.158.828-.83 2.075-1.077 3.158-.629 1.083.449 1.79 1.506 1.79 2.678-.002 1.6-1.3 2.897-2.9 2.898zm0-4.27c-.758 0-1.373.614-1.373 1.372 0 .758.615 1.373 1.373 1.373S10.489 9.758 10.489 9c-.002-.758-.616-1.371-1.373-1.373z"/>
    </g>
</svg>
