<svg xmlns="http://www.w3.org/2000/svg" width="18" height="18" viewBox="0 0 18 18">
    <g fill="#A4A3AE">
        <path d="M16.776 0H2.579C1.678 0 .95.645.95 1.436v.802H.543c-.3 0-.543.214-.543.479 0 .264.242.478.543.478H.95v1.247H.543c-.3 0-.543.213-.543.478s.242.48.543.48H.95v6.45H.543c-.3 0-.543.215-.543.48s.242.478.543.478H.95v1.247H.543c-.3 0-.543.214-.543.478 0 .265.242.48.543.48H.95v.8c0 .792.73 1.437 1.628 1.437h14.2c.301 0 .544-.214.544-.479V.48c0-.265-.247-.479-.547-.479zM4.041 16.165H2.579c-.3 0-.543-.21-.543-.469v-.784h.377c.3 0 .543-.209.543-.468s-.243-.468-.543-.468h-.377v-1.22h.377c.3 0 .543-.208.543-.468 0-.259-.243-.468-.543-.468h-.377V5.51h.377c.3 0 .543-.21.543-.47 0-.258-.243-.467-.543-.467h-.377v-1.22h.377c.3 0 .543-.209.543-.468s-.243-.468-.543-.468h-.377v-.784c0-.259.242-.468.543-.468H4.04v15zm12.192 0H5.126v-15h11.107v15z"/>
        <path d="M7.297 13.533h6.766c.3 0 .542-.243.542-.543v-2.475c0-.908-.554-1.708-1.412-2.036-1.609-.615-3.418-.615-5.026 0-.859.328-1.413 1.128-1.413 2.036v2.475c0 .296.243.543.543.543zm.546-3.018c0-.454.281-.858.716-1.023 1.359-.52 2.89-.524 4.25 0 .434.165.715.57.715 1.023v1.932h-5.68v-1.932zM10.68 7.302c1.181 0 2.14-.959 2.14-2.14 0-1.182-.959-2.14-2.14-2.14-1.182 0-2.14.958-2.14 2.14 0 1.181.958 2.14 2.14 2.14zm0-3.195c.581 0 1.054.474 1.054 1.055s-.473 1.054-1.054 1.054c-.581 0-1.055-.473-1.055-1.054 0-.581.474-1.055 1.055-1.055z"/>
    </g>
</svg>
