<svg xmlns="http://www.w3.org/2000/svg" width="9" height="9" viewBox="0 0 9 9">
    <path fill="#90A6BB" d="M7.046 9c-.063 0-.126-.015-.182-.045L4.5 7.665l-2.364 1.29c-.129.069-.283.056-.4-.032-.117-.088-.176-.239-.152-.388l.437-2.758-1.906-1.96c-.104-.107-.141-.265-.096-.41.044-.143.163-.249.306-.271l2.64-.422L4.159.22C4.223.085 4.356 0 4.5 0c.144 0 .277.085.342.22l1.192 2.494 2.64.416c.144.022.263.127.307.271.045.145.008.303-.096.409L6.983 5.777l.438 2.758c.018.116-.013.234-.085.323-.072.09-.178.142-.29.142zM4.5 6.817c.061 0 .121.016.175.046l1.869 1.014-.345-2.173c-.02-.128.02-.259.109-.35l1.499-1.547-2.08-.328c-.124-.02-.23-.1-.286-.217L4.5 1.292l-.941 1.97c-.056.117-.162.198-.285.217l-2.08.328 1.498 1.547c.089.091.129.222.109.35l-.345 2.173 1.869-1.01c.053-.032.114-.049.175-.05z"/>
</svg>
