<svg xmlns="http://www.w3.org/2000/svg" width="456.509" height="345.897" viewBox="0 0 456.509 345.897">
    <defs>
        <style>
            .cls-1{fill:#fa0}.cls-3{fill:#55769f}.cls-4{fill:#daeef7}.cls-5{fill:#ea7f70}.cls-6{fill:#e93c23}.cls-7{fill:#02ccc0}.cls-8{fill:#06bfad}.cls-9{fill:#feb546}.cls-10{fill:#07085b}.cls-13{fill:#ffc0bb}.cls-14{fill:#f99893}.cls-15{fill:#333}.cls-18{fill:#fff}.cls-24{fill:#ff5b7e}
        </style>
    </defs>
    <g id="Asset_1" transform="translate(0 5.287)">
        <g id="Layer_2">
            <g id="Layer_1">
                <path id="Path_552" d="M704.019 693.851l-53.971 21.674-66.808-166.353 45.62-18.32a9 9 0 0 1 11.7 5z" class="cls-1" transform="translate(-479.504 -435.899)"/>
                <path id="Rectangle_340" fill="#adcfd8" d="M0 0H104.951V147.562H0z" transform="rotate(-10.07 758.46 -514.662)"/>
                <path id="Rectangle_341" d="M0 0H46.867V1.053H0z" class="cls-3" transform="rotate(-10.07 827.09 -686.27)"/>
                <path id="Rectangle_342" d="M0 0H66.558V1.053H0z" class="cls-3" transform="rotate(-10.07 816.858 -629.12)"/>
                <path id="Rectangle_343" d="M0 0H80.75V1.053H0z" class="cls-3" transform="rotate(-10.07 898.169 -595.696)"/>
                <path id="Rectangle_344" d="M0 0H80.75V1.053H0z" class="cls-3" transform="rotate(-10.07 926.854 -598.22)"/>
                <path id="Rectangle_345" d="M0 0H80.75V1.053H0z" class="cls-3" transform="rotate(-10.07 984.251 -603.246)"/>
                <path id="Rectangle_346" d="M0 0H80.75V1.053H0z" class="cls-3" transform="rotate(-10.07 1012.942 -605.763)"/>
                <path id="Rectangle_347" d="M0 0H80.75V1.053H0z" class="cls-3" transform="rotate(-10.07 1041.65 -608.278)"/>
                <path id="Rectangle_348" d="M0 0H80.75V1.053H0z" class="cls-3" transform="rotate(-10.07 1167.855 -619.36)"/>
                <path id="Rectangle_349" d="M0 0H80.75V1.053H0z" class="cls-3" transform="rotate(-10.07 1197.615 -621.96)"/>
                <path id="Rectangle_350" d="M0 0H80.75V1.053H0z" class="cls-3" transform="rotate(-10.07 1227.366 -624.583)"/>
                <path id="Rectangle_351" d="M0 0H80.75V1.053H0z" class="cls-3" transform="rotate(-10.07 1257.127 -627.182)"/>
                <path id="Rectangle_352" d="M0 0H80.75V1.053H0z" class="cls-3" transform="rotate(-10.07 1286.89 -629.8)"/>
                <path id="Rectangle_353" d="M0 0H80.75V1.053H0z" class="cls-3" transform="rotate(-10.07 1316.64 -632.411)"/>
                <path id="Rectangle_354" d="M0 0H80.75V1.053H0z" class="cls-3" transform="rotate(-10.07 1346.4 -635.022)"/>
                <path id="Rectangle_355" d="M0 0H104.951V147.562H0z" class="cls-4" transform="rotate(-14.76 546.228 -278.297)"/>
                <path id="Rectangle_356" d="M0 0H46.867V1.053H0z" class="cls-3" transform="rotate(-14.76 588.483 -397.811)"/>
                <path id="Rectangle_357" d="M0 0H66.558V1.053H0z" class="cls-3" transform="rotate(-14.76 583.066 -358.354)"/>
                <path id="Rectangle_358" d="M0 0H80.75V1.053H0z" class="cls-3" transform="rotate(-14.76 639.72 -337.718)"/>
                <path id="Rectangle_359" d="M0 0H80.75V1.053H0z" class="cls-3" transform="rotate(-14.76 659.311 -340.243)"/>
                <path id="Rectangle_360" d="M0 0H80.75V1.051H0z" class="cls-3" transform="rotate(-14.76 698.498 -345.29)"/>
                <path id="Rectangle_361" d="M0 0H80.75V1.053H0z" class="cls-3" transform="rotate(-14.76 718.098 -347.814)"/>
                <path id="Rectangle_362" d="M0 0H80.75V1.053H0z" class="cls-3" transform="rotate(-14.76 737.694 -350.339)"/>
                <path id="Rectangle_363" d="M0 0H80.887V1.055H0z" class="cls-3" transform="rotate(-14.452 841.67 -368.127)"/>
                <path id="Rectangle_364" d="M0 0H80.75V1.053H0z" class="cls-3" transform="rotate(-14.76 844.211 -364.051)"/>
                <path id="Rectangle_365" d="M0 0H80.75V1.053H0z" class="cls-3" transform="rotate(-14.76 864.524 -366.672)"/>
                <path id="Rectangle_366" d="M0 0H80.75V1.053H0z" class="cls-3" transform="rotate(-14.76 884.84 -369.288)"/>
                <path id="Rectangle_367" d="M0 0H80.75V1.053H0z" class="cls-3" transform="rotate(-14.76 905.165 -371.908)"/>
                <path id="Rectangle_368" d="M0 0H80.887V1.055H0z" class="cls-3" transform="rotate(-14.452 945.44 -381.356)"/>
                <path id="Rectangle_369" d="M0 0H80.75V1.053H0z" class="cls-3" transform="rotate(-14.76 945.813 -377.135)"/>
                <path id="Path_553" d="M352.021 701.795l-108.656 43.636L180 587.632l91.3-56.324a9.72 9.72 0 0 1 14.124 4.651z" class="cls-1" transform="translate(-147.985 -435.618)"/>
                <path id="Path_554" d="M224.366 1502.178l-15.5-.281c-5.382-9.752-9.331-18.232-9.331-18.232 17.507-4.036 32.282-2.378 44.59 2.353l6.784 16.477 1.451-12.687c30.507 16.461 43.076 51.312 43.076 51.312s-53.914-5.743-65.343-11.058c-4.413-2.052-9.974-9.437-15.14-17.731 4.136-3.931 9.413-10.153 9.413-10.153z" class="cls-5" transform="translate(-164.049 -1217.902)"/>
                <path id="Path_555" d="M199.52 1494.2s69.219 29.129 95.9 57.45c0 0-53.914-5.743-65.343-11.058-4.413-2.053-9.975-9.437-15.14-17.731 4.134-3.932 9.411-10.152 9.411-10.152l-15.5-.276c-5.379-9.753-9.328-18.233-9.328-18.233z" class="cls-6" transform="translate(-164.033 -1228.438)"/>
                <path id="Path_556" d="M211.94 1707.193a71 71 0 0 1 27.823-9.923c2.668 3.315 5.941 7.216 5.941 7.216l.345-7.774c34.914-1.59 63.853 21.8 63.853 21.8-20.225 12.737-37.477 16.248-51.609 15.113-.838-2.721-2.022-6.778-2.022-6.778l-2.49 6.247a61.009 61.009 0 0 1-17.913-5.756c1.323-3.239 2.716-6.937 2.716-6.937l-7.525 4.269a65.989 65.989 0 0 1-19.119-17.477z" class="cls-5" transform="translate(-174.244 -1394.867)"/>
                <path id="Path_557" d="M258.326 1778.4c-.838-2.721-2.022-6.778-2.022-6.778l-2.49 6.246a61.009 61.009 0 0 1-17.913-5.756c1.323-3.239 2.716-6.937 2.716-6.937l-7.525 4.269a65.974 65.974 0 0 1-19.111-17.487c40.679-4.7 97.952 11.321 97.952 11.321-20.224 12.749-37.476 16.26-51.607 15.122z" class="cls-6" transform="translate(-174.277 -1439.643)"/>
                <path id="Path_558" d="M1178.6 440.664l12.495-9.178c-1.245-11.07-2.906-20.276-2.906-20.276-16.625 6.81-27.734 16.691-35.055 27.661l3.974 17.37-8.509-9.523c-15.41 31.051-5.558 66.764-5.558 66.764s40.711-35.809 46.975-46.746c2.421-4.224 2.7-13.464 2.134-23.216-5.65-.827-13.55-2.856-13.55-2.856z" class="cls-7" transform="translate(-937.187 -338.071)"/>
                <path id="Path_559" d="M1202.529 411.22s-39.71 63.741-45.149 102.271c0 0 40.711-35.809 46.975-46.746 2.421-4.224 2.7-13.464 2.134-23.216-5.646-.829-13.544-2.858-13.544-2.858l12.495-9.178c-1.24-11.063-2.911-20.273-2.911-20.273z" class="cls-8" transform="translate(-951.526 -338.079)"/>
                <path id="Path_560" d="M1212.6 632.13a71.179 71.179 0 0 0-28.458 7.956c-.263 4.247-.687 9.322-.687 9.322l-4.768-6.149c-29.429 18.853-39.549 54.657-39.549 54.657 23.869-1.265 39.983-8.36 50.869-17.431-.889-2.705-2.261-6.7-2.261-6.7l5.642 3.659a60.949 60.949 0 0 0 11.307-15.036c-2.949-1.884-6.225-4.1-6.225-4.1l8.612-.854a65.959 65.959 0 0 0 5.518-25.324z" class="cls-7" transform="translate(-936.53 -519.698)"/>
                <path id="Path_561" d="M1190.039 680.518c-.889-2.705-2.261-6.7-2.261-6.7l5.642 3.659a60.954 60.954 0 0 0 11.307-15.036c-2.949-1.884-6.225-4.1-6.225-4.1l8.612-.854a65.961 65.961 0 0 0 5.514-25.312c-35.928 19.643-73.457 65.786-73.457 65.786 23.872-1.277 39.988-8.372 50.868-17.443z" class="cls-8" transform="translate(-936.555 -519.731)"/>
                <path id="Path_562" d="M1185.885 881.288h7.431a7.766 7.766 0 0 0-4.391-1.329h-186.142c-9.738 0-17.633 7-17.633 15.631v9.928c0 8.633 7.9 15.632 17.633 15.632l184.061-.055z" class="cls-6" transform="translate(-809.929 -723.448)"/>
                <path id="Path_563" d="M1054.458 905.519v-9.928c0-8.632 7.893-15.631 17.633-15.631h-4c-9.74 0-17.635 7-17.635 15.631v9.928c0 8.633 7.9 15.632 17.635 15.632h3.943c-9.709-.027-17.576-7.015-17.576-15.632z" class="cls-9" transform="translate(-863.623 -723.448)"/>
                <path id="Path_564" d="M1299.526 905.519v-9.928c0-8.632 7.9-15.631 17.633-15.631h-4c-9.738 0-17.633 7-17.633 15.631v9.928c0 8.633 7.9 15.632 17.633 15.632h3.945c-9.704-.027-17.578-7.015-17.578-15.632z" class="cls-9" transform="translate(-1065.104 -723.448)"/>
                <path id="Path_565" d="M1441.653 880.129c-9.313 0-16.863 6.691-16.863 14.941v11.219c0 8.256 7.55 14.94 16.863 14.94h115.879v-2.51h-.478l-29.459-2.474-5.955-20.7s11.493-11.442 12.242-11.739 23.172-1.192 23.172-1.192h.478v-2.49z" class="cls-5" transform="translate(-1171.373 -723.58)"/>
                <path id="Path_566" d="M1567.379 912.255c0-12.107 7.057-17.975 7.057-17.975H1461.4c-8.555 0-15.49 6.147-15.49 13.729v8.632c0 7.584 6.937 13.731 15.49 13.731h113.046s-7.067-2.882-7.067-18.117z" class="cls-4" transform="translate(-1188.737 -735.221)"/>
                <path id="Path_567" d="M1445.86 907.985v8.632a12.273 12.273 0 0 0 .452 3.294c3.813-8.271 11.12-16.235 25.031-18.795 32.478-5.98 103.053-6.865 103.053-6.865h-113.037c-8.564.004-15.499 6.149-15.499 13.734z" class="cls-4" transform="translate(-1188.696 -735.197)"/>
                <path id="Path_568" d="M1046.354 1342.633h8.409a8.208 8.208 0 0 0-4.969-1.663H839.118a19.761 19.761 0 0 0-19.958 19.565v12.429a19.765 19.765 0 0 0 19.958 19.565l208.321-.069z" class="cls-10" transform="translate(-673.462 -1102.462)"/>
                <path id="Path_569" d="M1335.836 1341.23a18.9 18.9 0 0 0-19.086 18.711v14.051a18.9 18.9 0 0 0 19.086 18.711h131.152v-3.141h-.543l-33.342-3.095-6.746-25.925s13.007-14.323 13.856-14.691 26.226-1.491 26.226-1.491h.542v-3.125z" class="cls-3" transform="translate(-1082.55 -1102.676)"/>
                <path id="Path_570" d="M1478.089 1381.39c0-15.152 7.988-22.5 7.988-22.5H1358.13a17.362 17.362 0 0 0-17.53 17.187v10.811a17.361 17.361 0 0 0 17.53 17.187h127.947s-7.988-3.604-7.988-22.685z" class="cls-4" transform="translate(-1102.158 -1117.195)"/>
                <path id="Path_571" d="M1340.6 1376.077v10.811a16.948 16.948 0 0 0 .51 4.123c4.315-10.351 12.585-20.321 28.33-23.526 36.759-7.484 116.637-8.594 116.637-8.594H1358.13a17.362 17.362 0 0 0-17.53 17.186z" class="cls-4" transform="translate(-1102.158 -1117.195)"/>
                <path id="Path_572" d="M741.233 1112.278h-8.413a9.675 9.675 0 0 1 4.971-1.32h210.767c11.027 0 19.965 6.951 19.965 15.524v9.862c0 8.573-8.939 15.524-19.965 15.524l-208.414-.055z" class="cls-7" transform="translate(-602.479 -913.36)"/>
                <path id="Path_573" d="M846.384 1111.16c10.544 0 19.094 6.647 19.094 14.848v11.143c0 8.2-8.55 14.848-19.094 14.848H715.18v-2.49h.542l33.355-2.456 6.741-20.566s-13.011-11.364-13.859-11.657-26.237-1.181-26.237-1.181h-.542v-2.479z" class="cls-8" transform="translate(-587.976 -913.526)"/>
                <path id="Path_574" d="M726.07 1143.032c0-12.024-7.99-17.852-7.99-17.852h128c9.686 0 17.537 6.1 17.537 13.637v8.578c0 7.531-7.851 13.637-17.537 13.637H718.083s7.987-2.86 7.987-18z" class="cls-4" transform="translate(-590.361 -925.053)"/>
                <path id="Path_575" d="M863.651 1138.784v8.578a10.851 10.851 0 0 1-.51 3.271c-4.319-8.214-12.591-16.125-28.342-18.676-36.771-5.937-116.678-6.817-116.678-6.817h128c9.679.007 17.53 6.111 17.53 13.644z" class="cls-4" transform="translate(-590.393 -925.02)"/>
                <path id="Path_576" fill="#55769f" d="M1748.615 1136.346v-9.863c0-8.573-8.938-15.524-19.965-15.524h20.013c11.027 0 19.967 6.951 19.967 15.524v9.863c0 8.573-8.939 15.524-19.967 15.524h-19.743c10.9-.116 19.695-7.02 19.695-15.524z" opacity="0.5" transform="translate(-1421.188 -913.362)"/>
                <path id="Path_577" d="M648.731 1632.913h-9.071a10.177 10.177 0 0 1 5.359-1.474h227.2c11.887 0 21.521 7.767 21.521 17.347v11.014c0 9.58-9.637 17.347-21.521 17.347l-224.661-.062z" class="cls-9" transform="translate(-525.889 -1341.267)"/>
                <path id="Path_578" fill="#f4a640" d="M762.09 1631.67c11.369 0 20.584 7.427 20.584 16.589v12.45c0 9.162-9.215 16.589-20.584 16.589H620.65v-2.785h.585l35.957-2.745 7.275-22.978s-14.026-12.7-14.94-13.025-28.28-1.32-28.28-1.32h-.585v-2.771z" transform="translate(-510.26 -1341.457)"/>
                <path id="Path_579" d="M632.414 1667.277c0-13.434-8.614-19.947-8.614-19.947h137.984c10.44 0 18.9 6.823 18.9 15.237v9.583c0 8.416-8.464 15.237-18.9 15.237H623.8s8.614-3.193 8.614-20.11z" class="cls-4" transform="translate(-512.849 -1354.332)"/>
                <path id="Path_580" d="M671.769 1815.4l1.932 4.308a.712.712 0 0 1-.356.932l-10.085 4.521a.8.8 0 0 1-1-1.169l3.9-6.081a6.211 6.211 0 0 0 5.609-2.511z" class="cls-10" transform="translate(-544.363 -1492.509)"/>
                <path id="Path_581" d="M743.825 1815.4l1.932 4.308a.712.712 0 0 1-.356.932l-10.087 4.521a.8.8 0 0 1-1-1.169l3.913-6.081a6.2 6.2 0 0 0 5.598-2.511z" class="cls-10" transform="translate(-603.604 -1492.509)"/>
                <path id="Path_582" d="M1995.53 1089.18l-1.93 4.306a.712.712 0 0 0 .356.934l10.087 4.521a.8.8 0 0 0 1-1.168l-3.9-6.081a6.22 6.22 0 0 1-5.613-2.512z" class="cls-10" transform="translate(-1638.964 -895.456)"/>
                <path id="Path_583" d="M1922.04 1086.29l-1.93 4.308a.711.711 0 0 0 .356.934l10.085 4.521a.8.8 0 0 0 1-1.17l-3.9-6.081a6.216 6.216 0 0 1-5.611-2.512z" class="cls-10" transform="translate(-1578.546 -893.08)"/>
                <path id="Path_584" d="M780.689 1662.568v9.583a12.426 12.426 0 0 1-.551 3.655c-4.653-9.176-13.573-18.016-30.551-20.858-39.642-6.634-125.786-7.618-125.786-7.618h137.983c10.44 0 18.905 6.823 18.905 15.238z" class="cls-4" transform="translate(-512.849 -1354.332)"/>
                <path id="Path_585" d="M910.625 1132.256l1.067 6.727 2.266-8.97s-3.177-1.54-3.317-.98a24.739 24.739 0 0 0-.016 3.223z" class="cls-10" transform="translate(-748.617 -928.12)"/>
                <path id="Path_586" d="M969.311 1229.12l.98 11.627-10.261-.489 1.183-10.3z" class="cls-13" transform="translate(-789.277 -1010.506)"/>
                <path id="Path_587" d="M963.52 1234.858l.562-4.9 8.1-.839.34 4.027c-1.614 1.605-4.507 3.268-9.002 1.712z" class="cls-14" transform="translate(-792.146 -1010.506)"/>
                <path id="Path_588" d="M909.609 1177.718a2.1 2.1 0 1 1-2.965-1.423 2.349 2.349 0 0 1 2.965 1.423z" class="cls-14" transform="translate(-744.527 -966.941)"/>
                <path id="Path_589" d="M917.395 1123.15c-.055-.333-.126-.662-.206-.989a10.965 10.965 0 1 1 21.6-3.269 2.371 2.371 0 0 1 2.12-.3c1.334.5 1.914 2.255 1.291 3.924s-2.209 2.62-3.545 2.122a2.107 2.107 0 0 1-.509-.279 10.282 10.282 0 0 1-9.6 10.053 9.835 9.835 0 0 1-6.839-2.351c-2.532-1.854-3.813-5.811-4.312-8.911z" class="cls-13" transform="translate(-753.802 -911.437)"/>
                <path id="Path_590" d="M960.862 1170.55c-.021.628-.027 1.245-.059 1.843a3.915 3.915 0 0 1-.34 1.629 1.558 1.558 0 0 0-.434.96 1.293 1.293 0 0 0 .478 1.014 2.117 2.117 0 0 0 1.887.368 2.643 2.643 0 0 1-1.542-.712.837.837 0 0 1-.228-.629c.027-.231.1-.278.375-.663a2.455 2.455 0 0 0 .3-1 5.146 5.146 0 0 0 0-.966 6.6 6.6 0 0 0-.437-1.844z" class="cls-14" transform="translate(-789.277 -962.353)"/>
                <path id="Path_591" d="M985.155 1170.586a.957.957 0 1 0 .911-1 .957.957 0 0 0-.911 1z" class="cls-15" transform="translate(-809.932 -961.559)"/>
                <path id="Path_592" d="M939.135 1175.776a.957.957 0 1 0 .911-1 .957.957 0 0 0-.911 1z" class="cls-15" transform="translate(-772.097 -965.826)"/>
                <path id="Path_593" d="M960.8 1211.65a7.819 7.819 0 0 1-1.642 1.094 5.955 5.955 0 0 1-1.859.569 5.046 5.046 0 0 1-1.928-.142 7.045 7.045 0 0 1-1.793-.815 5.309 5.309 0 0 0 1.736 1 4.563 4.563 0 0 0 2.015.206 5.232 5.232 0 0 0 1.917-.649 5.718 5.718 0 0 0 1.554-1.263z" class="cls-14" transform="translate(-783.974 -996.143)"/>
                <path id="Path_594" d="M978.4 1157.816a9.667 9.667 0 0 1 1.4-.336 4.921 4.921 0 0 1 1.33-.03 4.532 4.532 0 0 1 1.277.34c.32.1 1.092.553 1.293.642a3.06 3.06 0 0 0-1-1.16 3.1 3.1 0 0 0-1.483-.571 3.227 3.227 0 0 0-1.572.21 2.937 2.937 0 0 0-1.245.905z" class="cls-10" transform="translate(-804.379 -950.949)"/>
                <path id="Path_595" d="M931.22 1162.489a2.96 2.96 0 0 0-1.393-.646 3.212 3.212 0 0 0-3.687 2.28c.178-.128.85-.722 1.144-.889a4.461 4.461 0 0 1 1.188-.582 4.881 4.881 0 0 1 1.309-.23 10.013 10.013 0 0 1 1.439.067z" class="cls-10" transform="translate(-761.414 -955.149)"/>
                <path id="Path_596" fill="#00af8a" d="M704.505 1519.056s2.134 14.517-11.886 17.046-31.482 1.779-31.482 1.779l-2.421 33.342-7.323.374s-18.853-46.331 7.244-53.574l23.453.114 9.656-.688s9.772-2.415 9.887-1.956 2.641 3.794 2.872 3.563z" transform="translate(-530.122 -1245.895)"/>
                <path id="Path_597" fill="#00c49a" d="M776.935 1519.5s2.134 14.515-11.887 17.044-31.482 1.779-31.482 1.779l-2.43 33.346-7.323.374s-18.853-46.331 7.244-53.574l23.453.114 9.656-.688s9.772-2.415 9.887-1.956 2.647 3.795 2.882 3.561z" transform="translate(-589.661 -1246.265)"/>
                <path id="Path_598" d="M831.715 1264.193s-9.656 1.227-12.109 3.219-14.256 31.27-14.256 31.27l9.809 11.5 20.847.153s15.636 8.431 25.447.461 4.751-35.717-.92-41.694-15.789-5.825-15.789-5.825-9.197 6.434-13.029.916z" class="cls-6" transform="translate(-662.109 -1038.588)"/>
                <path id="Path_599" d="M1054.492 1350.3a40.04 40.04 0 0 0-.711 4.84c-.083.813-.119 1.627-.165 2.444s-.045 1.633-.034 2.451a32.266 32.266 0 0 0 .4 4.893 16.058 16.058 0 0 0 1.423 4.687 24.012 24.012 0 0 1-.936-4.753 48.148 48.148 0 0 1-.26-4.836q-.029-2.425.057-4.856c.06-1.62.134-3.243.226-4.87z" class="cls-18" transform="translate(-866.184 -1110.132)"/>
                <path id="Path_600" d="M859.052 1344.26c-.441 2.374-.909 4.74-1.384 7.1s-.985 4.714-1.558 7.051-1.192 4.66-1.956 6.937a33.571 33.571 0 0 1-1.3 3.351 12.892 12.892 0 0 1-1.852 3.081 11.822 11.822 0 0 0 2.134-2.936 27.752 27.752 0 0 0 1.489-3.323c.434-1.133.806-2.287 1.158-3.445s.651-2.334.943-3.507.543-2.359.781-3.545.455-2.375.646-3.568c.392-2.388.7-4.788.899-7.196z" class="cls-18" transform="translate(-699.639 -1105.167)"/>
                <path id="Path_601" d="M869 1482.871c.06-.485 3.735-1.028 5.1-1.1 1.026-.053 7.826-.281 10.138-.384l-.169.594.036 2.627.379 1.741c-2.029.128-6.992.322-8.023.534a25.45 25.45 0 0 0-3.774 1.314s-1-.228.269-.772a6.087 6.087 0 0 0 2.031-1.457c.178-.194-.014-.533-.14-.507-3.445.9-3.8 1.053-3.8 1.053s-4.05-.023-.023-.932c2.414-.546 3.278-.863 3.493-1.135.091-.114-.073-.507-.221-.516-2.09-.13-5.843.612-4.815.126a26.494 26.494 0 0 1 4.505-.994c.062-.011.164-.393-.116-.416-1.996-.169-4.933.675-4.87.224z" class="cls-13" transform="translate(-714.434 -1217.906)"/>
                <path id="Path_602" d="M973.656 1456.62c-.848.206-1.684.445-2.536.622l-2.552.534q-2.561.468-5.142.825c-1.722.226-3.445.434-5.172.6s-3.472.318-5.176.413l-.229.013-.052.2a14.456 14.456 0 0 0-.416 3.456 11.163 11.163 0 0 0 .151 1.738 8.066 8.066 0 0 0 .505 1.677l.02.046.037.025 1.892 1.27c.631.423 1.265.845 1.9 1.256q-.889-.712-1.795-1.407l-1.8-1.392.057.071a7.592 7.592 0 0 1-.4-1.611 11.079 11.079 0 0 1-.082-1.667 15.475 15.475 0 0 1 .151-1.67 13.68 13.68 0 0 1 .336-1.633l-.279.212c.9-.023 1.752-.082 2.629-.146s1.741-.133 2.609-.224c1.736-.178 3.468-.4 5.192-.672s3.44-.614 5.138-1.016c.847-.215 1.693-.425 2.527-.687s1.662-.539 2.487-.833z" class="cls-18" transform="translate(-782.987 -1197.542)"/>
                <path id="Path_603" d="M623.8 1380h37.707l10.691 26.1h18.167a.92.92 0 0 1 .919.919.921.921 0 0 1-.919.92H636.33z" class="cls-10" transform="translate(-512.849 -1134.55)"/>
                <path id="Path_604" d="M728.709 1452.674a1.814 1.814 0 1 0 1.361-2.367 1.941 1.941 0 0 0-1.361 2.367z" class="cls-4" transform="translate(-599.061 -1192.326)"/>
                <path id="Path_605" d="M900.383 1077.556s-3.219.1.16-2.62 12.45-5.914 18.263-2.846c0 0 1.163-2.472 2.846-1.882s-1.094 2.291-1.094 2.291 2.147-.069 2.8.983c.484.779-.831.813-1.549.777 1.222.208 5.907 3.166 3.557 12.61-.836-.178-5.6-7.088-5.6-7.088s-10.889 6.047-9.811 1.245c0 0-11.282 7.04-9.681 1.224 0-.002-4.363.318.109-4.694z" class="cls-10" transform="translate(-738.581 -879.784)"/>
                <path id="Path_606" d="M1018.26 1111.838a2.062 2.062 0 0 0-1.871.453c-.969.77-.863 3.474-.863 3.474s-4.624 2.985-4.141-9.645c.519-13.437 3.861 1.078 3.861 1.078z" class="cls-10" transform="translate(-831.469 -904.692)"/>
                <path id="Rectangle_370" d="M0 0H95.722V5.307H0z" class="cls-4" transform="rotate(180 213.907 163.606)"/>
                <path id="Path_607" d="M1955.215 1561.732l1.451 6.675a4.726 4.726 0 0 1-3.639 5.627l-85.488 18.039a4.722 4.722 0 0 1-5.631-3.824l-.752-4.384a4.729 4.729 0 0 1 2.4-4.95l25.612-13.923a4.713 4.713 0 0 1 1.75-.548l58.645-6.336.422-.057a4.724 4.724 0 0 1 5.23 3.681z" class="cls-4" transform="translate(-1530.071 -1280.9)"/>
                <path id="Path_608" d="M1735.494 1650.621s-12.208 8.893-3.317 23.556l-.534 3.781-15.652 1.067-14.332-2.921-2.659-23.889 34.372-10.215z" class="cls-6" transform="translate(-1396.812 -1349.95)"/>
                <rect id="Rectangle_371" width="137.479" height="11.655" class="cls-5" rx="5.828" transform="rotate(180 219.038 167.94)"/>
                <path id="Path_609" d="M1810.8 1438.651l-97.7 23.039a4.666 4.666 0 0 1-2.367-.062c-3.845-1.1-16.879-3.858-27.848 5.514a4.658 4.658 0 0 1-7.52-2.239l-1.747-6.145a4.649 4.649 0 0 1 2.006-5.215c14.185-8.877 76.287-46.052 117.17-43.221a11.739 11.739 0 0 1 9.3 5.745l10.652 18.051a3.068 3.068 0 0 1-1.939 4.534z" class="cls-5" transform="translate(-1375.796 -1159.352)"/>
                <circle id="Ellipse_194" cx="5.839" cy="5.839" r="5.839" class="cls-5" transform="translate(314.044 309.05)"/>
                <path id="Path_610" d="M1865 301.6s10.992-1.853 14.679 10.428l-4.557 6.814s-9.548-3.669-9.585-4.029S1865 301.6 1865 301.6z" class="cls-6" transform="translate(-1533.287 -247.874)"/>
                <path id="Path_611" d="M1704.435 333.17s-3.2 4.822-4.842 6.732c-4.114 4.8-4.644 3.3-7.2 7.438-2.76 4.464.032 7.26 1.62 8.546s-1.067 6.047 1.889 8.715c3.87 3.493 7.453.2 10.115 2.156s3.246 4.857 9.558 4.31 6.25-21.187 6.25-21.187-5.158-10.944-5.371-11.027-12.019-5.683-12.019-5.683z" class="cls-6" transform="translate(-1390.419 -273.912)"/>
                <path id="Path_612" d="M1844.011 360.69a18.507 18.507 0 0 0 1.631 5.969c3.15 5.489 4.849 3.691 6.593 8.23 1.885 4.9-1.378 7.129-3.177 8.1s-.071 6.14-3.472 8.214c-4.447 2.714-7.36-1.186-10.339.244s-4.091 4.171-10.191 2.462-2.214-21.98-2.214-21.98 7.115-9.795 7.324-9.845 13.845-1.394 13.845-1.394z" class="cls-6" transform="translate(-1497.624 -296.537)"/>
                <path id="Path_613" d="M1779.4 489.845s-10.535-1.939-15.38-1.779 2.937 12.762 2.937 12.762l7.913.178s4.85-5.416 4.53-6.047.016-4.763.016-4.763z" class="cls-13" transform="translate(-1448.958 -401.25)"/>
                <path id="Path_614" d="M1792.167 441.59l-2.777 8.432s2.421 5 9.829 2.846c0 0-.845-1.747.29-5.336 1.158-3.683-7.342-5.942-7.342-5.942z" class="cls-13" transform="translate(-1471.125 -363.048)"/>
                <path id="Path_615" fill="#fc8d84" d="M1798.974 441.59l-1.3 3.94c.775 2.88 3.3 4.841 8.054 5.45a11.4 11.4 0 0 1 .589-3.454c1.157-3.677-7.343-5.936-7.343-5.936z" opacity="0.6" transform="translate(-1477.932 -363.048)"/>
                <path id="Path_616" d="M1899.029 398.775a2.219 2.219 0 1 0 3.072-1.6 2.489 2.489 0 0 0-3.072 1.6z" class="cls-14" transform="translate(-1561.033 -326.408)"/>
                <path id="Path_617" d="M1785.542 348.4a21.476 21.476 0 0 0 1.3-5.291c.042-.356.107-.711.178-1.053a11.572 11.572 0 1 0-22.909-2.609 2.509 2.509 0 0 0-2.246-.237c-1.389.576-1.93 2.453-1.209 4.189s2.431 2.668 3.819 2.1a2.213 2.213 0 0 0 .534-.313 10.85 10.85 0 0 0 10.517 10.231 10.647 10.647 0 0 0 10.016-7.017z" class="cls-13" transform="translate(-1447.239 -269.814)"/>
                <path id="Path_618" d="M1854.82 393a7.035 7.035 0 0 0-.372 1.957 5.419 5.419 0 0 0 .036 1.017 2.574 2.574 0 0 0 .356 1.039c.253.325.386.432.423.694a.888.888 0 0 1-.222.683 2.756 2.756 0 0 1-1.6.809 2.238 2.238 0 0 0 1.965-.471 1.349 1.349 0 0 0 .459-1.078 1.65 1.65 0 0 0-.494-.987 2.444 2.444 0 0 1-.286-.79 8.06 8.06 0 0 1-.132-.925c-.069-.648-.094-1.292-.133-1.948z" class="cls-14" transform="translate(-1523.783 -323.1)"/>
                <path id="Path_619" d="M1830.47 393.979a1.008 1.008 0 1 1-.288-.717 1.01 1.01 0 0 1 .288.717z" class="cls-15" transform="translate(-1503.238 -323.067)"/>
                <path id="Path_620" d="M1879.2 397.669a1.008 1.008 0 1 1-.288-.717 1.01 1.01 0 0 1 .288.717z" class="cls-15" transform="translate(-1543.3 -326.101)"/>
                <path id="Path_621" fill="#f99893" d="M1838.81 441.19a3.4 3.4 0 0 1 2.8.372 2.5 2.5 0 0 1 2.627-.041 2.787 2.787 0 0 1-2.953 2.04 2.488 2.488 0 0 1-2.474-2.371z" opacity="0.3" transform="translate(-1511.755 -362.597)"/>
                <path id="Path_622" d="M1831.7 437.47a8.361 8.361 0 0 0 1.779 1.09 6.261 6.261 0 0 0 1.981.534 5.335 5.335 0 0 0 2.028-.226 7.473 7.473 0 0 0 1.861-.928 6.308 6.308 0 0 1-.84.644 5.821 5.821 0 0 1-.953.478 4.99 4.99 0 0 1-1.041.267 5.334 5.334 0 0 1-1.078.029 5.5 5.5 0 0 1-2.046-.61 6.049 6.049 0 0 1-1.691-1.278z" class="cls-14" transform="translate(-1505.909 -359.661)"/>
                <path id="Path_623" d="M1820.735 380.5a10.312 10.312 0 0 0-1.489-.3 5.136 5.136 0 0 0-1.4.02 4.782 4.782 0 0 0-1.336.407c-.331.117-1.129.628-1.337.727a3.391 3.391 0 0 1 4.222-1.761 3.107 3.107 0 0 1 1.343.907z" class="cls-6" transform="translate(-1492.32 -311.917)"/>
                <path id="Path_624" d="M1871.57 383.725a3.094 3.094 0 0 1 1.443-.735 3.4 3.4 0 0 1 1.674.043 3.28 3.28 0 0 1 1.451.843 3.234 3.234 0 0 1 .852 1.375c-.2-.126-.927-.729-1.245-.889a4.733 4.733 0 0 0-1.275-.567 5.119 5.119 0 0 0-1.391-.19 10.335 10.335 0 0 0-1.509.12z" class="cls-6" transform="translate(-1538.688 -314.801)"/>
                <path id="Path_625" fill="#f0a309" d="M1753.456 771.741s-3.107 14.622 10.992 18.094 31.889 3.824 31.889 3.824l.329 34.059 7.42.85s22.144-45.888-3.925-54.935l-23.853-1.387-9.782-1.322s-9.782-3.082-9.926-2.622-2.931 3.688-3.144 3.439z" transform="translate(-1441.343 -631.612)"/>
                <path id="Path_626" d="M1679.746 767.531s-3.107 14.622 10.992 18.094 31.889 3.824 31.889 3.824l.329 34.059 7.42.85s22.144-45.889-3.925-54.935l-23.851-1.389-9.782-1.322s-9.782-3.081-9.927-2.62-2.925 3.681-3.145 3.439z" class="cls-1" transform="translate(-1380.743 -628.151)"/>
                <path id="Path_627" d="M1926.419 897.3c-.406-.073-.813-.142-1.213-.237s-.8-.2-1.19-.32c-.2-.061-.395-.126-.589-.2a4.475 4.475 0 0 0 .6-.178 5.04 5.04 0 0 0 1.089-.559 5.929 5.929 0 0 0 .911-.8 6.057 6.057 0 0 0 .711-.966l-.4.438c-.146.135-.279.279-.43.406a6.015 6.015 0 0 1-.939.7 5.6 5.6 0 0 1-1.046.491 4.087 4.087 0 0 1-1.108.224l-.658.023.585.272a7.657 7.657 0 0 0 1.2.42c.4.112.815.192 1.226.263s.825.124 1.245.155.829.052 1.245.05c-.421-.059-.832-.109-1.239-.182z" class="cls-4" transform="translate(-1580.272 -735.024)"/>
                <path id="Path_628" d="M1873.709 605.527s.96 23.891 3.646 27.633l-14.775-3.36v-26z" class="cls-13" transform="translate(-1531.297 -496.407)"/>
                <path id="Path_629" d="M1717.958 598.594a62.525 62.525 0 0 0-2.43 9.208c-.93 7.931.08 13.518 1.722 18.041 2.3 6.332-16.5 4.03-16.886 3.838s-16.5-6.428-16.5-6.428l-3.072-8.923v-15.736l.864-7.194z" class="cls-7" transform="translate(-1381.841 -486.212)"/>
                <path id="Path_630" d="M1633.728 591.4l11.833 4.029s-2.047 18.933-1.407 21.619c.546 2.3 9.128 6.862 14.565 9.418a5.526 5.526 0 0 0 2.8.509c3.1-.254 8.587-.735 9.45-.793 1.354-.094 5.074 0 5.194.477.112.441-2.906-.044-4.863.356-.276.057-.128.425-.066.427a26.459 26.459 0 0 1 4.592.446c1.078.356-2.735.073-4.8.453-.146.027-.261.436-.156.534.247.242 1.144.453 3.6.711 4.107.42.089.93.089.93s-.368-.107-3.9-.589c-.13-.018-.274.356-.078.519a6.065 6.065 0 0 0 2.19 1.2c1.322.391.356.735.356.735a25.31 25.31 0 0 0-3.913-.85c-1.051-.08-6 .324-8.031.439l-.155-.356c-2.751-.08-24.7-.651-26.818-14.257a99.89 99.89 0 0 1-.482-25.957z" class="cls-13" transform="translate(-1342.646 -486.212)"/>
                <path id="Path_631" d="M1808.2 667.63h-37.7l-10.7 26.1h-18.162a.92.92 0 0 0-.92.92.921.921 0 0 0 .92.92h54.035z" class="cls-10" transform="translate(-1431.111 -548.884)"/>
                <path id="Path_632" d="M1998.5 740.275a1.813 1.813 0 1 1-1.359-2.367 1.939 1.939 0 0 1 1.359 2.367z" class="cls-4" transform="translate(-1640.109 -606.637)"/>
                <path id="Path_633" d="M1665.721 489.7s-7.161 8.36-15.38-1.779c0 0-8.979-.731-15.6 3.97s-10.583 15.261-10.583 15.261 11.992 6.047 14.967 6.332h33.291a29.529 29.529 0 0 0 9.978-2.878s-.841-16.783-16.673-20.906z" class="cls-7" transform="translate(-1335.283 -401.103)"/>
                <path id="Path_634" d="M1643.5 563.929c-.31 1.035-.587 2.081-.863 3.127-.518 2.054-.993 4.011-1.339 6.111a11.178 11.178 0 0 1-2.022-.156 39.122 39.122 0 0 1-8.808-2.846c-4.612-2.1-3.99-1.9-6.312-3.045a60.736 60.736 0 0 0 6.12 3.461 33.757 33.757 0 0 0 8.9 3.047 8.759 8.759 0 0 0 2.643.1c.235-1.542.5-3.12 1.245-6.581l.685-3.164.712-3.164c-.347 1.034-.651 2.073-.961 3.11z" class="cls-10" transform="translate(-1335.283 -461.071)"/>
                <path id="Path_635" d="M1880.59 547.21q.711 1.841 1.277 3.7a32.475 32.475 0 0 1 .925 3.771 17.8 17.8 0 0 1 .3 3.835 51.91 51.91 0 0 1-2.506 8.505 38.656 38.656 0 0 0 3-8.466 13.863 13.863 0 0 0-.178-3.986 20.867 20.867 0 0 0-1.081-3.817 20.173 20.173 0 0 0-1.738-3.545z" class="cls-10" transform="translate(-1546.104 -449.882)"/>
                <path id="Path_636" d="M1765.084 310.765s12.3-2.969 18.177-11.326c0 0 .1-7.611-11.189-5.885-10.972 1.679-13.541 12.356-6.988 17.211z" class="cls-6" transform="translate(-1448.212 -241.132)"/>
                <rect id="Rectangle_372" width="387.286" height="5.044" fill="#c4dfe8" rx="2.522" transform="translate(53.608 335.566)"/>
                <path id="Path_637" fill="#f7bd4a" d="M288.2 757.042l73.975-42.312 10 19.807-75.695 40.045z" transform="translate(-236.94 -587.606)"/>
                <path id="Path_638" d="M1048.314 275s-.585 5.754-5.124 6.152c4.539.4 5.124 6.15 5.124 6.15s.583-5.754 5.122-6.15c-4.542-.398-5.122-6.152-5.122-6.152z" class="cls-7" transform="translate(-857.646 -226.088)"/>
                <path id="Path_639" d="M599.395 26.5s-.777 7.664-6.824 8.194c6.047.534 6.824 8.194 6.824 8.194s.777-7.664 6.825-8.194c-6.048-.53-6.825-8.194-6.825-8.194z" class="cls-9" transform="translate(-487.174 -31.787)"/>
                <path id="Path_640" d="M431.591 411.87s-.523 5.146-4.591 5.5c4.061.356 4.584 5.5 4.584 5.5s.521-5.146 4.582-5.5c-4.054-.354-4.575-5.5-4.575-5.5z" class="cls-24" transform="translate(-351.053 -338.614)"/>
                <path id="Path_641" d="M2367.524 1005.17s-.777 7.664-6.824 8.194c6.047.534 6.824 8.192 6.824 8.192s.777-7.662 6.825-8.192c-6.049-.53-6.825-8.194-6.825-8.194z" class="cls-24" transform="translate(-1940.82 -826.388)"/>
                <path id="Path_642" d="M6.825 722.8s-.778 7.664-6.825 8.194c6.047.534 6.825 8.192 6.825 8.192s.777-7.662 6.825-8.192c-6.05-.53-6.825-8.194-6.825-8.194z" class="cls-7" transform="translate(0 -594.241)"/>
                <path id="Path_643" d="M2496.715 668.67s-.777 7.662-6.824 8.192c6.047.534 6.824 8.194 6.824 8.194s.777-7.664 6.826-8.194c-6.049-.53-6.826-8.192-6.826-8.192z" class="cls-7" transform="translate(-2047.032 -549.739)"/>
                <path id="Path_644" d="M1474.335 0s-.777 7.664-6.825 8.194c6.047.534 6.825 8.192 6.825 8.192s.777-7.662 6.824-8.192c-6.047-.53-6.824-8.194-6.824-8.194z" class="cls-24" transform="translate(-1206.495)"/>
                <path id="Path_645" d="M2217.15 330.74s-.424 4.84-3.71 5.174c3.287.334 3.71 5.174 3.71 5.174s.421-4.84 3.708-5.174c-3.286-.325-3.708-5.174-3.708-5.174z" class="cls-9" transform="translate(-1819.752 -271.914)"/>
            </g>
        </g>
    </g>
</svg>
