<svg xmlns="http://www.w3.org/2000/svg" width="163.32" height="120.077" viewBox="0 0 163.32 120.077">
    <defs>
        <style>
            .cls-3{fill:#e93c23}.cls-4{fill:#2162c1}.cls-6{fill:#62c0eb}
        </style>
    </defs>
    <g id="Group_50" transform="translate(-1494.68 -703.923)">
        <g id="emoji_events-24px" transform="translate(1527.5 714)">
            <path id="Rectangle_51" fill="none" d="M0 0H110V110H0z" transform="translate(.5)"/>
            <path id="Path_237" fill="#fa0" d="M76.333 12.167h-9.166V7.583A4.6 4.6 0 0 0 62.583 3H25.917a4.6 4.6 0 0 0-4.583 4.583v4.583h-9.167A9.194 9.194 0 0 0 3 21.333v4.583a22.878 22.878 0 0 0 20.121 22.642 22.959 22.959 0 0 0 16.546 13.567v14.208h-13.75a4.6 4.6 0 0 0-4.583 4.583 4.6 4.6 0 0 0 4.583 4.584h36.666a4.6 4.6 0 0 0 4.583-4.583 4.6 4.6 0 0 0-4.583-4.583h-13.75V62.125a22.959 22.959 0 0 0 16.546-13.567A22.878 22.878 0 0 0 85.5 25.917v-4.584a9.194 9.194 0 0 0-9.167-9.166zm-64.166 13.75v-4.584h9.167v17.509a13.8 13.8 0 0 1-9.167-12.925zm64.167 0a13.8 13.8 0 0 1-9.167 12.925V21.333h9.167z" transform="translate(10.554 10.75)"/>
        </g>
        <g id="winner_" transform="translate(1433.972 647.093)">
            <path id="Path_265" d="M75.568 102.877c-.879-2.177-2.547-5.171-5.332-4.885a2.875 2.875 0 0 0-2.422 1.891c-.489 1.354 0 2.673.3 4.006.077.384.489 1.752.154 2.094s-1.019-.782-1.3-1.145a4.955 4.955 0 0 0-2.792-2.094c-3.113-.7-3.992 2.91-3.189 5.192.53 1.514 2.952.865 2.422-.7-.161-.461-.544-1.528-.056-1.926s.907.161 1.256.53a22.883 22.883 0 0 0 1.654 2 2.628 2.628 0 0 0 4.048-.279c.97-1.473.44-3.489.063-5.039-.2-.824-.607-2.582.858-1.815.914.482 1.57 1.947 1.926 2.833.581 1.514 3.01.865 2.41-.663z" class="cls-3" transform="translate(0 -22.43)"/>
            <path id="Path_266" d="M110.5 56.83c-4.041 0-4.048 6.281 0 6.281s4.052-6.281 0-6.281z" class="cls-4" transform="translate(-14.125)"/>
            <path id="Path_267" d="M285.7 81.834c-2.024-2.094-5.22 1.1-3.2 3.2a13.5 13.5 0 0 1 3.2 13.466c-.844 2.792 3.489 3.985 4.362 1.2a18.1 18.1 0 0 0-4.362-17.866z" class="cls-4" transform="translate(-66.81 -7.348)"/>
            <path id="Path_268" fill="#fec617" d="M278.048 149.111a3.266 3.266 0 0 0-2.219-.921h-.377a3.238 3.238 0 0 0-2.219.921 3.141 3.141 0 0 0 0 4.439 3.266 3.266 0 0 0 2.219.921h.377a3.238 3.238 0 0 0 2.219-.921 3.141 3.141 0 0 0 0-4.439z" transform="translate(-190.928 -49.601)"/>
            <path id="Path_269" d="M105.158 111.6a3.266 3.266 0 0 0-2.219-.921h-.377a3.238 3.238 0 0 0-2.219.921 3.141 3.141 0 0 0 0 4.439 3.266 3.266 0 0 0 2.219.921h.377a3.238 3.238 0 0 0 2.219-.921 3.141 3.141 0 0 0 0-4.439z" class="cls-3" transform="translate(106.304 3.731)"/>
            <path id="Path_270" d="M280.478 172.463l-8.933-7.586a3.224 3.224 0 0 0-4.439 0 3.166 3.166 0 0 0 0 4.439l8.933 7.586a3.224 3.224 0 0 0 4.439 0 3.166 3.166 0 0 0 0-4.439z" class="cls-6" transform="translate(-72.08 -22.374)"/>
            <path id="Path_271" d="M102.989 191.734c-.37.2-1.305.3-1-.293.1-.2.489-.342.7-.461a5.841 5.841 0 0 0 1.473-1.235 2.582 2.582 0 0 0 .112-3.266 4.616 4.616 0 0 0-3.42-1.319c-.489-.042-1.612.049-1.954-.4-.586-.768.516-1.521 1.124-1.766 1.6-.649.9-3.28-.7-2.624-1.912.775-3.7 2.394-3.21 4.683.537 2.505 2.98 2.582 5.025 2.847 1.256.161.7.377 0 .837a7.678 7.678 0 0 0-1.214.928 2.826 2.826 0 0 0-.754 2.666c.621 2.3 3.371 2.75 5.213 1.752 1.536-.835.161-3.183-1.395-2.349z" class="cls-6" transform="translate(-10.672 -37.289)"/>
        </g>
    </g>
</svg>
