<svg xmlns="http://www.w3.org/2000/svg" width="38" height="38" viewBox="0 0 38 38">
    <path fill="none" d="M0 0h38v38H0z"/>
    <path fill="#2162c1" d="M6.7 18.955V23.4a3.184 3.184 0 0 0 1.647 2.787l7.917 4.322a3.144 3.144 0 0 0 3.04 0l7.917-4.322a3.184 3.184 0 0 0 1.642-2.787v-4.445L19.3 24.18a3.144 3.144 0 0 1-3.04 0zM16.259 3.66L2.912 10.943a1.594 1.594 0 0 0 0 2.787l13.347 7.283a3.144 3.144 0 0 0 3.04 0l12.73-6.951v9.358a1.583 1.583 0 1 0 3.167 0V13.271a1.592 1.592 0 0 0-.823-1.393L19.3 3.66a3.23 3.23 0 0 0-3.04 0z" transform="translate(1.221 1.913)"/>
</svg>
