<svg xmlns="http://www.w3.org/2000/svg" width="177.539" height="202" viewBox="0 0 177.539 202">
    <defs>
        <linearGradient id="j62fyb2qia" x1=".5" x2=".5" y1="1" gradientUnits="objectBoundingBox">
            <stop offset="0" stop-color="#c3ffe8"/>
            <stop offset=".997" stop-color="#f0fff4"/>
        </linearGradient>
        <linearGradient id="l7uhuo7e5b" x1=".5" x2=".5" y1="1" gradientUnits="objectBoundingBox">
            <stop offset="0" stop-color="#00b59c"/>
            <stop offset="1" stop-color="#9cffac"/>
        </linearGradient>
    </defs>
    <g>
        <path fill="url(#j62fyb2qia)" d="M147.033 210.128a11.79 11.79 0 0 1-4.28-.8c-8.59-3.333-25.13-10.812-39.391-23.464C85.206 169.756 76 150.5 76 128.641V74.156a11.873 11.873 0 0 1 5.9-10.238A35.916 35.916 0 0 0 94.919 50.9a11.873 11.873 0 0 1 10.237-5.9h83.718a11.872 11.872 0 0 1 10.238 5.9 35.916 35.916 0 0 0 13.022 13.022 11.873 11.873 0 0 1 5.9 10.238v54.484c0 21.913-9.176 41.174-27.275 57.247-14.264 12.668-30.85 20.129-39.468 23.449a11.791 11.791 0 0 1-4.255.791z" transform="translate(-31) translate(-27.246 -27.246)"/>
        <g>
            <g>
                <path fill="url(#l7uhuo7e5b)" d="M202.621 23.672a17.774 17.774 0 0 1-17.754-17.754A5.918 5.918 0 0 0 178.949 0H60.59a5.918 5.918 0 0 0-5.918 5.918 17.774 17.774 0 0 1-17.754 17.754A5.918 5.918 0 0 0 31 29.59v71.8a87.887 87.887 0 0 0 13.871 47.932c7.282 11.443 17.386 21.825 30.033 30.858C93.937 193.78 116.528 202 119.77 202c3.073 0 25.557-8.023 44.866-21.815 12.647-9.034 22.751-19.416 30.033-30.859a87.89 87.89 0 0 0 13.871-47.932V29.59a5.918 5.918 0 0 0-5.919-5.918zm-17.754 77.723c0 20.149-8.508 37.921-25.287 52.822-13.566 12.048-29.422 19.176-37.666 22.352a5.918 5.918 0 0 1-4.268 0c-8.219-3.189-24.034-10.335-37.6-22.373-16.835-14.936-25.372-32.7-25.372-52.8V46.91a5.917 5.917 0 0 1 2.948-5.119 41.848 41.848 0 0 0 15.17-15.171 5.917 5.917 0 0 1 5.119-2.948h83.718a5.918 5.918 0 0 1 5.119 2.948 41.845 41.845 0 0 0 15.171 15.171 5.919 5.919 0 0 1 2.948 5.119zm-65.1-47.344A41.426 41.426 0 1 0 161.2 95.477a41.473 41.473 0 0 0-41.43-41.426zm17.2 36.734l-17.747 17.753a5.918 5.918 0 0 1-8.369 0l-8.877-8.877a5.918 5.918 0 0 1 8.369-8.369l4.693 4.692L128.6 82.415a5.918 5.918 0 1 1 8.369 8.369z" transform="translate(-31) translate(31) translate(-31)"/>
            </g>
        </g>
    </g>
</svg>
