<svg xmlns="http://www.w3.org/2000/svg" xmlns:xlink="http://www.w3.org/1999/xlink" width="301" height="170" viewBox="0 0 301 170">
    <defs>
        <path id="prefix__a" d="M0 0H368V178H0z"/>
    </defs>
    <g fill="none" fill-rule="evenodd" transform="translate(-20 -8)">
        <mask id="prefix__b" fill="#fff">
            <use xlink:href="#prefix__a"/>
        </mask>
        <path fill="#FFF" d="M20.082 113.616c2.296 3.084 5.265 5.746 8.164 8.272.417.363 1.033-.24.614-.605-2.84-2.472-5.782-5.079-8.029-8.099-.327-.438-1.08-.013-.749.432" mask="url(#prefix__b)"/>
        <path fill="#FFF" d="M28.298 114.137c-2.477 2.918-5.201 5.696-8.163 8.193-.407.344.197.906.604.563 2.96-2.498 5.684-5.276 8.161-8.193.338-.397-.262-.964-.602-.563M76.245 58.234c-1.719 5.124-3.508 10.23-5.228 15.354-.138.413.6.59.738.178 1.72-5.124 3.508-10.23 5.228-15.355.138-.412-.6-.588-.738-.177" mask="url(#prefix__b)"/>
        <path fill="#FFF" d="M76.086 58.587c6.121 7.09 12.38 14.084 18.35 21.3.259.312.686-.086.531-.409-.274-.571-.151-.421-.656-.812-.34-.262-.822.211-.479.476l.551.676.531-.408c-5.97-7.216-12.228-14.21-18.35-21.299-.284-.33-.76.149-.478.476" mask="url(#prefix__b)"/>
        <path fill="#FFF" d="M73.235 73.714c7.474 2.02 14.97 3.882 22.359 6.27.407.131.58-.571.175-.702-7.389-2.388-14.885-4.25-22.36-6.27-.41-.111-.586.59-.174.702" mask="url(#prefix__b)"/>
        <path fill="#FFF" d="M73.27 68.668c3.061.54 5.414 2.965 4.933 5.901-.07.432.652.618.724.183.538-3.29-1.95-6.126-5.458-6.745-.471-.083-.672.578-.199.661M44.064 144.262c2.498 4.185 5.343 8.035 8.578 11.604.307.339.725-.027.673-.416l-1.192-8.955c-.246-1.854-.725-2.855 1.005-3.784 1.177-.63 2.912-.765 4.195-1.1l8.386-2.202c1.148-.3 2.428-.872 3.594-.943.74-.536 1.37-.465 1.888.213l.004 2.507c0 .55.806.551.805 0l-.005-3.76c0-.284-.256-.479-.51-.413l-20.367 5.345c-.23.06-.311.302-.282.526l1.702 12.794.674-.417c-3.186-3.514-5.994-7.31-8.452-11.431-.277-.464-.974-.035-.696.432" mask="url(#prefix__b)"/>
        <path fill="#FFF" d="M59.22 146.764c4.049 1.822 7.736 4.194 11.041 7.124.406.36 1.011-.23.603-.592-3.358-2.976-7.097-5.403-11.212-7.254-.496-.223-.93.498-.431.722" mask="url(#prefix__b)"/>
        <path fill="#FFF" d="M67.186 143.295c-1.048 4.512-2.43 8.907-4.155 13.21-.198.493.606.708.801.219 1.725-4.303 3.107-8.697 4.156-13.21.12-.516-.682-.736-.802-.219M230.263 141.098c-4.706 3.74-9.413 7.477-14.12 11.216-.42.334.176.919.593.588l14.12-11.216c.42-.334-.175-.919-.593-.588M220 138.193c-.558 1.107-1.104 2.958.167 3.681 1.076.613 1.754-1.16 1.826-2.265.085-1.308-.667-2.726-1.79-2.601-.952.104-1.556 1.598-.976 2.605.264.458.871.013.604-.45-.35-.608.093-1.408.663-1.249.646.181.884 1.078.784 1.818-.078.583-.58 2.01-1.1 1.028-.356-.674.143-1.555.426-2.117.245-.484-.36-.932-.603-.45M224.362 152.938c-.296.426-.373.968-.195 1.459.183.5.484.615.988.602.898-.022 1.827-.602 1.845-1.582.015-.831-.682-1.605-1.549-1.376-.886.234-1.275 1.328-1.443 2.126-.083.394.52.562.603.166.106-.503.267-1.07.635-1.449.4-.412.981-.272 1.107.305.133.609-.36 1.041-.913 1.151-.13.026-.278.049-.409.032-.216-.028-.098.06-.24-.1-.235-.268-.052-.783.11-1.018.231-.331-.31-.645-.54-.316" mask="url(#prefix__b)"/>
        <g mask="url(#prefix__b)">
            <g transform="translate(121 8)">
                <path fill="#E4EAEF" fill-rule="nonzero" d="M73.915 111.139c-3.386-.381-6.813.025-10.021 1.189-1.56.65-3.742 2.295-3.884 4.135-.164 2.068 1.794 3.826 3.17 5.046 2.26 1.95 4.9 3.396 7.748 4.239 4.048 1.134 8.268 1.502 12.448 1.086.966.042 1.903-.334 2.58-1.034.367-.483.627-1.04.764-1.634.866-3.277-.377-6.855-2.365-9.491-1.988-2.637-5.271-3.237-8.289-3.474-.744.03-1.427-.021-2.15-.062z"/>
                <path fill="#592918" fill-rule="nonzero" d="M26.725 12.158c-.254.528-.478 1.068-.672 1.62-1.59 4.45-1.59 9.75 1.466 13.574 2.414 3.004 5.949 4.101 9.636 4.511 8.78.913 17.398-2.87 24.833-7.638 2.5-1.459 4.735-3.334 6.611-5.546 4.074-5.239 2.832-11.719-2.73-15.204-2.401-1.404-5.045-2.336-7.792-2.748C50.947-.565 42.92-.298 36.218 2.86c-4.123 1.922-7.472 5.202-9.493 9.298z"/>
                <path fill="#F5AD94" fill-rule="nonzero" d="M87.387 126.122c.182-.104.396-.143.604-.111 4.536.318 8.88 1.896 12.513 4.544 5.683 3.938 10.323 9.442 15.338 14.138 3.066 2.969 6.34 5.756 9.385 8.695 3.044 2.938 6.256 6.443 10.083 8.684 1.026.655 2.246.964 3.472.88 1.515-.3 2.915-1 4.046-2.02 4.433-3.413 8.647-7.086 12.616-10.998 2.086-2.02 4.08-4.086 5.986-6.2l4.786-5.221s4.775 5.049 3.597 7.402c-1.293 2.524-4.254 5.15-6.256 7.23-2.273 2.424-4.588 4.827-6.913 7.21-2.732 2.808-5.468 5.599-8.207 8.372-2.085 2.09-4.056 4.969-6.986 5.959-3.66 1.232-7.215-1.414-9.937-3.484-4.17-3.171-8.164-6.544-12.127-9.947-7.924-6.8-15.546-13.916-22.866-21.349-3.045-3.03-9.833-8.29-9.51-13.128.013-.263.152-.506.376-.656z"/>
                <path fill="#592918" fill-rule="nonzero" d="M43.748 81.996c1.004.082 1.165-1.12 1.225-2.383.613-13.356-2.009-26.712-1.004-40.068.361-5.137 2.009-9.544 2.923-14.547.227-.747.092-1.56-.362-2.189-.33-.29-.734-.479-1.165-.544-5.545-1.284-12.245 2.312-16.132 6.226-7.845 7.88-7.343 21.266-3.646 31.047 1.627 4.828 4.294 9.22 7.805 12.852 2.13 2.127 4.45 4.048 6.64 6.164.873.833 2.219 2.939 3.264 3.38.147.043.299.064.452.062z"/>
                <path fill="#748196" fill-rule="nonzero" d="M104.688 130.725c6.921 6.717 13.182 14.064 19.813 21.05 2.249 2.373 4.508 4.736 6.87 6.986 1.186 1.125 2.392 2.218 3.64 3.27 1.032.826 2.27 2.25 3.713 1.724 1.07-.518 2.043-1.216 2.878-2.064 1.763-1.578 5.219-5.159 5.219-5.159s3.424 2.064 4.93 3.096c1.506 1.031 4.249 3.095 4.249 3.095l-3.228 3.416c-2.847 3.044-5.59 6.19-8.664 8.987-.885.882-1.884 1.642-2.97 2.26-1.53.726-3.286.812-4.879.237-4.486-1.444-7.952-4.777-11.211-8.007-8.591-8.492-17.998-16.334-24.99-26.189-2.161-3.1-4.138-6.325-5.92-9.658-.803-1.753-1.705-3.459-2.703-5.108-.887-1.248-1.908-2.394-2.785-3.684-.484-.712-.959-1.713-.392-2.363.28-.273.643-.444 1.032-.485 3.094-.608 6.095 1.032 8.633 2.797l.422.31c2.239 1.68 4.358 3.515 6.343 5.489z"/>
                <path fill="#592918" fill-rule="nonzero" d="M98.632 71.603c-1.282-2.575-2.363-5.239-3.234-7.97-1.142-3.535-1.142-7.693-1.174-11.362-.053-6.114-.877-10.7-4.28-15.805-3.004-4.475-6.822-8.39-11.27-11.556-3.033-2.17-6.574-4.3-7.673-7.796-.096-.296 12.018.061 13.086.204 7.558 1.019 15.317 3.291 21.035 8.397 6.935 6.196 7.474 16.09 6.512 24.712-.525 3.924-1.295 7.813-2.304 11.648-.645 2.67-1.3 5.34-1.945 8.02-.47 2.235-1.178 4.417-2.115 6.511-.18.503-.53.933-.993 1.223-1.216.642-2.537-.652-3.235-1.803-.86-1.434-1.663-2.908-2.41-4.423z"/>
                <path fill="#474A5C" fill-rule="nonzero" d="M97.184 177.265c-1.543-6.98 0-13.837 2.807-20.25 1.275-2.89 3.024-5.317 3.65-8.518.643-3.216.419-6.545-.647-9.645-.598-1.596-1.313-3.146-2.14-4.636-1.576-2.946-3.221-5.837-4.935-8.674-.75-1.562-1.727-3.003-2.9-4.275-1.748-1.559-3.455-1.3-5.605-1.156-3.342.237-6.694.465-10.047.403-4.669-.09-9.344-.09-14.027 0-2.324.051-4.74.35-7.054.196-3.48-.27-6.973-.319-10.459-.145-.833.124-1.409 8.664-1.522 9.572-.658 5.545-.164 9.294.648 15.427.648 4.874 5.029 9.386 6.458 13.92 1.413 4.554 1.9 9.347 1.43 14.094-.21 2.244-.627 4.463-1.245 6.63-.733 2.105-1.698 4.12-2.879 6.01-.09.133-.132.293-.123.454.032.126.1.24.195.33 1.235 1.307 2.821 2.225 4.566 2.643 3.47.761 7.01 1.163 10.561 1.198 4.948.24 9.906.205 14.85-.103 5.717-.248 11.507-.32 17.02-2.065 1.238-.344 2.424-.855 3.526-1.518.192-.094.35-.246.453-.434.102-.266.102-.56 0-.826-.648-2.344-1.388-4.667-2.057-6.99-.257-.507-.4-1.074-.524-1.642z"/>
                <path fill="#F5AD94" fill-rule="nonzero" d="M64.77 128.292c3.374 4.566 6.26 11.336 12.673 10.661.346-.016.688-.08 1.017-.19 1.758-.685 1.981-2.52 2.805-4.028.935-1.719 2.032-3.364 3.049-5.125 1.077-2.003 3.973-7.708 2.032-9.933-1.168-1.318-3.15-1.434-4.34-3.006-1.043-1.458-1.701-3.173-1.91-4.977-.28-2.48-.381-4.98-.305-7.476v-7.15c0-.147-13.476 0-13.476-.063 0 5.125 2.164 14.837-.732 19.276-.676.95-1.557 1.723-2.571 2.257-1.017.58-1.748 1.772-2.978 1.73-.285 1.212 1.3 3.036 1.9 3.964.864 1.392 1.85 2.731 2.836 4.06zM110.452 64.61c4.33 4.531 3.288 16.49-4.254 17.339-7.542.848-6.676-9.018-5.218-13.613.767-2.383 1.984-4.767 4.769-5.239 1.73-.342 3.517.233 4.703 1.514z"/>
                <path fill="#E0896D" fill-rule="nonzero" d="M104.62 70.507c.64-1.261 2.28-2.803 3.93-2.458.335.083.645.24.904.458 2.073 1.626 1.847 4.495.58 6.542-.59 1.02-1.634 1.728-2.84 1.925-3.644.42-3.644-4.383-2.573-6.467z"/>
                <path fill="#231F20" fill-rule="nonzero" d="M65.776 111.56c.292-4.908-.776-10.845-.776-14.535 0 0 14.31-.089 14.31.068v7.58c-.07 2.647.038 5.296.323 7.927.094.57.217 1.133.367 1.689-1.015.38-2.074.616-3.149.704-2.474.073-4.93-.443-7.182-1.51-1.33-.566-2.63-1.208-3.893-1.922z" opacity=".1"/>
                <path fill="#F5AD94" fill-rule="nonzero" d="M36.53 64.714c-4.32 4.76-3.24 17.335 4.264 18.231 7.504.897 6.705-9.486 5.237-14.313-.756-2.501-1.987-5.003-4.784-5.534-1.74-.352-3.533.262-4.718 1.616z"/>
                <path fill="#E0896D" fill-rule="nonzero" d="M44.393 70.776c-.645-1.398-2.306-3.061-3.909-2.734-.34.093-.654.268-.918.51-2.101 1.805-1.866 4.999-.596 7.284.612 1.143 1.693 1.93 2.931 2.132 3.538.49 3.538-4.856 2.492-7.192z"/>
                <path fill="#F5AD94" fill-rule="nonzero" d="M50 95.44c-6.433-6.993-6.898-15.382-5.07-24.283.997-5.091 1.55-10.258 1.652-15.444.197-6.091 1.983-12.542 7.777-17.003 7.528-5.794 17.845-7.178 28.08-6.583 5.256.307 10.895 1.343 15.057 3.948 3.584 2.278 5.74 6.224 5.71 10.45.259 6.368-1.3 13.546.754 19.771.754 2.297 2.365 4.38 3.223 6.656 2.065 5.568-.073 11.506-3.192 16.582-4.636 7.548-11.298 12.993-18.836 17.505-2.307 1.572-4.953 2.584-7.725 2.953-2.367.075-4.718-.4-6.868-1.384-3.841-1.559-7.229-3.876-10.854-5.866-3.609-1.901-6.886-4.367-9.707-7.301z"/>
                <path fill="#231F20" fill-rule="nonzero" d="M53.242 36.152c7.35-6.175 17.447-7.65 27.453-7.017 5.14.328 10.652 1.432 14.721 4.208 3.505 2.428 5.613 6.634 5.584 11.138V48c-1.464-.678-2.928-1.377-4.342-1.913-3.322-1.31-6.714-2.406-10.157-3.279-7.35-1.76-15.145-2.24-22.657-3.585l-1.636-.306c-3.139-.537-6.222-1.4-9.208-2.58l.242-.185z" opacity=".1"/>
                <path fill="#E0896D" fill-rule="nonzero" d="M78.104 83.567c-.26-.327 0-.666.42-.91.293-.163.598-.307.912-.432 1.25-.62 2.104-1.772 2.295-3.093-.015-.364.128-.718.395-.98.158-.098.342-.15.53-.152 1.189-.008 2.194.832 2.332 1.949.118 1.321-.644 2.573-1.912 3.14-1.134.591-2.407.904-3.702.91-.376.015-.747-.083-1.06-.28-.082-.036-.153-.088-.21-.152z"/>
                <path fill="#6B3D29" fill-rule="nonzero" d="M65.46 39.347l-1.696-.162c-6.21-.627-15.152-1.72-18.143-8.09-.392-.811-.603-1.693-.621-2.59 0-9.101 14.282-12.641 21.34-13.753 11.31-1.762 22.9-.413 33.47 3.893 5.89 2.407 11.923 5.684 16.477 10.113 2.784 2.7 5.392 6.523 4.554 10.569-.973 4.672-6.841 7.16-11.292 6.594-3.332-.435-6.8-2.023-10.06-2.832-3.487-.941-7.03-1.677-10.607-2.205-7.649-1.031-15.618-.88-23.421-1.537z"/>
                <path fill="#9A543B" fill-rule="nonzero" d="M65 50.77c-1.08-.418-2.266-.535-3.414-.337-1.05.16-2.077.438-3.058.827-.991.367-1.94.827-2.833 1.375-.995.616-1.842 1.422-2.487 2.365-.443-1.343-.17-2.804.734-3.923.87-1.126 2.066-1.991 3.444-2.49 1.384-.574 2.921-.732 4.403-.452 1.51.24 2.75 1.257 3.211 2.634zM87 52.512c.329-1.486 1.428-2.682 2.879-3.132 1.443-.507 3.015-.507 4.458 0 1.41.487 2.633 1.401 3.502 2.616.86 1.148 1.265 2.574 1.138 4.004-.926-.78-1.902-1.5-2.922-2.153-.864-.56-1.79-1.014-2.76-1.356-.944-.324-1.927-.52-2.922-.582-1.157-.08-2.315.128-3.373.603z"/>
                <ellipse cx="54.121" cy="75.357" fill="#F4866C" fill-rule="nonzero" rx="3.416" ry="4.539" transform="rotate(-82.39 54.12 75.357)"/>
                <path fill="#F4866C" fill-rule="nonzero" d="M101.98 74.854c.235 1.907-1.572 3.73-4.048 4.086-2.475.356-4.676-.901-4.911-2.808-.236-1.906 1.571-3.729 4.047-4.074 2.475-.346 4.676.9 4.911 2.796z"/>
                <path fill="#6B3D29" fill-rule="nonzero" d="M47.113 65.29c2.978-5.842 4.745-11.255 6.902-17.442 1.99-5.342 2.496-11.118 1.463-16.72-.926-4.431-4.135-9.3-9.27-9.123-10.784.355-10.857 13.898-9.742 21.642.543 3.716 1.605 7.34 3.156 10.764.78 1.714 1.665 3.38 2.652 4.984.841 1.359 1.241 1.652 2.22 3.292.326.565 2.02 2.843 1.778 3.313.2-.314.652-.397.841-.71z"/>
                <path fill="#60322D" fill-rule="nonzero" d="M88 86.283c-.226 1.545-.614 3.062-1.157 4.524-.576 1.593-1.628 2.964-3.01 3.922-1.459.896-3.148 1.33-4.852 1.245-3.691.227-7.318-1.059-10.064-3.57-1.269-1.221-2.361-2.618-3.245-4.15-.4-.674-.676-1.432-1.024-2.075-.282-.656-.65-1.27-1.095-1.826L63 84c4.566 2.667 10.238 3.113 15.356 2.355 1.638-.238 3.512-.705 5.119-.238 1.425.483 2.95.576 4.423.27"/>
                <g fill="#FFF" fill-rule="nonzero">
                    <path d="M9.73 6.957c-2.675-.03-5.277-.947-7.45-2.628-.863-.693-1.018-1.5-1.695-2.401-.21-.302-.13-.73 0-1.139.13-.41 3.41 1.214 3.75 1.139 3.243-.553 3.39-.267 6.665 0 3.3.15 5.75-.377 9.08 0 .578.026 1.105.152 1.586.499 1 .872.624-.058.314.922-.207.818-.575 1.579-1.08 2.23-.668.666-1.502 1.108-2.4 1.27-1.364.28-2.755.366-4.14.259-1.51-.043-3.08-.033-4.63-.151z" transform="translate(64 86)"/>
                    <path d="M18.87 12.438c1.175-.452 1.933-1.684 1.86-3.026-.155-.694-.441-1.346-.84-1.917-.107-.181-.235-.348-.38-.495-.2-.17-.426-.298-.67-.377-1.049-.304-2.136-.42-3.22-.345l-8.26.108c-.505-.008-1.01.028-1.51.108-.625.084-1.209.378-1.67.84-.462.472-.653 1.175-.5 1.841.27.98 1.15 1.077 1.83 1.648.73.64 1.56 1.137 2.45 1.465 1.96.523 3.982.737 6 .635 1.65.084 3.302-.079 4.91-.485z" transform="translate(64 86)"/>
                </g>
                <path fill="#F2757C" fill-rule="nonzero" d="M91 86.486c-.773.958-1.817 1.733-3.034 2.253-.64.31-1.339.52-2.064.619-.738.097-1.486.118-2.23.062-.68 0-1.516-.195-1.795-.186-.477.004-.953.04-1.424.106l-1.703.274c-.62.106-1.31.186-1.95.256-2.656.272-5.348.116-7.937-.46-2.627-.535-5.013-1.717-6.863-3.401 2.41.395 4.854.614 7.307.654 2.34.023 4.68-.077 7.007-.3.588-.054 1.146-.107 1.755-.186.609-.08 1.28-.15 2.064-.168.775-.032 1.552.022 2.311.159.628.145 1.245.322 1.848.53.498.147 1.009.262 1.527.345.524.068 1.056.068 1.58 0 1.222-.056 2.433-.243 3.601-.557z"/>
                <path fill="#F2757C" fill-rule="nonzero" d="M86.887 87.947c.188 1.597.141 3.216-.14 4.798-.31 1.77-1.122 3.395-2.326 4.66-.636.689-1.388 1.245-2.217 1.637-.807.38-1.662.63-2.537.745-.778.115-1.561.186-2.347.213-.818.004-1.636-.057-2.446-.181-1.623-.26-3.19-.818-4.634-1.649-1.438-.853-2.698-2.007-3.705-3.394-.968-1.282-1.743-2.718-2.297-4.255-.29-.83-.43-1.574-.609-2.276-.16-.763-.37-1.513-.629-2.245.603.47 1.138 1.034 1.588 1.67.53.628.909 1.32 1.348 1.809.871 1.097 1.83 2.111 2.866 3.032 1.908 1.707 4.225 2.812 6.69 3.191 1.26.194 2.536.248 3.806.16 1.105.029 2.193-.293 3.125-.926 1.03-.714 1.882-1.68 2.487-2.819.729-1.394 1.328-2.734 1.977-4.17z"/>
                <path fill="#592918" fill-rule="nonzero" d="M110 43c-2.44-4.254-6.097-7.626-10.47-9.654-4.328-1.95-8.979-3.03-13.7-3.18-4.776-.192-9.557.135-14.266.975-4.762.742-9.71 1.558-14.564.88 4.875-.212 9.524-1.463 14.276-2.501 2.375-.555 4.779-.972 7.2-1.25 2.46-.255 4.935-.33 7.405-.223 5.007.16 9.917 1.459 14.379 3.804 4.457 2.369 7.92 6.334 9.74 11.149z"/>
                <path fill="#592918" fill-rule="nonzero" d="M112 33c-3.847-3.617-8.252-6.549-13.035-8.676-4.798-1.897-9.87-2.956-15.006-3.135-1.275-.097-2.571 0-3.857 0s-2.571.109-3.846.272c-2.57.242-5.119.67-7.63 1.28-2.536.601-5.032 1.373-7.47 2.31-2.443.945-4.832 2.032-7.156 3.253 2.128-1.63 4.396-3.056 6.776-4.262 2.374-1.2 4.842-2.193 7.376-2.972 5.124-1.568 10.465-2.254 15.807-2.028 5.38.189 10.672 1.464 15.575 3.752C104.37 25.205 108.629 28.691 112 33zM47.717 28c.751 2.431 1.171 4.928 1.25 7.441.106 2.487-.045 4.977-.45 7.442-.408 2.474-1.065 4.914-1.964 7.292C45.678 52.557 44.485 54.847 43 57l1.651-7.271c.513-2.392 1.001-4.773 1.377-7.165.375-2.392.713-4.805.988-7.218l.7-7.346zM38.815 31c.107 1.725.107 3.388.117 5.05v4.945L39 45.95V51c-.696-1.546-1.201-3.184-1.502-4.871-.311-1.68-.478-3.389-.498-5.103-.008-1.714.126-3.425.4-5.113.272-1.697.747-3.349 1.415-4.913z"/>
                <path fill="#6B3D29" fill-rule="nonzero" d="M29.882 38c-.223 1.996-.27 4.007-.14 6.011.138 1.95.45 3.886.936 5.784.5 1.909 1.124 3.785 1.87 5.618C33.29 57.265 34.162 59.096 35 61c-1.57-1.43-2.908-3.08-3.967-4.894-1.093-1.815-1.915-3.769-2.441-5.804-.524-2.056-.702-4.18-.527-6.29.149-2.107.769-4.158 1.817-6.012z"/>
                <path fill="#231F20" fill-rule="nonzero" d="M59 66.005C59 68.77 60.344 71 62 71s3-2.231 3-4.995C65 63.242 63.656 61 62 61s-3 2.242-3 5.005z"/>
                <path fill="#748196" fill-rule="nonzero" d="M24.213 142.853l-12.087 14.819c-3.852 4.734-7.798 9.301-10.957 14.547-1.233 2.09-1.854 5.435 0 7.316.682.62 1.492 1.081 2.372 1.348 2.982 1.17 6.214 1.369 9.32 2.195 3.294.878 6.619 1.661 9.953 2.362 1.689.344 3.377.616 5.065.877.973.147 3.2.784 3.304.67.103-.116.486-2.195.787-3.21.652-2.225 1.315-4.44 1.885-6.688 0 0-6.421-1.045-7.747-1.327-2.165-.387-4.37-.836-6.514-1.41-.912-.252-5.179-1.223-3.542-2.927 2.249-2.285 4.613-4.451 7.084-6.49 5.364-4.64 11.081-8.966 16.26-13.763 2.253-1.87 4.397-3.87 6.42-5.989 3.276-3.687 5.115-8.447 5.18-13.397.061-3.136-.436-8.56-4.03-9.667-1.77-.544-3.252.898-4.515 1.902-1.47 1.17-2.9 2.372-4.298 3.626-2.967 2.626-5.76 5.447-8.358 8.444-1.854 2.226-3.729 4.484-5.582 6.762z"/>
                <path fill="#E4EAEF" fill-rule="nonzero" d="M78.038 153c-2.097-2.546-4.009-5.249-5.72-8.086-2.058-3.247-4.116-6.49-6.174-9.73-2.002-2.894-3.725-5.982-5.144-9.221 1.296.159 2.243 1.284 3.087 2.324 1.62 2.242 3.362 4.388 5.216 6.43 1.033 1.016 2.13 1.963 3.282 2.833.463.371 2.696 2.908 3.303 2.557.067-.046.123-.108.164-.18 1.16-2.019 2.218-4.098 3.17-6.229 1.09-2.186 2.232-4.34 3.353-6.515.476-1.212 1.307-2.24 2.377-2.94.913-.46 2.01-.254 2.706.51.792 1.061 0 2.281-.298 3.385-.957 2.992-2.058 5.942-3.087 8.892-.473 1.295-.854 2.653-1.379 3.926-.524 1.274-1.245 2.494-1.81 3.767-1.201 2.683-2.219 5.448-3.046 8.277z"/>
                <path fill="#1080B2" fill-rule="nonzero" d="M28.33 196h3.527s38.556-47.83 39.058-48.733c.503-.902-1.329-4.25-2.994-4.292L27 142l1.33 54z"/>
                <path fill="#FFF" fill-rule="nonzero" d="M28.971 197.93l2.997 2.07 3.31-1.376s33.414-49.464 33.664-49.671c.25-.207-.282-2.784-2.234-2.846L28 145l.971 52.93z"/>
                <path fill="#2499DC" fill-rule="nonzero" d="M32.201 199.616L69.591 201 72 148.506 32 148z"/>
                <path fill="#1C687C" fill-rule="nonzero" d="M42 168.333L61.362 169 62 157.367 42.051 156z"/>
                <path fill="#50B6E2" fill-rule="nonzero" d="M42 168.333L61.362 169 62 157.367 42.062 156z"/>
                <path fill="#B22410" fill-rule="nonzero" d="M34 200.513l3.382.487s43.854-41.678 44.463-42.454c.61-.777-.67-4.401-2.265-4.68L40.45 147 34 200.513z"/>
                <path fill="#FFF" fill-rule="nonzero" d="M34 199.556L36.614 202l3.414-.88s39.6-44.127 39.887-44.303c.354-1.345-.427-2.729-1.753-3.106L40.725 147 34 199.556z"/>
                <path fill="#DD5848" fill-rule="nonzero" d="M36 202.262L71.994 209 82 157.241 43.36 151z"/>
                <path fill="#7C241C" fill-rule="nonzero" d="M49 171.534L67.799 175 70 164.21 50.725 160z"/>
                <path fill="#E37269" fill-rule="nonzero" d="M49 171.534L67.809 175 70 164.21 50.725 160z"/>
                <path fill="#231F20" fill-rule="nonzero" d="M88 66.005C88 68.77 89.344 71 91 71s3-2.231 3-4.995C94 63.242 92.656 61 91 61s-3 2.242-3 5.005z"/>
                <path fill="#FFF" fill-rule="nonzero" d="M63.15 121.296c-1.35-1.98-2.54-4.26-2.48-6.507.035-.608.143-1.21.32-1.789-1.645 1.038-3.219 2.198-4.71 3.472-1.467 1.42-2.893 2.84-4.28 4.26.59.627 1.134 1.3 1.63 2.013.71.799 10.23 19.01 10 19.255 1.222-1.178 2.533-2.247 3.92-3.195.835-.682 1.84-1.086 2.89-1.16 1.66 0 3 1.511 4.56 1.99-.48-1.671-1.73-3.194-2.6-4.643-.87-1.448-5.69-8.999-7.29-11.118-.63-.714-1.31-1.64-1.96-2.578zM78.472 131.456c-1.105 2.719-2.555 5.325-3.472 7.706.476-.27.902-.615 1.262-1.022 1.657-1.625 3.732-2.381 5.994-1.42 1.447.64 2.573 1.821 3.128 3.28 1.626-5.764 3.545-11.712 3.607-17.72.03-.556-.018-1.114-.146-1.656-.196-.578-.5-1.115-.896-1.584-1.93-2.535-4.426-4.6-7.298-6.04 1.156 1.016 1.835 2.454 1.876 3.975.71 5.223-2.147 9.811-4.055 14.481z"/>
                <path fill="#FFF" fill-rule="nonzero" d="M96.54 80h1.85c5.08.003 9.423-3.95 10.275-9.353l.234-1.47c.356-2.283-.239-4.62-1.625-6.389C105.887 61.02 103.85 60 101.703 60H92.25c-1.717 0-3.36.763-4.54 2.109-1.18 1.346-1.795 3.157-1.7 5.007l.122 2.292C86.449 75.357 91.016 80.004 96.54 80zM64.46 80h-1.85c-5.082.007-9.426-3.947-10.275-9.353l-.234-1.47c-.356-2.283.239-4.62 1.625-6.389C55.113 61.02 57.15 60 59.297 60h9.443c1.719-.003 3.364.759 4.546 2.105 1.183 1.346 1.8 3.16 1.704 5.011l-.122 2.292C74.551 75.357 69.984 80.004 64.46 80z" opacity=".2"/>
                <path fill="#FFF" fill-rule="nonzero" d="M70.41 60c1.812-.003 3.545.65 4.79 1.804s1.892 2.707 1.79 4.294l-.13 1.95c-.037.521-.119 1.039-.245 1.549-1.443.265-2.912.4-4.386.403C64.376 70 58 66.248 58 61.68c.006-.463.078-.924.214-1.37.73-.204 1.491-.309 2.257-.31h9.939zM101.156 60c2.307 0 4.498.873 5.989 2.386 1.49 1.512 2.129 3.512 1.746 5.466l-.25 1.257c-.037.193-.084.384-.143.572-1.308.209-2.636.315-3.966.319C96.512 70 90 66.248 90 61.68c.005-.56.104-1.117.295-1.652h.7l10.16-.028z" opacity=".2"/>
                <path stroke="#2A0000" stroke-width="3" d="M85 66c-2.549-2.667-6.451-2.667-9 0"/>
                <path stroke="#2A0000" stroke-width="2" d="M96.54 80h1.85c5.08.003 9.423-3.95 10.275-9.353l.234-1.47c.356-2.283-.239-4.62-1.625-6.389C105.887 61.02 103.85 60 101.703 60H92.25c-1.717 0-3.36.763-4.54 2.109-1.18 1.346-1.795 3.157-1.7 5.007l.122 2.292C86.449 75.357 91.016 80.004 96.54 80h0zM64.46 80h-1.85c-5.082.007-9.426-3.947-10.275-9.353l-.234-1.47c-.356-2.283.239-4.62 1.625-6.389C55.113 61.02 57.15 60 59.297 60h9.443c1.719-.003 3.364.759 4.546 2.105 1.183 1.346 1.8 3.16 1.704 5.011l-.122 2.292C74.551 75.357 69.984 80.004 64.46 80z"/>
                <path fill="#474A5C" fill-rule="nonzero" d="M144 158.127L152.864 169 158 160.858 148.642 154z"/>
                <path fill="#2A0000" fill-rule="nonzero" d="M53.528 67L54 63.794l-9.533-2.693c-.763-.216-1.58-.082-2.242.367-.663.448-1.109 1.17-1.225 1.981L53.528 67z"/>
                <path fill="#F5AD94" fill-rule="nonzero" d="M186.196 122.127c2.07-.418 4.181-.6 6.293-.545 1.451 0 3.327.188 4.047 1.667.144.267.101.595-.106.818-.1.078-.216.136-.339.168-2.267.766-4.926.315-6.95 1.594.845-.287 1.735-.422 2.628-.398.928-.103 1.862-.16 2.797-.168 1.564-.146 3.14.095 4.587.702.394.185.693.523.826.934.11.664-.218 1.325-.816 1.646-.584.302-1.227.477-1.885.514l-1.61.21c1.1-.125 2.215.026 3.241.44.803.391 1.15 1.342.784 2.15-.424.66-1.218.682-1.896.86-1.06.283-2.172.346-3.179.703.626-.2 1.462.45 1.886.944.426.52.575 1.21.403 1.856-.057.26-.185.5-.371.692-.275.208-.6.341-.943.388l-6.6 1.405c-3.422.745-6.865 1.165-10.234 2.203-1.232.328-2.437.753-3.602 1.269-1.864.912-4.439 1.478-5.9 3.03-1.24 1.301-4.058 4.196-5.827 4.594-2.49.535-2.289 0-3.179-1.846-1.197-2.401 2.204-6.292 3.465-8.39.836-1.415.317-3.618.784-5.243.45-1.456 1.05-2.861 1.79-4.195.571-.989 1.285-1.89 2.119-2.674.756-.621 1.552-1.192 2.383-1.71 1.45-1.331 2.705-2.856 3.73-4.53.826-1.123 1.726-2.402 3.326-2.192.9.133 1.67.71 2.045 1.53.423.976-.074 1.354-.636 2.098-.392.535-1.06 2.024-1.674 2.308 2.745-1.285 5.637-2.236 8.613-2.832z"/>
                <path fill="#E0896D" fill-rule="nonzero" d="M169 138c1.488-1.744 3.412-2.998 5.546-3.612 2.143-.67 4.442-.468 6.454.566-2.077-.256-4.18-.09-6.199.49-2.013.63-3.957 1.487-5.801 2.556zM182 129c.95-.82 2.083-1.401 3.304-1.698 1.203-.338 2.468-.393 3.696-.16-1.119.462-2.27.842-3.445 1.135-1.165.33-2.353.571-3.555.723zM185 133c1.835-1.2 3.856-1.867 5.918-1.95 2.04-.155 4.087.05 6.082.61-1.996.365-4.005.59-6.02.677-1.994.13-3.946.364-5.98.663zM187 136c1.31-.588 2.833-.924 4.406-.97 1.544-.085 3.1.012 4.594.287-1.489.202-2.998.327-4.515.375-1.492.087-2.884.194-4.485.308z"/>
            </g>
        </g>
    </g>
</svg>
