<svg xmlns="http://www.w3.org/2000/svg" id="receipt_long-24px" width="36" height="36" viewBox="0 0 36 36">
    <defs>
        <style>
            .cls-2{fill:#2162c1}
        </style>
    </defs>
    <path id="Path_49" fill="none" d="M0 0h36v36H0z"/>
    <g id="Group_3" transform="translate(4.5 3)">
        <path id="Path_50" d="M16.5 10h-6A1.5 1.5 0 0 1 9 8.5 1.5 1.5 0 0 1 10.5 7h6A1.5 1.5 0 0 1 18 8.5a1.5 1.5 0 0 1-1.5 1.5z" class="cls-2" transform="translate(0 .5)"/>
        <path id="Path_51" d="M16.5 13h-6A1.5 1.5 0 0 1 9 11.5a1.5 1.5 0 0 1 1.5-1.5h6a1.5 1.5 0 0 1 1.5 1.5 1.5 1.5 0 0 1-1.5 1.5z" class="cls-2" transform="translate(0 2)"/>
        <path id="Path_52" d="M27.75 4.25L25.5 2l-2.25 2.25L21 2l-2.25 2.25L16.5 2l-2.25 2.25L12 2 9.75 4.25 7.5 2v21h-3A1.5 1.5 0 0 0 3 24.5v3A4.494 4.494 0 0 0 7.5 32h18a4.494 4.494 0 0 0 4.5-4.5V2zM21 29H7.5A1.5 1.5 0 0 1 6 27.5V26h15zm6-1.5a1.5 1.5 0 0 1-3 0v-3a1.5 1.5 0 0 0-1.5-1.5h-12V6.5H27z" class="cls-2" transform="translate(-3 -2)"/>
        <circle id="Ellipse_4" cx="1.5" cy="1.5" r="1.5" class="cls-2" transform="translate(19.5 7.5)"/>
        <circle id="Ellipse_5" cx="1.5" cy="1.5" r="1.5" class="cls-2" transform="translate(19.5 12)"/>
    </g>
</svg>
