<svg xmlns="http://www.w3.org/2000/svg" width="26" height="26" viewBox="0 0 26 26">
    <defs>
        <style>
            .cls-3{fill:#2162c1}
        </style>
    </defs>
    <g id="receipt_long-24px" opacity="0.4">
        <path id="Path_49" fill="none" d="M0 0h26v26H0z"/>
        <g id="Group_3" transform="translate(3.25 2.167)">
            <path id="Path_50" d="M14.417 9.167h-4.334A1.087 1.087 0 0 1 9 8.083 1.087 1.087 0 0 1 10.083 7h4.333A1.087 1.087 0 0 1 15.5 8.083a1.087 1.087 0 0 1-1.083 1.084z" class="cls-3" transform="translate(-2.5 -1.583)"/>
            <path id="Path_51" d="M14.417 12.167h-4.334A1.087 1.087 0 0 1 9 11.083 1.087 1.087 0 0 1 10.083 10h4.333a1.087 1.087 0 0 1 1.084 1.083 1.087 1.087 0 0 1-1.083 1.084z" class="cls-3" transform="translate(-2.5 -1.333)"/>
            <path id="Path_52" d="M20.875 3.625L19.25 2l-1.625 1.625L16 2l-1.625 1.625L12.75 2l-1.625 1.625L9.5 2 7.875 3.625 6.25 2v15.167H4.083A1.087 1.087 0 0 0 3 18.25v2.167a3.246 3.246 0 0 0 3.25 3.25h13a3.246 3.246 0 0 0 3.25-3.25V2zM16 21.5H6.25a1.087 1.087 0 0 1-1.083-1.083v-1.084H16zm4.333-1.083a1.083 1.083 0 0 1-2.167 0V18.25a1.087 1.087 0 0 0-1.083-1.083H8.417V5.25h11.916z" class="cls-3" transform="translate(-3 -2)"/>
            <circle id="Ellipse_4" cx="1.083" cy="1.083" r="1.083" class="cls-3" transform="translate(14.083 5.417)"/>
            <circle id="Ellipse_5" cx="1.083" cy="1.083" r="1.083" class="cls-3" transform="translate(14.083 8.667)"/>
        </g>
    </g>
</svg>
