<svg xmlns="http://www.w3.org/2000/svg" width="20" height="20" viewBox="0 0 20 20">
    <g>
        <g>
            <path fill="#fff" d="M18.556 11.889V5.222A2.229 2.229 0 0 0 16.333 3H9.667a2.229 2.229 0 0 0-2.223 2.222v2.222H5.222A2.229 2.229 0 0 0 3 9.667v11.111A2.229 2.229 0 0 0 5.222 23h5.556a1.114 1.114 0 0 0 1.111-1.111v-3.333h2.222v3.333A1.114 1.114 0 0 0 15.222 23h5.556A2.229 2.229 0 0 0 23 20.778v-6.667a2.229 2.229 0 0 0-2.222-2.222zM7.444 20.778H5.222v-2.222h2.222zm0-4.444H5.222v-2.223h2.222zm0-4.444H5.222V9.667h2.222zm4.444 4.444H9.667v-2.223h2.222zm0-4.444H9.667V9.667h2.222zm0-4.444H9.667V5.222h2.222zm4.444 8.889h-2.221v-2.224h2.222zm0-4.444h-2.221V9.667h2.222zm0-4.444h-2.221V5.222h2.222zm4.444 13.333h-2.22v-2.224h2.222zm0-4.444h-2.22v-2.225h2.222z" transform="translate(-3 -3) translate(3 3) translate(-3 -3)"/>
        </g>
    </g>
</svg>
