<svg xmlns="http://www.w3.org/2000/svg" width="42" height="46" viewBox="0 0 42 46">
    <defs>
        <filter id="t0lmtg8nxa" width="42" height="46" x="0" y="0" filterUnits="userSpaceOnUse">
            <feOffset dy="4"/>
            <feGaussianBlur result="blur" stdDeviation="4"/>
            <feFlood flood-color="#2162c1" flood-opacity=".161"/>
            <feComposite in2="blur" operator="in"/>
            <feComposite in="SourceGraphic"/>
        </filter>
    </defs>
    <g>
        <path fill="none" d="M0 0h24v24H0z" transform="translate(9 8)"/>
        <g filter="url(#t0lmtg8nxa)" transform="translate(9 8) translate(-9 -8)">
            <path fill="#2162c1" d="M19 2h-4.18a2.988 2.988 0 0 0-5.64 0H5a2.006 2.006 0 0 0-2 2v16a2.006 2.006 0 0 0 2 2h14a2.006 2.006 0 0 0 2-2V4a2.006 2.006 0 0 0-2-2zm-7 0a1 1 0 1 1-1 1 1 1 0 0 1 1-1zm6 18H6a1 1 0 0 1-1-1V5a1 1 0 0 1 1-1h1v1a2.006 2.006 0 0 0 2 2h6a2.006 2.006 0 0 0 2-2V4h1a1 1 0 0 1 1 1v14a1 1 0 0 1-1 1z" transform="translate(9 8)"/>
        </g>
    </g>
</svg>
