<svg xmlns="http://www.w3.org/2000/svg" width="24" height="24" viewBox="0 0 24 24">
    <g opacity="0.4">
        <path fill="none" d="M0 0h24v24H0z"/>
        <path fill="#2162c1" d="M19 2h-4.18a2.988 2.988 0 0 0-5.64 0H5a2.006 2.006 0 0 0-2 2v16a2.006 2.006 0 0 0 2 2h14a2.006 2.006 0 0 0 2-2V4a2.006 2.006 0 0 0-2-2zm-7 0a1 1 0 1 1-1 1 1 1 0 0 1 1-1zm6 18H6a1 1 0 0 1-1-1V5a1 1 0 0 1 1-1h1v1a2.006 2.006 0 0 0 2 2h6a2.006 2.006 0 0 0 2-2V4h1a1 1 0 0 1 1 1v14a1 1 0 0 1-1 1z"/>
    </g>
</svg>
