<svg xmlns="http://www.w3.org/2000/svg" width="32" height="32" viewBox="0 0 32 32">
    <path fill="none" d="M0 0h32v32H0z"/>
    <path fill="#00c49a" d="M17.668 1h-5.334a1.333 1.333 0 1 0 0 2.667h5.333a1.333 1.333 0 0 0 0-2.667zM15 18.333A1.337 1.337 0 0 0 16.334 17v-5.333a1.333 1.333 0 0 0-2.667 0V17A1.337 1.337 0 0 0 15 18.333zm9.374-8.813l1-1a1.324 1.324 0 0 0 0-1.867l-.013-.013a1.324 1.324 0 0 0-1.867 0l-1 1A11.949 11.949 0 0 0 15 5 12.133 12.133 0 0 0 3 16.68a12 12 0 1 0 21.374-7.16zM15 26.333A9.333 9.333 0 1 1 24.334 17 9.327 9.327 0 0 1 15 26.333z" transform="translate(.999 .333)"/>
</svg>
