<svg xmlns="http://www.w3.org/2000/svg" width="38" height="38" viewBox="0 0 38 38">
    <path fill="none" d="M0 0h38v38H0z"/>
    <path fill="#2162c1" d="M28.333 4.167h-6.618a4.731 4.731 0 0 0-8.93 0H6.167A3.176 3.176 0 0 0 3 7.333V29.5a3.176 3.176 0 0 0 3.167 3.167h22.166A3.176 3.176 0 0 0 31.5 29.5V7.333a3.176 3.176 0 0 0-3.167-3.166zm-11.083 0a1.583 1.583 0 1 1-1.583 1.583 1.588 1.588 0 0 1 1.583-1.583zm0 6.333a4.75 4.75 0 1 1-4.75 4.75 4.744 4.744 0 0 1 4.75-4.75zm9.5 19h-19v-2.217c0-3.167 6.333-4.908 9.5-4.908s9.5 1.742 9.5 4.908z" transform="translate(1.75 .583)"/>
</svg>
