<svg xmlns="http://www.w3.org/2000/svg" width="18" height="21.375" viewBox="0 0 18 21.375">
    <g>
        <path fill="#fff" d="M4 17.75a3.359 3.359 0 0 0 1.125 2.5v1.44a1.687 1.687 0 1 0 3.375 0v-.562h9v.563a1.688 1.688 0 0 0 3.375 0v-1.44A3.359 3.359 0 0 0 22 17.75V6.5C22 2.563 17.972 2 13 2s-9 .563-9 4.5zm3.938 1.125a1.688 1.688 0 1 1 1.687-1.687 1.685 1.685 0 0 1-1.687 1.687zm10.125 0a1.688 1.688 0 1 1 1.688-1.687 1.685 1.685 0 0 1-1.688 1.687zm1.688-6.75H6.25V6.5h13.5z" transform="translate(-4 -2)"/>
    </g>
</svg>
