<svg xmlns="http://www.w3.org/2000/svg" width="36" height="36" viewBox="0 0 36 36">
    <path fill="none" d="M0 0h36v36H0z"/>
    <path fill="#2162c1" d="M25.75 4.5c-2.925 0-6.075.6-8.25 2.25C15.325 5.1 12.175 4.5 9.25 4.5a16.229 16.229 0 0 0-6.42 1.185A3.056 3.056 0 0 0 1 8.46v16.92a2.993 2.993 0 0 0 3.72 2.91 18.525 18.525 0 0 1 4.53-.54 15.862 15.862 0 0 1 6.84 1.38 3.083 3.083 0 0 0 2.8 0 15.645 15.645 0 0 1 6.84-1.38 18.525 18.525 0 0 1 4.53.54 2.979 2.979 0 0 0 3.72-2.91V8.46a3.056 3.056 0 0 0-1.83-2.775 16.107 16.107 0 0 0-6.4-1.185zM31 23.595a1.515 1.515 0 0 1-1.8 1.47 18.912 18.912 0 0 0-3.45-.3 18.068 18.068 0 0 0-8.25 2.25V9.75a18.068 18.068 0 0 1 8.25-2.25 19.03 19.03 0 0 1 4.05.42A1.522 1.522 0 0 1 31 9.39z" transform="translate(.5 2.25)"/>
</svg>
