<svg xmlns="http://www.w3.org/2000/svg" width="38" height="38" viewBox="0 0 38 38">
    <path fill="none" d="M0 0h38v38H0z"/>
    <path fill="#2162c1" d="M23.583 15.25H10.917a1.583 1.583 0 0 0 0 3.167h12.666a1.583 1.583 0 1 0 0-3.167zm4.75-11.083H26.75V2.583a1.583 1.583 0 0 0-3.167 0v1.584H10.917V2.583a1.583 1.583 0 1 0-3.167 0v1.584H6.167A3.166 3.166 0 0 0 3 7.333V29.5a3.166 3.166 0 0 0 3.167 3.167h22.166A3.176 3.176 0 0 0 31.5 29.5V7.333a3.176 3.176 0 0 0-3.167-3.166zM26.75 29.5h-19a1.588 1.588 0 0 1-1.583-1.583V12.083h22.166v15.834A1.588 1.588 0 0 1 26.75 29.5zm-7.917-7.917h-7.916a1.583 1.583 0 0 0 0 3.167h7.917a1.583 1.583 0 0 0 0-3.167z" transform="translate(1.75 .583)"/>
</svg>
