<svg xmlns="http://www.w3.org/2000/svg" width="18" height="19.6" viewBox="0 0 18 19.6">
    <g>
        <path fill="#fff" d="M21 2.21a.469.469 0 0 0-.35.15l-.79.79a.5.5 0 0 1-.71 0l-.79-.79a.5.5 0 0 0-.71 0l-.79.79a.5.5 0 0 1-.71 0l-.79-.79a.5.5 0 0 0-.71 0l-.79.79a.5.5 0 0 1-.71 0l-.79-.79a.5.5 0 0 0-.71 0l-.79.79a.5.5 0 0 1-.71 0l-.8-.8a.5.5 0 0 0-.71 0l-.79.8a.5.5 0 0 1-.71 0l-.79-.8a.5.5 0 0 0-.71 0l-.79.8a.5.5 0 0 1-.71 0l-.79-.8A.5.5 0 0 0 3 2.21V21.8a.469.469 0 0 0 .35-.15l.79-.79a.5.5 0 0 1 .71 0l.79.79a.5.5 0 0 0 .71 0l.79-.79a.5.5 0 0 1 .71 0l.79.79a.5.5 0 0 0 .71 0l.79-.79a.5.5 0 0 1 .71 0l.79.79a.5.5 0 0 0 .71 0l.79-.79a.5.5 0 0 1 .71 0l.79.79a.5.5 0 0 0 .71 0l.79-.79a.5.5 0 0 1 .71 0l.79.79a.5.5 0 0 0 .71 0l.79-.79a.5.5 0 0 1 .71 0l.79.79a.5.5 0 0 0 .35.15V2.21zM17 17H7a1 1 0 1 1 0-2h10a1 1 0 1 1 0 2zm0-4H7a1 1 0 1 1 0-2h10a1 1 0 1 1 0 2zm0-4H7a1 1 0 0 1 0-2h10a1 1 0 0 1 0 2z" transform="translate(-3 -2.2)"/>
    </g>
</svg>
