<svg xmlns="http://www.w3.org/2000/svg" width="19.971" height="22" viewBox="0 0 19.971 22">
    <g>
        <path fill="#fff" d="M14 1H4a2.006 2.006 0 0 0-2 2v18a2.006 2.006 0 0 0 2 2h10a2.006 2.006 0 0 0 2-2V3a2.006 2.006 0 0 0-2-2zm0 19H4V4h10zm6.63-11.74a.7.7 0 0 0-1.04-.06l-.03.03a.714.714 0 0 0-.05.93 4.562 4.562 0 0 1-.02 5.57.712.712 0 0 0 .05.92l.05.05a.7.7 0 0 0 1.03-.05 5.744 5.744 0 0 0 .01-7.39zm-3.21 2.11l-.06.06a.693.693 0 0 0-.15.76 1.912 1.912 0 0 1 0 1.52.693.693 0 0 0 .15.76l.08.08a.691.691 0 0 0 1.09-.15 2.94 2.94 0 0 0-.01-2.86.687.687 0 0 0-1.1-.17z" transform="translate(-2 -1)"/>
    </g>
</svg>
