<svg xmlns="http://www.w3.org/2000/svg" width="38" height="38" viewBox="0 0 38 38">
    <path fill="none" d="M0 0h38v38H0z"/>
    <path fill="#2162c1" stroke="#2162c1" d="M29.917 13.917H4.583a1.583 1.583 0 1 0 0 3.167h25.334a1.583 1.583 0 0 0 0-3.167zM4.583 25h15.834a1.583 1.583 0 0 0 0-3.167H4.583a1.583 1.583 0 1 0 0 3.167zM29.917 6H4.583A1.588 1.588 0 0 0 3 7.583V7.6a1.588 1.588 0 0 0 1.583 1.583h25.334A1.588 1.588 0 0 0 31.5 7.6v-.017A1.588 1.588 0 0 0 29.917 6z" transform="translate(1.75 3.5)"/>
</svg>
