<svg xmlns="http://www.w3.org/2000/svg" width="19" height="16" viewBox="0 0 19 16">
    <g fill="#3699FF">
        <path d="M18.922 14.468l-1.505-3.59V.56c0-.291-.235-.526-.526-.526H2.075c-.29 0-.526.235-.526.526v10.317L.041 14.468c-.067.165-.052.348.049.497.097.145.26.235.44.235h17.91c.176 0 .34-.09.437-.235.097-.15.112-.336.045-.497zM2.602 1.086h13.763v9.37H2.602v-9.37zM1.318 14.144l1.105-2.636h14.113l1.105 2.636H1.318z"/>
        <path d="M4.065 7.992c-.291 0-.526.235-.526.526v.474c0 .291.235.527.526.527.291 0 .526-.236.526-.527v-.474c0-.29-.235-.526-.526-.526zM6.055 6.499c-.292 0-.527.235-.527.526v1.967c0 .291.235.527.527.527.29 0 .526-.236.526-.527V7.025c0-.291-.235-.526-.526-.526zM8.044 4.51c-.291 0-.526.234-.526.526v3.956c0 .291.235.527.526.527.291 0 .527-.236.527-.527V5.036c0-.292-.236-.527-.527-.527zM9.235 2.375c-.291 0-.527.235-.527.526v5.947c0 .29.236.526.527.526.29 0 .526-.235.526-.526V2.9c0-.29-.235-.526-.526-.526zM10.549 12.3H8.414c-.291 0-.527.235-.527.526 0 .291.236.526.527.526h2.135c.291 0 .526-.235.526-.526 0-.291-.235-.526-.526-.526zM13.95 5.092h.578c.291 0 .526-.236.526-.527 0-.29-.235-.526-.526-.526H12.68c-.29 0-.526.235-.526.526v1.848c0 .291.235.526.526.526.292 0 .527-.235.527-.526v-.579l1.321 1.322c.19.19.553.194.747 0 .205-.206.205-.538 0-.747L13.95 5.092z"/>
    </g>
</svg>
