<svg xmlns="http://www.w3.org/2000/svg" width="18" height="18" viewBox="0 0 18 18">
    <g fill="none">
        <path fill="#2493FF" d="M14.186 6.407h-4.88c-.422 0-.764-.342-.764-.763V.763c0-.422.342-.763.763-.763s.763.341.763.763V4.88h4.118c.422 0 .763.342.763.763s-.341.763-.763.763z"/>
        <path fill="#2493FF" d="M9.076 18H3.203C1.435 17.998.002 16.565 0 14.797V3.203C.002 1.435 1.435.002 3.203 0h7.322c.203 0 .397.08.54.223l3.661 3.66c.143.144.223.338.223.54V7.78c0 .42-.341.762-.763.762-.42 0-.762-.341-.762-.762V4.729l-3.216-3.204H3.191c-.921.009-1.664.757-1.666 1.678v11.594c.002.926.752 1.676 1.678 1.678h5.873c.422 0 .763.341.763.762 0 .422-.341.763-.763.763z"/>
        <path fill="#2493FF" d="M7.816 10.272H3.508c-.42 0-.762-.341-.762-.763 0-.42.341-.762.762-.762h4.308c.273 0 .525.145.66.381.137.236.137.527 0 .763-.135.236-.387.381-.66.381zM6.56 14.135H3.507c-.42 0-.762-.342-.762-.763s.341-.763.762-.763H6.56c.422 0 .763.342.763.763s-.341.763-.763.763zM11.19 13.186c-.164.19-.164.474 0 .665.492.573 1.624 1.708 2.93 1.708 1.305 0 2.44-1.125 2.928-1.699.162-.192.162-.473 0-.665-.491-.574-1.62-1.7-2.929-1.7-1.308 0-2.437 1.117-2.928 1.69z"/>
        <path fill="#2493FF" d="M14.12 16.313c-1.593 0-2.884-1.22-3.51-1.968-.407-.475-.407-1.178 0-1.653.611-.736 1.917-1.968 3.51-1.968 1.592 0 2.88 1.22 3.508 1.968.408.475.408 1.178 0 1.653-.629.735-1.916 1.968-3.509 1.968zm-2.203-2.795c.436.48 1.3 1.27 2.202 1.27.903 0 1.764-.79 2.203-1.27-.44-.479-1.3-1.269-2.203-1.269-.903 0-1.766.79-2.202 1.27z"/>
        <circle cx="14.119" cy="13.518" r="1.068" fill="#FFF"/>
    </g>
</svg>
