<svg xmlns="http://www.w3.org/2000/svg" width="18" height="19" viewBox="0 0 18 19">
    <g fill="#A4A3AE">
        <path d="M17.656 12.04c-.085-.173-.258-.283-.45-.283H3.433c-1.729 0-3.139 1.406-3.139 3.14 0 1.728 1.407 3.138 3.14 3.138h13.772c.192 0 .365-.11.45-.283.085-.174.06-.376-.056-.528-.539-.677-.808-1.492-.812-2.307 0-.007.05-1.59.812-2.349.134-.135.138-.354.056-.528zM3.572 15.396h12.242c.06.563.22 1.12.482 1.637H3.433c-1.18 0-2.14-.96-2.14-2.14 0-1.18.96-2.14 2.14-2.14h12.863c-.263.52-.422 1.073-.482 1.636H3.572c-.277 0-.5.224-.5.5 0 .283.223.507.5.507zM17.639 2.477L9.139.053c-.09-.025-.185-.025-.274 0L.361 2.477C.15 2.54 0 2.735 0 2.959c0 .223.149.418.361.482l3.143.896v5.9c0 .18.1.347.255.435.16.089.351.085.507-.01C5.843 9.694 7.434 9.206 9 9.206c1.566 0 3.154.488 4.734 1.456.081.05.322.113.507.01.159-.088.255-.255.255-.435v-5.9l1.654-.471v2.77c0 .277.224.5.5.5s.5-.223.5-.5V3.58l.489-.138c.216-.06.361-.26.361-.482 0-.224-.149-.418-.361-.482zm-4.146 6.902C12 8.6 10.495 8.206 9 8.206S5.995 8.6 4.507 9.38V4.624l4.355 1.244c.088.025.184.025.273 0l4.354-1.244v4.755h.004zM9 4.865L2.324 2.959 9 1.056l6.676 1.903L9 4.865z"/>
    </g>
</svg>
