<svg xmlns="http://www.w3.org/2000/svg" width="18" height="15" viewBox="0 0 18 15">
    <g fill="#A4A3AE">
        <path d="M10.245 14.271h-8.19c-.54.001-1.05-.245-1.383-.669-.326-.408-.447-.943-.327-1.452.64-2.688 3.041-4.586 5.805-4.586s5.165 1.898 5.805 4.586c.12.51-.001 1.046-.327 1.455-.335.422-.844.667-1.383.666zM6.15 9.06c-2.075-.013-3.881 1.414-4.35 3.435-.014.062.001.128.042.177.05.062.127.099.207.099h8.19c.08 0 .156-.037.207-.099.04-.05.056-.115.042-.177C10.02 10.478 8.22 9.053 6.15 9.06zM6.15 6.795c-1.314.001-2.5-.79-3.004-2.004S2.92 2.18 3.85 1.25C4.778.32 6.175.04 7.389.544c1.215.503 2.007 1.688 2.007 3.002-.002 1.793-1.453 3.246-3.246 3.249zm0-4.995c-.708-.001-1.347.424-1.618 1.078-.272.654-.122 1.407.378 1.908.5.5 1.254.65 1.908.378.654-.271 1.08-.91 1.078-1.618-.002-.964-.782-1.744-1.746-1.746z"/>
        <path d="M16.422 14.271H9.378c-.414 0-.75-.336-.75-.75s.336-.75.75-.75h7.044c.025 0 .05-.01.066-.03.005-.011.005-.025 0-.036-.287-1.207-1.184-2.176-2.364-2.556-1.181-.38-2.475-.114-3.411.699-.2.187-.487.25-.747.163-.26-.086-.453-.307-.502-.577-.05-.27.052-.544.265-.717 1.332-1.16 3.174-1.539 4.856-.997 1.681.541 2.957 1.923 3.361 3.643.106.459-.004.941-.3 1.308-.296.375-.746.595-1.224.6zM13.05 8.1c-1.55 0-2.805-1.256-2.805-2.805 0-1.55 1.256-2.805 2.805-2.805 1.55 0 2.805 1.256 2.805 2.805 0 .744-.296 1.457-.822 1.983s-1.24.822-1.983.822zm0-4.11c-.72 0-1.305.584-1.305 1.305 0 .72.584 1.305 1.305 1.305.72 0 1.305-.584 1.305-1.305-.007-.716-.589-1.293-1.305-1.293V3.99z"/>
    </g>
</svg>
