<svg xmlns="http://www.w3.org/2000/svg" width="18" height="18" viewBox="0 0 18 18">
    <g fill="#A4A3AE">
        <path d="M2.838 11.81h-.336c-.277 0-.5.223-.5.5 0 .276.223.5.5.5h.336c.277 0 .5-.224.5-.5 0-.277-.223-.5-.5-.5zM5.52 11.81h-.336c-.277 0-.5.223-.5.5 0 .276.223.5.5.5h.336c.277 0 .5-.224.5-.5 0-.277-.227-.5-.5-.5zM2.838 9.989h-.336c-.277 0-.5.223-.5.5 0 .276.223.499.5.499h.336c.277 0 .5-.223.5-.5 0-.276-.223-.5-.5-.5zM5.52 9.989h-.336c-.277 0-.5.223-.5.5 0 .276.223.499.5.499h.336c.277 0 .5-.223.5-.5 0-.276-.227-.5-.5-.5zM8.2 9.989h-.337c-.277 0-.5.223-.5.5 0 .276.223.499.5.499h.336c.277 0 .5-.223.5-.5 0-.276-.223-.5-.5-.5zM2.838 8.167h-.336c-.277 0-.5.224-.5.5s.223.5.5.5h.336c.277 0 .5-.224.5-.5s-.223-.5-.5-.5zM5.52 8.167h-.336c-.277 0-.5.224-.5.5s.223.5.5.5h.336c.277 0 .5-.224.5-.5s-.227-.5-.5-.5zM8.2 8.167h-.337c-.277 0-.5.224-.5.5s.223.5.5.5h.336c.277 0 .5-.224.5-.5s-.223-.5-.5-.5zM2.838 6.346h-.336c-.277 0-.5.223-.5.5 0 .276.223.5.5.5h.336c.277 0 .5-.224.5-.5 0-.277-.223-.5-.5-.5zM5.52 6.346h-.336c-.277 0-.5.223-.5.5 0 .276.223.5.5.5h.336c.277 0 .5-.224.5-.5 0-.277-.227-.5-.5-.5zM8.2 6.346h-.337c-.277 0-.5.223-.5.5 0 .276.223.5.5.5h.336c.277 0 .5-.224.5-.5 0-.277-.223-.5-.5-.5zM13.224 7.345h.336c.277 0 .5-.223.5-.5 0-.276-.223-.499-.5-.499h-.336c-.277 0-.5.223-.5.5 0 .276.223.5.5.5zM10.545 7.345h.336c.277 0 .5-.223.5-.5 0-.276-.223-.499-.5-.499h-.336c-.276 0-.5.223-.5.5 0 .276.224.5.5.5z"/>
        <path d="M16.062 9.432V.5c0-.277-.223-.5-.5-.5H.5C.223 0 0 .223 0 .5V14.31c0 .277.223.5.5.5h8.266C9.415 16.664 11.176 18 13.248 18 15.867 18 18 15.87 18 13.248c0-1.562-.765-2.951-1.938-3.816zM.999 1h14.064v3.196H.999V1zm7.537 12.813H.999V5.194h14.064v3.664c-.56-.23-1.173-.361-1.815-.361-2.618 0-4.751 2.13-4.751 4.751.003.192.018.38.039.564zM13.248 17C11.18 17 9.5 15.318 9.5 13.252s1.683-3.749 3.748-3.749c2.07 0 3.75 1.683 3.75 3.749s-1.68 3.749-3.75 3.749z"/>
        <path d="M13.248 10.407c-.276 0-.5.223-.5.5v1.842h-.733c-.276 0-.5.223-.5.5 0 .276.224.499.5.499h1.237c.276 0 .5-.223.5-.5v-2.342c0-.276-.227-.5-.504-.5zM3.827 2.098h-.298c-.276 0-.5.223-.5.5 0 .276.224.499.5.499h.298c.276 0 .5-.223.5-.5 0-.276-.224-.5-.5-.5zM12.533 2.098h-.298c-.276 0-.5.223-.5.5 0 .276.224.499.5.499h.298c.276 0 .5-.223.5-.5 0-.276-.224-.5-.5-.5z"/>
    </g>
</svg>
