<svg xmlns="http://www.w3.org/2000/svg" width="18" height="18" viewBox="0 0 18 18">
    <g fill="#3699FF">
        <path d="M11.948 2.626H9.397l-.337-.89c-.074-.195-.258-.322-.467-.322h-.706v-.266C7.887.514 7.374 0 6.74 0H5.705C5.07 0 4.557.514 4.557 1.148v.266h-.943c-.209 0-.393.127-.468.322l-.336.89H.5c-.277 0-.5.223-.5.5V17.5c0 .277.223.5.5.5h11.448c.276 0 .5-.223.5-.5V3.125c0-.276-.224-.5-.5-.5zm-7.99-.213h1.098c.277 0 .5-.223.5-.5v-.765c0-.081.067-.149.149-.149h1.034c.082 0 .15.068.15.149v.765c0 .277.222.5.499.5h.86l.568 1.492H3.394l.564-1.492zm7.49 14.588H1V3.625h1.432l-.23.602c-.057.153 0 .677.467.677H9.54c.584 0 .478-.67.439-.74l-.206-.543h1.673v13.38h.003z"/>
        <path d="M2.626 6.598c-.277 0-.5.223-.5.5 0 .276.223.499.5.499h7.196c.276 0 .5-.223.5-.5 0-.276-.224-.5-.5-.5H2.626zM9.822 9.259H2.626c-.277 0-.5.223-.5.5 0 .276.223.499.5.499h7.196c.276 0 .5-.223.5-.5 0-.273-.224-.5-.5-.5zM9.822 11.923H2.626c-.277 0-.5.223-.5.5 0 .276.223.5.5.5h7.196c.276 0 .5-.224.5-.5 0-.277-.224-.5-.5-.5zM7.3 14.584H2.625c-.277 0-.5.223-.5.5 0 .276.223.5.5.5h4.673c.277 0 .5-.224.5-.5 0-.277-.223-.5-.5-.5zM17.93 4.883l-1.464-2.435c-.092-.148-.252-.24-.429-.24s-.337.092-.429.24l-1.463 2.435c-.046.078-.071.166-.071.258v8.692c0 1.084.882 1.963 1.963 1.963 1.084 0 1.963-.882 1.963-1.963V5.138c0-.089-.025-.177-.07-.255zm-1.893-1.209l.581.964h-1.162l.581-.964zm.964 10.156c0 .531-.432.963-.964.963-.531 0-.964-.432-.964-.963v-.16h1.931v.16h-.003zm0-1.16H15.07V5.64H17v7.03z"/>
    </g>
</svg>
