<svg xmlns="http://www.w3.org/2000/svg" width="36" height="36" viewBox="0 0 36 36">
    <path fill="none" d="M0 0h36v36H0z"/>
    <path fill="#2162c1" d="M27 3h-6.27a4.482 4.482 0 0 0-8.46 0H6a3.009 3.009 0 0 0-3 3v24a3.009 3.009 0 0 0 3 3h21a3.009 3.009 0 0 0 3-3V6a3.009 3.009 0 0 0-3-3zM16.5 3A1.5 1.5 0 1 1 15 4.5 1.5 1.5 0 0 1 16.5 3zm9 27h-18A1.5 1.5 0 0 1 6 28.5v-21A1.5 1.5 0 0 1 7.5 6H9v1.5a3.009 3.009 0 0 0 3 3h9a3.009 3.009 0 0 0 3-3V6h1.5A1.5 1.5 0 0 1 27 7.5v21a1.5 1.5 0 0 1-1.5 1.5z" transform="translate(1.5)"/>
</svg>
