<svg xmlns="http://www.w3.org/2000/svg" width="160" height="160" viewBox="0 0 160 160">
    <defs>
        <clipPath id="clip-path">
            <rect id="Rectangle_213" width="160" height="160" fill="#ebfbf7" rx="80"/>
        </clipPath>
        <style>
            .cls-4{fill:#3f2037}.cls-5{fill:#ff4f4e}.cls-6{fill:#c42c31}.cls-7{fill:#ffb8a1}.cls-8{fill:#fff7f1}.cls-9{fill:#ff8a8a}
        </style>
    </defs>
    <g id="Group_209" transform="translate(-470 -756) translate(470 756)">
        <rect id="Rectangle_376" width="160" height="160" fill="#e93c23" rx="80"/>
        <g id="Mask_Group_5" clip-path="url(#clip-path)">
            <g id="Layer_2" transform="translate(12.219 22.932)">
                <g id="OBJECTS">
                    <path id="Path_651" d="M42.1 3.823S27.174 16.756 26.561 38.088s10.977 30.49.217 39.649-34.689 19.118-20.185 43.819h59.123V8.24z" class="cls-4" transform="translate(2.635 4.901)"/>
                    <path id="Path_652" d="M53.283 3.823s14.929 12.933 15.551 34.265-10.987 30.49-.234 39.649 34.709 19.118 20.2 43.819H29.669V8.24z" class="cls-4" transform="translate(38.109 4.901)"/>
                    <path id="Path_653" d="M135.557 83.475H0S1.363 66.56 9.544 63.29c1.69-.682 4.505-1.976 7.9-3.666l1.443-.711c7.084-3.507 16.194-8.23 23.07-11.856 5.869-3.073 10.117-5.325 10.117-5.325l1.037.227a64.5 64.5 0 0 0 29.236-.227l8.553 4.386c2.964 1.522 6.531 3.32 10.206 5.167 9.88 4.94 20.8 10.364 24.888 12 8.199 3.275 9.563 20.19 9.563 20.19z" class="cls-5" transform="translate(0 53.593)"/>
                    <path id="Path_654" d="M20.951 73.815h-3.616c-2.806-6.175-7.489-16.8-9.692-23.851l1.443-.711c1.629 4.147 6.954 17.319 11.865 24.562z" class="cls-6" transform="translate(9.816 63.254)"/>
                    <path id="Path_655" d="M44.793 74.281h3.617c2.806-6.175 7.9-17.784 10.157-24.76l-1.314-.632c-1.621 4.15-7.553 18.15-12.46 25.392z" class="cls-6" transform="translate(57.536 62.787)"/>
                    <path id="Path_656" d="M51.2 80.475H21.563C16.574 73.055 11.95 62.3 9.411 55.9c-1.284-3.241-2.045-5.355-2.045-5.355C15 44.5 32.481 44.067 32.481 44.067c6.264 8.339 14.287 26.074 18.719 36.408z" class="cls-5" transform="translate(9.461 56.593)"/>
                    <path id="Path_657" d="M31.827 81.009h29.641c4.94-7.42 9.6-18.18 12.143-24.572 1.294-3.241 2.045-5.355 2.045-5.355-7.637-6.047-25.59-7.43-25.59-7.43-6.244 8.339-13.803 27.022-18.239 37.357z" class="cls-5" transform="translate(40.881 56.06)"/>
                    <path id="Path_658" d="M67.294 46.113a121.28 121.28 0 0 1-2.559 14.633C62.5 69.924 58.648 79.992 52.157 83.47h-10.67c-8.892-3.705-15.038-14.356-18.772-23.426a101.152 101.152 0 0 1-4.337-12.983c5.869-3.073 10.117-5.325 10.117-5.325l1.037.227a64.5 64.5 0 0 0 29.236-.227z" class="cls-7" transform="translate(23.604 53.599)"/>
                    <path id="Path_659" d="M62.316 50.451C60.083 59.63 56.229 69.7 49.738 73.176h-10.69C30.156 69.471 24.01 58.82 20.275 49.75c4.683 1.976 11.669 3.7 21.549 3.7a65.922 65.922 0 0 0 20.492-2.994z" class="cls-8" transform="translate(26.043 63.893)"/>
                    <path id="Path_660" d="M54.62 54.8s-2.658 8.359-14.88 8.359c-14.247 0-17.6-7.6-17.6-7.6a62.245 62.245 0 0 0 2.66-9.024 49.49 49.49 0 0 0 1.146-11.293l25.027-.988c.237 2.124.613 4.624 1.037 7.134 1.138 6.648 2.61 13.412 2.61 13.412z" class="cls-7" transform="translate(28.443 43.988)"/>
                    <path id="Path_661" d="M40.856 56.879a19.632 19.632 0 0 1-15.146-7.045 24.157 24.157 0 0 1-4.278-7.025.494.494 0 0 1 .929-.336 23.555 23.555 0 0 0 4.12 6.738 18.367 18.367 0 0 0 14.376 6.679 16.075 16.075 0 0 0 13.536-6.64 20.146 20.146 0 0 0 3.31-6.728.514.514 0 0 1 .6-.366.5.5 0 0 1 .366.593 21.213 21.213 0 0 1-3.458 7.064 17.251 17.251 0 0 1-14.356 7.064z" class="cls-8" transform="translate(27.496 54.126)"/>
                    <path id="Path_662" d="M50.512 41.377c-3.883 2.7-12.36 6.709-27.2 5.148a49.489 49.489 0 0 0 1.136-11.283l25.027-.988c.236 2.114.612 4.614 1.037 7.123z" class="cls-4" transform="translate(29.943 43.988)"/>
                    <path id="Path_663" d="M28.3 23.927s-7.746-10.542-13.773-4.308S20.119 47.6 30.661 42.858z" class="cls-7" transform="translate(16.537 22.658)"/>
                    <path id="Path_664" d="M22.518 33.318a.534.534 0 0 1-.524-.464A19.418 19.418 0 0 0 15.078 21a.536.536 0 0 1 .652-.85 20.62 20.62 0 0 1 7.311 12.568.534.534 0 0 1-.454.6z" class="cls-9" transform="translate(19.098 25.727)"/>
                    <path id="Path_665" d="M20.3 24.965a.543.543 0 0 1-.445-.227c-.781-1.156-3.1-1.275-3.952-1.215a.534.534 0 0 1-.563-.5.543.543 0 0 1 .494-.573c.148 0 3.616-.2 4.94 1.69a.534.534 0 0 1-.148.741.543.543 0 0 1-.326.089z" class="cls-9" transform="translate(19.698 28.813)"/>
                    <path id="Path_666" d="M21.13 31.914a2.816 2.816 0 0 1-.454-.119 2.243 2.243 0 0 1-2.114-.158c-1.788-1.255-.237-4.288-.217-4.328a.563.563 0 0 0-.988-.524c-.079.158-2.045 3.952.563 5.78a3.211 3.211 0 0 0 1.848.563 3.517 3.517 0 0 0 1.887-.543 2.964 2.964 0 0 0 .6-.494c-.394-.058-.749-.128-1.125-.177z" class="cls-8" transform="translate(21.285 34.086)"/>
                    <path id="Path_667" d="M41.61 23.927s7.766-10.542 13.773-4.308S49.791 47.6 39.249 42.858z" class="cls-7" transform="translate(50.414 22.658)"/>
                    <path id="Path_668" d="M41.952 33.318h-.079a.534.534 0 0 1-.454-.6 20.571 20.571 0 0 1 7.311-12.57.534.534 0 0 1 .751.1.543.543 0 0 1-.1.751c-.059.049-5.928 4.555-6.916 11.856a.534.534 0 0 1-.513.463z" class="cls-9" transform="translate(53.194 25.726)"/>
                    <path id="Path_669" d="M42.659 24.967a.524.524 0 0 1-.3-.089.534.534 0 0 1-.148-.741c1.275-1.887 4.743-1.7 4.881-1.69a.543.543 0 0 1-.059 1.077c-.83-.059-3.162.069-3.952 1.215a.553.553 0 0 1-.422.228z" class="cls-9" transform="translate(54.108 28.811)"/>
                    <path id="Path_670" d="M41.959 31.914a2.569 2.569 0 0 0 .454-.119 2.243 2.243 0 0 0 2.114-.158c1.788-1.255.237-4.288.217-4.328a.563.563 0 0 1 .988-.524c.079.158 2.045 3.952-.563 5.78a3.211 3.211 0 0 1-1.818.524 3.517 3.517 0 0 1-1.887-.543 2.963 2.963 0 0 1-.6-.494c.364-.019.719-.089 1.095-.138z" class="cls-8" transform="translate(52.486 34.086)"/>
                    <path id="Path_671" d="M49.5 6.571c-22.892-.662-33.593 11.58-31.864 36.873 1.087 15.7 9.534 34.808 28.119 35.243 19.385.454 28.208-21.539 28.653-37.782C74.851 23.822 70.8 12.4 56.622 7.766A61.564 61.564 0 0 0 49.5 6.571z" class="cls-7" transform="translate(22.42 8.398)"/>
                    <path id="Path_672" d="M23.445 25.217a.662.662 0 0 1-.662.672.672.672 0 1 1 0-1.334.662.662 0 0 1 .662.662z" class="cls-9" transform="translate(28.297 31.525)"/>
                    <path id="Path_673" d="M24.832 25.92a.672.672 0 1 1-.662-.662.662.662 0 0 1 .662.662z" class="cls-9" transform="translate(30.171 32.433)"/>
                    <path id="Path_674" d="M23.4 26.942a.662.662 0 0 1-.662.662.672.672 0 0 1-.672-.662.682.682 0 0 1 .672-.672.672.672 0 0 1 .662.672z" class="cls-9" transform="translate(28.343 33.733)"/>
                    <path id="Path_675" d="M25.686 27.229a.662.662 0 0 1-.662.672.672.672 0 1 1 0-1.334.662.662 0 0 1 .662.662z" class="cls-9" transform="translate(31.175 34.108)"/>
                    <path id="Path_676" d="M27.132 26.942a.672.672 0 0 1-.672.662.662.662 0 0 1-.662-.662.672.672 0 0 1 .662-.672.682.682 0 0 1 .672.672z" class="cls-9" transform="translate(33.137 33.733)"/>
                    <path id="Path_677" d="M26.457 25.514a.672.672 0 0 1-.672.662.662.662 0 0 1-.662-.662.672.672 0 0 1 .662-.672.682.682 0 0 1 .672.672z" class="cls-9" transform="translate(32.271 31.9)"/>
                    <path id="Path_678" d="M37.506 25.215a.672.672 0 1 0 .672-.662.662.662 0 0 0-.672.662z" class="cls-9" transform="translate(48.175 31.528)"/>
                    <path id="Path_679" d="M36.083 25.922a.662.662 0 0 0 .662.672.672.672 0 1 0 0-1.334.662.662 0 0 0-.662.662z" class="cls-9" transform="translate(46.348 32.43)"/>
                    <path id="Path_680" d="M37.506 26.942a.672.672 0 1 0 .672-.672.672.672 0 0 0-.672.672z" class="cls-9" transform="translate(48.175 33.733)"/>
                    <path id="Path_681" d="M35.266 27.226a.672.672 0 1 0 .672-.662.662.662 0 0 0-.672.662z" class="cls-9" transform="translate(45.298 34.111)"/>
                    <path id="Path_682" d="M33.776 26.987a.672.672 0 1 0 .308-.649.672.672 0 0 0-.308.649z" class="cls-9" transform="translate(43.378 33.687)"/>
                    <path id="Path_683" d="M34.455 25.56a.672.672 0 1 0 .308-.649.672.672 0 0 0-.308.649z" class="cls-9" transform="translate(44.251 31.854)"/>
                    <path id="Path_684" d="M19.082 34.913s4.584-9.673 3.053-16.8l-5-1.452s-.77 12.254 1.947 18.252z" class="cls-4" transform="translate(21.881 21.395)"/>
                    <path id="Path_685" d="M43.848 34.9s-4.584-9.673-3.063-16.8l5.039-1.433S46.565 28.9 43.848 34.9z" class="cls-4" transform="translate(51.99 21.406)"/>
                    <path id="Path_686" d="M25.314 8.729c-5.543 5.484-9.87 14.465-10.157 19.919s1.136 11.076 5.3 13.19c13.022 6.63 39.956-18.278 39.956-18.278S69.9 42.9 77.4 41.986s10.673-22.725-7.141-34.868S33.831.321 25.314 8.729z" class="cls-4" transform="translate(19.424 -.004)"/>
                    <path id="Path_687" d="M21.625 23.4a13.635 13.635 0 0 1 5.434-5.7c5.325-3.31 9.149 2.381 9.149 2.381s-4.16-1.452-7.361-.435a36.379 36.379 0 0 0-7.222 3.754z" class="cls-4" transform="translate(27.776 21.402)"/>
                    <path id="Path_688" d="M46.946 23.4a13.714 13.714 0 0 0-5.446-5.7c-5.306-3.31-9.129 2.381-9.129 2.381s4.16-1.452 7.361-.435a36.556 36.556 0 0 1 7.214 3.754z" class="cls-4" transform="translate(41.581 21.402)"/>
                    <path id="Path_689" d="M32.485 36.394a7.618 7.618 0 0 1-3.033-.721.741.741 0 0 1-.445-.781l1.551-11.856a.742.742 0 1 1 1.472.188l-1.482 11.253a3.873 3.873 0 0 0 3.705-.138.741.741 0 1 1 .83 1.225 4.555 4.555 0 0 1-2.598.83z" class="cls-9" transform="translate(37.25 28.747)"/>
                    <path id="Path_690" d="M34.347 34.993a15.036 15.036 0 0 1-1.828-.109 16.8 16.8 0 0 1-5.859-1.769.741.741 0 0 1 .682-1.275c.356.2 8.833 4.782 16.174-1.976a.741.741 0 1 1 .988 1.087 14.672 14.672 0 0 1-10.157 4.041z" class="cls-9" transform="translate(33.916 38.012)"/>
                    <path id="Path_691" d="M32.544 35.146a11.58 11.58 0 0 1-3.2-.455.741.741 0 0 1-.494-.929.751.751 0 0 1 .929-.484c.049 0 3.438.988 5.819-.316a.743.743 0 0 1 .731 1.294 7.736 7.736 0 0 1-3.785.89z" class="cls-9" transform="translate(37.013 42.206)"/>
                    <path id="Path_692" d="M28.06 23.662c0 2.075-.721 3.764-1.7 3.774s-1.8-1.68-1.838-3.715.731-3.754 1.709-3.774 1.8 1.653 1.829 3.715z" class="cls-4" transform="translate(31.498 25.611)"/>
                    <path id="Path_693" d="M34.167 23.662c0 2.075.731 3.764 1.7 3.774s1.8-1.64 1.838-3.715-.721-3.754-1.7-3.774-1.838 1.653-1.838 3.715z" class="cls-4" transform="translate(43.887 25.611)"/>
                </g>
            </g>
        </g>
    </g>
</svg>
