<svg xmlns="http://www.w3.org/2000/svg" width="160" height="160" viewBox="0 0 160 160">
    <defs>
        <clipPath id="clip-path">
            <rect id="Rectangle_377" width="160" height="160" fill="#f0edfd" rx="80"/>
        </clipPath>
        <style>
            .cls-4{fill:#3f2037}.cls-7{fill:#ffb8a1}.cls-8{fill:#fff7f1}.cls-9{fill:#ff8a8a}.cls-10{opacity:.5}
        </style>
    </defs>
    <g id="Group_216" transform="translate(-845 -590) translate(845 590)">
        <rect id="Rectangle_215" width="160" height="160" fill="#fede04" rx="80"/>
        <g id="Mask_Group_6" clip-path="url(#clip-path)">
            <g id="Layer_2" transform="translate(14.5 27.201)">
                <g id="OBJECTS">
                    <path id="Path_694" d="M37.076 115.81s-21.643 4.338-22.545-13.861c-.4-7.873-1.461-6.646-8.351-13.284S-.683 79.358.787 73.163s7.683-8.234 4.626-13.942c-4.04-7.485-2.8-20.282 5.97-25.251 8.459-4.843 9.433-4.78 9.433-9.722 0-6.457 6.7-16.864 20.534-15.782 11.9.929 10.055-4.861 18.487-7.44 15.71-4.807 23.321 8.8 28.732 9.289S103.35 10.9 108.1 18.1c5.889 8.919.685 16.233 8.062 16.936s14.763 7.133 14.519 13.78-4.181 12.29-1.481 15.212 3.752 20.435-7.214 23.781c-14.916 4.572 0 26.667-27.442 26.252-24.615-.326-57.468 1.749-57.468 1.749z" class="cls-4" transform="translate(.002 -.001)"/>
                    <path id="Path_695" fill="#0075cf" d="M124.682 80.9H.953S2.2 65.463 9.665 62.478c1.542-.613 4.112-1.8 7.214-3.346l1.326-.649 2.462-1.263c6.015-3.021 13.094-6.691 18.6-9.577l1.858-.974c4.374-2.3 7.368-3.9 7.368-3.9l.9.216a59.032 59.032 0 0 0 26.694-.216s3.111 1.605 7.629 3.9l.171.09c2.705 1.389 5.952 3.03 9.316 4.716 9.018 4.509 18.938 9.469 22.717 10.957 7.517 3.031 8.762 18.468 8.762 18.468z" transform="translate(1.161 51.896)"/>
                    <path id="Path_696" fill="#0056a8" d="M38.628 59.541a31.492 31.492 0 0 1-7.864-.992 27.127 27.127 0 0 1-8.63-3.77.676.676 0 0 1 .794-1.091 26.46 26.46 0 0 0 8.233 3.612 31.212 31.212 0 0 0 20.615-1.912.679.679 0 0 1 .541 1.245 33.754 33.754 0 0 1-13.689 2.908z" transform="translate(26.568 65.015)"/>
                    <path id="Path_697" d="M61.718 46.695c-1.461 6.313-6.168 18.2-20.949 18.2-15.746 0-20.4-12.625-21.643-18.208 4.374-2.3 7.368-3.9 7.368-3.9l.9.216a59.033 59.033 0 0 0 26.694-.216s3.112 1.613 7.63 3.908z" class="cls-7" transform="translate(23.209 51.916)"/>
                    <path id="Path_698" d="M25.825 72.983H.953S2.2 57.544 9.665 54.559c1.542-.613 4.112-1.8 7.214-3.346l1.326-.649 2.462-1.264c1.858 5.223 4.942 15.043 5.158 23.683z" class="cls-7" transform="translate(1.161 59.816)"/>
                    <path id="Path_699" d="M45.634 72.983h24.872s-1.245-15.439-8.711-18.424c-1.551-.613-4.121-1.8-7.214-3.346l-1.317-.649-2.508-1.264c-1.856 5.223-4.942 15.043-5.122 23.683z" class="cls-7" transform="translate(55.373 59.816)"/>
                    <path id="Path_700" d="M51.453 54.484s-2.426 7.647-13.572 7.647c-13 0-16.07-6.926-16.07-6.926a55.914 55.914 0 0 0 2.435-8.252 44.739 44.739 0 0 0 1.046-10.3l22.843-.9c.216 1.93.559 4.211.9 6.5 1.074 6.063 2.418 12.231 2.418 12.231z" class="cls-7" transform="translate(26.467 43.379)"/>
                    <path id="Path_701" d="M47.747 42.243c-3.544 2.462-11.282 6.123-24.836 4.7a44.739 44.739 0 0 0 1.046-10.3l22.843-.9c.252 1.928.559 4.21.947 6.5z" class="cls-4" transform="translate(27.802 43.364)"/>
                    <path id="Path_702" d="M40.544 25.65s5.357-7.287 9.523-2.967S46.2 42.009 38.911 38.735z" class="cls-7" transform="translate(47.216 25.86)"/>
                    <path id="Path_703" d="M42.453 30.312a10.236 10.236 0 1 0 4.734-1.019 4.979 4.979 0 0 1 .253-1.154 11.381 11.381 0 1 1-4.816.821z" class="cls-8" transform="translate(43.097 34.139)"/>
                    <path id="Path_704" d="M40.8 32.185a.37.37 0 0 1-.316-.424 14.212 14.212 0 0 1 5.05-8.684.37.37 0 0 1 .442.586 13.8 13.8 0 0 0-4.762 8.206.379.379 0 0 1-.415.316z" class="cls-9" transform="translate(49.116 27.937)"/>
                    <path id="Path_705" d="M41.326 26.481a.343.343 0 0 1-.2-.063.37.37 0 0 1-.1-.514c.9-1.308 3.265-1.172 3.373-1.163a.37.37 0 1 1 0 .739c-.577 0-2.182 0-2.705.839a.361.361 0 0 1-.37.162z" class="cls-9" transform="translate(49.707 30.007)"/>
                    <path id="Path_706" d="M24.524 25.658S19.167 18.335 15 22.691s3.87 19.326 11.156 16.052z" class="cls-7" transform="translate(16.819 25.852)"/>
                    <path id="Path_707" d="M27.935 28.971a11.417 11.417 0 1 1-4.816-.821 4.977 4.977 0 0 1 .253 1.154 10.227 10.227 0 1 0 4.734 1.019z" class="cls-8" transform="translate(14.851 34.154)"/>
                    <path id="Path_708" d="M27.935 28.971a11.417 11.417 0 1 1-4.816-.821 4.977 4.977 0 0 1 .253 1.154 10.227 10.227 0 1 0 4.734 1.019z" class="cls-8" transform="translate(14.851 34.154)"/>
                    <path id="Path_709" d="M20.579 32.185h.054a.37.37 0 0 0 .307-.424 14.213 14.213 0 0 0-5.05-8.684.37.37 0 0 0-.442.586 13.8 13.8 0 0 1 4.725 8.206.379.379 0 0 0 .406.316z" class="cls-9" transform="translate(18.609 27.937)"/>
                    <path id="Path_710" d="M19.075 26.481a.343.343 0 0 0 .2-.063.37.37 0 0 0 .1-.514c-.9-1.308-3.265-1.172-3.373-1.163a.37.37 0 0 0 .045.739c.577 0 2.182 0 2.705.839a.361.361 0 0 0 .325.162z" class="cls-9" transform="translate(18.995 30.007)"/>
                    <path id="Path_711" d="M69.378 40.99c-.388 14.826-8.432 34.891-26.152 34.476C27.57 75.1 19.779 60.244 17.9 46.69c-.162-1.145-.28-2.282-.352-3.391-1.512-21.851 7.218-33.033 25.84-33.647h3.237a54.16 54.16 0 0 1 6.529 1.082c12.933 4.23 16.63 14.666 16.224 30.256z" class="cls-7" transform="translate(21.095 11.71)"/>
                    <g id="Group_198" class="cls-10" transform="translate(41.424 58.49)">
                        <path id="Path_712" d="M32.809 29.52c0 1.713-3.156 3.1-7.043 3.1s-7.052-1.389-7.052-3.1 3.156-3.093 7.052-3.093 7.043 1.389 7.043 3.093z" class="cls-9" transform="translate(-18.714 -26.427)"/>
                    </g>
                    <g id="Group_199" class="cls-10" transform="translate(74.593 58.49)">
                        <path id="Path_713" d="M47.8 29.52c0 1.713-3.156 3.1-7.043 3.1s-7.057-1.386-7.057-3.1 3.156-3.093 7.052-3.093S47.8 27.816 47.8 29.52z" class="cls-9" transform="translate(-33.7 -26.427)"/>
                    </g>
                    <path id="Path_714" d="M33.111 23.035c-4.59.343-3.21 5.654-7.729 8.252-4.978 2.859-4.347 4.563-3.174 8.558 1.8 5.943-4.076 7.35-4.076 7.35l-.216-.478c-.162-1.145-.28-2.282-.352-3.391C16.076 21.475 23.11 8.741 43.428 9.679c2.525 9.568-4.184 12.905-10.317 13.356z" class="cls-4" transform="translate(21.082 11.683)"/>
                    <path id="Path_715" d="M39.405 21.463c6.1-.1 3.968 6.213 7.566 9.117 4.455 3.607 5.916 2.065 3.959 7.945-2.029 6.087 3.788 8.666 3.788 8.666.072-.153.153-.316.225-.478.153-1.145.271-2.282.352-3.391 1.505-21.85-5.88-34.53-25.846-33.646-2.525 9.568 3.797 11.877 9.956 11.787z" class="cls-4" transform="translate(35.043 11.686)"/>
                    <path id="Path_716" d="M31.837 19.1c-2.39.054-7.611.694-9.92 5.041 0 0 5.411-2.561 9.92-2.291a1.38 1.38 0 0 0 1.451-1.55 1.38 1.38 0 0 0-1.452-1.2z" class="cls-4" transform="translate(26.596 23.173)"/>
                    <path id="Path_717" d="M33.186 19.1c2.39.054 7.611.694 9.92 5.041 0 0-5.411-2.561-9.92-2.291a1.38 1.38 0 0 1-1.452-1.55 1.38 1.38 0 0 1 1.452-1.2z" class="cls-4" transform="translate(38.494 23.173)"/>
                    <path id="Path_718" d="M31.443 37.4a7.025 7.025 0 0 1-2.769-.658.676.676 0 0 1-.4-.658l1.446-10.915a.676.676 0 1 1 1.335.18L29.72 35.693a3.535 3.535 0 0 0 3.382-.135.677.677 0 0 1 .749 1.127 4.13 4.13 0 0 1-2.408.715z" class="cls-9" transform="translate(34.312 29.749)"/>
                    <path id="Path_719" d="M33.135 36.241a16.234 16.234 0 0 1-1.677-.09 15.827 15.827 0 0 1-5.339-1.6.685.685 0 0 1-.262-.9.667.667 0 0 1 .9-.262c.325.18 8.062 4.356 14.754-1.8a.676.676 0 0 1 .956 0 .667.667 0 0 1 0 .956 13.41 13.41 0 0 1-9.332 3.696z" class="cls-9" transform="translate(31.286 38.084)"/>
                    <path id="Path_720" d="M31.506 36.51a10.939 10.939 0 0 1-2.931-.406.68.68 0 1 1 .406-1.3s3.129.9 5.312-.289a.676.676 0 0 1 .9.262.667.667 0 0 1-.252.9 6.98 6.98 0 0 1-3.435.833z" class="cls-9" transform="translate(34.095 41.784)"/>
                    <path id="Path_721" d="M27.307 25.654c0 1.894-.658 3.436-1.551 3.454s-1.641-1.506-1.713-3.391.667-3.436 1.56-3.454 1.677 1.506 1.704 3.391z" class="cls-4" transform="translate(29.169 27.01)"/>
                    <path id="Path_722" d="M33.142 25.654c0 1.894.658 3.436 1.551 3.454s1.641-1.506 1.677-3.391-.667-3.436-1.56-3.454-1.641 1.506-1.668 3.391z" class="cls-4" transform="translate(40.215 27.01)"/>
                </g>
            </g>
        </g>
    </g>
</svg>
