<svg xmlns="http://www.w3.org/2000/svg" width="160" height="160" viewBox="0 0 160 160">
    <defs>
        <clipPath id="clip-path">
            <rect id="Rectangle_386" width="160" height="160" fill="#fa0" rx="80" transform="translate(1533 330)"/>
        </clipPath>
        <style>
            .cls-4{fill:#3f2037}.cls-5{fill:#734669}.cls-6{fill:#ffb8a1}.cls-7{fill:#fff7f1}.cls-8{fill:#ff8a8a}.cls-9{fill:#ff4f4e}.cls-11{fill:#fff}
        </style>
    </defs>
    <g id="Group_217" transform="translate(-1365 -330)">
        <rect id="Rectangle_215" width="160" height="160" fill="#d7dce2" rx="80" transform="translate(1365 330)"/>
        <g id="Mask_Group_7" clip-path="url(#clip-path)" transform="translate(-168)">
            <g id="Layer_2" transform="translate(1547.904 343.214)">
                <g id="OBJECTS" transform="translate(0 -.014)">
                    <path id="Path_734" d="M130.191 156.383H0s.114-1.376.455-3.4c.18-1.015.418-2.182.721-3.435a34.986 34.986 0 0 1 1.9-5.6 20.658 20.658 0 0 1 1.556-2.9A10.191 10.191 0 0 1 9.185 137c1.623-.645 4.327-1.9 7.591-3.52l1.385-.683c.9-.437 1.822-.9 2.78-1.385l3.359-1.7c5.437-2.761 11.273-5.8 16.018-8.275l2.154-1.139 1.309-.683 6.244-3.3 1 .228a62.078 62.078 0 0 0 28.075-.233s2.562 1.328 6.453 3.312l1.755.892.788.4c2.695 1.376 5.8 2.951 9.015 4.564 2.847 1.442 5.779 2.9 8.607 4.308l3.5 1.718c5.134 2.524 9.546 4.6 11.795 5.5a10.144 10.144 0 0 1 4.526 4.014 19.929 19.929 0 0 1 1.613 2.942 33.572 33.572 0 0 1 1.9 5.608c.3 1.224.541 2.382.712 3.378.313 2.054.427 3.437.427 3.437z" class="cls-4" transform="translate(0 -9.583)"/>
                    <path id="Path_735" d="M50.254 122.223a2.353 2.353 0 1 1-4.052-1.642l1.31-.683a2.466 2.466 0 0 1 .38 0 2.353 2.353 0 0 1 2.362 2.325z" class="cls-5" transform="translate(-3.758 -9.879)"/>
                    <path id="Path_736" d="M61.681 122.221a2.363 2.363 0 1 1-2.363-2.353 2.363 2.363 0 0 1 2.363 2.353z" class="cls-5" transform="translate(-4.699 -9.877)"/>
                    <path id="Path_737" d="M73.07 122.221a2.353 2.353 0 1 1-2.353-2.353 2.353 2.353 0 0 1 2.353 2.353z" class="cls-5" transform="translate(-5.64 -9.877)"/>
                    <path id="Path_738" d="M84.467 122.221a2.353 2.353 0 1 1-2.353-2.353 2.353 2.353 0 0 1 2.353 2.353z" class="cls-5" transform="translate(-6.58 -9.877)"/>
                    <path id="Path_739" d="M95.863 122.225a2.363 2.363 0 1 1-2.78-2.315l1.755.892.788.4a2.325 2.325 0 0 1 .237 1.025z" class="cls-5" transform="translate(-7.519 -9.88)"/>
                    <path id="Path_740" d="M27.5 133.02a2.372 2.372 0 1 1-4.745 0 2.97 2.97 0 0 1 0-.418l3.359-1.7a2.363 2.363 0 0 1 1.386 2.118z" class="cls-5" transform="translate(-1.877 -10.787)"/>
                    <path id="Path_741" d="M38.878 133a2.353 2.353 0 1 1-2.353-2.353A2.353 2.353 0 0 1 38.878 133z" class="cls-5" transform="translate(-2.819 -10.766)"/>
                    <path id="Path_742" d="M50.254 133a2.353 2.353 0 1 1-2.353-2.353A2.353 2.353 0 0 1 50.254 133z" class="cls-5" transform="translate(-3.758 -10.766)"/>
                    <path id="Path_743" d="M61.681 133a2.363 2.363 0 1 1-2.363-2.353A2.363 2.363 0 0 1 61.681 133z" class="cls-5" transform="translate(-4.699 -10.766)"/>
                    <path id="Path_744" d="M73.07 133a2.353 2.353 0 1 1-2.353-2.353A2.353 2.353 0 0 1 73.07 133z" class="cls-5" transform="translate(-5.64 -10.766)"/>
                    <path id="Path_745" d="M84.467 133a2.353 2.353 0 1 1-2.353-2.353A2.353 2.353 0 0 1 84.467 133z" class="cls-5" transform="translate(-6.58 -10.766)"/>
                    <path id="Path_746" d="M95.864 133a2.353 2.353 0 1 1-2.353-2.353A2.353 2.353 0 0 1 95.864 133z" class="cls-5" transform="translate(-7.521 -10.766)"/>
                    <path id="Path_747" d="M107.251 133a2.353 2.353 0 1 1-2.353-2.353 2.353 2.353 0 0 1 2.353 2.353z" class="cls-5" transform="translate(-8.46 -10.766)"/>
                    <path id="Path_748" d="M118.649 133.026a2.353 2.353 0 1 1-3.52-2.04l3.5 1.718c.01.104.02.209.02.322z" class="cls-5" transform="translate(-9.4 -10.794)"/>
                    <path id="Path_749" d="M5.023 143.928a2.363 2.363 0 0 1-1.651 2.249 20.657 20.657 0 0 1 1.556-2.9 2.145 2.145 0 0 1 .095.655z" class="cls-5" transform="translate(-.278 -11.808)"/>
                    <path id="Path_750" d="M16.125 143.775a2.353 2.353 0 1 1-2.353-2.353 2.353 2.353 0 0 1 2.353 2.353z" class="cls-5" transform="translate(-.942 -11.655)"/>
                    <path id="Path_751" d="M27.5 143.775a2.353 2.353 0 1 1-2.353-2.353 2.353 2.353 0 0 1 2.353 2.353z" class="cls-5" transform="translate(-1.881 -11.655)"/>
                    <path id="Path_752" d="M38.878 143.775a2.353 2.353 0 1 1-2.353-2.353 2.353 2.353 0 0 1 2.353 2.353z" class="cls-5" transform="translate(-2.819 -11.655)"/>
                    <path id="Path_753" d="M50.254 143.775a2.353 2.353 0 1 1-2.353-2.353 2.353 2.353 0 0 1 2.353 2.353z" class="cls-5" transform="translate(-3.758 -11.655)"/>
                    <path id="Path_754" d="M61.681 143.775a2.363 2.363 0 1 1-2.363-2.353 2.363 2.363 0 0 1 2.363 2.353z" class="cls-5" transform="translate(-4.699 -11.655)"/>
                    <path id="Path_755" d="M73.07 143.775a2.353 2.353 0 1 1-2.353-2.353 2.353 2.353 0 0 1 2.353 2.353z" class="cls-5" transform="translate(-5.64 -11.655)"/>
                    <path id="Path_756" d="M84.467 143.775a2.353 2.353 0 1 1-2.353-2.353 2.353 2.353 0 0 1 2.353 2.353z" class="cls-5" transform="translate(-6.58 -11.655)"/>
                    <path id="Path_757" d="M95.864 143.775a2.353 2.353 0 1 1-2.353-2.353 2.353 2.353 0 0 1 2.353 2.353z" class="cls-5" transform="translate(-7.521 -11.655)"/>
                    <path id="Path_758" d="M107.251 143.775a2.353 2.353 0 1 1-2.353-2.353 2.353 2.353 0 0 1 2.353 2.353z" class="cls-5" transform="translate(-8.46 -11.655)"/>
                    <path id="Path_759" d="M118.649 143.775a2.353 2.353 0 1 1-2.353-2.353 2.353 2.353 0 0 1 2.353 2.353z" class="cls-5" transform="translate(-9.4 -11.655)"/>
                    <path id="Path_760" d="M130.046 143.775a2.353 2.353 0 1 1-2.353-2.353 2.353 2.353 0 0 1 2.353 2.353z" class="cls-5" transform="translate(-10.341 -11.655)"/>
                    <path id="Path_761" d="M138.436 146.183a2.353 2.353 0 0 1-1.585-2.951 19.927 19.927 0 0 1 1.585 2.951z" class="cls-5" transform="translate(-11.282 -11.804)"/>
                    <path id="Path_762" d="M4.789 154.552a2.353 2.353 0 0 1-4.251 1.395c.18-1.015.418-2.182.721-3.435a2.353 2.353 0 0 1 3.53 2.04z" class="cls-5" transform="translate(-.044 -12.544)"/>
                    <path id="Path_763" d="M16.125 154.552a2.353 2.353 0 1 1-2.353-2.353 2.353 2.353 0 0 1 2.353 2.353z" class="cls-5" transform="translate(-.942 -12.544)"/>
                    <path id="Path_764" d="M27.5 154.552a2.353 2.353 0 1 1-2.353-2.353 2.353 2.353 0 0 1 2.353 2.353z" class="cls-5" transform="translate(-1.881 -12.544)"/>
                    <path id="Path_765" d="M38.878 154.552a2.353 2.353 0 1 1-2.353-2.353 2.353 2.353 0 0 1 2.353 2.353z" class="cls-5" transform="translate(-2.819 -12.544)"/>
                    <path id="Path_766" d="M50.254 154.552A2.353 2.353 0 1 1 47.9 152.2a2.353 2.353 0 0 1 2.354 2.352z" class="cls-5" transform="translate(-3.758 -12.544)"/>
                    <path id="Path_767" d="M61.681 154.552a2.363 2.363 0 1 1-2.363-2.353 2.363 2.363 0 0 1 2.363 2.353z" class="cls-5" transform="translate(-4.699 -12.544)"/>
                    <path id="Path_768" d="M73.07 154.552a2.353 2.353 0 1 1-2.353-2.353 2.353 2.353 0 0 1 2.353 2.353z" class="cls-5" transform="translate(-5.64 -12.544)"/>
                    <path id="Path_769" d="M84.467 154.552a2.353 2.353 0 1 1-2.353-2.353 2.353 2.353 0 0 1 2.353 2.353z" class="cls-5" transform="translate(-6.58 -12.544)"/>
                    <path id="Path_770" d="M95.864 154.552a2.353 2.353 0 1 1-2.353-2.353 2.353 2.353 0 0 1 2.353 2.353z" class="cls-5" transform="translate(-7.521 -12.544)"/>
                    <path id="Path_771" d="M107.251 154.552a2.353 2.353 0 1 1-2.351-2.352 2.353 2.353 0 0 1 2.353 2.353z" class="cls-5" transform="translate(-8.46 -12.544)"/>
                    <path id="Path_772" d="M118.649 154.552a2.353 2.353 0 1 1-2.349-2.352 2.353 2.353 0 0 1 2.349 2.352z" class="cls-5" transform="translate(-9.4 -12.544)"/>
                    <path id="Path_773" d="M130.046 154.552a2.353 2.353 0 1 1-2.353-2.353 2.353 2.353 0 0 1 2.353 2.353z" class="cls-5" transform="translate(-10.341 -12.544)"/>
                    <path id="Path_774" d="M141.006 155.908a2.353 2.353 0 1 1-.712-3.378c.306 1.224.542 2.363.712 3.378z" class="cls-5" transform="translate(-11.281 -12.544)"/>
                    <path id="Path_775" d="M89.1 119.45q-3.511 8.075-7.05 16.131-4.55 10.439-9.156 20.792h-5.257c-4-6.908-8.113-13.759-12.156-20.648-1.632-2.78-3.264-5.57-4.868-8.369-1.366-2.391-2.685-4.8-3.938-7.259 4.3-2.258 7.212-3.8 7.212-3.8l1 .228a62.078 62.078 0 0 0 28.078-.228z" class="cls-6" transform="translate(-3.851 -9.582)"/>
                    <path id="Path_776" d="M82.842 137.326q-4.555 10.438-9.157 20.791h-5.257c-4-6.908-8.113-13.759-12.156-20.648a48.394 48.394 0 0 0 26.57-.142z" class="cls-7" transform="translate(-4.643 -11.317)"/>
                    <path id="Path_777" d="M84.143 118.193s-2.553 7.971-14.3 7.971c-13.683 0-16.9-7.3-16.9-7.3a59.478 59.478 0 0 0 2.553-8.673 47.446 47.446 0 0 0 1.091-10.837l24.036-.949c.228 2.031.588 4.431 1 6.842 1.106 6.408 2.52 12.946 2.52 12.946z" class="cls-6" transform="translate(-4.368 -8.106)"/>
                    <path id="Path_778" d="M69.868 131.43a18.874 18.874 0 0 1-14.547-6.756 23.182 23.182 0 0 1-4.109-6.756.474.474 0 1 1 .892-.323 22.774 22.774 0 0 0 3.957 6.481 17.669 17.669 0 0 0 13.807 6.405C82.9 130.481 86 117.775 86 117.652a.484.484 0 0 1 .569-.361.493.493 0 0 1 .361.579 20.373 20.373 0 0 1-3.321 6.775 16.568 16.568 0 0 1-13.741 6.785z" class="cls-7" transform="translate(-4.222 -9.662)"/>
                    <path id="Path_779" d="M81.869 105.249c-3.729 2.591-11.869 6.444-26.124 4.944a47.446 47.446 0 0 0 1.091-10.837l24.036-.949c.228 2.031.589 4.432.997 6.842z" class="cls-4" transform="translate(-4.599 -8.106)"/>
                    <path id="Path_780" d="M45.6 64.728S38.162 54.6 32.374 60.591s5.371 26.873 15.5 22.328z" class="cls-6" transform="translate(-2.54 -4.83)"/>
                    <circle id="Ellipse_200" cx="2.069" cy="2.069" r="2.069" class="cls-7" transform="translate(34.721 70.725)"/>
                    <path id="Path_781" d="M42.9 77.166a.5.5 0 0 1-.5-.446 18.65 18.65 0 0 0-6.642-11.387.512.512 0 0 1-.095-.721.522.522 0 0 1 .721-.095A19.842 19.842 0 0 1 43.4 76.6a.522.522 0 0 1-.436.579z" class="cls-8" transform="translate(-2.933 -5.302)"/>
                    <path id="Path_782" d="M41.439 72.592a.531.531 0 0 1-.427-.228c-.75-1.11-2.98-1.215-3.8-1.167a.513.513 0 1 1-.028-1.025c.142 0 3.473-.2 4.745 1.613a.5.5 0 0 1-.142.712.465.465 0 0 1-.348.095z" class="cls-8" transform="translate(-3.027 -5.776)"/>
                    <path id="Path_783" d="M96.125 64.728s7.439-10.125 13.228-4.137-5.371 26.873-15.5 22.328z" class="cls-6" transform="translate(-7.743 -4.83)"/>
                    <circle id="Ellipse_201" cx="2.069" cy="2.069" r="2.069" class="cls-7" transform="translate(92.016 70.725)"/>
                    <path id="Path_784" d="M99.551 77.165h-.076a.522.522 0 0 1-.437-.579 19.794 19.794 0 0 1 7.022-12.08.514.514 0 0 1 .626.816 18.808 18.808 0 0 0-6.642 11.387.5.5 0 0 1-.493.455z" class="cls-8" transform="translate(-8.17 -5.3)"/>
                    <path id="Path_785" d="M101.247 72.592a.446.446 0 0 1-.285-.095.5.5 0 0 1-.142-.712c1.224-1.812 4.545-1.623 4.688-1.613a.513.513 0 1 1-.057 1.025c-.807-.047-3.037.066-3.8 1.167a.541.541 0 0 1-.404.228z" class="cls-8" transform="translate(-8.31 -5.776)"/>
                    <path id="Path_786" d="M72.515 32.183c-21.986-.645-32.263 11.121-30.6 35.4 1.034 15.078 9.157 33.43 27.006 33.848 18.618.437 27.091-20.677 27.518-36.277.408-16.407-3.483-27.4-17.08-31.836a57.151 57.151 0 0 0-6.842-1.139z" class="cls-6" transform="translate(-3.444 -2.64)"/>
                    <path id="Path_787" d="M87.238 21.634c-.123.313-.256.626-.408.949a27.832 27.832 0 0 1-7.164 8.891H62.5s-6.158-3.4-9.366-8.91a8.842 8.842 0 0 1-.484-.949c-2.239-4.46-2.391-10.172 3.8-16.5 12.379-12.508 37.629-.248 30.788 16.519z" class="cls-9" transform="translate(-4.227 .014)"/>
                    <path id="Path_788" fill="#c42c31" d="M87 24.357a27.832 27.832 0 0 1-7.164 8.891H62.67s-6.158-3.4-9.366-8.91c2-1.224 9.2-3.682 16.35-1.974 0 .001 9.376-2.364 17.346 1.993z" transform="translate(-4.398 -1.78)"/>
                    <path id="Path_789" d="M45.54 55.058s23.372-6.073 23.372-18.267c0 0 5.38 16.843 23.467 18.248l3.881 2.923a13.788 13.788 0 0 1 3.663-2.126s4.7-37.074-31.067-32.092c0 0-11.1-2.5-20.259 3.843-13.286 9.167-7.953 29.293-7.953 29.293z" class="cls-9" transform="translate(-3.266 -1.906)"/>
                    <path id="Path_790" d="M54.047 75.854a.636.636 0 0 1-.636.636.645.645 0 1 1 .636-.636z" class="cls-8" transform="translate(-4.352 -6.191)"/>
                    <path id="Path_791" d="M57.46 77.51a.645.645 0 1 1-.645-.645.636.636 0 0 1 .645.645z" class="cls-8" transform="translate(-4.634 -6.329)"/>
                    <path id="Path_792" d="M54.048 79.962a.645.645 0 0 1-.636.645.655.655 0 0 1-.645-.645.645.645 0 0 1 .645-.636.636.636 0 0 1 .636.636z" class="cls-8" transform="translate(-4.353 -6.532)"/>
                    <path id="Path_793" d="M59.4 80.663a.636.636 0 0 1-.636.636.645.645 0 1 1 .636-.636z" class="cls-8" transform="translate(-4.794 -6.588)"/>
                    <path id="Path_794" d="M62.973 79.962a.655.655 0 0 1-.645.645.645.645 0 0 1-.636-.645.636.636 0 0 1 .636-.636.645.645 0 0 1 .645.636z" class="cls-8" transform="translate(-5.09 -6.532)"/>
                    <path id="Path_795" d="M61.36 76.549a.655.655 0 0 1-.645.645.645.645 0 0 1-.636-.645.636.636 0 0 1 .636-.636.645.645 0 0 1 .645.636z" class="cls-8" transform="translate(-4.957 -6.25)"/>
                    <path id="Path_796" d="M89.689 75.855a.645.645 0 1 0 .645-.645.636.636 0 0 0-.645.645z" class="cls-8" transform="translate(-7.399 -6.192)"/>
                    <path id="Path_797" d="M86.286 77.509a.636.636 0 0 0 .636.636.645.645 0 1 0-.636-.636z" class="cls-8" transform="translate(-7.119 -6.328)"/>
                    <path id="Path_798" d="M89.689 79.968a.645.645 0 1 0 .641-.567.645.645 0 0 0-.641.567z" class="cls-8" transform="translate(-7.399 -6.538)"/>
                    <path id="Path_799" d="M84.332 80.664a.645.645 0 1 0 .645-.645.636.636 0 0 0-.645.645z" class="cls-8" transform="translate(-6.958 -6.589)"/>
                    <path id="Path_800" d="M80.764 79.962a.645.645 0 1 0 .636-.636.636.636 0 0 0-.636.636z" class="cls-8" transform="translate(-6.663 -6.532)"/>
                    <path id="Path_801" d="M82.387 76.549a.645.645 0 1 0 .636-.636.636.636 0 0 0-.636.636z" class="cls-8" transform="translate(-6.797 -6.25)"/>
                    <path id="Path_802" d="M42.624 73.719s4.4-9.29 2.932-16.132l-5.779-3.672s.901 14.044 2.847 19.804z" class="cls-9" transform="translate(-3.282 -4.435)"/>
                    <path id="Path_803" d="M100.03 73.921s-4.4-9.29-2.942-16.131l4.839-1.423s.712 11.746-1.897 17.554z" class="cls-9" transform="translate(-7.985 -4.638)"/>
                    <path id="Path_804" d="M51.712 62.819a13.114 13.114 0 0 1 5.219-5.456c5.115-3.179 8.787 2.325 8.787 2.325s-3.995-1.395-7.069-.418a34.939 34.939 0 0 0-6.937 3.549z" class="cls-9" transform="translate(-4.266 -4.638)"/>
                    <path id="Path_805" d="M91.4 62.819a13.114 13.114 0 0 0-5.219-5.456c-5.1-3.179-8.768 2.325-8.768 2.325s3.995-1.395 7.069-.418a34.939 34.939 0 0 1 6.918 3.549z" class="cls-9" transform="translate(-6.387 -4.638)"/>
                    <path id="Path_806" d="M72.7 83.485a7.316 7.316 0 0 1-2.913-.693.712.712 0 0 1-.427-.74l1.49-11.387a.713.713 0 0 1 1.414.18l-1.428 10.847a3.7 3.7 0 0 0 3.558-.133.712.712 0 1 1 .8 1.177 4.3 4.3 0 0 1-2.5.75z" class="cls-8" transform="translate(-5.722 -5.766)"/>
                    <path id="Path_807" d="M70.757 92.465A16.76 16.76 0 0 1 69 92.37a16.3 16.3 0 0 1-5.627-1.661.715.715 0 1 1 .655-1.272c.342.2 8.483 4.593 15.534-1.9a.721.721 0 0 1 1.006 0 .712.712 0 0 1 0 1.006 14.091 14.091 0 0 1-9.811 3.922z" class="cls-8" transform="translate(-5.196 -7.193)"/>
                    <path id="Path_808" d="M72.488 97.282a11.321 11.321 0 0 1-3.074-.427.714.714 0 1 1 .418-1.366c.047 0 3.3.949 5.589-.3a.731.731 0 0 1 .949.275.712.712 0 0 1-.275.949 7.43 7.43 0 0 1-3.607.869z" class="cls-8" transform="translate(-5.685 -7.834)"/>
                    <path id="Path_809" d="M62.038 67.763c0 1.993-.693 3.615-1.632 3.634s-1.727-1.575-1.765-3.568.7-3.615 1.642-3.634 1.727 1.585 1.755 3.568z" class="cls-4" transform="translate(-4.838 -5.284)"/>
                    <path id="Path_810" d="M81.7 67.763c0 1.993.7 3.615 1.632 3.634s1.727-1.575 1.765-3.568-.693-3.615-1.632-3.634S81.7 65.78 81.7 67.763z" class="cls-4" transform="translate(-6.741 -5.284)"/>
                    <path id="Path_811" d="M57.52 81.3a10.969 10.969 0 1 1 10.97-10.927A10.969 10.969 0 0 1 57.52 81.3zm0-20.99a10.021 10.021 0 1 0 10.021 10.063A10.021 10.021 0 0 0 57.52 60.314z" class="cls-11" transform="translate(-3.841 -4.885)"/>
                    <path id="Path_812" d="M84.421 81.3A10.969 10.969 0 1 1 95.39 70.373 10.969 10.969 0 0 1 84.421 81.3zm0-20.99a10.021 10.021 0 1 0 10.02 10.063 10.021 10.021 0 0 0-10.02-10.059z" class="cls-11" transform="translate(-6.06 -4.885)"/>
                    <path id="Path_813" d="M47.663 65.738a.493.493 0 0 1-.408-.228s-3.065-4.934-7.686-6.642a.474.474 0 1 1 .332-.882c4.934 1.9 8.037 6.87 8.161 7.079a.474.474 0 0 1-.152.655.455.455 0 0 1-.247.019z" class="cls-11" transform="translate(-3.235 -4.767)"/>
                    <path id="Path_814" d="M96.369 65.714a.5.5 0 0 1-.256-.076.474.474 0 0 1-.142-.655c.142-.228 3.577-5.437 8.54-7.307a.493.493 0 0 1 .617.285.474.474 0 0 1-.275.607c-4.669 1.755-8.047 6.918-8.085 6.918a.484.484 0 0 1-.399.228z" class="cls-11" transform="translate(-7.912 -4.744)"/>
                    <path id="Path_815" d="M73.583 69.968a.484.484 0 0 1-.474-.427 1.49 1.49 0 0 0-1.461-1.366 1.414 1.414 0 0 0-1.4 1.347.475.475 0 1 1-.949-.057 2.334 2.334 0 0 1 2.353-2.239 2.429 2.429 0 0 1 2.391 2.22.474.474 0 0 1-.427.522z" class="cls-11" transform="translate(-5.717 -5.534)"/>
                </g>
            </g>
        </g>
    </g>
</svg>
