<svg xmlns="http://www.w3.org/2000/svg" width="119" height="119" viewBox="0 0 119 119">
    <defs>
        <clipPath id="clip-path">
            <circle id="Ellipse_3" cx="59.5" cy="59.5" r="59.5" class="cls-1"/>
        </clipPath>
        <style>
            .cls-1{fill:#fff}.cls-2{fill:#fa0}.cls-4{fill:#fede04}.cls-5{fill:#ffb8a1}.cls-6{fill:#3f2037}.cls-7{fill:#ff8a8a}.cls-8{opacity:.5}
        </style>
    </defs>
    <g id="Group_23" transform="translate(-42.5 -976)">
        <circle id="Ellipse_2" cx="59.5" cy="59.5" r="59.5" class="cls-2" transform="translate(42.5 976)"/>
        <g id="Mask_Group_1" clip-path="url(#clip-path)" transform="translate(42.5 976)">
            <g id="Layer_2" transform="translate(11.694 14.362)">
                <g id="OBJECTS">
                    <path id="Path_1" d="M13.676 59.646S6.7 53.788 10.832 44.232 26.978 33.3 38.557 33.254c17.669 0 38.77 6.077 24.689 26.391 0 .001-17.526 11.593-49.57.001z" class="cls-4" transform="translate(7.657 26.742)"/>
                    <path id="Path_2" d="M23.988 45.042a.526.526 0 0 1-.5-.369 14.393 14.393 0 0 0-4.894-6.535.528.528 0 0 1 .6-.868 15.236 15.236 0 0 1 5.3 7.081.526.526 0 0 1-.342.684.458.458 0 0 1-.164.007z" class="cls-2" transform="translate(14.769 29.896)"/>
                    <path id="Path_3" d="M34.261 50.178a.533.533 0 0 1-.444-.246c-4.607-7.177-18.312-9.255-18.455-9.276a.528.528 0 0 1 .15-1.046c.581.089 14.32 2.167 19.187 9.747a.526.526 0 0 1-.157.731.492.492 0 0 1-.281.09z" class="cls-2" transform="translate(11.987 31.848)"/>
                    <path id="Path_4" d="M93.781 70.868H0S.943 59.193 6.6 56.9c2.29-.916 7.519-3.52 12.987-6.309 7.6-3.889 15.578-8.127 16.4-8.558l.076-.033.718.164c.9.2 1.791.376 2.693.513s1.791.267 2.686.349A44.518 44.518 0 0 0 56.98 42s6.152 3.165 12.987 6.6l2.652 1.367c6.042 3.028 12.1 5.988 14.566 6.972 5.653 2.254 6.596 13.929 6.596 13.929z" class="cls-4" transform="translate(0 33.77)"/>
                    <path id="Path_5" d="M37.457 53.574a29.946 29.946 0 0 1-12.481-2.734 28.23 28.23 0 0 1-7.662-5.031.485.485 0 0 1 0-.684.492.492 0 0 1 .684 0 27.957 27.957 0 0 0 7.4 4.826 28.832 28.832 0 0 0 19.447 1.681.494.494 0 1 1 .246.957 30.411 30.411 0 0 1-7.634.985z" class="cls-2" transform="translate(13.808 36.176)"/>
                    <path id="Path_6" d="M29.67 54.127a26.72 26.72 0 0 1-5.468-.574.5.5 0 0 1 .2-.971c9.775 2.057 15.851-2.235 15.926-2.283a.485.485 0 0 1 .684.116.492.492 0 0 1-.109.684 20.283 20.283 0 0 1-11.233 3.028z" class="cls-2" transform="translate(19.142 40.373)"/>
                    <path id="Path_7" d="M41.87 49.646s-1.839 5.783-10.3 5.783c-9.857 0-12.174-5.256-12.174-5.256a42.912 42.912 0 0 0 1.846-6.227 34.177 34.177 0 0 0 .786-7.806l17.314-.684c.164 1.463.424 3.192.718 4.928.784 4.586 1.81 9.262 1.81 9.262z" class="cls-5" transform="translate(15.595 28.512)"/>
                    <path id="Path_8" d="M39.239 40.369c-2.686 1.866-8.551 4.641-18.818 3.561a34.176 34.176 0 0 0 .786-7.806l17.314-.684c.165 1.46.424 3.193.718 4.929z" class="cls-6" transform="translate(16.421 28.5)"/>
                    <path id="Path_9" d="M21.95 25.236s-5.359-7.293-9.528-2.973 3.868 19.351 11.162 16.076z" class="cls-5" transform="translate(9.069 16.803)"/>
                    <path id="Path_10" d="M18.14 32.173a.369.369 0 0 1-.369-.314 13.374 13.374 0 0 0-4.785-8.2.371.371 0 0 1 .444-.595 14.259 14.259 0 0 1 5.058 8.7.362.362 0 0 1-.314.417z" class="cls-7" transform="translate(10.322 18.486)"/>
                    <path id="Path_11" d="M16.686 26.842a.355.355 0 0 1-.308-.164c-.54-.793-2.146-.875-2.734-.841a.37.37 0 0 1-.044-.737c.1 0 2.495-.144 3.377 1.162a.368.368 0 0 1-.287.581z" class="cls-7" transform="translate(10.655 20.18)"/>
                    <path id="Path_12" d="M36.017 25.236s5.359-7.293 9.528-2.973-3.868 19.351-11.162 16.076z" class="cls-5" transform="translate(27.648 16.803)"/>
                    <path id="Path_13" d="M36.869 32.176h-.048a.362.362 0 0 1-.314-.417 14.259 14.259 0 0 1 5.058-8.7.371.371 0 0 1 .444.595 13.521 13.521 0 0 0-4.785 8.2.369.369 0 0 1-.355.322z" class="cls-7" transform="translate(29.352 18.483)"/>
                    <path id="Path_14" d="M37.49 26.843a.368.368 0 0 1-.3-.581c.882-1.306 3.274-1.169 3.377-1.162a.37.37 0 1 1-.048.738c-.574 0-2.18.048-2.734.841a.355.355 0 0 1-.294.164z" class="cls-7" transform="translate(29.852 20.179)"/>
                    <path id="Path_15" d="M40.208 11.786c-14.99-3.684-28.558 9.9-25.2 24.956 2.392 10.622 7.626 24.026 20.504 24.327 13.411.321 18.79-14.286 20.7-25.359a20.807 20.807 0 0 0-13.93-23.329c-.673-.219-1.363-.417-2.074-.595z" class="cls-5" transform="translate(11.652 8.988)"/>
                    <path id="Path_16" d="M27.822 34.759a5.3 5.3 0 0 1-2.105-.506.513.513 0 0 1-.314-.547l1.073-8.2a.526.526 0 0 1 .588-.458.533.533 0 0 1 .458.595l-1.022 7.79a2.618 2.618 0 0 0 2.529-.1.54.54 0 0 1 .738.144.533.533 0 0 1-.144.738 3.172 3.172 0 0 1-1.801.544z" class="cls-7" transform="translate(20.422 20.138)"/>
                    <path id="Path_17" d="M28.7 35.042a12.242 12.242 0 0 1-5.359-1.271.526.526 0 0 1-.205-.684.519.519 0 0 1 .684-.205c.26.144 6.1 3.295 11.169-1.367a.526.526 0 0 1 .684.779 10.1 10.1 0 0 1-6.973 2.748z" class="cls-7" transform="translate(18.56 25.282)"/>
                    <path id="Path_18" d="M27.832 35.836a8.148 8.148 0 0 1-2.222-.314.526.526 0 0 1-.349-.684.533.533 0 0 1 .684-.349 6.185 6.185 0 0 0 4.012-.212.533.533 0 0 1 .725.2.526.526 0 0 1-.205.718 5.311 5.311 0 0 1-2.645.641z" class="cls-7" transform="translate(20.288 27.509)"/>
                    <path id="Path_19" d="M21.385 24.1a14.252 14.252 0 0 1 4.409-1.586 1.367 1.367 0 0 0 1.121-1.825l-.062-.164a1.367 1.367 0 0 0-1.422-.916 9.844 9.844 0 0 0-5.66 2.317 1.367 1.367 0 0 0-.335 1.367 1.367 1.367 0 0 0 1.948.807z" class="cls-6" transform="translate(15.58 15.765)"/>
                    <path id="Path_20" d="M35.1 24.1a14.252 14.252 0 0 0-4.409-1.586 1.367 1.367 0 0 1-1.1-1.839l.062-.164a1.367 1.367 0 0 1 1.435-.9 9.844 9.844 0 0 1 5.66 2.317 1.367 1.367 0 0 1 .335 1.367 1.367 1.367 0 0 1-1.983.805z" class="cls-6" transform="translate(23.724 15.764)"/>
                    <g id="Group_1" class="cls-8" transform="translate(30.144 47.022)">
                        <path id="Path_21" d="M27.4 28.408c0 1.3-2.392 2.345-5.345 2.345s-5.345-1.046-5.345-2.345 2.392-2.345 5.345-2.345 5.345 1.053 5.345 2.345z" class="cls-7" transform="translate(-16.709 -26.063)"/>
                    </g>
                    <g id="Group_2" class="cls-8" transform="translate(55.284 47.022)">
                        <path id="Path_22" d="M41.334 28.408c0 1.3-2.392 2.345-5.345 2.345s-5.345-1.046-5.345-2.345 2.392-2.345 5.345-2.345 5.345 1.053 5.345 2.345z" class="cls-7" transform="translate(-30.644 -26.063)"/>
                    </g>
                    <path id="Path_23" d="M19.108 48.04s-2.816-15.51-1.948-19.057 2.693-2.9 2.693-2.9S4.665 13.672 12.218 6.576C17.686 1.47 23.975 12.4 23.975 12.4S20.858 1.655 25.287.179c5.543-1.839 8.018 11.039 8.018 11.039s-.424-9.6 4.026-9.419c6.22.267 2.734 7.451 9.46 10.253s16.931 4.224 13.261 15.523c0 0 4.949-.212-1.21 19.952a12.092 12.092 0 0 1-2.256-7.615 21.267 21.267 0 0 0-.335-5.988s-3.855-2.693-3.677-6.63c0 0-13.582 8.059-26.1.875 0 0 .786 4.641-3.151 5.338a27.259 27.259 0 0 0-1.723 7.321 16.131 16.131 0 0 1-2.392 7.02z" class="cls-6" transform="translate(8.131 .001)"/>
                    <path id="Path_24" d="M37.274 13.938s2.146-7.321 5.612-5.468c2.467 1.366-3.286 6.91-3.286 6.91s4.846-2.625 7.232-.772-3.951 4.026-7.608 3.418-1.95-4.088-1.95-4.088z" class="cls-6" transform="translate(29.651 6.571)"/>
                    <path id="Path_25" d="M23.93 25.481c0 1.429-.5 2.6-1.176 2.611s-1.244-1.142-1.271-2.57.506-2.6 1.183-2.611 1.243 1.135 1.264 2.57z" class="cls-6" transform="translate(17.274 18.425)"/>
                    <path id="Path_26" d="M29.931 25.481c0 1.429.506 2.6 1.176 2.611s1.244-1.142 1.271-2.57-.5-2.6-1.176-2.611-1.271 1.135-1.271 2.57z" class="cls-6" transform="translate(24.068 18.425)"/>
                    <path id="Path_27" d="M18.867 50.074v14.71h-1.06v-14.71a.554.554 0 0 1 .1-.314.54.54 0 0 1 .957.314z" class="cls-1" transform="translate(14.319 39.854)"/>
                    <path id="Path_28" d="M35.138 50.08v14.71H34.1V50.08a.533.533 0 0 1 .533-.526.526.526 0 0 1 .5.362.437.437 0 0 1 .007.164z" class="cls-1" transform="translate(27.419 39.848)"/>
                </g>
            </g>
        </g>
    </g>
</svg>
