<svg xmlns="http://www.w3.org/2000/svg" width="160" height="160" viewBox="0 0 160 160">
    <defs>
        <clipPath id="clip-path">
            <rect id="Rectangle_389" width="160" height="160" fill="#00c49a" rx="80" transform="translate(1217 591)"/>
        </clipPath>
        <style>
            .cls-6{fill:#ffb8a1}.cls-7{fill:#3f2037}.cls-8{fill:#ff8a8a}.cls-9{opacity:.5}.cls-10{fill:#734669}
        </style>
    </defs>
    <g id="Mask_Group_9" clip-path="url(#clip-path)" transform="translate(-1217 -591)">
        <g id="Layer_2" transform="translate(1230.207 611.466)">
            <g id="OBJECTS">
                <path id="Path_852" fill="#ff4f4e" d="M133.585 153.968H0s1.344-16.668 9.405-19.892c3.262-1.3 10.71-5.024 18.5-8.987l8.539-4.411.867-.458 6.27-3.271c4.148-2.181 7.117-3.758 7.682-4.06l.1-.049.974.224c1.285.292 2.57.536 3.895.74s2.541.37 3.826.5a63.872 63.872 0 0 0 21.1-1.451s3.135 1.616 7.789 3.963l6.4 3.252.876.448 3.456 1.743 3.778 1.947c8.607 4.3 17.234 8.519 20.749 9.931 8.036 3.163 9.379 19.831 9.379 19.831z" transform="translate(0 -14.434)"/>
                <path id="Path_853" fill="#c42c31" d="M101.539 121.564c-.458 1.334-.974 2.7-1.587 4.06a33.8 33.8 0 0 1-9.337 12.765 26.59 26.59 0 0 1-17.243 5.842c-13.972 0-22.6-8.188-27.369-15.053a50.036 50.036 0 0 1-4.235-7.419l.867-.458a48.683 48.683 0 0 0 4.187 7.351c6.747 9.736 15.686 14.6 26.552 14.6 11.684 0 20.379-6.056 25.685-18 .613-1.383 1.149-2.765 1.607-4.119z" transform="translate(-5.342 -15.495)"/>
                <path id="Path_854" fill="#fff7f1" d="M95.313 116.8c-1.684 7.244-8.052 18.256-22.131 18.256-15.452 0-21.255-12.5-23.231-18.11 4.148-2.181 7.117-3.758 7.682-4.06l.1-.049.974.224c1.285.292 2.57.536 3.895.74s2.541.37 3.826.5a63.872 63.872 0 0 0 21.1-1.451s3.172 1.607 7.785 3.95z" transform="translate(-6.389 -14.434)"/>
                <path id="Path_855" d="M89.165 113.765s-2.619 8.218-14.673 8.218c-14.04 0-17.341-7.487-17.341-7.487a61.341 61.341 0 0 0 2.619-8.9 48.77 48.77 0 0 0 1.12-11.119l24.663-.977c.234 2.093.6 4.557 1.022 7.03 1.14 6.576 2.59 13.235 2.59 13.235z" class="cls-6" transform="translate(-7.31 -11.96)"/>
                <path id="Path_856" d="M86.982 100.568c-3.826 2.658-12.18 6.611-26.8 5.073A48.77 48.77 0 0 0 61.3 94.522l24.663-.974c.23 2.064.6 4.528 1.019 7.02z" class="cls-7" transform="translate(-7.697 -11.966)"/>
                <path id="Path_857" d="M48.435 56.847S40.8 46.458 34.863 52.6s5.511 27.574 15.9 22.9z" class="cls-6" transform="translate(-4.251 -6.48)"/>
                <path id="Path_858" d="M45.386 69.917a.536.536 0 0 1-.526-.458 19.088 19.088 0 0 0-6.816-11.684.526.526 0 0 1 .633-.837 20.31 20.31 0 0 1 7.215 12.385.526.526 0 0 1-.458.594z" class="cls-8" transform="translate(-4.843 -7.272)"/>
                <path id="Path_859" d="M43.944 65.5a.516.516 0 0 1-.438-.224c-.769-1.139-3.057-1.256-3.895-1.2a.516.516 0 0 1-.536-.526.526.526 0 0 1 .487-.565c.146 0 3.554-.195 4.81 1.665a.516.516 0 0 1-.136.73.536.536 0 0 1-.292.12z" class="cls-8" transform="translate(-4.998 -8.056)"/>
                <path id="Path_860" d="M103.646 56.847s7.633-10.389 13.573-4.245-5.511 27.574-15.9 22.9z" class="cls-6" transform="translate(-12.96 -6.48)"/>
                <path id="Path_861" d="M108.086 69.909h-.068a.516.516 0 0 1-.448-.594 20.272 20.272 0 0 1 7.205-12.395.526.526 0 1 1 .633.837 19.26 19.26 0 0 0-6.816 11.684.535.535 0 0 1-.506.467z" class="cls-8" transform="translate(-13.759 -7.265)"/>
                <path id="Path_862" d="M109.917 65.506a.536.536 0 0 1-.292-.088.516.516 0 0 1-.136-.73c1.256-1.86 4.664-1.665 4.81-1.665a.532.532 0 1 1-.068 1.061c-.818 0-3.106.068-3.895 1.2a.516.516 0 0 1-.419.222z" class="cls-8" transform="translate(-13.993 -8.061)"/>
                <path id="Path_863" d="M78.06 20.8c-21.76-.01-35.314 11.265-32.841 37.145 1.422 15.452 9.4 34.565 27.71 34.993 19.1.448 26.766-20.349 29.492-36.132 2.5-14.439-4.868-30.446-18.772-35.052a30.748 30.748 0 0 0-5.589-.954z" class="cls-6" transform="translate(-5.747 -2.661)"/>
                <path id="Path_864" d="M44.588 50.562s-2.531-24.526-2.609-29.969C41.8 7.371 55.142 0 74.723 0c15.783 0 17.73 6.952 19.006 12.541 0 0 11.684.3 13.456 8.442S101.547 53.7 101.547 53.7a80.377 80.377 0 0 1-4.255-13.78c-1.782-8.159-4.1-13.135-9.162-13.242s-11.44.156-18.314 4.226-13.729 4.576-18.568.974c-.029.038-1.315 12.322-6.66 18.684z" class="cls-7" transform="translate(-5.369)"/>
                <g id="Group_213" class="cls-9" transform="translate(42.938 57.446)">
                    <path id="Path_865" d="M64.464 69.23c0 1.84-3.408 3.34-7.614 3.34s-7.614-1.5-7.614-3.34 3.408-3.359 7.614-3.359 7.614 1.509 7.614 3.359z" class="cls-8" transform="translate(-49.236 -65.871)"/>
                </g>
                <g id="Group_214" class="cls-9" transform="translate(78.749 57.446)">
                    <path id="Path_866" d="M105.527 69.23c0 1.84-3.408 3.34-7.614 3.34s-7.613-1.5-7.613-3.34 3.408-3.359 7.614-3.359 7.613 1.509 7.613 3.359z" class="cls-8" transform="translate(-90.299 -65.871)"/>
                </g>
                <path id="Path_867" d="M102.582 57.212a138.522 138.522 0 0 1-3.719 26.97c-5.706 24.078-25.315 20.875-25.315 20.875s-19.113 3.2-24.857-20.875a138.52 138.52 0 0 1-3.719-26.97l3.128-5.218s2.191 20.749 10.136 24.341c0 0 3.525-5.365 15.354-.351 11.83-5.014 15.744.351 15.744.351 7.945-3.593 10.136-24.341 10.136-24.341z" class="cls-7" transform="translate(-5.752 -6.651)"/>
                <path id="Path_868" d="M78.293 75.138a7.546 7.546 0 0 1-3-.72.73.73 0 0 1-.448-.789l1.529-11.684a.75.75 0 0 1 .837-.652.759.759 0 0 1 .652.847l-1.449 11.109a3.8 3.8 0 0 0 3.612-.175.751.751 0 0 1 .837 1.246 4.45 4.45 0 0 1-2.57.818z" class="cls-8" transform="translate(-9.573 -7.839)"/>
                <path id="Path_869" d="M76.019 86.828a17.438 17.438 0 0 1-7.633-1.811.75.75 0 0 1-.292-.974.759.759 0 0 1 .974-.292c.37.2 8.7 4.693 15.909-1.947a.75.75 0 1 1 .974 1.1 14.391 14.391 0 0 1-9.932 3.924z" class="cls-10" transform="translate(-8.7 -10.425)"/>
                <path id="Path_870" d="M78.056 92.2a11.81 11.81 0 0 1-3.164-.438.759.759 0 0 1-.5-.974.75.75 0 0 1 .974-.5s3.369.974 5.715-.312a.759.759 0 0 1 1.032.282.75.75 0 0 1-.292 1.032 7.653 7.653 0 0 1-3.768.905z" class="cls-10" transform="translate(-9.511 -11.497)"/>
                <path id="Path_871" d="M59.958 53.267a20.057 20.057 0 0 1 6.28-2.278 1.947 1.947 0 0 0 1.6-2.6l-.088-.243a1.947 1.947 0 0 0-2.025-1.256c-2.054.214-5.686.974-8.062 3.3a1.947 1.947 0 0 0-.477 1.947 1.947 1.947 0 0 0 2.775 1.129z" class="cls-7" transform="translate(-7.303 -5.996)"/>
                <path id="Path_872" d="M94.914 53.267a20.057 20.057 0 0 0-6.28-2.278 1.947 1.947 0 0 1-1.568-2.6l.088-.243a1.947 1.947 0 0 1 2.016-1.256c2.054.214 5.686.974 8.062 3.3a1.947 1.947 0 0 1 .477 1.947 1.947 1.947 0 0 1-2.794 1.129z" class="cls-7" transform="translate(-11.122 -5.997)"/>
                <path id="Path_873" d="M66.789 60.254c0 2.045-.711 3.71-1.675 3.719s-1.772-1.616-1.811-3.661.721-3.7 1.684-3.719 1.773 1.626 1.802 3.661z" class="cls-7" transform="translate(-8.097 -7.239)"/>
                <path id="Path_874" d="M88.2 60.254c0 2.045.721 3.71 1.675 3.719s1.782-1.616 1.811-3.661-.711-3.7-1.675-3.719-1.811 1.626-1.811 3.661z" class="cls-7" transform="translate(-11.282 -7.239)"/>
            </g>
        </g>
    </g>
</svg>
