<svg xmlns="http://www.w3.org/2000/svg" width="160" height="160" viewBox="0 0 160 160">
    <defs>
        <clipPath id="clip-path">
            <rect id="Rectangle_387" width="160" height="160" fill="#00c49a" rx="80" transform="translate(901 591)"/>
        </clipPath>
        <style>
            .cls-3{fill:#3f2037}.cls-5{fill:#0056a8}.cls-6{fill:#ffb8a1}.cls-7{fill:#ff8a8a}.cls-9{fill:#c42c31}.cls-10{opacity:.5}
        </style>
    </defs>
    <g id="Mask_Group_8" clip-path="url(#clip-path)" transform="translate(-901 -591)">
        <g id="Layer_2" transform="translate(913.283 614.667)">
            <g id="OBJECTS">
                <path id="Path_816" d="M47.827 73.572s-4.116 10.394-1.806 13.908 6.772-3.475 6.772-3.475-3.564 12.715 1.391 13.988 10.256-9.654 10.256-9.654-9.486-19.318-16.613-14.767z" class="cls-3" transform="translate(-6.703 -10.78)"/>
                <path id="Path_817" d="M108.145 73.572s4.106 10.395 1.806 13.909-6.762-3.475-6.762-3.475 3.564 12.714-1.4 13.988-10.266-9.654-10.266-9.654 9.504-19.319 16.622-14.768z" class="cls-3" transform="translate(-13.538 -10.78)"/>
                <path id="Path_818" fill="#0075cf" d="M135.435 152.768H0s.118-1.52.513-3.751c.138-.75.3-1.579.5-2.468a38.321 38.321 0 0 1 1.56-5.232 26.365 26.365 0 0 1 1.066-2.478 14.274 14.274 0 0 1 4.11-5.239 8.351 8.351 0 0 1 1.787-.987c.849-.336 1.974-.839 3.337-1.471 2.823-1.313 6.594-3.169 10.681-5.242 1.54-.77 3.119-1.579 4.719-2.4l.128-.069c3.445-1.757 6.91-3.564 10.138-5.242l3.05-1.589 1.668-.879.257-.128c4.383-2.3 7.611-4.018 8.361-4.422h.069l.1-.059 1.036.237c1.293.3 2.586.543 3.889.75s2.586.375 3.879.5a64.559 64.559 0 0 0 21.4-1.481l7.9 4.067 1.125.573 4.857 2.468 4.817 2.438 3.83 1.915c.592.306 1.185.592 1.777.888 1.678.849 3.356 1.678 4.936 2.468 4.185 2.063 8.045 3.949 10.908 5.242 1.372.632 2.527 1.135 3.376 1.471a8.35 8.35 0 0 1 1.787.987 14.274 14.274 0 0 1 4.106 5.242 26.362 26.362 0 0 1 1.066 2.478 38.322 38.322 0 0 1 1.56 5.232c.2.888.365 1.718.5 2.468a26.627 26.627 0 0 1 .642 3.713z" transform="translate(0 -16.435)"/>
                <path id="Path_819" d="M102.9 118.978H45.181l4.719-2.468h48.142z" class="cls-5" transform="translate(-6.683 -17.234)"/>
                <path id="Path_820" d="M115.7 128.026H27.642c1.54-.77 3.119-1.579 4.718-2.4l.128-.069H110.7c1.707.85 3.385 1.679 5 2.469z" class="cls-5" transform="translate(-4.089 -18.572)"/>
                <path id="Path_821" d="M129.031 137.075H9.094a8.352 8.352 0 0 1 1.787-.987c.849-.336 1.974-.839 3.337-1.471h109.65c1.372.632 2.527 1.135 3.376 1.471a8.352 8.352 0 0 1 1.787.987z" class="cls-5" transform="translate(-1.345 -19.912)"/>
                <path id="Path_822" d="M133.306 146.131H3.024a26.366 26.366 0 0 1 1.066-2.478h128.15a26.36 26.36 0 0 1 1.066 2.478z" class="cls-5" transform="translate(-.447 -21.249)"/>
                <path id="Path_823" d="M135.011 155.169H.6c.138-.75.3-1.579.5-2.468h133.4c.2.889.372 1.718.511 2.468z" class="cls-5" transform="translate(-.089 -22.587)"/>
                <path id="Path_824" d="M97.453 115.149c-1.55 5.469-8.262 14.067-22.517 14.067-14.748 0-22.921-7.966-26.129-12.616l1.668-.879.257-.128c4.383-2.3 7.611-4.018 8.361-4.422h.069l.1-.059 1.036.237c1.293.3 2.586.543 3.889.75s2.586.375 3.879.5a64.558 64.558 0 0 0 21.4-1.481z" class="cls-5" transform="translate(-7.22 -16.435)"/>
                <path id="Path_825" d="M91.762 111.559s-2.655 8.351-14.862 8.351c-14.234 0-17.581-7.591-17.581-7.591a61.973 61.973 0 0 0 2.651-9.019 49.357 49.357 0 0 0 1.135-11.263l25-.987c.237 2.122.612 4.61 1.036 7.117 1.14 6.64 2.621 13.392 2.621 13.392z" class="cls-6" transform="translate(-8.774 -13.467)"/>
                <path id="Path_826" d="M89.619 98.144c-3.879 2.695-12.349 6.713-27.176 5.153a49.357 49.357 0 0 0 1.135-11.263l25-.987c.241 2.102.616 4.589 1.041 7.097z" class="cls-3" transform="translate(-9.236 -13.467)"/>
                <path id="Path_827" d="M49.9 52.817s-7.739-10.533-13.761-4.294 5.587 27.946 16.12 23.217z" class="cls-6" transform="translate(-5.101 -6.885)"/>
                <path id="Path_828" d="M46.906 66.219a.543.543 0 0 1-.533-.464 19.314 19.314 0 0 0-6.91-11.846.533.533 0 1 1 .642-.849 20.592 20.592 0 0 1 7.315 12.556.533.533 0 0 1-.464.6z" class="cls-7" transform="translate(-5.802 -7.83)"/>
                <path id="Path_829" d="M45.478 61.912a.513.513 0 0 1-.444-.237c-.78-1.145-3.1-1.264-3.949-1.214a.534.534 0 1 1-.069-1.066c.148 0 3.6-.2 4.876 1.688a.533.533 0 0 1-.138.74.543.543 0 0 1-.276.089z" class="cls-7" transform="translate(-5.992 -8.785)"/>
                <path id="Path_830" d="M108.337 52.817s7.739-10.533 13.761-4.294-5.587 27.946-16.13 23.217z" class="cls-6" transform="translate(-15.675 -6.885)"/>
                <path id="Path_831" d="M112.987 66.221h-.079a.533.533 0 0 1-.454-.6 20.6 20.6 0 0 1 7.3-12.556.523.523 0 0 1 .75.1.533.533 0 0 1-.1.75c-.059 0-5.923 4.551-6.91 11.846a.543.543 0 0 1-.507.46z" class="cls-7" transform="translate(-16.633 -7.832)"/>
                <path id="Path_832" d="M114.89 61.915a.524.524 0 0 1-.444-.809c1.283-1.885 4.738-1.7 4.936-1.688a.534.534 0 0 1-.069 1.066c-.829-.049-3.159.069-3.949 1.214a.513.513 0 0 1-.474.217z" class="cls-7" transform="translate(-16.917 -8.788)"/>
                <path id="Path_833" d="M81.854 17.7c-21.648-5.291-36.622 10.69-34.618 35.369 1.273 15.676 9.269 35.359 27.837 35.8 19.377.464 29.486-18.144 29.486-39.851 0-16.6-5.577-25.843-19.743-30.473-.938-.283-1.935-.598-2.962-.845z" class="cls-6" transform="translate(-6.96 -2.468)"/>
                <path id="Path_834" d="M43.222 29.163s-4.284 9.871-2.744 11.688c1.323 1.51 3.337.474 3.337.474s-.829 10.858 3.761 11.243 4.018-19.851 4.018-19.851 7.591.207 6.16-6.081c0 0 19.674 3.741 34.846-.257 0 0-.632 6.061 4.491 6.91 0 0-2.961 18.4 2.458 19.743s5.163-11.3 5.163-11.3 2.389 0 3.317-.9c2.231-2.191-1.4-14.126-7.325-21.934-6.585-8.53-39.22-24.749-57.482 10.265z" class="cls-3" transform="translate(-5.938 -1.128)"/>
                <path id="Path_835" fill="#ff4f4e" d="M107.987 25.735s-1.441-.326-4.047-.75l-.8-.128c-2.655-.415-6.308-.908-10.73-1.293l-.78-.069c-3.159-.257-6.683-.464-10.5-.553h-.77c-3.287-.069-6.782 0-10.434.118h-.76c-3.406.168-6.91.434-10.552.849l-.78.089q-5.311.642-10.858 1.708l-.8.158c-1.382.276-2.774.582-4.166.918 0 0 1.629-11.619 11-19.555.513-.434 1.036-.859 1.6-1.264a29.614 29.614 0 0 1 9.259-4.5l.921-.263A36.741 36.741 0 0 1 71.364.128l.78-.059C72.944 0 73.8 0 74.691 0a31.187 31.187 0 0 1 3.5.128l.79.069a37.511 37.511 0 0 1 6.574 1.165l.987.267a30.66 30.66 0 0 1 9.3 4.6 19.741 19.741 0 0 1 1.57 1.244 32.842 32.842 0 0 1 10.575 18.262z" transform="translate(-6.214)"/>
                <path id="Path_836" d="M55.309 7.02c-3.08 5.252-6.485 12.369-7.631 19.743a33.819 33.819 0 0 0-.4 4.106h-.76a32.841 32.841 0 0 1 .365-3.949c.987-6.841 3.949-13.464 6.831-18.637.549-.433 1.032-.858 1.595-1.263z" class="cls-9" transform="translate(-6.88 -1.038)"/>
                <path id="Path_837" d="M67.465 1.413a92.563 92.563 0 0 0-6.179 22.7 56.14 56.14 0 0 0-.434 5.923h-.76a56.759 56.759 0 0 1 .415-5.794 93.047 93.047 0 0 1 6.03-22.572z" class="cls-9" transform="translate(-8.889 -.209)"/>
                <path id="Path_838" d="M76.788.081c-.612 4.334-1.727 13.257-2.182 22.98-.1 2.231-.168 4.5-.178 6.772h-.76c0-2.251.079-4.511.178-6.732.434-9.664 1.54-18.548 2.2-22.961z" class="cls-9" transform="translate(-10.897 -.012)"/>
                <path id="Path_839" d="M87.6 29.829h-.77c0-2.31-.079-4.63-.188-6.91C86.2 13.284 85.09 4.449 84.478.116l.79.069c.612 4.412 1.708 13.188 2.142 22.7q.162 3.498.19 6.944z" class="cls-9" transform="translate(-12.496 -.017)"/>
                <path id="Path_840" d="M100.435 30.048h-.78a56.512 56.512 0 0 0-.484-6.328A92.929 92.929 0 0 0 93.12 1.6l.987.267A93.591 93.591 0 0 1 100.03 23.8a59.858 59.858 0 0 1 .405 6.248z" class="cls-9" transform="translate(-13.774 -.236)"/>
                <path id="Path_841" d="M113.783 30.9h-.76a33.928 33.928 0 0 0-.543-4.936c-1.254-6.91-4.412-13.6-7.334-18.617a19.741 19.741 0 0 1 1.57 1.244 58.241 58.241 0 0 1 6.564 17.482 34.55 34.55 0 0 1 .5 4.827z" class="cls-9" transform="translate(-15.553 -1.086)"/>
                <path id="Path_842" d="M40.019 30.157s-1.806 3.8.345 9.5c0 0 21.6-12.922 68.27-.839 0 0 2.961-3.307 0-9.289-.009-.004-36.034-15.798-68.615.628z" class="cls-9" transform="translate(-5.815 -3.356)"/>
                <path id="Path_843" d="M81.152 73.261a7.62 7.62 0 0 1-3.04-.721.76.76 0 0 1-.494-.8l1.55-11.84a.762.762 0 1 1 1.51.2l-1.431 11.246a3.8 3.8 0 0 0 3.652-.138.764.764 0 1 1 .859 1.264 4.58 4.58 0 0 1-2.606.79z" class="cls-7" transform="translate(-11.48 -8.762)"/>
                <path id="Path_844" d="M78.687 83.949a17.68 17.68 0 0 1-7.739-1.836.762.762 0 0 1 .74-1.333c.375.207 8.815 4.758 16.13-1.974a.76.76 0 1 1 .987 1.115 14.59 14.59 0 0 1-10.118 4.028z" class="cls-7" transform="translate(-10.436 -11.612)"/>
                <path id="Path_845" d="M80.909 89.612a11.766 11.766 0 0 1-3.208-.454.76.76 0 0 1 .454-1.451s3.415.987 5.794-.316a.77.77 0 0 1 1.051.287.76.76 0 0 1-.3 1.036 7.67 7.67 0 0 1-3.791.9z" class="cls-7" transform="translate(-11.414 -12.912)"/>
                <path id="Path_846" d="M62.148 49.1a20.592 20.592 0 0 1 6.367-2.33 1.974 1.974 0 0 0 1.619-2.636l-.089-.237a1.974 1.974 0 0 0-2.053-1.293c-2.083.217-5.765.987-8.173 3.346a1.974 1.974 0 0 0-.484 1.974 1.974 1.974 0 0 0 2.813 1.176z" class="cls-3" transform="translate(-8.764 -6.301)"/>
                <path id="Path_847" d="M98.3 49.1a20.592 20.592 0 0 0-6.367-2.33 1.974 1.974 0 0 1-1.589-2.626l.089-.237a1.974 1.974 0 0 1 2.073-1.3c2.083.217 5.765.987 8.173 3.346a1.974 1.974 0 0 1 .484 1.974A1.974 1.974 0 0 1 98.3 49.1z" class="cls-3" transform="translate(-13.346 -6.301)"/>
                <g id="Group_211" class="cls-10" transform="translate(43.533 53.128)">
                    <path id="Path_848" d="M66.528 65.736c0 1.876-3.455 3.4-7.719 3.4s-7.719-1.52-7.719-3.4 3.455-3.386 7.719-3.386 7.719 1.52 7.719 3.386z" class="cls-7" transform="translate(-51.09 -62.35)"/>
                </g>
                <g id="Group_212" class="cls-10" transform="translate(79.839 53.128)">
                    <path id="Path_849" d="M109.138 65.736c0 1.876-3.455 3.4-7.719 3.4s-7.719-1.52-7.719-3.4 3.455-3.386 7.719-3.386 7.719 1.52 7.719 3.386z" class="cls-7" transform="translate(-93.699 -62.35)"/>
                </g>
                <path id="Path_850" d="M69.22 56.423c0 2.063-.721 3.751-1.7 3.771s-1.8-1.639-1.836-3.712.73-3.751 1.708-3.771 1.799 1.639 1.828 3.712z" class="cls-3" transform="translate(-9.716 -7.797)"/>
                <path id="Path_851" d="M91.521 56.423c0 2.063.73 3.751 1.7 3.771s1.8-1.639 1.836-3.712-.721-3.751-1.7-3.771-1.836 1.639-1.836 3.712z" class="cls-3" transform="translate(-13.538 -7.797)"/>
            </g>
        </g>
    </g>
</svg>
