<svg xmlns="http://www.w3.org/2000/svg" width="268.353" height="59" viewBox="0 0 268.353 59">
    <defs>
        <style>
            .cls-1{fill:#2162c1}.cls-2{fill:#3c4247}
        </style>
    </defs>
    <g id="Layer_2">
        <g id="Layer_1">
            <path id="Path_358" d="M6.33 52.51c0 2.33-1.52 3.74-4 3.74H0v-7.52h2.34c2.47 0 3.99 1.45 3.99 3.78zm-4 2.93a2.68 2.68 0 0 0 3-2.93 2.72 2.72 0 0 0-3-3H1v5.91z" class="cls-1"/>
            <path id="Path_359" d="M7.47 48.71a.66.66 0 1 1 .3.639.66.66 0 0 1-.3-.639zm.16 1.63h1v5.91h-1z" class="cls-1"/>
            <path id="Path_360" d="M12.37 56.35C11 56.35 10 55.6 10 54.52h1c.06.57.56 1 1.39 1s1.21-.39 1.21-.87c0-1.32-3.49-.55-3.49-2.75 0-.91.85-1.65 2.17-1.65a2 2 0 0 1 2.23 1.85h-1a1.14 1.14 0 0 0-1.29-1c-.72 0-1.15.34-1.15.82 0 1.4 3.43.63 3.47 2.75-.01.95-.86 1.68-2.17 1.68z" class="cls-1"/>
            <path id="Path_361" d="M18.43 50.25a2.58 2.58 0 0 1 2.73 2H20.1a1.61 1.61 0 0 0-1.67-1.16c-1.08 0-1.88.76-1.88 2.21s.8 2.23 1.88 2.23a1.59 1.59 0 0 0 1.67-1.17h1.06a2.64 2.64 0 0 1-2.73 2 3.06 3.06 0 0 1 0-6.1z" class="cls-1"/>
            <path id="Path_362" d="M25 56.35a3.05 3.05 0 1 1 3-3.06 2.93 2.93 0 0 1-3 3.06zm0-.86a2.2 2.2 0 0 0 0-4.39 2.21 2.21 0 0 0 0 4.39z" class="cls-1"/>
            <path id="Path_363" d="M29.72 50.34l1.85 5 1.83-5h1.05l-2.32 5.91H31l-2.32-5.91z" class="cls-1"/>
            <path id="Path_364" d="M38 56.35a2.85 2.85 0 0 1-2.93-3.06 2.81 2.81 0 0 1 2.93-3 2.7 2.7 0 0 1 2.83 2.82 5.538 5.538 0 0 1 0 .59h-4.77A1.85 1.85 0 0 0 38 55.52a1.63 1.63 0 0 0 1.66-1.09h1.04a2.67 2.67 0 0 1-2.7 1.92zm-1.91-3.48h3.71a1.73 1.73 0 0 0-1.87-1.79 1.82 1.82 0 0 0-1.86 1.79z" class="cls-1"/>
            <path id="Path_365" d="M43.09 56.25h-1v-5.91h1v1A2 2 0 0 1 45 50.23v1h-.26c-.94 0-1.65.42-1.65 1.79z" class="cls-1"/>
            <path id="Path_366" d="M53.09 50.34h1L50.55 59h-1l1.17-2.85-2.39-5.85h1.07l1.86 4.79z" class="cls-1"/>
            <path id="Path_367" d="M57.67 56.35a3.05 3.05 0 1 1 3-3.06 2.93 2.93 0 0 1-3 3.06zm0-.86a2.21 2.21 0 1 0-1.953-2.19 2.2 2.2 0 0 0 1.953 2.19z" class="cls-1"/>
            <path id="Path_368" d="M67.24 56.25h-1v-.87a2.15 2.15 0 0 1-1.88 1 2.31 2.31 0 0 1-2.43-2.53v-3.51h1v3.34a1.59 1.59 0 0 0 1.65 1.81c1 0 1.69-.63 1.69-1.9v-3.25h1z" class="cls-1"/>
            <path id="Path_369" d="M69.88 56.25h-1v-5.91h1v1a2 2 0 0 1 1.91-1.07v1h-.26c-.94 0-1.65.42-1.65 1.79z" class="cls-1"/>
            <path id="Path_370" d="M79 50.25a2.79 2.79 0 0 1 2.8 3 2.84 2.84 0 0 1-2.8 3.1 2.45 2.45 0 0 1-2.21-1.19v1.09h-1v-8h1v3.17A2.48 2.48 0 0 1 79 50.25zm-.21.85a2.2 2.2 0 1 0 2 2.18 2 2 0 0 0-2-2.18z" class="cls-1"/>
            <path id="Path_371" d="M85.65 56.35a2.85 2.85 0 0 1-2.92-3.06 2.81 2.81 0 0 1 2.92-3 2.7 2.7 0 0 1 2.84 2.82 5.54 5.54 0 0 1 0 .59h-4.76a1.86 1.86 0 0 0 1.92 1.86 1.63 1.63 0 0 0 1.67-1.09h1.05a2.65 2.65 0 0 1-2.72 1.88zm-1.91-3.48h3.74a1.73 1.73 0 0 0-1.87-1.79 1.83 1.83 0 0 0-1.87 1.79z" class="cls-1"/>
            <path id="Path_372" d="M91.88 56.35c-1.38 0-2.35-.75-2.42-1.83h1c0 .57.56 1 1.39 1s1.21-.39 1.21-.87c0-1.32-3.5-.55-3.5-2.75 0-.91.85-1.65 2.17-1.65A2 2 0 0 1 94 52.1h-1a1.13 1.13 0 0 0-1.28-1c-.72 0-1.16.34-1.16.82 0 1.4 3.43.63 3.48 2.75-.04.95-.85 1.68-2.16 1.68z" class="cls-1"/>
            <path id="Path_373" d="M95.63 51.15h-.76v-.81h.76v-1.49h1v1.49h1.54v.81h-1.55v3.49c0 .58.21.78.82.78h.72v.83h-.89a1.43 1.43 0 0 1-1.64-1.61z" class="cls-1"/>
            <path id="Path_374" d="M19.88 33.58H5.65V2.84a2.75 2.75 0 0 0-.82-2 2.73 2.73 0 0 0-2-.84 2.75 2.75 0 0 0-2 .84 2.69 2.69 0 0 0-.82 2v33.55a2.69 2.69 0 0 0 .82 2 2.76 2.76 0 0 0 2 .85h17a2.77 2.77 0 0 0 2-.85 2.85 2.85 0 0 0 0-4 2.79 2.79 0 0 0-1.95-.81z" class="cls-2"/>
            <path id="Path_375" d="M48.15 14.31a14.49 14.49 0 0 0-15.93-3.09 14.74 14.74 0 0 0-4.63 3.09 14 14 0 0 0-4.25 10.25A14.581 14.581 0 0 0 37.88 39 15.93 15.93 0 0 0 47 36.39l.27-.18.07-.06a2.51 2.51 0 0 0 .91-1.95 2.56 2.56 0 0 0-2.55-2.56 2.52 2.52 0 0 0-1.41.43 11.13 11.13 0 0 1-6.41 1.76 9.29 9.29 0 0 1-5.83-2 9.14 9.14 0 0 1-3.26-4.75h21.06a2.53 2.53 0 0 0 1.82-.76 2.47 2.47 0 0 0 .74-1.8 14.13 14.13 0 0 0-1.16-5.64 14.4 14.4 0 0 0-3.1-4.57zM28.79 22A9.44 9.44 0 0 1 47 22z" class="cls-2"/>
            <path id="Path_376" d="M79.26 13.39a14 14 0 0 0-19.14.92 14.08 14.08 0 0 0-4.18 10.22 14.222 14.222 0 0 0 23.32 11.05v.84a2.45 2.45 0 0 0 .76 1.8 2.53 2.53 0 0 0 4.33-1.8V23.57a14.63 14.63 0 0 0-5.09-10.18zM76.6 31.13a9 9 0 0 1-12.88 0 9.441 9.441 0 0 1-.04-13.22 9 9 0 0 1 12.88 0 9.54 9.54 0 0 1 0 13.22z" class="cls-2"/>
            <path id="Path_377" d="M102 9.78a12.82 12.82 0 0 0-3.09.38 12.75 12.75 0 0 0-5.11 2.66l-.13.11a14.36 14.36 0 0 0-5.19 10.71v12.78a2.69 2.69 0 0 0 .82 2 2.79 2.79 0 0 0 2 .82 2.83 2.83 0 0 0 2-.82 2.72 2.72 0 0 0 .81-2V24.53a9.53 9.53 0 0 1 2.34-6.45 7.21 7.21 0 0 1 5.55-2.62 2.89 2.89 0 0 0 2.84-2.84 2.67 2.67 0 0 0-.84-2 2.66 2.66 0 0 0-2-.84z" class="cls-2"/>
            <path id="Path_378" d="M128.44 14.05l-.45-.48a12.71 12.71 0 0 0-17.07-1.07l-.45.35a13.51 13.51 0 0 0-5.2 10.25v13.24a2.75 2.75 0 0 0 .82 2 2.83 2.83 0 0 0 2 .81 2.8 2.8 0 0 0 2.81-2.81V24.46a9.45 9.45 0 0 1 2.36-6.46 7.25 7.25 0 0 1 11.17 0 9.49 9.49 0 0 1 2.33 6.45v12a2.79 2.79 0 0 0 .82 2 2.84 2.84 0 0 0 4.83-2v-12a16.69 16.69 0 0 0-.15-2.28 14.66 14.66 0 0 0-3.82-8.12z" class="cls-2"/>
            <path id="Path_379" d="M192.58 9.79a13.81 13.81 0 0 0-10.24 4.33 14.35 14.35 0 0 0-4.26 10.41 14.5 14.5 0 1 0 28.99 0 14.34 14.34 0 0 0-4.25-10.41 13.89 13.89 0 0 0-10.24-4.33zm6.24 21.15a8.71 8.71 0 0 1-12.49 0 8.9 8.9 0 0 1-2.6-6.41 8.91 8.91 0 0 1 2.6-6.43 8.71 8.71 0 0 1 12.49 0 8.91 8.91 0 0 1 2.6 6.43 8.9 8.9 0 0 1-2.6 6.41z" class="cls-2"/>
            <path id="Path_380" d="M225.16 15.46a8.41 8.41 0 0 1 7.14 3.69 2.58 2.58 0 0 0 1.82 1.15 2.44 2.44 0 0 0 2.11-.48 2.69 2.69 0 0 0 1.14-1.82 2.609 2.609 0 0 0 .06-.53 2.71 2.71 0 0 0-.54-1.61 14.513 14.513 0 0 0-26.26 8.66 14.459 14.459 0 0 0 26.26 8.62 2.61 2.61 0 0 0 .54-1.59 2.829 2.829 0 0 0-.05-.5 2.66 2.66 0 0 0-1.14-1.84 2.53 2.53 0 0 0-2.09-.49 2.72 2.72 0 0 0-1.85 1.12 8.37 8.37 0 0 1-7.14 3.73 8.47 8.47 0 0 1-6.24-2.64 8.9 8.9 0 0 1-2.6-6.41 8.91 8.91 0 0 1 2.6-6.43 8.47 8.47 0 0 1 6.24-2.63z" class="cls-2"/>
            <path id="Path_381" d="M264.39 14.06a12.63 12.63 0 0 0-9.62-4.35 12.4 12.4 0 0 0-7.91 2.78v-9.6a2.76 2.76 0 0 0-.82-2 2.73 2.73 0 0 0-2-.84 2.76 2.76 0 0 0-2 .84 2.75 2.75 0 0 0-.82 2v33.45a2.76 2.76 0 0 0 .82 2 2.82 2.82 0 0 0 4.81-2V24.46a9.49 9.49 0 0 1 2.34-6.46 7.22 7.22 0 0 1 11.15 0 9.42 9.42 0 0 1 2.36 6.45v12a2.79 2.79 0 0 0 .82 2 2.84 2.84 0 0 0 4.83-2v-12a14.85 14.85 0 0 0-3.96-10.39z" class="cls-2"/>
            <path id="Path_382" d="M173.44 32.84a2.8 2.8 0 0 0-3.44 1.91 2.4 2.4 0 0 1-4 1.06 19.62 19.62 0 0 0 8.36-16.12 19.232 19.232 0 1 0-19.23 19.54 18.88 18.88 0 0 0 5.8-.91 7.951 7.951 0 0 0 14.4-2.03 2.79 2.79 0 0 0-1.89-3.45zM141.5 19.69a13.66 13.66 0 1 1 27.31 0 14.09 14.09 0 0 1-3.95 9.81 8.57 8.57 0 0 0-16.48 2.31 14 14 0 0 1-6.88-12.12zm12.26 13.89a2.64 2.64 0 0 0 .15-.89 3 3 0 1 1 6-.2l-.06.32a13.44 13.44 0 0 1-4.68.84 12.811 12.811 0 0 1-1.41-.07z" class="cls-2"/>
        </g>
    </g>
</svg>
