<svg xmlns="http://www.w3.org/2000/svg" width="65" height="65" viewBox="0 0 65 65">
    <defs>
        <clipPath id="clip-path">
            <circle id="Ellipse_3" cx="32.5" cy="32.5" r="32.5" class="cls-1" transform="translate(.5)"/>
        </clipPath>
        <style>
            .cls-1{fill:#fff}.cls-2{fill:#fa0}.cls-4{fill:#fede04}.cls-5{fill:#ffb8a1}.cls-6{fill:#3f2037}.cls-7{fill:#ff8a8a}.cls-8{opacity:.5}
        </style>
    </defs>
    <g id="Group_23" transform="translate(-42.5 -976)">
        <circle id="Ellipse_2" cx="32.5" cy="32.5" r="32.5" class="cls-2" transform="translate(42.5 976)"/>
        <g id="Mask_Group_1" clip-path="url(#clip-path)" transform="translate(42 976)">
            <g id="Layer_2" transform="translate(6.888 7.845)">
                <g id="OBJECTS">
                    <path id="Path_1" d="M11.791 47.67a7.206 7.206 0 0 1-1.553-8.419c2.259-5.22 8.819-5.974 15.143-6 9.651 0 21.177 3.319 13.486 14.415 0 .004-9.573 6.334-27.076.004z" class="cls-4" transform="translate(-.139 -.483)"/>
                    <path id="Path_2" d="M21.437 41.473a.287.287 0 0 1-.273-.2 7.862 7.862 0 0 0-2.673-3.573.288.288 0 0 1 .329-.474 8.322 8.322 0 0 1 2.893 3.874.287.287 0 0 1-.187.373.25.25 0 0 1-.09 0z" class="cls-2" transform="translate(-.268 -.541)"/>
                    <path id="Path_3" d="M25.479 45.38a.291.291 0 0 1-.243-.134c-2.516-3.92-10-5.055-10.081-5.066a.289.289 0 0 1 .082-.571c.317.049 7.822 1.184 10.48 5.324a.287.287 0 0 1-.086.4.269.269 0 0 1-.152.047z" class="cls-2" transform="translate(-.217 -.576)"/>
                    <path id="Path_4" d="M51.225 57.766H0s.515-6.377 3.607-7.628c1.251-.5 4.107-1.923 7.094-3.446 4.152-2.124 8.509-4.439 8.961-4.674L19.7 42l.392.09c.489.108.978.205 1.471.28s.978.146 1.467.19a24.317 24.317 0 0 0 8.093-.56s3.36 1.729 7.094 3.607l1.449.747c3.3 1.654 6.608 3.271 7.956 3.808 3.088 1.227 3.603 7.604 3.603 7.604z" class="cls-4" transform="translate(0 -.611)"/>
                    <path id="Path_5" d="M28.252 49.678a16.357 16.357 0 0 1-6.818-1.493 15.42 15.42 0 0 1-4.185-2.748.265.265 0 0 1 0-.373.269.269 0 0 1 .373 0 15.27 15.27 0 0 0 4.044 2.636 15.748 15.748 0 0 0 10.622.918.27.27 0 1 1 .134.523 16.611 16.611 0 0 1-4.17.537z" class="cls-2" transform="translate(-.25 -.654)"/>
                    <path id="Path_6" d="M27.008 52.348a14.6 14.6 0 0 1-2.987-.314.271.271 0 1 1 .108-.53 11.572 11.572 0 0 0 8.7-1.247.265.265 0 0 1 .373.063.269.269 0 0 1-.06.373 11.079 11.079 0 0 1-6.134 1.655z" class="cls-2" transform="translate(-.347 -.73)"/>
                    <path id="Path_7" d="M31.671 43.207s-1 3.159-5.627 3.159c-5.384 0-6.65-2.871-6.65-2.871a23.439 23.439 0 0 0 1.008-3.4 18.668 18.668 0 0 0 .429-4.264l9.457-.373c.09.8.231 1.744.392 2.692.431 2.503.991 5.057.991 5.057z" class="cls-5" transform="translate(-.283 -.515)"/>
                    <path id="Path_8" d="M30.7 38.132c-1.467 1.019-4.671 2.535-10.279 1.945a18.668 18.668 0 0 0 .429-4.264l9.457-.373c.093.799.233 1.744.393 2.692z" class="cls-6" transform="translate(-.298 -.515)"/>
                    <path id="Path_9" d="M17.107 23.266s-2.927-3.984-5.2-1.624 2.113 10.57 6.1 8.781z" class="cls-5" transform="translate(-.164 -.303)"/>
                    <path id="Path_10" d="M15.734 28a.2.2 0 0 1-.2-.172 7.305 7.305 0 0 0-2.614-4.48.2.2 0 0 1 .243-.325 7.788 7.788 0 0 1 2.763 4.753.2.2 0 0 1-.172.228z" class="cls-7" transform="translate(-.187 -.334)"/>
                    <path id="Path_11" d="M15.127 26.049a.194.194 0 0 1-.168-.09c-.295-.433-1.172-.478-1.493-.459a.2.2 0 0 1-.026-.4c.056 0 1.363-.078 1.844.635a.2.2 0 0 1-.157.317z" class="cls-7" transform="translate(-.193 -.365)"/>
                    <path id="Path_12" d="M35.276 23.266s2.927-3.984 5.2-1.624-2.113 10.57-6.1 8.781z" class="cls-5" transform="translate(-.501 -.303)"/>
                    <path id="Path_13" d="M36.7 28h-.026a.2.2 0 0 1-.172-.228 7.788 7.788 0 0 1 2.763-4.753.2.2 0 0 1 .243.325 7.385 7.385 0 0 0-2.614 4.48.2.2 0 0 1-.194.176z" class="cls-7" transform="translate(-.532 -.334)"/>
                    <path id="Path_14" d="M37.324 26.049a.2.2 0 0 1-.164-.317c.482-.713 1.788-.638 1.844-.635a.2.2 0 1 1-.026.4c-.314 0-1.191.026-1.493.459a.194.194 0 0 1-.161.09z" class="cls-7" transform="translate(-.541 -.364)"/>
                    <path id="Path_15" d="M28.538 11.509a11.419 11.419 0 0 0-13.766 13.632c1.307 5.8 4.167 13.124 11.2 13.288 7.325.175 10.264-7.8 11.309-13.852a11.365 11.365 0 0 0-7.609-12.743c-.372-.119-.746-.228-1.134-.325z" class="cls-5" transform="translate(-.211 -.162)"/>
                    <path id="Path_16" d="M26.722 30.349a2.894 2.894 0 0 1-1.15-.276.28.28 0 0 1-.172-.3l.586-4.48a.287.287 0 0 1 .321-.25.291.291 0 0 1 .25.325L26 29.625a1.43 1.43 0 0 0 1.381-.056.3.3 0 0 1 .4.078.291.291 0 0 1-.078.4 1.732 1.732 0 0 1-.981.302z" class="cls-7" transform="translate(-.37 -.364)"/>
                    <path id="Path_17" d="M26.15 33.407a6.687 6.687 0 0 1-2.927-.694.287.287 0 0 1-.112-.373.284.284 0 0 1 .373-.112 5.348 5.348 0 0 0 6.1-.747.287.287 0 0 1 .373.426 5.518 5.518 0 0 1-3.808 1.5z" class="cls-7" transform="translate(-.336 -.457)"/>
                    <path id="Path_18" d="M26.652 35.1a4.451 4.451 0 0 1-1.213-.172.287.287 0 0 1-.19-.373.291.291 0 0 1 .373-.19 3.378 3.378 0 0 0 2.192-.116.291.291 0 0 1 .4.108.287.287 0 0 1-.112.392 2.9 2.9 0 0 1-1.45.351z" class="cls-7" transform="translate(-.368 -.497)"/>
                    <path id="Path_19" d="M20.474 22.06a7.784 7.784 0 0 1 2.408-.866.747.747 0 0 0 .612-1l-.034-.09a.747.747 0 0 0-.777-.5 5.377 5.377 0 0 0-3.091 1.266.747.747 0 0 0-.183.747.747.747 0 0 0 1.064.441z" class="cls-6" transform="translate(-.282 -.285)"/>
                    <path id="Path_20" d="M32.561 22.06a7.785 7.785 0 0 0-2.408-.866.747.747 0 0 1-.6-1l.034-.09a.747.747 0 0 1 .784-.493 5.377 5.377 0 0 1 3.091 1.266.747.747 0 0 1 .183.747.747.747 0 0 1-1.083.441z" class="cls-6" transform="translate(-.43 -.284)"/>
                    <g id="Group_1" class="cls-8" transform="translate(16.465 25.685)">
                        <path id="Path_21" d="M22.548 27.344c0 .709-1.307 1.281-2.92 1.281s-2.92-.571-2.92-1.281 1.307-1.281 2.92-1.281 2.92.575 2.92 1.281z" class="cls-7" transform="translate(-16.709 -26.063)"/>
                    </g>
                    <g id="Group_2" class="cls-8" transform="translate(30.197 25.685)">
                        <path id="Path_22" d="M36.483 27.344c0 .709-1.307 1.281-2.92 1.281s-2.92-.571-2.92-1.281 1.307-1.281 2.92-1.281 2.92.575 2.92 1.281z" class="cls-7" transform="translate(-30.644 -26.063)"/>
                    </g>
                    <path id="Path_23" d="M15.026 26.24s-1.538-8.472-1.064-10.409 1.471-1.583 1.471-1.583-8.3-6.78-4.17-10.656C14.249.8 17.684 6.773 17.684 6.773S15.982.9 18.4.1c3.028-1 4.38 6.03 4.38 6.03S22.549.881 24.979.982c3.4.146 1.493 4.07 5.167 5.6s9.248 2.307 7.243 8.479c0 0 2.7-.116-.661 10.9A6.6 6.6 0 0 1 35.5 21.8a11.616 11.616 0 0 0-.183-3.271s-2.106-1.471-2.009-3.622c0 0-7.419 4.4-14.259.478 0 0 .429 2.535-1.721 2.916a14.889 14.889 0 0 0-.937 4 8.811 8.811 0 0 1-1.307 3.834z" class="cls-6" transform="translate(-.147 .001)"/>
                    <path id="Path_24" d="M37.093 11.32s1.172-4 3.065-2.987c1.348.747-1.8 3.775-1.8 3.775s2.647-1.434 3.95-.422-2.158 2.2-4.155 1.867-1.06-2.233-1.06-2.233z" class="cls-6" transform="translate(-.537 -.118)"/>
                    <path id="Path_25" d="M22.819 24.315c0 .78-.273 1.419-.642 1.426s-.68-.624-.694-1.4.276-1.423.646-1.426.679.616.69 1.4z" class="cls-6" transform="translate(-.313 -.333)"/>
                    <path id="Path_26" d="M29.931 24.315c0 .78.276 1.419.642 1.426s.68-.624.694-1.4-.273-1.423-.642-1.426-.694.616-.694 1.4z" class="cls-6" transform="translate(-.436 -.333)"/>
                    <path id="Path_27" d="M18.386 49.841v8.035h-.579v-8.035a.3.3 0 0 1 .056-.172.295.295 0 0 1 .523.172z" class="cls-1" transform="translate(-.259 -.721)"/>
                    <path id="Path_28" d="M34.667 49.841v8.035H34.1v-8.035a.291.291 0 0 1 .291-.287.287.287 0 0 1 .273.2.239.239 0 0 1 0 .09z" class="cls-1" transform="translate(-.497 -.721)"/>
                </g>
            </g>
        </g>
    </g>
</svg>
