<svg xmlns="http://www.w3.org/2000/svg" width="36" height="36" viewBox="0 0 36 36">
    <path fill="none" d="M0 0h36v36H0z"/>
    <path fill="#2162c1" d="M4.5 18h9a1.5 1.5 0 0 0 1.5-1.5v-12A1.5 1.5 0 0 0 13.5 3h-9A1.5 1.5 0 0 0 3 4.5v12A1.5 1.5 0 0 0 4.5 18zm0 12h9a1.5 1.5 0 0 0 1.5-1.5v-6a1.5 1.5 0 0 0-1.5-1.5h-9A1.5 1.5 0 0 0 3 22.5v6A1.5 1.5 0 0 0 4.5 30zm15 0h9a1.5 1.5 0 0 0 1.5-1.5v-12a1.5 1.5 0 0 0-1.5-1.5h-9a1.5 1.5 0 0 0-1.5 1.5v12a1.5 1.5 0 0 0 1.5 1.5zM18 4.5v6a1.5 1.5 0 0 0 1.5 1.5h9a1.5 1.5 0 0 0 1.5-1.5v-6A1.5 1.5 0 0 0 28.5 3h-9A1.5 1.5 0 0 0 18 4.5z" transform="translate(1.5 1.5)"/>
</svg>
