<svg xmlns="http://www.w3.org/2000/svg" xmlns:xlink="http://www.w3.org/1999/xlink" width="935" height="1080" viewBox="0 0 935 1080">
  <defs>
    <clipPath id="clip-path">
      <rect id="Rectangle_515" data-name="Rectangle 515" width="935" height="1080" fill="#fff" stroke="#707070" stroke-width="1"/>
    </clipPath>
    <linearGradient id="linear-gradient" x1="-0.432" y1="2.043" x2="0.578" y2="0.618" gradientUnits="objectBoundingBox">
      <stop offset="0" stop-color="#62c0eb"/>
      <stop offset="0.452" stop-color="#55ade2"/>
      <stop offset="1" stop-color="#2162c1"/>
    </linearGradient>
    <linearGradient id="linear-gradient-2" y1="7.795" x2="1" y2="7.795" gradientUnits="objectBoundingBox">
      <stop offset="0.14" stop-color="#4e6de7"/>
      <stop offset="1" stop-color="#6b4ee7"/>
    </linearGradient>
    <linearGradient id="linear-gradient-3" x1="0" y1="6.151" x2="1" y2="6.151" xlink:href="#linear-gradient-2"/>
    <linearGradient id="linear-gradient-4" x1="-55.459" y1="30.61" x2="-55.477" y2="30.61" gradientUnits="objectBoundingBox">
      <stop offset="0.14" stop-color="#fb7207"/>
      <stop offset="1" stop-color="#fb5607"/>
    </linearGradient>
    <linearGradient id="linear-gradient-5" x1="-56.141" y1="15.072" x2="-56.159" y2="15.072" xlink:href="#linear-gradient-2"/>
    <linearGradient id="linear-gradient-6" x1="0" y1="-1.558" x2="1" y2="-1.558" xlink:href="#linear-gradient-2"/>
    <linearGradient id="linear-gradient-7" x1="0.79" y1="-1.518" x2="0.146" y2="-0.531" gradientUnits="objectBoundingBox">
      <stop offset="0" stop-color="#16c4f4"/>
      <stop offset="1" stop-color="#54459c"/>
    </linearGradient>
    <linearGradient id="linear-gradient-8" x1="0" y1="-1.074" x2="1" y2="-1.074" xlink:href="#linear-gradient-2"/>
    <linearGradient id="linear-gradient-9" x1="0" y1="-2.716" x2="1" y2="-2.716" xlink:href="#linear-gradient-2"/>
    <linearGradient id="linear-gradient-10" x1="-145.137" y1="-5.571" x2="-144.137" y2="-5.571" xlink:href="#linear-gradient-2"/>
    <linearGradient id="linear-gradient-11" x1="0" y1="36.622" x2="1" y2="36.622" xlink:href="#linear-gradient-2"/>
    <linearGradient id="linear-gradient-12" x1="0" y1="7.247" x2="1" y2="7.247" xlink:href="#linear-gradient-2"/>
    <linearGradient id="linear-gradient-13" x1="0.506" y1="9.012" x2="0.492" y2="7.49" xlink:href="#linear-gradient-2"/>
  </defs>
  <g id="Mask_Group_11" data-name="Mask Group 11" clip-path="url(#clip-path)">
    <g id="Group_594" data-name="Group 594">
      <circle id="Ellipse_289" data-name="Ellipse 289" cx="136" cy="136" r="136" transform="translate(801 480)" fill="#2162c1" opacity="0.06"/>
      <circle id="Ellipse_290" data-name="Ellipse 290" cx="59" cy="59" r="59" transform="translate(731 108)" fill="#2162c1" opacity="0.06"/>
      <circle id="Ellipse_288" data-name="Ellipse 288" cx="386" cy="386" r="386" transform="translate(-351 -258)" fill="#2162c1" opacity="0.06"/>
      <g id="Group_461" data-name="Group 461" transform="translate(-2474.129 -4059.721)">
        <path id="Path_1704" data-name="Path 1704" d="M3281.4,5164.086v44.945H2631.23v-44.945c0-129.583,75.82-241.45,185.512-293.67a325.147,325.147,0,0,1,464.66,293.67Z" transform="translate(-14.548 -69.311)" fill="url(#linear-gradient)"/>
        <path id="Path_1705" data-name="Path 1705" d="M3115.928,4870.417c-6.255,27.671-66.353,49.377-139.574,49.377s-133.32-21.706-139.574-49.377a325.751,325.751,0,0,1,279.148,0Z" transform="translate(-34.586 -69.311)" fill="#c8d9ed" opacity="0.29"/>
      </g>
      <g id="Layer_2" data-name="Layer 2" transform="translate(1452.735 393.785)">
        <g id="Layer_1-2" data-name="Layer 1-2" transform="translate(-1260.532 -180.078)">
          <path id="Path_1906" data-name="Path 1906" d="M-542.731,69.432q5.753,5.224,5.752,14.309,0,9.445-5.985,14.216t-15.9,4.771l-.372,7.389h-9.247l-.47-14.68h3.089q9.072,0,13.89-2.432t4.818-9.288A10.391,10.391,0,0,0-550,75.957q-2.851-2.8-7.9-2.8a11.168,11.168,0,0,0-7.947,2.711,9.846,9.846,0,0,0-2.9,7.546h-10.031A19.746,19.746,0,0,1-576.259,73.4a17.256,17.256,0,0,1,7.25-6.826,23.7,23.7,0,0,1,10.977-2.38Q-548.483,64.2-542.731,69.432Zm-26.121,59.388a6.826,6.826,0,0,1-.075-9.653,6.827,6.827,0,0,1,4.94-2.037,6.5,6.5,0,0,1,4.771,1.962,7,7,0,0,1,0,9.729,6.493,6.493,0,0,1-4.771,1.962,6.6,6.6,0,0,1-4.881-1.962Z" transform="translate(974.52 77.601)" fill="url(#linear-gradient-2)"/>
          <path id="Path_1907" data-name="Path 1907" d="M-484.441,163.506q5.752,5.224,5.752,14.309,0,9.445-5.985,14.216t-15.9,4.771l-.371,7.389h-9.288l-.47-14.68h3.088q9.073,0,13.891-2.432t4.818-9.288a10.39,10.39,0,0,0-2.85-7.761q-2.85-2.8-7.9-2.8a11.17,11.17,0,0,0-7.947,2.711,9.85,9.85,0,0,0-2.9,7.546h-9.99a19.746,19.746,0,0,1,2.525-10.007,17.256,17.256,0,0,1,7.25-6.826,23.691,23.691,0,0,1,10.988-2.432Q-490.193,158.27-484.441,163.506Zm-26.121,59.388a6.826,6.826,0,0,1-.076-9.653,6.827,6.827,0,0,1,4.922-2.037,6.5,6.5,0,0,1,4.771,1.962,7,7,0,0,1,0,9.729,6.493,6.493,0,0,1-4.771,1.962,6.607,6.607,0,0,1-4.864-1.962Z" transform="translate(950.065 38.155)" fill="url(#linear-gradient-3)"/>
          <path id="Path_747" data-name="Path 747" d="M-1149.4,566.891h2.595a21.819,21.819,0,0,1,21.819-21.82h0v-2.595a21.826,21.826,0,0,1-21.826-21.814h-2.595a21.826,21.826,0,0,1-21.82,21.826v2.595a21.82,21.82,0,0,1,21.82,21.82h0Z" transform="translate(1223.064 -113.903)" fill="#c8d4fe"/>
          <path id="Path_748" data-name="Path 748" d="M-391.262-147.334h1.022a15.859,15.859,0,0,1,15.859-15.858h0v-1.027a15.859,15.859,0,0,1-15.859-15.858h-1.033a15.858,15.858,0,0,1-15.858,15.858h0v1.033a15.859,15.859,0,0,1,15.847,15.853Z" transform="translate(902.505 180.078)" fill="url(#linear-gradient-4)"/>
          <path id="Path_748-2" data-name="Path 748-2" d="M-352.084,713.758h1.033A15.859,15.859,0,0,1-335.191,697.9h0V696.86A15.859,15.859,0,0,1-351.05,681h-1.033a15.858,15.858,0,0,1-15.858,15.858h0v1.033a15.858,15.858,0,0,1,15.864,15.853h0Z" transform="translate(886.064 -181.171)" fill="url(#linear-gradient-5)"/>
          <path id="Path_1908" data-name="Path 1908" d="M-732.909-157.627a167.6,167.6,0,0,0-14.1,23.48A215.708,215.708,0,0,0-888.411-99.6c-.68.424-1.341.882-2.008,1.352-2.664,1.828-5.259,3.785-7.749,5.8a115.868,115.868,0,0,0-22.743,24.96,115.686,115.686,0,0,1,14.57-21.727c2.09-2.461,4.278-4.853,6.577-7.122l1.741-1.741A215.934,215.934,0,0,1-732.909-157.627Z" transform="translate(1118.051 170.897)" fill="url(#linear-gradient-6)"/>
          <path id="Path_1909" data-name="Path 1909" d="M-729.506-111.89a166.465,166.465,0,0,0-47.924,87.308c-.261,1.283-.5,2.566-.726,3.866a168.261,168.261,0,0,0-.337,55.632c.366,2.322.8,4.609,1.26,6.908a2.681,2.681,0,0,0,.081.412v.139c1.161,6.577-5.451,11.859-11.72,9.555a196.439,196.439,0,0,0-144.705,3.611,11.963,11.963,0,0,1-15.817-6A11.988,11.988,0,0,1-949.962,48a115.183,115.183,0,0,1-4.859-26.527c-.18-2.519-.261-5.079-.261-7.645a115.968,115.968,0,0,1,42.543-89.735c2.5-2.043,5.091-3.994,7.749-5.8.668-.476,1.33-.929,2.008-1.352q3.39-2.246,6.861-4.365A216.163,216.163,0,0,1-729.506-111.89Z" transform="translate(1132.387 154.374)" fill="#fff" stroke="#2c3e50" stroke-miterlimit="10" stroke-width="2"/>
          <path id="Path_1910" data-name="Path 1910" d="M-754.677,301.349a110.616,110.616,0,0,1-32.506,78.462L-858,450.628a12.014,12.014,0,0,1-1.62,1.341l-.156.1a10.837,10.837,0,0,1-11.667.07,2.225,2.225,0,0,1-.29-.18,11.321,11.321,0,0,1-1.62-1.329l-70.817-70.817a111,111,0,0,1,0-156.93,110.607,110.607,0,0,1,72.431-32.332h.412c1.875-.11,3.761-.157,5.625-.157h0c1.828,0,3.616.046,5.422.145l.627.035A110.94,110.94,0,0,1-754.677,301.349Z" transform="translate(1141.438 24.655)" fill="#fff" stroke="#2c3e50" stroke-miterlimit="10" stroke-width="2"/>
          <path id="Path_1911" data-name="Path 1911" d="M-768.978,338.619a59.307,59.307,0,0,1-59.307,59.307,59.307,59.307,0,0,1-59.307-59.307,59.307,59.307,0,0,1,59.307-59.307h.005A59.307,59.307,0,0,1-768.978,338.619Z" transform="translate(1104.072 -12.65)" fill="url(#linear-gradient-7)"/>
          <circle id="Ellipse_292" data-name="Ellipse 292" cx="74.039" cy="74.039" r="74.039" transform="translate(201.667 251.721)" fill="#fff" stroke="#2c3e50" stroke-miterlimit="10" stroke-width="2"/>
          <path id="Path_1912" data-name="Path 1912" d="M-769.1,338.24a59.307,59.307,0,0,1-59.318,59.3,59.307,59.307,0,0,1-59.3-59.318,59.307,59.307,0,0,1,59.312-59.3h0a59.307,59.307,0,0,1,59.3,59.312Z" transform="translate(1104.123 -12.486)" fill="url(#linear-gradient-8)"/>
          <path id="Path_1913" data-name="Path 1913" d="M-912-18.218h103.835a40.552,40.552,0,0,1,40.552,40.546h0a40.551,40.551,0,0,1-40.552,40.546H-912a40.552,40.552,0,0,1-40.552-40.546h0A40.552,40.552,0,0,1-912-18.218Z" transform="translate(1131.325 112.173)" fill="#fff" stroke="#2c3e50" stroke-miterlimit="10" stroke-width="2"/>
          <path id="Path_1914" data-name="Path 1914" d="M-903.848,1.612H-799.8a29.023,29.023,0,0,1,29.023,29.024h0A29.023,29.023,0,0,1-799.8,59.659H-903.848a29.023,29.023,0,0,1-29.023-29.023h0A29.023,29.023,0,0,1-903.848,1.612Z" transform="translate(1123.068 103.854)" fill="url(#linear-gradient-9)"/>
          <circle id="Ellipse_293" data-name="Ellipse 293" cx="29.459" cy="29.459" r="29.459" transform="translate(201.766 105.048)" fill="#fff" stroke="#2c3e50" stroke-miterlimit="10" stroke-width="2"/>
          <path id="Path_1915" data-name="Path 1915" d="M-868.194,52.591A18.749,18.749,0,0,1-886.943,71.34a18.749,18.749,0,0,1-18.749-18.749,18.75,18.75,0,0,1,18.75-18.749h0a18.272,18.272,0,0,1,5.12.714l-.58,13.931,10.826-6.606A18.608,18.608,0,0,1-868.194,52.591Z" transform="translate(1111.666 90.332)" fill="#1d1d1d"/>
          <circle id="Ellipse_294" data-name="Ellipse 294" cx="29.459" cy="29.459" r="29.459" transform="translate(281.801 105.048)" fill="#fff" stroke="#2c3e50" stroke-miterlimit="10" stroke-width="2"/>
          <path id="Path_1916" data-name="Path 1916" d="M-730.3,52.591A18.749,18.749,0,0,1-749.052,71.34,18.749,18.749,0,0,1-767.8,52.591a18.749,18.749,0,0,1,18.749-18.749h0a18.272,18.272,0,0,1,5.12.714l-.58,13.931,10.825-6.588A18.608,18.608,0,0,1-730.3,52.591Z" transform="translate(1053.817 90.332)" fill="#1d1d1d"/>
          <path id="Path_1917" data-name="Path 1917" d="M-597.672,343.632c22.987,12.19,47.628,62.969,47.291,96.979" transform="translate(982.442 -39.634)" fill="none" stroke="#2c3e50" stroke-miterlimit="10" stroke-width="2"/>
          <path id="Path_1918" data-name="Path 1918" d="M-588.455,516.956a9.35,9.35,0,0,0,3.18,5.973L-565.9,539.71l14.739,12.77,21.152,18.331a9.427,9.427,0,0,0,13.281-1.12,9.624,9.624,0,0,0,2.084-4.365l5.131-26.7,3.68-19.156,5.009-26.121a9.37,9.37,0,0,0-7.425-10.974,9.371,9.371,0,0,0-6.942,1.384,152.114,152.114,0,0,1-65.065,22.673,9.375,9.375,0,0,0-8.211,10.409l0,.028Z" transform="translate(978.607 -97.77)" fill="#fff" stroke="#2c3e50" stroke-miterlimit="10" stroke-width="2"/>
          <path id="Path_1919" data-name="Path 1919" d="M-543.032,568.725l13.24,11.464a38.767,38.767,0,0,1,28.5-13.24,37.86,37.86,0,0,1,8.87.876l3.3-17.211a55.514,55.514,0,0,0-12.486-1.161A56.237,56.237,0,0,0-543.032,568.725Z" transform="translate(959.519 -125.977)" fill="url(#linear-gradient-10)"/>
          <path id="Path_1920" data-name="Path 1920" d="M-1003.9,261.251c-22.987-12.19-47.628-62.969-47.291-96.979" transform="translate(1172.71 35.613)" fill="none" stroke="#2c3e50" stroke-miterlimit="10" stroke-width="2"/>
          <path id="Path_1921" data-name="Path 1921" d="M-1042.445,92.383a9.347,9.347,0,0,0-3.181-5.973L-1065,69.617l-14.738-12.77-21.158-18.32a9.427,9.427,0,0,0-13.281,1.091,9.623,9.623,0,0,0-2.084,4.365l-5.131,26.678-3.68,19.156-4.957,26.121a9.369,9.369,0,0,0,7.5,10.92,9.369,9.369,0,0,0,6.863-1.389,152.126,152.126,0,0,1,65.088-22.638A9.374,9.374,0,0,0-1042.445,92.383Z" transform="translate(1205.847 89.304)" fill="#fff" stroke="#2c3e50" stroke-miterlimit="10" stroke-width="2"/>
          <path id="Path_1922" data-name="Path 1922" d="M-1063.289,84.016l-13.24-11.464a38.761,38.761,0,0,1-28.5,13.241,37.8,37.8,0,0,1-8.87-.877l-3.291,17.2a55.5,55.5,0,0,0,12.486,1.161A56.232,56.232,0,0,0-1063.289,84.016Z" transform="translate(1200.396 74.092)" fill="url(#linear-gradient-11)"/>
          <path id="Path_1923" data-name="Path 1923" d="M-1130.432,316.093a19.568,19.568,0,0,1-26.2-8.895,19.568,19.568,0,0,1,8.9-26.2,19.567,19.567,0,0,1,26.2,8.895,19.568,19.568,0,0,1,2.018,8.657A19.531,19.531,0,0,1-1130.432,316.093Z" transform="translate(1217.793 -12.507)" fill="#fff" stroke="#2c3e50" stroke-miterlimit="10" stroke-width="2"/>
          <path id="Path_1924" data-name="Path 1924" d="M-1103.149,239.783V315.6A32.547,32.547,0,0,1-1135.7,348.11H-1228a32.547,32.547,0,0,1-32.535-32.506V239.783a32.548,32.548,0,0,1,32.553-32.541h92.295A32.542,32.542,0,0,1-1103.149,239.783Z" transform="translate(1260.532 17.586)" fill="#fff" stroke="#2c3e50" stroke-miterlimit="10" stroke-width="2"/>
          <path id="Path_1925" data-name="Path 1925" d="M-1119.538,298.5a19.562,19.562,0,0,1-19.562,19.562,19.562,19.562,0,0,1-19.562-19.562,19.563,19.563,0,0,1,19.562-19.562A19.574,19.574,0,0,1-1119.538,298.5Z" transform="translate(1217.794 -12.495)" fill="url(#linear-gradient-12)"/>
          <path id="Path_1926" data-name="Path 1926" d="M-1122.538,342.922v17.646a8.652,8.652,0,0,1-8.652,8.652,8.652,8.652,0,0,1-8.652-8.652V342.922A19.584,19.584,0,0,0-1122.538,342.922Z" transform="translate(1209.899 -39.336)" fill="url(#linear-gradient-13)"/>
          <path id="Path_1927" data-name="Path 1927" d="M-1203.272,164.36V149.529a44.493,44.493,0,0,1,44.485-44.5,44.493,44.493,0,0,1,44.5,44.484V164.36" transform="translate(1236.51 60.467)" fill="none" stroke="#2c3e50" stroke-miterlimit="10" stroke-width="2"/>
        </g>
      </g>
    </g>
  </g>
</svg>
