<svg xmlns="http://www.w3.org/2000/svg" width="25" height="25" viewBox="0 0 25 25">
    <g opacity="0.4">
        <path fill="none" d="M0 0h25v25H0z"/>
        <path fill="#2162c1" d="M14.458 9.771h3.125a1.042 1.042 0 1 0 0-2.083h-3.125a1.042 1.042 0 1 0 0 2.083zm0 7.292h3.125a1.042 1.042 0 1 0 0-2.083h-3.125a1.042 1.042 0 1 0 0 2.083zm5.208 4.688H5.083A2.089 2.089 0 0 1 3 19.667V5.083A2.089 2.089 0 0 1 5.083 3h14.584a2.089 2.089 0 0 1 2.083 2.083v14.584a2.089 2.089 0 0 1-2.083 2.083zM7.167 11.333h3.125a1.045 1.045 0 0 0 1.042-1.042V7.167a1.045 1.045 0 0 0-1.042-1.042H7.167a1.045 1.045 0 0 0-1.042 1.042v3.125a1.045 1.045 0 0 0 1.042 1.041zm0-4.167h3.125v3.125H7.167zm0 11.458h3.125a1.045 1.045 0 0 0 1.042-1.042v-3.124a1.045 1.045 0 0 0-1.042-1.042H7.167a1.045 1.045 0 0 0-1.042 1.042v3.125a1.045 1.045 0 0 0 1.042 1.042zm0-4.167h3.125v3.125H7.167z" transform="translate(.125 .125)"/>
    </g>
</svg>
