<svg xmlns="http://www.w3.org/2000/svg" width="25" height="25" viewBox="0 0 25 25">
    <g opacity="0.4">
        <path fill="none" d="M0 0h25v25H0z"/>
        <path fill="#2162c1" d="M19.667 3.083h-4.355a3.113 3.113 0 0 0-5.875 0H5.083A2.089 2.089 0 0 0 3 5.167V19.75a2.089 2.089 0 0 0 2.083 2.083h14.584a2.089 2.089 0 0 0 2.083-2.083V5.167a2.089 2.089 0 0 0-2.083-2.084zm-7.292 0a1.042 1.042 0 1 1-1.042 1.042 1.045 1.045 0 0 1 1.042-1.042zm0 4.167a3.125 3.125 0 1 1-3.125 3.125 3.121 3.121 0 0 1 3.125-3.125zm6.25 12.5h-12.5v-1.458c0-2.083 4.167-3.229 6.25-3.229s6.25 1.146 6.25 3.229z" transform="translate(.125 .042)"/>
    </g>
</svg>
