<svg xmlns="http://www.w3.org/2000/svg" width="26" height="26" viewBox="0 0 26 26">
    <g opacity="0.4">
        <path fill="none" d="M0 0H26V26H0z"/>
        <path fill="#2162c1" d="M16.982 10.786l-2.3-2.3a1.079 1.079 0 0 1 0-1.527 1.079 1.079 0 0 1 1.527 0l1.528 1.527 3.835-3.835a1.079 1.079 0 0 1 1.528 0 1.079 1.079 0 0 1 0 1.527l-4.59 4.597a1.069 1.069 0 0 1-1.528.011zm-6.315-3.564H3.083A1.087 1.087 0 0 0 2 8.305a1.087 1.087 0 0 0 1.083 1.084h7.583a1.087 1.087 0 0 0 1.084-1.084 1.087 1.087 0 0 0-1.083-1.083zm11.147 6.186a1.079 1.079 0 0 0-1.527 0l-2.037 2.036-2.037-2.037a1.079 1.079 0 0 0-1.527 0 1.079 1.079 0 0 0 0 1.527l2.037 2.037-2.037 2.037a1.079 1.079 0 0 0 0 1.528 1.079 1.079 0 0 0 1.527 0L18.25 18.5l2.037 2.037a1.079 1.079 0 0 0 1.528 0 1.079 1.079 0 0 0 0-1.528l-2.037-2.037 2.037-2.037a1.079 1.079 0 0 0-.001-1.527zm-11.147 2.481H3.083A1.087 1.087 0 0 0 2 16.972a1.087 1.087 0 0 0 1.083 1.083h7.583a1.087 1.087 0 0 0 1.083-1.083 1.087 1.087 0 0 0-1.082-1.083z" transform="translate(.167 .361)"/>
    </g>
</svg>
