<svg width="22" height="17" viewBox="0 0 22 17" fill="none" xmlns="http://www.w3.org/2000/svg">
<path d="M14.982 6.45206L12.682 4.15206C12.5816 4.05185 12.502 3.93284 12.4477 3.80183C12.3934 3.67082 12.3654 3.53039 12.3654 3.38856C12.3654 3.24674 12.3934 3.10631 12.4477 2.9753C12.502 2.84429 12.5816 2.72528 12.682 2.62506C12.7822 2.52471 12.9012 2.4451 13.0322 2.39078C13.1632 2.33646 13.3037 2.3085 13.4455 2.3085C13.5873 2.3085 13.7278 2.33646 13.8588 2.39078C13.9898 2.4451 14.1088 2.52471 14.209 2.62506L15.737 4.15206L19.572 0.317065C19.6722 0.216561 19.7913 0.136821 19.9224 0.0824132C20.0535 0.0280056 20.1941 0 20.336 0C20.4779 0 20.6185 0.0280056 20.7496 0.0824132C20.8807 0.136821 20.9998 0.216561 21.1 0.317065C21.2004 0.417279 21.28 0.536293 21.3343 0.667302C21.3886 0.79831 21.4166 0.938742 21.4166 1.08056C21.4166 1.22239 21.3886 1.36282 21.3343 1.49383C21.28 1.62484 21.2004 1.74385 21.1 1.84406L16.51 6.44106C16.4112 6.5435 16.2929 6.62517 16.1621 6.68129C16.0313 6.73741 15.8906 6.76685 15.7483 6.76787C15.606 6.7689 15.4649 6.74149 15.3333 6.68726C15.2017 6.63303 15.0823 6.55307 14.982 6.45206V6.45206ZM8.667 2.88806H1.083C0.796095 2.88912 0.521241 3.00356 0.318367 3.20643C0.115494 3.40931 0.00105384 3.68416 0 3.97107C0.000790368 4.25814 0.115114 4.53325 0.318016 4.73634C0.520919 4.93943 0.795922 5.05401 1.083 5.05506H8.666C8.95325 5.05427 9.22851 4.93981 9.43163 4.73669C9.63475 4.53358 9.74921 4.25832 9.75 3.97107C9.74895 3.68416 9.63451 3.40931 9.43163 3.20643C9.22876 3.00356 8.9539 2.88912 8.667 2.88806V2.88806ZM19.814 9.07406C19.7138 8.97371 19.5948 8.8941 19.4638 8.83978C19.3328 8.78546 19.1923 8.7575 19.0505 8.7575C18.9087 8.7575 18.7682 8.78546 18.6372 8.83978C18.5062 8.8941 18.3872 8.97371 18.287 9.07406L16.25 11.1101L14.213 9.07306C14.1128 8.97271 13.9938 8.8931 13.8628 8.83878C13.7318 8.78446 13.5913 8.7565 13.4495 8.7565C13.3077 8.7565 13.1672 8.78446 13.0362 8.83878C12.9052 8.8931 12.7862 8.97271 12.686 9.07306C12.5856 9.17328 12.506 9.29229 12.4517 9.4233C12.3974 9.55431 12.3694 9.69474 12.3694 9.83657C12.3694 9.97839 12.3974 10.1188 12.4517 10.2498C12.506 10.3808 12.5856 10.4999 12.686 10.6001L14.723 12.6371L12.686 14.6741C12.5855 14.7743 12.5058 14.8934 12.4513 15.0245C12.3969 15.1556 12.3689 15.2961 12.3689 15.4381C12.3689 15.58 12.3969 15.7206 12.4513 15.8517C12.5058 15.9828 12.5855 16.1018 12.686 16.2021C12.7862 16.3024 12.9052 16.382 13.0362 16.4364C13.1672 16.4907 13.3077 16.5186 13.4495 16.5186C13.5913 16.5186 13.7318 16.4907 13.8628 16.4364C13.9938 16.382 14.1128 16.3024 14.213 16.2021L16.25 14.1661L18.287 16.2031C18.3872 16.3036 18.5063 16.3833 18.6374 16.4377C18.7685 16.4921 18.9091 16.5201 19.051 16.5201C19.1929 16.5201 19.3335 16.4921 19.4646 16.4377C19.5957 16.3833 19.7148 16.3036 19.815 16.2031C19.9155 16.1028 19.9952 15.9838 20.0497 15.8527C20.1041 15.7216 20.1321 15.581 20.1321 15.4391C20.1321 15.2971 20.1041 15.1566 20.0497 15.0255C19.9952 14.8944 19.9155 14.7753 19.815 14.6751L17.778 12.6381L19.815 10.6011C19.9153 10.5008 19.9948 10.3817 20.0491 10.2507C20.1033 10.1196 20.1312 9.97918 20.1311 9.83736C20.131 9.69553 20.1029 9.55512 20.0485 9.42415C19.9941 9.29318 19.9144 9.17421 19.814 9.07406V9.07406ZM8.667 11.5551H1.083C0.796095 11.5561 0.521241 11.6706 0.318367 11.8734C0.115494 12.0763 0.00105384 12.3512 0 12.6381C0.00105384 12.925 0.115494 13.1998 0.318367 13.4027C0.521241 13.6056 0.796095 13.72 1.083 13.7211H8.666C8.95291 13.72 9.22776 13.6056 9.43063 13.4027C9.63351 13.1998 9.74795 12.925 9.749 12.6381C9.74795 12.3513 9.63365 12.0766 9.43099 11.8738C9.22833 11.6709 8.95373 11.5564 8.667 11.5551V11.5551Z" fill="#2162C1"/>
</svg>
