<svg width="20" height="20" viewBox="0 0 20 20" fill="none" xmlns="http://www.w3.org/2000/svg">
<path d="M8.67039 6.23301V10.22C8.672 10.4078 8.72164 10.592 8.81459 10.7551C8.90754 10.9183 9.0407 11.0549 9.20139 11.152L12.5814 13.152C12.7672 13.2607 12.9883 13.2921 13.1971 13.2393C13.4058 13.1866 13.5855 13.054 13.6974 12.87C13.7525 12.7783 13.789 12.6766 13.8047 12.5708C13.8203 12.4649 13.8149 12.357 13.7887 12.2533C13.7625 12.1496 13.716 12.052 13.6519 11.9663C13.5879 11.8807 13.5075 11.8085 13.4154 11.754L10.3044 9.90401V6.22201C10.2959 6.00857 10.2058 5.80653 10.0527 5.65765C9.89949 5.50876 9.69498 5.4244 9.48139 5.42201C9.26687 5.42383 9.06165 5.50986 8.90995 5.66156C8.75825 5.81326 8.67222 6.01848 8.67039 6.23301V6.23301ZM19.5034 7.04501V1.31501C19.5046 1.20775 19.4736 1.10259 19.4144 1.01314C19.3553 0.92368 19.2706 0.854039 19.1714 0.81322C19.0722 0.772401 18.963 0.762282 18.858 0.784172C18.753 0.806062 18.657 0.858953 18.5824 0.936006L16.6554 2.86401C15.0983 1.30344 13.0584 0.316485 10.8684 0.0641233C8.67833 -0.188239 6.4674 0.308877 4.59618 1.4744C2.72495 2.63991 1.30384 4.40506 0.564609 6.48195C-0.174618 8.55884 -0.188337 10.8249 0.525688 12.9106C1.23971 14.9963 2.63935 16.7785 4.49633 17.9666C6.35331 19.1547 8.55805 19.6785 10.751 19.4527C12.9439 19.2269 14.9956 18.2647 16.5715 16.7231C18.1474 15.1815 19.1544 13.1514 19.4284 10.964C19.446 10.8114 19.4312 10.6568 19.3848 10.5104C19.3384 10.3639 19.2615 10.229 19.1592 10.1144C19.0569 9.99981 18.9315 9.90818 18.7912 9.84555C18.6509 9.78292 18.499 9.75069 18.3454 9.75101C18.0851 9.74992 17.8334 9.8441 17.6378 10.0158C17.4422 10.1875 17.3161 10.4248 17.2834 10.683C17.0505 12.5366 16.1431 14.2395 14.7344 15.4665C13.3257 16.6935 11.5144 17.3587 9.64639 17.335C7.6818 17.2784 5.81323 16.4727 4.42348 15.0829C3.03372 13.6932 2.22801 11.8246 2.17139 9.86001C2.15044 8.35132 2.57997 6.87068 3.40506 5.60743C4.23015 4.34418 5.41329 3.35575 6.80317 2.76856C8.19305 2.18136 9.72649 2.02209 11.2074 2.31111C12.6883 2.60012 14.0493 3.32429 15.1164 4.39101L12.8524 6.65501C12.775 6.73037 12.7219 6.8271 12.6997 6.93283C12.6776 7.03857 12.6876 7.14849 12.7282 7.24855C12.7689 7.34861 12.8385 7.43427 12.9282 7.49456C13.0178 7.55485 13.1234 7.58704 13.2314 7.58701H18.9624C19.0338 7.58781 19.1046 7.57434 19.1708 7.54739C19.2369 7.52043 19.2969 7.48054 19.3474 7.43005C19.3979 7.37956 19.4378 7.31949 19.4648 7.25337C19.4917 7.18725 19.5052 7.11641 19.5044 7.04501H19.5034Z" fill="#2162C1"/>
</svg>
