<svg xmlns="http://www.w3.org/2000/svg" width="26" height="26" viewBox="0 0 26 26">
    <g opacity="0.4">
        <g>
            <path fill="none" d="M0 0H26V26H0z"/>
        </g>
        <g>
            <g>
                <path fill="#2162c1" d="M11.666 9.229v3.987a1.1 1.1 0 0 0 .531.932l3.38 2a.821.821 0 0 0 1.116-.282.811.811 0 0 0-.282-1.116L13.3 12.9V9.218a.833.833 0 0 0-.823-.8.818.818 0 0 0-.811.811zm10.833.812v-5.73a.536.536 0 0 0-.921-.379L19.651 5.86a9.752 9.752 0 1 0 2.773 8.1 1.088 1.088 0 0 0-1.083-1.213 1.066 1.066 0 0 0-1.062.932 7.6 7.6 0 0 1-7.637 6.652 7.7 7.7 0 0 1-7.475-7.475 7.584 7.584 0 0 1 12.945-5.469l-2.264 2.264a.543.543 0 0 0 .379.932h5.731a.536.536 0 0 0 .542-.542z" transform="translate(3.253 3.253) translate(-3.003 -3.003)"/>
            </g>
        </g>
    </g>
</svg>
