<svg xmlns="http://www.w3.org/2000/svg" width="26" height="26" viewBox="0 0 26 26">
    <g opacity="0.4">
        <path fill="none" d="M0 0h26v26H0z"/>
        <path fill="#2162c1" d="M17.083 10.75H8.417a1.083 1.083 0 0 0 0 2.167h8.667a1.083 1.083 0 0 0 0-2.167zm3.25-7.583H19.25V2.083a1.083 1.083 0 1 0-2.167 0v1.084H8.417V2.083a1.083 1.083 0 1 0-2.167 0v1.084H5.167A2.166 2.166 0 0 0 3 5.333V20.5a2.166 2.166 0 0 0 2.167 2.167h15.166A2.173 2.173 0 0 0 22.5 20.5V5.333a2.173 2.173 0 0 0-2.167-2.166zM19.25 20.5h-13a1.087 1.087 0 0 1-1.083-1.083V8.583h15.166v10.834A1.087 1.087 0 0 1 19.25 20.5zm-5.417-5.417H8.417a1.083 1.083 0 0 0 0 2.167h5.417a1.083 1.083 0 0 0 0-2.167z" transform="translate(.25 .083)"/>
    </g>
</svg>
