<svg xmlns="http://www.w3.org/2000/svg" width="26" height="26" viewBox="0 0 26 26">
    <defs>
        <style>
            .cls-1{fill:none}.cls-2{fill:#2162c1}
        </style>
    </defs>
    <g id="Group_27" transform="translate(-58 -996) translate(58 996)">
        <g id="Login">
            <g id="Group_25">
                <path id="Rectangle_73" d="M0 0H26V26H0z" class="cls-1"/>
                <path id="Rectangle_74" d="M0 0H26V26H0z" class="cls-1"/>
            </g>
            <g id="Group_26" transform="translate(2.167 3.25)">
                <path id="Path_278" d="M21.5 20.333h-7.583a1.087 1.087 0 0 0-1.083 1.083 1.087 1.087 0 0 0 1.083 1.084H21.5a2.173 2.173 0 0 0 2.167-2.167V5.167A2.173 2.173 0 0 0 21.5 3h-7.583a1.087 1.087 0 0 0-1.083 1.083 1.087 1.087 0 0 0 1.083 1.083H21.5z" class="cls-2" transform="translate(-2 -3)"/>
            </g>
        </g>
        <g id="Login-2">
            <g id="Group_25-2">
                <path id="Rectangle_73-2" d="M0 0H26V26H0z" class="cls-1"/>
                <path id="Rectangle_74-2" d="M0 0H26V26H0z" class="cls-1"/>
            </g>
            <g id="Group_26-2" transform="translate(-4.833 3.25)">
                <path id="Path_278-2" d="M14.675 8.092a1.066 1.066 0 0 1 0 1.517l-2.058 2.058h9.967a1.087 1.087 0 0 1 1.083 1.083 1.087 1.087 0 0 1-1.083 1.083h-9.967l2.058 2.058a1.066 1.066 0 0 1 0 1.517 1.066 1.066 0 0 1-1.517 0l-3.889-3.889a1.079 1.079 0 0 1 0-1.528l3.889-3.9a1.066 1.066 0 0 1 1.517.001z" class="cls-2" transform="translate(-2 -3)"/>
            </g>
        </g>
    </g>
</svg>
