<svg width="23" height="15" viewBox="0 0 23 15" fill="none" xmlns="http://www.w3.org/2000/svg">
<path d="M15.625 6.25C16.2431 6.25 16.8473 6.06672 17.3612 5.72334C17.8751 5.37996 18.2756 4.89191 18.5121 4.32089C18.7486 3.74987 18.8105 3.12153 18.69 2.51534C18.5694 1.90915 18.2717 1.35233 17.8347 0.915293C17.3977 0.478253 16.8408 0.180626 16.2347 0.0600475C15.6285 -0.0605313 15.0001 0.00135383 14.4291 0.237878C13.8581 0.474402 13.37 0.874941 13.0267 1.38884C12.6833 1.90275 12.5 2.50693 12.5 3.125C12.4983 3.53586 12.5779 3.943 12.7344 4.32292C12.8908 4.70284 13.1209 5.04802 13.4115 5.33855C13.702 5.62907 14.0472 5.85919 14.4271 6.01563C14.807 6.17207 15.2141 6.25172 15.625 6.25V6.25ZM7.292 6.25C7.91007 6.25 8.51425 6.06672 9.02816 5.72334C9.54206 5.37996 9.9426 4.89191 10.1791 4.32089C10.4156 3.74987 10.4775 3.12153 10.357 2.51534C10.2364 1.90915 9.93875 1.35233 9.50171 0.915293C9.06467 0.478253 8.50785 0.180626 7.90166 0.0600475C7.29547 -0.0605313 6.66713 0.00135383 6.09611 0.237878C5.5251 0.474402 5.03704 0.874941 4.69366 1.38884C4.35028 1.90275 4.167 2.50693 4.167 3.125C4.16528 3.53586 4.24494 3.943 4.40137 4.32292C4.55781 4.70284 4.78793 5.04802 5.07846 5.33855C5.36898 5.62907 5.71416 5.85919 6.09408 6.01563C6.474 6.17207 6.88114 6.25172 7.292 6.25V6.25ZM7.292 8.333C4.865 8.333 0 9.552 0 11.979V13.542C0.000791535 13.8181 0.110828 14.0827 0.306069 14.2779C0.501311 14.4732 0.765888 14.5832 1.042 14.584H13.542C13.8181 14.5832 14.0827 14.4732 14.2779 14.2779C14.4732 14.0827 14.5832 13.8181 14.584 13.542V11.979C14.583 9.552 9.719 8.333 7.292 8.333V8.333ZM15.625 8.333C15.325 8.333 14.979 8.354 14.615 8.385C14.636 8.395 14.646 8.416 14.657 8.427C15.258 8.80841 15.7558 9.33202 16.1064 9.95153C16.457 10.571 16.6495 11.2674 16.667 11.979V13.542C16.6643 13.8974 16.601 14.2498 16.48 14.584H21.88C22.1561 14.5832 22.4207 14.4732 22.6159 14.2779C22.8112 14.0827 22.9212 13.8181 22.922 13.542V11.979C22.917 9.552 18.052 8.333 15.625 8.333V8.333Z" fill="#2162C1"/>
</svg>
