<svg xmlns="http://www.w3.org/2000/svg" width="25" height="25" viewBox="0 0 25 25">
    <g opacity="0.4">
        <path fill="none" d="M0 0h25v25H0z"/>
        <path fill="#2162c1" d="M16.625 11.25A3.125 3.125 0 1 0 13.5 8.125a3.112 3.112 0 0 0 3.125 3.125zm-8.333 0a3.125 3.125 0 1 0-3.125-3.125 3.112 3.112 0 0 0 3.125 3.125zm0 2.083C5.865 13.333 1 14.552 1 16.979v1.563a1.045 1.045 0 0 0 1.042 1.042h12.5a1.045 1.045 0 0 0 1.042-1.042v-1.563c-.001-2.427-4.865-3.646-7.292-3.646zm8.333 0c-.3 0-.646.021-1.01.052.021.01.031.031.042.042a4.333 4.333 0 0 1 2.01 3.552v1.563a3.13 3.13 0 0 1-.187 1.042h5.4a1.045 1.045 0 0 0 1.042-1.042v-1.563c-.005-2.427-4.87-3.646-7.297-3.646z" transform="translate(.042 .208)"/>
    </g>
</svg>
