<svg xmlns="http://www.w3.org/2000/svg" width="24" height="24" viewBox="0 0 24 24">
    <g opacity="0.4">
        <path fill="none" d="M0 0h24v24H0z"/>
        <path fill="#2162c1" d="M21 2.21a.469.469 0 0 0-.35.15l-.79.79a.5.5 0 0 1-.71 0l-.79-.79a.5.5 0 0 0-.71 0l-.79.79a.5.5 0 0 1-.71 0l-.79-.79a.5.5 0 0 0-.71 0l-.79.79a.5.5 0 0 1-.71 0l-.79-.79a.5.5 0 0 0-.71 0l-.79.79a.5.5 0 0 1-.71 0l-.8-.8a.5.5 0 0 0-.71 0l-.79.8a.5.5 0 0 1-.71 0l-.79-.8a.5.5 0 0 0-.71 0l-.79.8a.5.5 0 0 1-.71 0l-.79-.8A.5.5 0 0 0 3 2.21V21.8a.469.469 0 0 0 .35-.15l.79-.79a.5.5 0 0 1 .71 0l.79.79a.5.5 0 0 0 .71 0l.79-.79a.5.5 0 0 1 .71 0l.79.79a.5.5 0 0 0 .71 0l.79-.79a.5.5 0 0 1 .71 0l.79.79a.5.5 0 0 0 .71 0l.79-.79a.5.5 0 0 1 .71 0l.79.79a.5.5 0 0 0 .71 0l.79-.79a.5.5 0 0 1 .71 0l.79.79a.5.5 0 0 0 .71 0l.79-.79a.5.5 0 0 1 .71 0l.79.79a.5.5 0 0 0 .35.15V2.21zM17 17H7a1 1 0 0 1 0-2h10a1 1 0 0 1 0 2zm0-4H7a1 1 0 0 1 0-2h10a1 1 0 0 1 0 2zm0-4H7a1 1 0 0 1 0-2h10a1 1 0 0 1 0 2z"/>
    </g>
</svg>
