<svg width="19" height="19" viewBox="0 0 19 19" fill="none" xmlns="http://www.w3.org/2000/svg">
<path d="M16.667 2.083H14.583V1.042C14.5822 0.76606 14.4723 0.501634 14.2773 0.306421C14.0823 0.111207 13.8179 0.0010551 13.542 0H5.208C4.93206 0.0010551 4.66774 0.111207 4.47271 0.306421C4.27769 0.501634 4.16779 0.76606 4.167 1.042V2.083H2.083C1.53087 2.08458 1.00182 2.30469 0.611494 2.6952C0.22117 3.08571 0.00131925 3.61487 0 4.167V5.208C0.00391641 6.47578 0.470846 7.69845 1.31299 8.64611C2.15513 9.59378 3.31447 10.2011 4.573 10.354C4.90238 11.1345 5.41685 11.8231 6.07195 12.3602C6.72705 12.8974 7.50308 13.2669 8.333 13.437V16.666H5.208C4.93189 16.6668 4.66731 16.7768 4.47207 16.9721C4.27683 17.1673 4.16679 17.4319 4.166 17.708C4.16679 17.9841 4.27683 18.2487 4.47207 18.4439C4.66731 18.6392 4.93189 18.7492 5.208 18.75H13.541C13.8171 18.7492 14.0817 18.6392 14.2769 18.4439C14.4722 18.2487 14.5822 17.9841 14.583 17.708C14.5822 17.4319 14.4722 17.1673 14.2769 16.9721C14.0817 16.7768 13.8171 16.6668 13.541 16.666H10.417V13.437C11.2469 13.2669 12.023 12.8974 12.6781 12.3602C13.3332 11.8231 13.8476 11.1345 14.177 10.354C15.4355 10.2011 16.5949 9.59378 17.437 8.64611C18.2792 7.69845 18.7461 6.47578 18.75 5.208V4.167C18.7487 3.61487 18.5288 3.08571 18.1385 2.6952C17.7482 2.30469 17.2191 2.08458 16.667 2.083ZM2.083 5.208V4.167H4.167V8.146C3.55982 7.9298 3.034 7.53176 2.6611 7.00605C2.28821 6.48035 2.08635 5.85252 2.083 5.208V5.208ZM16.666 5.208C16.6625 5.85223 16.4607 6.47975 16.088 7.00524C15.7153 7.53073 15.1898 7.92869 14.583 8.145V4.167H16.666V5.208Z" fill="#2162C1"/>
</svg>
