<svg xmlns="http://www.w3.org/2000/svg" width="25" height="25" viewBox="0 0 25 25">
    <g opacity="0.4">
        <path fill="none" d="M0 0H25V25H0z"/>
        <path fill="#2162c1" d="M19.667 5.083h-2.084V4.042A1.045 1.045 0 0 0 16.542 3H8.208a1.045 1.045 0 0 0-1.041 1.042v1.041H5.083A2.089 2.089 0 0 0 3 7.167v1.041a5.2 5.2 0 0 0 4.573 5.146 5.218 5.218 0 0 0 3.76 3.083v3.229H8.208a1.045 1.045 0 0 0-1.042 1.042 1.045 1.045 0 0 0 1.042 1.042h8.333a1.045 1.045 0 0 0 1.042-1.042 1.045 1.045 0 0 0-1.042-1.042h-3.124v-3.229a5.218 5.218 0 0 0 3.76-3.083 5.2 5.2 0 0 0 4.573-5.146V7.167a2.089 2.089 0 0 0-2.083-2.084zM5.083 8.208V7.167h2.084v3.979a3.136 3.136 0 0 1-2.084-2.938zm14.583 0a3.136 3.136 0 0 1-2.083 2.937V7.167h2.083z" transform="translate(.125 .125)"/>
    </g>
</svg>
