<svg width="20" height="20" viewBox="0 0 20 20" fill="none" xmlns="http://www.w3.org/2000/svg">
<g style="mix-blend-mode:darken">
<path d="M16.6637 10.9131L16.6252 11.1973L16.8511 11.3739L18.9561 13.02L16.9563 16.4798L16.9561 16.4797L16.955 16.4818L14.4755 15.4861L14.2114 15.38L13.9854 15.5529C13.4998 15.9243 12.9689 16.2322 12.4053 16.4691L12.1444 16.5789L12.1042 16.8591L11.7255 19.5H7.73278L7.35408 16.8591L7.31358 16.5767L7.04988 16.4679C6.4866 16.2354 5.95708 15.9283 5.47554 15.5549L5.24892 15.3792L4.9828 15.4861L2.50322 16.4819L2.50203 16.4798L0.502135 13.02L2.60714 11.3739L2.83277 11.1975L2.79471 10.9136C2.75409 10.6107 2.73221 10.3056 2.72916 10C2.73221 9.69447 2.7541 9.38938 2.79471 9.08649L2.83277 8.80261L2.60714 8.62618L0.502135 6.98008L2.50203 3.52027L2.50217 3.52035L2.50332 3.51825L4.9828 4.51403L5.24688 4.62008L5.47292 4.44719C5.95846 4.07579 6.48942 3.76789 7.05293 3.53096L7.3139 3.42124L7.35408 3.14102L7.73278 0.500047H11.7255L12.1042 3.14102L12.1447 3.42341L12.4084 3.53224C12.9717 3.7647 13.5012 4.07175 13.9827 4.44517L14.2094 4.6209L14.4755 4.51403L16.9551 3.51821L16.9563 3.52027L18.9561 6.98008L16.8511 8.62618L16.6252 8.80284L16.6637 9.08704C16.7046 9.3897 16.7264 9.69464 16.7291 10C16.7264 10.3055 16.7046 10.6104 16.6637 10.9131ZM11.724 0.489671L11.724 0.489739L11.724 0.489671ZM11.7291 4.67889e-05H7.72914C7.61034 -0.00159773 7.49501 0.0401581 7.4048 0.117483L11.7291 4.67889e-05ZM7.50686 13.3259C8.16466 13.7655 8.93801 14 9.72914 14C10.79 14 11.8074 13.5786 12.5576 12.8285C13.3077 12.0783 13.7291 11.0609 13.7291 10C13.7291 9.20892 13.4945 8.43556 13.055 7.77777C12.6155 7.11997 11.9908 6.60728 11.2599 6.30453C10.529 6.00178 9.7247 5.92256 8.94878 6.07691C8.17285 6.23125 7.46012 6.61221 6.90071 7.17162C6.3413 7.73103 5.96034 8.44376 5.806 9.21968C5.65166 9.99561 5.73087 10.7999 6.03362 11.5308C6.33637 12.2617 6.84906 12.8864 7.50686 13.3259Z" fill="#2162C1"/>
<path d="M16.6637 10.9131L16.6252 11.1973L16.8511 11.3739L18.9561 13.02L16.9563 16.4798L16.9561 16.4797L16.955 16.4818L14.4755 15.4861L14.2114 15.38L13.9854 15.5529C13.4998 15.9243 12.9689 16.2322 12.4053 16.4691L12.1444 16.5789L12.1042 16.8591L11.7255 19.5H7.73278L7.35408 16.8591L7.31358 16.5767L7.04988 16.4679C6.4866 16.2354 5.95708 15.9283 5.47554 15.5549L5.24892 15.3792L4.9828 15.4861L2.50322 16.4819L2.50203 16.4798L0.502135 13.02L2.60714 11.3739L2.83277 11.1975L2.79471 10.9136C2.75409 10.6107 2.73221 10.3056 2.72916 10C2.73221 9.69447 2.7541 9.38938 2.79471 9.08649L2.83277 8.80261L2.60714 8.62618L0.502135 6.98008L2.50203 3.52027L2.50217 3.52035L2.50332 3.51825L4.9828 4.51403L5.24688 4.62008L5.47292 4.44719C5.95846 4.07579 6.48942 3.76789 7.05293 3.53096L7.3139 3.42124L7.35408 3.14102L7.73278 0.500047H11.7255L12.1042 3.14102L12.1447 3.42341L12.4084 3.53224C12.9717 3.7647 13.5012 4.07175 13.9827 4.44517L14.2094 4.6209L14.4755 4.51403L16.9551 3.51821L16.9563 3.52027L18.9561 6.98008L16.8511 8.62618L16.6252 8.80284L16.6637 9.08704C16.7046 9.3897 16.7264 9.69464 16.7291 10C16.7264 10.3055 16.7046 10.6104 16.6637 10.9131ZM11.724 0.489671L11.724 0.489739L11.724 0.489671ZM11.7291 4.67889e-05H7.72914C7.61034 -0.00159773 7.49501 0.0401581 7.4048 0.117483L11.7291 4.67889e-05ZM7.50686 13.3259C8.16466 13.7655 8.93801 14 9.72914 14C10.79 14 11.8074 13.5786 12.5576 12.8285C13.3077 12.0783 13.7291 11.0609 13.7291 10C13.7291 9.20892 13.4945 8.43556 13.055 7.77777C12.6155 7.11997 11.9908 6.60728 11.2599 6.30453C10.529 6.00178 9.7247 5.92256 8.94878 6.07691C8.17285 6.23125 7.46012 6.61221 6.90071 7.17162C6.3413 7.73103 5.96034 8.44376 5.806 9.21968C5.65166 9.99561 5.73087 10.7999 6.03362 11.5308C6.33637 12.2617 6.84906 12.8864 7.50686 13.3259Z" stroke="#2162C1"/>
</g>
</svg>
