<svg width="19" height="21" viewBox="0 0 19 21" fill="none" xmlns="http://www.w3.org/2000/svg">
<path opacity="0.99" d="M16.667 2.08253H12.312C12.0985 1.47384 11.7011 0.946519 11.1749 0.573451C10.6487 0.200384 10.0196 0 9.3745 0C8.72945 0 8.10032 0.200384 7.57409 0.573451C7.04787 0.946519 6.65053 1.47384 6.437 2.08253H2.083C1.53087 2.08412 1.00182 2.30422 0.611494 2.69473C0.22117 3.08524 0.00131925 3.6144 0 4.16653V18.7495C0.00158307 19.3015 0.22155 19.8304 0.611845 20.2207C1.00214 20.611 1.53104 20.8309 2.083 20.8325H16.667C17.219 20.8309 17.7479 20.611 18.1382 20.2207C18.5285 19.8304 18.7484 19.3015 18.75 18.7495V4.16653C18.7487 3.6144 18.5288 3.08524 18.1385 2.69473C17.7482 2.30422 17.2191 2.08412 16.667 2.08253V2.08253ZM9.375 2.08253C9.58109 2.08253 9.78255 2.14364 9.9539 2.25814C10.1253 2.37264 10.2588 2.53538 10.3377 2.72578C10.4165 2.91618 10.4372 3.12569 10.397 3.32782C10.3568 3.52995 10.2575 3.71561 10.1118 3.86134C9.96608 4.00706 9.78041 4.10631 9.57828 4.14651C9.37616 4.18672 9.16664 4.16608 8.97624 4.08721C8.78584 4.00835 8.62311 3.87479 8.50861 3.70344C8.39411 3.53208 8.333 3.33062 8.333 3.12453C8.33379 2.84842 8.44383 2.58384 8.63907 2.3886C8.83431 2.19336 9.09889 2.08332 9.375 2.08253ZM9.375 6.24953C9.99307 6.24953 10.5973 6.43281 11.1112 6.77619C11.6251 7.11957 12.0256 7.60763 12.2621 8.17865C12.4986 8.74967 12.5605 9.378 12.44 9.98419C12.3194 10.5904 12.0217 11.1472 11.5847 11.5842C11.1477 12.0213 10.5908 12.3189 9.98466 12.4395C9.37847 12.5601 8.75013 12.4982 8.17911 12.2617C7.6081 12.0251 7.12004 11.6246 6.77666 11.1107C6.43328 10.5968 6.25 9.9926 6.25 9.37453C6.24947 8.964 6.32994 8.5574 6.4868 8.17802C6.64366 7.79864 6.87383 7.45394 7.16412 7.16365C7.4544 6.87336 7.79911 6.6432 8.17849 6.48634C8.55787 6.32948 8.96447 6.24901 9.375 6.24953V6.24953ZM15.625 18.7495H3.125V17.2915C3.125 15.2085 7.292 14.0625 9.375 14.0625C11.458 14.0625 15.625 15.2085 15.625 17.2915V18.7495Z" fill="#2162C1"/>
</svg>
