<svg width="19" height="22" viewBox="0 0 19 22" fill="none" xmlns="http://www.w3.org/2000/svg">
<path d="M9.375 9.95C7.44046 8.14045 5.0242 6.9285 2.417 6.46C2.11858 6.41187 1.81327 6.4292 1.52221 6.51079C1.23115 6.59238 0.961315 6.73628 0.731399 6.93253C0.501484 7.12877 0.316987 7.37265 0.190696 7.64729C0.0644043 7.92192 -0.000662269 8.22072 5.08196e-06 8.523V15.023C5.08196e-06 16.773 0.750005 17.69 1.78101 17.823C4.31794 18.152 6.71113 19.1881 8.68701 20.813C8.87308 20.9627 9.10281 21.0477 9.34148 21.0553C9.58015 21.0628 9.81481 20.9926 10.01 20.855C11.9993 19.2141 14.4108 18.167 16.968 17.834C17.4607 17.7414 17.9066 17.4822 18.2309 17.0998C18.5552 16.7175 18.7381 16.2352 18.749 15.734V8.523C18.7495 8.22081 18.6844 7.92211 18.558 7.6476C18.4316 7.3731 18.2471 7.12933 18.0172 6.9332C17.7873 6.73707 17.5175 6.59326 17.2266 6.51172C16.9356 6.43019 16.6303 6.41288 16.332 6.461C13.7248 6.9295 11.3086 8.14145 9.374 9.951L9.375 9.95ZM9.375 6.25C9.99316 6.25 10.5974 6.06667 11.1114 5.7232C11.6253 5.37974 12.0259 4.89156 12.2623 4.32042C12.4988 3.74929 12.5606 3.12085 12.4398 2.51461C12.3191 1.90836 12.0212 1.35154 11.584 0.914585C11.1468 0.477626 10.5898 0.180157 9.98343 0.0598038C9.37711 -0.0605491 8.74872 0.00162168 8.17773 0.238452C7.60675 0.475283 7.11883 0.876133 6.77569 1.3903C6.43255 1.90447 6.24961 2.50885 6.25001 3.127C6.24948 3.53753 6.32995 3.94413 6.48681 4.32351C6.64367 4.70289 6.87383 5.0476 7.16412 5.33788C7.45441 5.62817 7.79912 5.85834 8.1785 6.0152C8.55788 6.17206 8.96448 6.25253 9.375 6.252V6.25Z" fill="#2162C1"/>
</svg>
