<svg xmlns="http://www.w3.org/2000/svg" width="25" height="25" viewBox="0 0 25 25">
    <g opacity="0.4">
        <path fill="none" d="M0 0h25v25H0z"/>
        <path fill="#2162c1" d="M12.375 11.948a13.744 13.744 0 0 0-6.958-3.49A2.085 2.085 0 0 0 3 10.521v6.5c0 1.75.75 2.667 1.781 2.8a13.633 13.633 0 0 1 6.906 2.99 1.1 1.1 0 0 0 1.323.042 13.719 13.719 0 0 1 6.958-3.021 2.185 2.185 0 0 0 1.781-2.1v-7.211a2.085 2.085 0 0 0-2.417-2.062 13.744 13.744 0 0 0-6.958 3.49zm0-3.7A3.125 3.125 0 1 0 9.25 5.125a3.121 3.121 0 0 0 3.125 3.125z" transform="translate(.125 .083)"/>
    </g>
</svg>
