<svg xmlns="http://www.w3.org/2000/svg" width="20" height="20" viewBox="0 0 20 20">
    <g>
        <path fill="#00c49a" d="M20.778 7.444H9.667a2.229 2.229 0 0 0-2.223 2.223v11.111A2.229 2.229 0 0 0 9.667 23h11.111A2.229 2.229 0 0 0 23 20.778V9.667a2.229 2.229 0 0 0-2.222-2.223zm0 3.333a1.114 1.114 0 0 1-1.111 1.111h-8.889a1.114 1.114 0 0 1-1.111-1.111 1.114 1.114 0 0 1 1.111-1.111h8.889a1.114 1.114 0 0 1 1.111 1.112zm-6.667 5.556v-2.222h2.222v2.222zm2.222 2.222v2.222h-2.222v-2.221zm-4.444-2.222H9.667v-2.222h2.222zm6.667-2.222h2.222v2.222h-2.222zm-8.889 4.445h2.222v2.222H9.667zm8.889 2.222v-2.222h2.222v2.222zM6.333 18.556H5.222A2.229 2.229 0 0 1 3 16.333V5.222A2.229 2.229 0 0 1 5.222 3h11.111a2.229 2.229 0 0 1 2.222 2.222v1.111h-2.222V5.222H5.222v11.111h1.111z" transform="translate(-3 -3)"/>
    </g>
</svg>
