<svg xmlns="http://www.w3.org/2000/svg" width="18" height="17.778" viewBox="0 0 18 17.778">
    <g>
        <path fill="#2162c1" d="M10.922 13.7L7.356 8.133a1.235 1.235 0 0 1 1.033-1.911 1.244 1.244 0 0 1 1.056.589l3.067 4.956h.133l3.045-4.945a1.217 1.217 0 0 1 1.056-.6 1.242 1.242 0 0 1 1.044 1.911l-3.59 5.556 3.945 6.167a1.24 1.24 0 0 1-1.033 1.922 1.274 1.274 0 0 1-1.056-.578l-3.411-5.433h-.133L9.1 21.2a1.26 1.26 0 0 1-1.056.578A1.24 1.24 0 0 1 7 19.867zM24.8 9a.55.55 0 0 0-.556-.556h-2.777V7.333h2.222A1.114 1.114 0 0 0 24.8 6.222V5.111A1.114 1.114 0 0 0 23.689 4h-2.778a.55.55 0 0 0-.556.556.55.55 0 0 0 .556.556h2.778v1.11h-2.222a1.114 1.114 0 0 0-1.111 1.111v1.112a1.114 1.114 0 0 0 1.111 1.111h2.778A.55.55 0 0 0 24.8 9z" transform="translate(-6.8 -4)"/>
    </g>
</svg>
