<svg xmlns="http://www.w3.org/2000/svg" width="18" height="24.07" viewBox="0 0 18 24.07">
    <defs>
        <style>
            .cls-1{fill:#2162c1}
        </style>
    </defs>
    <g id="biotech-24px" transform="translate(-10 -4.558)">
        <g id="Group_12" transform="translate(10 4.558)">
            <g id="Group_11">
                <path id="Path_79" d="M7.571 22.32A2.579 2.579 0 0 0 5 24.891h18a2.579 2.579 0 0 0-2.571-2.571h-5.143v-2.571h3.857a2.579 2.579 0 0 0 2.571-2.571H11.429a3.845 3.845 0 0 1-1.98-7.149 3.176 3.176 0 0 1-.591-1.851 3.316 3.316 0 0 1 .116-.8 6.428 6.428 0 0 0 2.456 12.369v2.573z" class="cls-1" transform="translate(-5 -.822)"/>
                <path id="Path_80" d="M10.64 6.433a3.2 3.2 0 0 1 2.044 5.606l.321.874a1.283 1.283 0 0 0 1.646.771 1.285 1.285 0 1 0 2.417-.874 1.283 1.283 0 0 0 .771-1.646L15.192 3.9a1.283 1.283 0 0 0-1.646-.771A1.285 1.285 0 0 0 11.129 4a1.283 1.283 0 0 0-.771 1.646z" class="cls-1" transform="translate(-3.492 -2.279)"/>
                <circle id="Ellipse_7" cx="1.929" cy="1.929" r="1.929" class="cls-1" transform="translate(5.143 5.427)"/>
            </g>
        </g>
    </g>
</svg>
