<svg xmlns="http://www.w3.org/2000/svg" width="24" height="21.818" viewBox="0 0 24 21.818">
    <path fill="#2162c1" d="M22.818 2H3.182A2.188 2.188 0 0 0 1 4.182v13.091a2.188 2.188 0 0 0 2.182 2.182h7.636v2.182H9.727a1.091 1.091 0 1 0 0 2.182h6.545a1.091 1.091 0 1 0 0-2.182h-1.09v-2.182h7.636A2.188 2.188 0 0 0 25 17.273V4.182A2.188 2.188 0 0 0 22.818 2zm-1.091 15.273H4.273a1.094 1.094 0 0 1-1.091-1.091V5.273a1.094 1.094 0 0 1 1.091-1.091h17.454a1.094 1.094 0 0 1 1.091 1.091v10.909a1.094 1.094 0 0 1-1.091 1.091z" transform="translate(-1 -2)"/>
</svg>
