<svg xmlns="http://www.w3.org/2000/svg" width="12" height="23.357" viewBox="0 0 12 23.357">
    <g>
        <g>
            <path fill="#2162c1" d="M19 12.116V3.2A1.2 1.2 0 0 0 17.8 2H8.2A1.2 1.2 0 0 0 7 3.2v8.916a1.188 1.188 0 0 0 .588 1.032L12.6 16.16l-1.188 2.808-2.66.232a.6.6 0 0 0-.36 1.056L10.42 22l-.612 2.62a.6.6 0 0 0 .9.648L13 23.876l2.292 1.38a.6.6 0 0 0 .9-.648l-.612-2.616 2.028-1.752a.6.6 0 0 0-.348-1.056l-2.66-.228-1.188-2.808 5.016-3.012a1.154 1.154 0 0 0 .572-1.02zm-4.8 2.16L13 15l-1.2-.72V3.2h2.4z" transform="translate(-7 -2) translate(7 2) translate(-7 -2)"/>
        </g>
    </g>
</svg>
