<svg xmlns="http://www.w3.org/2000/svg" width="17" height="22" viewBox="0 0 17 22">
    <g>
        <path fill="#e93c23" d="M3.14 16.09a1 1 0 0 0-.29 1.98 5.018 5.018 0 0 1 4.08 4.08 1 1 0 0 0 1.98-.29 7 7 0 0 0-5.77-5.77zM2 20v3h3a3 3 0 0 0-3-3zm1.11-7.94a1 1 0 0 0-1.11.99.987.987 0 0 0 .87.99 9 9 0 0 1 8.08 8.08.988.988 0 0 0 .99.88 1 1 0 0 0 1-1.1 10.975 10.975 0 0 0-9.83-9.84zM17 1.01L7 1a2.006 2.006 0 0 0-2 2v7.37a12.27 12.27 0 0 1 2 .64V5h10v13h-3.03a13.006 13.006 0 0 1 .95 4H17a2.006 2.006 0 0 0 2-2V3a2 2 0 0 0-2-1.99z" transform="translate(-2 -1)"/>
    </g>
</svg>
