<svg xmlns="http://www.w3.org/2000/svg" width="19" height="20.742" viewBox="0 0 19 20.742">
    <g>
        <path fill="#6b4ee7" d="M4 11.5v4a1.5 1.5 0 0 0 3 0v-4a1.5 1.5 0 0 0-3 0zm6 0v4a1.5 1.5 0 0 0 3 0v-4a1.5 1.5 0 0 0-3 0zM3.5 22h16a1.5 1.5 0 0 0 0-3h-16a1.5 1.5 0 0 0 0 3zM16 11.5v4a1.5 1.5 0 0 0 3 0v-4a1.5 1.5 0 0 0-3 0zM10.57 1.49l-7.9 4.16A1.245 1.245 0 0 0 3.25 8h16.51a1.245 1.245 0 0 0 .57-2.35l-7.9-4.16a1.976 1.976 0 0 0-1.86 0z" transform="translate(-2 -1.258)"/>
    </g>
</svg>
