<svg xmlns="http://www.w3.org/2000/svg" width="24" height="17.455" viewBox="0 0 24 17.455">
    <g>
        <path fill="#fb5607" d="M25 8.364v10.909a2.188 2.188 0 0 1-2.182 2.182H5.364a1.091 1.091 0 1 1 0-2.182h17.454V8.364a1.091 1.091 0 1 1 2.182 0zM4.273 17.091A3.268 3.268 0 0 1 1 13.818V7.273A3.268 3.268 0 0 1 4.273 4h13.091a3.268 3.268 0 0 1 3.273 3.273v7.636a2.188 2.188 0 0 1-2.182 2.182zm3.273-6.545a3.273 3.273 0 1 0 3.273-3.273 3.268 3.268 0 0 0-3.274 3.272z" transform="translate(-1 -4)"/>
    </g>
</svg>
