<svg xmlns="http://www.w3.org/2000/svg" width="22" height="19.556" viewBox="0 0 22 19.556">
    <defs>
        <style>
            .cls-1{fill:#fb5607}
        </style>
    </defs>
    <g id="electrical_services-24px" transform="translate(-3 -4)">
        <g id="Group_265" transform="translate(3 4)">
            <g id="Group_264">
                <path id="Path_1239" d="M21.667 14.222A1.226 1.226 0 0 0 20.444 13H18v2.444h2.444a1.226 1.226 0 0 0 1.223-1.222z" class="cls-1" transform="translate(.333 -2)"/>
                <path id="Path_1240" d="M20.444 17H18v2.444h2.444a1.222 1.222 0 0 0 0-2.444z" class="cls-1" transform="translate(.333 -1.111)"/>
                <path id="Path_1241" d="M17.333 12h-2.444a2.452 2.452 0 0 0-2.444 2.444h-1.223A1.226 1.226 0 0 0 10 15.667v2.444a1.226 1.226 0 0 0 1.222 1.222h1.222a2.452 2.452 0 0 0 2.444 2.444h2.444a1.226 1.226 0 0 0 1.222-1.222v-7.333A1.226 1.226 0 0 0 17.333 12z" class="cls-1" transform="translate(-1.444 -2.222)"/>
                <path id="Path_1242" d="M5.444 15a2.452 2.452 0 0 1 2.444-2.444h1.834a4.278 4.278 0 0 0 0-8.556H5.444a1.222 1.222 0 0 0 0 2.444h4.278a1.833 1.833 0 0 1 0 3.667H7.889a4.889 4.889 0 1 0 0 9.778h2.444v-2.445H7.889A2.452 2.452 0 0 1 5.444 15z" class="cls-1" transform="translate(-3 -4)"/>
            </g>
        </g>
    </g>
</svg>
