<svg xmlns="http://www.w3.org/2000/svg" width="24" height="19.717" viewBox="0 0 24 19.717">
    <defs>
        <style>
            .cls-1{fill:#00c49a}
        </style>
    </defs>
    <g id="engineering-24px" transform="translate(-1 -3)">
        <g id="Group_262" transform="translate(1 3)">
            <g id="Group_261">
                <path id="Path_1230" d="M9.763 15C6.838 15 1 16.468 1 19.382v1.1a1.1 1.1 0 0 0 1.1 1.1h15.331a1.1 1.1 0 0 0 1.1-1.1v-1.1C18.526 16.468 12.688 15 9.763 15z" class="cls-1" transform="translate(-1 -1.855)"/>
                <path id="Path_1231" d="M4.787 9.477h9.343a.538.538 0 0 0 .537-.537v-.022a.538.538 0 0 0-.537-.537h-.3A4.378 4.378 0 0 0 11.644 4.6v1.043a.548.548 0 0 1-1.1 0v-1.49A4.481 4.481 0 0 0 9.453 4a4.481 4.481 0 0 0-1.1.153v1.49a.548.548 0 0 1-1.1 0V4.6a4.378 4.378 0 0 0-2.181 3.782h-.285a.538.538 0 0 0-.537.537v.033a.535.535 0 0 0 .537.525z" class="cls-1" transform="translate(-.69 -2.905)"/>
                <path id="Path_1232" d="M9.368 13.286A4.381 4.381 0 0 0 13.6 10H5.14a4.381 4.381 0 0 0 4.228 3.286z" class="cls-1" transform="translate(-.605 -2.332)"/>
                <path id="Path_1233" d="M22.542 6.538l1.019-.909-.822-1.429-1.3.427a2.172 2.172 0 0 0-.515-.3L20.647 3H19l-.27 1.336a2.488 2.488 0 0 0-.526.3L16.912 4.2l-.822 1.429 1.019.909a2.476 2.476 0 0 0 0 .57l-1.019.931.822 1.424 1.314-.416a2.517 2.517 0 0 0 .471.274L19 10.668h1.643l.3-1.336a2.607 2.607 0 0 0 .482-.274l1.3.416.825-1.424-1.019-.931a2.6 2.6 0 0 0 .011-.581zM19.825 8.2a1.369 1.369 0 1 1 1.369-1.369A1.37 1.37 0 0 1 19.825 8.2z" class="cls-1" transform="translate(.439 -3)"/>
                <path id="Path_1234" d="M19.813 10.865l-.931.307a1.479 1.479 0 0 0-.361-.208l-.2-.964h-1.17l-.2.953a2.04 2.04 0 0 0-.372.208l-.92-.307-.592 1.019.723.646a2.5 2.5 0 0 0 0 .405l-.723.668.592 1.019.942-.3a2.107 2.107 0 0 0 .34.2l.2.964h1.172l.208-.953a2.208 2.208 0 0 0 .351-.2l.931.3.592-1.019-.723-.668a2.5 2.5 0 0 0 0-.405l.723-.646zm-2.081 2.848a.975.975 0 1 1 .975-.975.977.977 0 0 1-.975.975z" class="cls-1" transform="translate(.342 -2.332)"/>
            </g>
        </g>
    </g>
</svg>
