<svg xmlns="http://www.w3.org/2000/svg" width="20.506" height="19.027" viewBox="0 0 20.506 19.027">
    <g>
        <path fill="#62c0eb" stroke="#62c0eb" stroke-width="0.5px" d="M11.792 14.663a.909.909 0 0 0-.213-.973l-1.936-1.908.028-.028a16.229 16.229 0 0 0 3.437-6.049h1.8a.925.925 0 0 0 .917-.917V4.77a.925.925 0 0 0-.917-.917H9.337v-.927a.926.926 0 0 0-1.853 0v.926H1.917a.917.917 0 0 0 0 1.834h9.43a14.507 14.507 0 0 1-2.937 4.975A14.341 14.341 0 0 1 6.5 7.994a.82.82 0 0 0-.723-.435.841.841 0 0 0-.732 1.251 16.362 16.362 0 0 0 2.131 2.974l-4.045 3.991a.917.917 0 0 0 0 1.315.934.934 0 0 0 1.315 0l3.965-3.974 1.871 1.871a.92.92 0 0 0 1.51-.324zm4.493-5.252a1.33 1.33 0 0 0-1.251.871l-3.4 9.078a.858.858 0 0 0 .806 1.167.87.87 0 0 0 .815-.565l.824-2.214h4.4l.834 2.214a.884.884 0 0 0 .815.565.867.867 0 0 0 .815-1.167l-3.4-9.078a1.351 1.351 0 0 0-1.26-.871zm-1.5 6.484l1.5-4.011 1.5 4.011h-3z" transform="translate(-.75 -1.75)"/>
    </g>
</svg>
