<svg xmlns="http://www.w3.org/2000/svg" width="20" height="20.004" viewBox="0 0 20 20.004">
    <g>
        <g>
            <g>
                <path fill="#fa0" d="M21.866 21.649l-.929.929a.648.648 0 0 1-.929 0 .648.648 0 0 1 0-.929l.929-.929-2.537-2.537-.929.929a.648.648 0 0 1-.929 0 .648.648 0 0 1 0-.929l.929-.929-2.537-2.537-.929.929a.648.648 0 0 1-.929 0 .648.648 0 0 1 0-.929l.929-.929-2.55-2.55-.929.929a.648.648 0 0 1-.929 0 .648.648 0 0 1 0-.929l.929-.929-2.537-2.537-.928.928a.648.648 0 0 1-.929 0 .648.648 0 0 1 0-.929l.929-.929-1.949-1.947A.654.654 0 0 0 4 5.365v16.729a2.624 2.624 0 0 0 2.616 2.616h16.728a.647.647 0 0 0 .456-1.11zM7.924 19.478v-6.226l7.534 7.534H9.232a1.312 1.312 0 0 1-1.308-1.308z" transform="translate(-4 -4.705) translate(4 4.705) translate(-4 -4.705)"/>
            </g>
        </g>
    </g>
</svg>
