<svg xmlns="http://www.w3.org/2000/svg" width="18" height="30.613" viewBox="0 0 18 30.613">
    <defs>
        <style>
            .cls-1{fill:#fb5607}
        </style>
    </defs>
    <g id="growth" transform="translate(-100.311)">
        <path id="Path_1253" d="M251.477 151.51v1.544a6.462 6.462 0 0 1-6.471 6.471h-1.544v-1.544a6.462 6.462 0 0 1 6.471-6.471z" class="cls-1" transform="translate(-134.151 -141.984)"/>
        <g id="Group_270" transform="translate(101.296 .985)">
            <path id="Path_1254" d="M124 22.144v1.544h-1.544a6.462 6.462 0 0 1-6.471-6.471v-1.544h1.544A6.483 6.483 0 0 1 124 22.144z" class="cls-1" transform="translate(-115.984 -15.673)"/>
            <path id="Path_1255" d="M124 273.439v1.544h-1.544a6.462 6.462 0 0 1-6.471-6.471v-1.544h1.544a6.462 6.462 0 0 1 6.471 6.471z" class="cls-1" transform="translate(-115.984 -251.169)"/>
        </g>
        <g id="Group_271" transform="translate(100.311)">
            <path id="Rectangle_443" d="M0 0H1.971V5.715H0z" class="cls-1" transform="translate(8.015 17.54)"/>
            <path id="Path_1256" d="M117.326 8.54h-1.544a7.464 7.464 0 0 0-5.485 2.4V7.456A7.472 7.472 0 0 0 102.84 0h-1.54a.968.968 0 0 0-.985.985v1.544a7.472 7.472 0 0 0 7.456 7.456h.558v7.555a.968.968 0 0 0 .985.985h1.544a7.472 7.472 0 0 0 7.456-7.456V9.526a.968.968 0 0 0-.988-.986zm-15.044-6.011v-.558h.558a5.5 5.5 0 0 1 5.485 5.485v.558h-.558a5.5 5.5 0 0 1-5.485-5.485zm14.058 8.54a5.5 5.5 0 0 1-5.485 5.485h-.555V16a5.5 5.5 0 0 1 5.485-5.485h.558v.558z" class="cls-1" transform="translate(-100.311)"/>
            <path id="Path_1257" d="M115.782 264.126H110.3v-5.387a7.4 7.4 0 0 0-2.234-5.321 7.14 7.14 0 0 0-5.223-2.135H101.3a.968.968 0 0 0-.985.985v1.544a7.472 7.472 0 0 0 7.456 7.456h.558v2.858h-5.489a.985.985 0 1 0 0 1.971h12.942a.985.985 0 1 0 0-1.971zm-13.5-10.314v-.558h.624a5.321 5.321 0 0 1 3.777 1.577 5.494 5.494 0 0 1 1.642 3.909v.558h-.558a5.5 5.5 0 0 1-5.485-5.486z" class="cls-1" transform="translate(-100.311 -235.483)"/>
        </g>
    </g>
</svg>
