<svg xmlns="http://www.w3.org/2000/svg" width="24" height="20.121" viewBox="0 0 24 20.121">
    <g>
        <g>
            <g>
                <path fill="#62c0eb" d="M10.825 5.258v.478a8.9 8.9 0 0 0-3.282-.629 8.782 8.782 0 0 0-5.094 1.622 1.261 1.261 0 0 0-.163 1.924l3.232 3.232h1.4v1.4a5.879 5.879 0 0 0 3.911 1.71v2.842H8.31a1.261 1.261 0 0 0-1.258 1.258v2.515a2.522 2.522 0 0 0 2.515 2.515h12.576a3.768 3.768 0 0 0 3.773-3.773V5.258A1.261 1.261 0 0 0 24.658 4H12.082a1.261 1.261 0 0 0-1.257 1.258zm-1.4 6.8v-2.7H6.562L5.254 8.049a6.376 6.376 0 0 1 2.289-.428 6.28 6.28 0 0 1 4.452 1.836l1.773 1.773-.252.252a3.4 3.4 0 0 1-2.416 1.006 3.482 3.482 0 0 1-1.671-.427zm13.975 8.29a1.258 1.258 0 1 1-2.515 0v-1.257a1.261 1.261 0 0 0-1.258-1.258H13.34v-3.257a5.859 5.859 0 0 0 1.962-1.3l.252-.252 3.559 3.546h1.773V14.8L13.34 7.295v-.78H23.4z" transform="translate(-1.915 -4) translate(1.915 4) translate(-1.915 -4)"/>
            </g>
        </g>
    </g>
</svg>
