<svg xmlns="http://www.w3.org/2000/svg" width="20" height="20" viewBox="0 0 20 20">
    <g>
        <path fill="#fa0" d="M13 3a10 10 0 1 0 0 20 1.668 1.668 0 0 0 1.233-2.789 1.66 1.66 0 0 1 1.244-2.767h1.967A5.558 5.558 0 0 0 23 11.889C23 6.978 18.522 3 13 3zM6.889 13a1.667 1.667 0 1 1 1.667-1.667A1.664 1.664 0 0 1 6.889 13zm3.333-4.444a1.667 1.667 0 1 1 1.667-1.667 1.664 1.664 0 0 1-1.667 1.667zm5.556 0a1.667 1.667 0 1 1 1.667-1.667 1.664 1.664 0 0 1-1.667 1.667zM19.111 13a1.667 1.667 0 1 1 1.667-1.667A1.664 1.664 0 0 1 19.111 13z" transform="translate(-3 -3)"/>
    </g>
</svg>
