<svg xmlns="http://www.w3.org/2000/svg" width="20" height="20.561" viewBox="0 0 20 20.561">
    <g>
        <path fill="#2162c1" d="M19.911 13.288a8.012 8.012 0 0 0 .072-1.007 8.012 8.012 0 0 0-.072-1.007l2.169-1.7a.519.519 0 0 0 .123-.658l-2.055-3.554a.517.517 0 0 0-.627-.226l-2.56 1.028a7.511 7.511 0 0 0-1.737-1.007l-.391-2.724a.5.5 0 0 0-.5-.432h-4.116a.5.5 0 0 0-.5.432l-.395 2.723a7.9 7.9 0 0 0-1.737 1.008l-2.56-1.028a.5.5 0 0 0-.627.226L2.342 8.919a.507.507 0 0 0 .123.658l2.169 1.7a8.153 8.153 0 0 0-.072 1.007 8.153 8.153 0 0 0 .072 1.007l-2.169 1.7a.519.519 0 0 0-.123.658L4.4 19.2a.517.517 0 0 0 .627.226L7.585 18.4a7.511 7.511 0 0 0 1.737 1l.391 2.724a.5.5 0 0 0 .5.432h4.112a.5.5 0 0 0 .5-.432l.391-2.724a7.9 7.9 0 0 0 1.745-1l2.56 1.028a.5.5 0 0 0 .627-.226l2.052-3.56a.519.519 0 0 0-.123-.658zm-7.638 2.591a3.6 3.6 0 1 1 3.6-3.6 3.6 3.6 0 0 1-3.6 3.6z" transform="translate(-2.271 -2)"/>
    </g>
</svg>
