<svg xmlns="http://www.w3.org/2000/svg" width="20" height="20.001" viewBox="0 0 20 20.001">
    <defs>
        <style>
            .cls-1{fill:#fb5607}
        </style>
    </defs>
    <g id="meds_1_" transform="translate(-.121 .001)">
        <path id="Path_1202" d="M5.4 131.794a5.275 5.275 0 0 1-3.73-9.006l4.725-4.725a.724.724 0 0 1 .995 0l6.466 6.466a.7.7 0 0 1 0 .995l-4.725 4.724a5.239 5.239 0 0 1-3.73 1.545zm1.492-12.239l-4.227 4.228a3.869 3.869 0 1 0 5.471 5.471l4.227-4.227zm0 0" class="cls-1" transform="translate(0 -111.795)"/>
        <path id="Path_1203" d="M137.946 26.187l4.725-4.725A4.572 4.572 0 0 0 136.2 15l-4.725 4.725zm0 0" class="cls-1" transform="translate(-124.591 -12.954)"/>
        <path id="Path_1204" d="M124.995 13.936a.7.7 0 0 1-.5-.206l-6.466-6.466a.7.7 0 0 1 0-.995l4.725-4.724a5.275 5.275 0 1 1 7.46 7.46l-4.725 4.725a.7.7 0 0 1-.5.206zm-5.471-7.17l5.471 5.472 4.227-4.228a3.869 3.869 0 1 0-5.471-5.471zm0 0" class="cls-1" transform="translate(-111.641)"/>
        <path id="Path_1205" fill="#f9f3f1" d="M240.011 46.413a.7.7 0 0 1-.581-.306 1.759 1.759 0 0 0-2.7-.252.7.7 0 0 1-.995-.995 3.166 3.166 0 0 1 4.852.451.7.7 0 0 1-.58 1.1zm0 0" transform="translate(-223.283 -41.671)"/>
    </g>
</svg>
