<svg xmlns="http://www.w3.org/2000/svg" width="18" height="22.5" viewBox="0 0 18 22.5">
    <g>
        <path fill="#fb5607" d="M15.914 2.664A2.257 2.257 0 0 0 14.316 2H6.25A2.257 2.257 0 0 0 4 4.25v18a2.247 2.247 0 0 0 2.239 2.25H19.75A2.257 2.257 0 0 0 22 22.25V9.684a2.212 2.212 0 0 0-.664-1.584l-5.422-5.436zm.461 15.086h-2.25V20a1.125 1.125 0 0 1-2.25 0v-2.25h-2.25a1.125 1.125 0 0 1 0-2.25h2.25v-2.25a1.125 1.125 0 0 1 2.25 0v2.25h2.25a1.125 1.125 0 0 1 0 2.25zm-2.25-9V3.688l6.188 6.188H15.25a1.128 1.128 0 0 1-1.125-1.126z" transform="translate(-4 -2)"/>
    </g>
</svg>
