<svg xmlns="http://www.w3.org/2000/svg" width="22" height="20.96" viewBox="0 0 22 20.96">
    <g>
        <path fill="#fa0" d="M4.251 5.261a1 1 0 0 1 1.411 0l.39.39a.993.993 0 0 1 0 1.4l-.01.01a1 1 0 0 1-1.411 0l-.39-.39a1 1 0 0 1 .01-1.41zm7.744-3.211h.01a.986.986 0 0 1 .99.99V4a.986.986 0 0 1-.99.99h-.01A.986.986 0 0 1 11 4v-.96a.986.986 0 0 1 .995-.99zM3.011 14.005H1.99a.986.986 0 0 1-.99-.99V13a.986.986 0 0 1 .99-.99H3a.986.986 0 0 1 .99.99v.01a.972.972 0 0 1-.979.995zm12 4.192v3.812a1 1 0 0 1-1 1H10a1 1 0 0 1-1-1V18.2a6 6 0 1 1 6 0zm5-5.182V13a.986.986 0 0 1 .99-.99h1.01A.986.986 0 0 1 23 13v.01a.986.986 0 0 1-.99.99H21a.986.986 0 0 1-.991-.985zm-2.063-7.373l.39-.39a1 1 0 1 1 1.411 1.411l-.39.39a1 1 0 0 1-1.411-1.411z" transform="translate(-1 -1) translate(0 -1.05)"/>
    </g>
</svg>
