<svg xmlns="http://www.w3.org/2000/svg" width="24" height="20.133" viewBox="0 0 24 20.133">
    <defs>
        <style>
            .cls-1{fill:#00c49a}
        </style>
    </defs>
    <g id="record_voice_over-24px" transform="translate(-1 -2.548)">
        <circle id="Ellipse_206" cx="4.364" cy="4.364" r="4.364" class="cls-1" transform="translate(5.364 5.223)"/>
        <path id="Path_1222" d="M9.729 16.134C6.816 16.134 1 17.6 1 20.5v1.09a1.094 1.094 0 0 0 1.091 1.091h15.275a1.094 1.094 0 0 0 1.091-1.091V20.5c.001-2.9-5.815-4.366-8.728-4.366zm7.059-7.889a3.57 3.57 0 0 1 0 2.684 1.355 1.355 0 0 0 .273 1.484l.033.033a1.335 1.335 0 0 0 2.128-.295 5.444 5.444 0 0 0-.022-5.084 1.346 1.346 0 0 0-2.149-.316l-.011.011a1.386 1.386 0 0 0-.251 1.484zm4.048-5.325a1.246 1.246 0 0 0-.142 1.615 8.669 8.669 0 0 1-.033 10.093 1.244 1.244 0 0 0 .153 1.593l.033.033a1.273 1.273 0 0 0 1.9-.109 10.664 10.664 0 0 0 0-13.115 1.285 1.285 0 0 0-1.909-.109z" class="cls-1"/>
    </g>
</svg>
