<svg xmlns="http://www.w3.org/2000/svg" width="16" height="21.709" viewBox="0 0 16 21.709">
    <g>
        <g>
            <path fill="#00c49a" d="M13 3a7.674 7.674 0 0 0-1.6.16 7.988 7.988 0 0 0-3.725 13.8 2.222 2.222 0 0 1 .754 1.68v2.639a2.292 2.292 0 0 0 2.285 2.285h.32a2.261 2.261 0 0 0 3.931 0h.32a2.292 2.292 0 0 0 2.285-2.285v-2.637a2.216 2.216 0 0 1 .731-1.668A7.989 7.989 0 0 0 13 3zm2.285 18.281h-4.57v-1.142h4.57zm0-2.285h-4.57v-1.142h4.57zm-1.715-6.387v2.959h-1.143v-2.959l-2.091-2.08.811-.811L13 11.569l1.85-1.851.811.811z" transform="translate(-5.83 -3.5) translate(5.83 3.5) translate(-4.997 -3)"/>
        </g>
    </g>
</svg>
