<svg xmlns="http://www.w3.org/2000/svg" width="19" height="18.99" viewBox="0 0 19 18.99">
    <g>
        <path fill="#2162c1" d="M13.052 14.061v6.031a1.008 1.008 0 0 0 1.005 1.008h6.031a1.008 1.008 0 0 0 1.005-1.005v-6.034a1.008 1.008 0 0 0-1.005-1.005h-6.031a1.008 1.008 0 0 0-1.005 1.005zM4.005 21.1h6.031a1.008 1.008 0 0 0 1.005-1.005v-6.034a1.008 1.008 0 0 0-1.005-1.005H4.005A1.008 1.008 0 0 0 3 14.061v6.031A1.008 1.008 0 0 0 4.005 21.1zM3 4.01v6.031a1.008 1.008 0 0 0 1.005 1.005h6.031a1.008 1.008 0 0 0 1.005-1.005V4.01A1.008 1.008 0 0 0 10.036 3H4.005A1.008 1.008 0 0 0 3 4.01zM16.017 2.4l-4.272 4.263a1 1 0 0 0 0 1.417l4.272 4.272a1 1 0 0 0 1.417 0l4.272-4.272a1 1 0 0 0 0-1.417L17.444 2.4a1.013 1.013 0 0 0-1.427 0z" transform="translate(-3 -2.107)"/>
    </g>
</svg>
