<svg xmlns="http://www.w3.org/2000/svg" width="16" height="25.143" viewBox="0 0 16 25.143">
    <g>
        <path fill="#6b4ee7" d="M18.714 1H7.286A2.292 2.292 0 0 0 5 3.286v20.571a2.292 2.292 0 0 0 2.286 2.286h11.428A2.292 2.292 0 0 0 21 23.857V3.286A2.292 2.292 0 0 0 18.714 1zm0 19.429H7.286V6.714h11.428zm-5.143-8V10.28a.571.571 0 0 0-1.086-.251l-1.931 3.863a.574.574 0 0 0 .514.823h1.36v2.149a.571.571 0 0 0 1.086.251l1.931-3.863a.574.574 0 0 0-.514-.823z" transform="translate(-5 -1)"/>
    </g>
</svg>
