<svg xmlns="http://www.w3.org/2000/svg" width="20.308" height="22.388" viewBox="0 0 20.308 22.388">
    <defs>
        <style>
            .cls-1{fill:#fb5607;stroke:#fb5607;stroke-width:.3px}
        </style>
    </defs>
    <g id="science" transform="translate(-24.049 .15)">
        <g id="Group_240" transform="translate(24.203 4.069)">
            <g id="Group_239">
                <path id="Path_1186" d="M44.074 104.618c-.627-2.326-3.552-5.262-7.451-7.479-4.689-2.667-10.521-4.045-12.091-1.347a2.831 2.831 0 0 0-.2 2.2c.627 2.326 3.552 5.262 7.451 7.479a19.586 19.586 0 0 0 8.743 2.807c1.532 0 2.746-.435 3.347-1.457a2.829 2.829 0 0 0 .201-2.203zm-1.47 1.458c-.806 1.366-5.149.929-10.1-1.884-4.066-2.312-6.325-4.973-6.759-6.584a1.4 1.4 0 0 1 .052-1.076c.28-.481 1.017-.729 2.065-.729a17.89 17.89 0 0 1 8.03 2.614c4.066 2.312 6.325 4.973 6.759 6.584a1.4 1.4 0 0 1-.051 1.074z" class="cls-1" transform="translate(-24.203 -94.329)"/>
            </g>
        </g>
        <g id="Group_242" transform="translate(29.355)">
            <g id="Group_241">
                <path id="Path_1187" d="M148.457 0c-3.149 0-4.849 5.69-4.849 11.044s1.7 11.044 4.849 11.044c2.764 0 4.849-4.748 4.849-11.044S151.221 0 148.457 0zm0 20.619c-1.6 0-3.379-4.095-3.379-9.575s1.784-9.575 3.379-9.575 3.379 4.095 3.379 9.575-1.784 9.575-3.379 9.575z" class="cls-1" transform="translate(-143.608)"/>
            </g>
        </g>
        <g id="Group_244" transform="translate(24.204 4.072)">
            <g id="Group_243">
                <path id="Path_1188" d="M43.88 95.847c-1.58-2.69-7.408-1.312-12.09 1.35-3.9 2.218-6.825 5.153-7.451 7.479a2.831 2.831 0 0 0 .2 2.2c.6 1.026 1.811 1.462 3.345 1.462a19.594 19.594 0 0 0 8.746-2.81c3.9-2.217 6.825-5.153 7.451-7.479a2.83 2.83 0 0 0-.201-2.202zm-1.219 1.816c-.434 1.611-2.693 4.272-6.759 6.584-4.813 2.737-9.3 3.252-10.1 1.885a1.4 1.4 0 0 1-.052-1.076c.434-1.611 2.693-4.272 6.759-6.584a17.765 17.765 0 0 1 8-2.632c1.063 0 1.806.258 2.094.748a1.4 1.4 0 0 1 .059 1.076z" class="cls-1" transform="translate(-24.209 -94.388)"/>
            </g>
        </g>
    </g>
</svg>
