<svg xmlns="http://www.w3.org/2000/svg" width="22" height="22.118" viewBox="0 0 22 22.118">
    <defs>
        <style>
            .cls-1{fill:#6b4ee7}
        </style>
    </defs>
    <g id="coffee-seed" transform="translate(-.001)">
        <path id="Path_1247" d="M4.991 24.553a14.03 14.03 0 0 1 1.535-4.813q.175-.334.366-.656a55.479 55.479 0 0 1-2.838-7.822 6.09 6.09 0 0 0-2.9 2.715 9.543 9.543 0 0 0-1.119 3.88 12.852 12.852 0 0 0 .486 4.537 13.609 13.609 0 0 0 2.652 5.218 7.24 7.24 0 0 0 2.282 1.795c-.031-.087-.062-.175-.09-.265a10.783 10.783 0 0 1-.375-4.588zm0 0" class="cls-1" transform="translate(0 -10.775)"/>
        <path id="Path_1248" d="M125.185 7.013a13.438 13.438 0 0 1 2.951-2.929 11.443 11.443 0 0 1 1.42-.87c-1.766-2.471-4.2-3.595-6.817-3.1a53.151 53.151 0 0 0 2.447 6.9zm0 0" class="cls-1" transform="translate(-117.435)"/>
        <path id="Path_1249" d="M253.78 111.875a12.736 12.736 0 0 0 1.4-4.368 9.477 9.477 0 0 0-.322-4.03 5.964 5.964 0 0 0-2.435-3.3 33.523 33.523 0 0 0-4.018 9.137 18.606 18.606 0 0 1-4.612 8.458 5.752 5.752 0 0 0 1.5.2A8.176 8.176 0 0 0 250 116.3a12.691 12.691 0 0 0 3.781-4.428zm0 0" class="cls-1" transform="translate(-233.256 -95.853)"/>
        <path id="Path_1250" d="M146.508 98.311a10.5 10.5 0 0 0 1.459-1.547 19.376 19.376 0 0 0 3.226-6.71 34.736 34.736 0 0 1 4.082-9.349 5.688 5.688 0 0 0-1.81-.288 8.174 8.174 0 0 0-4.706 1.667 13.182 13.182 0 0 0-5.176 8.8 9.479 9.479 0 0 0 .322 4.03 5.918 5.918 0 0 0 2.6 3.4zm0 0" class="cls-1" transform="translate(-137.301 -76.944)"/>
    </g>
</svg>
