<svg xmlns="http://www.w3.org/2000/svg" width="20" height="25.445" viewBox="0 0 20 25.445">
    <defs>
        <style>
            .cls-1{fill:#00c49a}
        </style>
    </defs>
    <g id="microphone" transform="translate(-54.782)">
        <g id="Group_251" transform="translate(64.352)">
            <g id="Group_250">
                <circle id="Ellipse_205" cx="5.215" cy="5.215" r="5.215" class="cls-1"/>
            </g>
        </g>
        <g id="Group_253" transform="translate(54.782 7.244)">
            <g id="Group_252">
                <path id="Path_1211" d="M60.495 157.657a2.575 2.575 0 0 0-1.833.759l-.64.64a.917.917 0 0 1-1.3-1.3l.707-.707a1.958 1.958 0 0 0 1.864-.3l8.242-6.432a6.918 6.918 0 0 1-4.559-4.559L56.547 154a1.958 1.958 0 0 0-.3 1.864l-.707.707a2.592 2.592 0 0 0 3.666 3.666l.64-.64a.917.917 0 0 1 1.3 1.3l-1.88 1.88 1.185 1.185 1.88-1.88a2.592 2.592 0 0 0-1.833-4.425z" class="cls-1" transform="translate(-54.782 -145.761)"/>
            </g>
        </g>
    </g>
</svg>
