<svg xmlns="http://www.w3.org/2000/svg" width="24" height="15.273" viewBox="0 0 24 15.273">
    <g>
        <path fill="#fa0" d="M17.364 11.545a3.273 3.273 0 1 0-3.273-3.273 3.259 3.259 0 0 0 3.273 3.273zm-8.727 0a3.273 3.273 0 1 0-3.273-3.272 3.259 3.259 0 0 0 3.272 3.272zm0 2.182C6.095 13.727 1 15 1 17.545v1.636a1.094 1.094 0 0 0 1.091 1.091h13.091a1.094 1.094 0 0 0 1.091-1.091v-1.636c0-2.545-5.095-3.818-7.637-3.818zm8.727 0c-.316 0-.676.022-1.058.055.022.011.033.033.044.044a4.538 4.538 0 0 1 2.105 3.72v1.636a3.278 3.278 0 0 1-.2 1.091h5.651A1.094 1.094 0 0 0 25 19.182v-1.637c0-2.545-5.095-3.818-7.636-3.818z" transform="translate(-1 -5)"/>
    </g>
</svg>
