<svg xmlns="http://www.w3.org/2000/svg" width="15" height="26.827" viewBox="0 0 15 26.827">
    <defs>
        <style>
            .cls-1{fill:#e93c23}
        </style>
    </defs>
    <g id="sports_handball-24px" transform="translate(-5.875 -1)">
        <g id="Group_256" transform="translate(5.875 1)">
            <g id="Group_255">
                <path id="Path_1212" d="M14.32 6.189a2.377 2.377 0 1 0 3.247-.868 2.386 2.386 0 0 0-3.247.868z" class="cls-1" transform="translate(-4.335 -.242)"/>
                <path id="Path_1213" d="M17.728 12.1l-3.093-1.784a5.976 5.976 0 0 1-2.593-7.22A1.184 1.184 0 0 0 9.83 2.25a8.354 8.354 0 0 0 1.736 8.65l-5.53 9.572a1.194 1.194 0 0 0 2.07 1.189L9.295 19.6l2.058 1.189-2.974 5.15a1.194 1.194 0 1 0 2.07 1.189l6.887-11.918a5.983 5.983 0 0 1 .785 5.614 1.188 1.188 0 0 0 2.224.833 8.51 8.51 0 0 0-2.617-9.557z" class="cls-1" transform="translate(-5.875 -.906)"/>
                <path id="Path_1214" d="M12.892 4.33a1.785 1.785 0 1 0-.654-2.438 1.788 1.788 0 0 0 .654 2.438z" class="cls-1" transform="translate(-4.714 -1)"/>
            </g>
        </g>
    </g>
</svg>
