<svg xmlns="http://www.w3.org/2000/svg" width="21" height="18.166" viewBox="0 0 21 18.166">
    <g>
        <path fill="#fb5607" d="M21.41 19.757H3.569a1.049 1.049 0 1 0 0 2.1H21.41a1.049 1.049 0 0 0 0-2.1zm1.648-9.823a1.584 1.584 0 0 0-1.931-1.112l-5.573 1.49-6.78-6.318A1.113 1.113 0 0 0 7.7 3.732a1.137 1.137 0 0 0-.678 1.658l3.61 6.255-5.216 1.4-1.648-1.3a1.075 1.075 0 0 0-.924-.189l-.346.094a.516.516 0 0 0-.315.766l1.973 3.411a1.064 1.064 0 0 0 1.175.493l16.6-4.45a1.59 1.59 0 0 0 1.123-1.931z" transform="translate(-2.109 -3.69)"/>
    </g>
</svg>
