<svg xmlns="http://www.w3.org/2000/svg" width="18" height="25.69" viewBox="0 0 18 25.69">
    <defs>
        <style>
            .cls-1{fill:#00c49a}
        </style>
    </defs>
    <g id="world-globe" transform="translate(-76.627)">
        <path id="Path_1258" d="M187.063 8.279a17.333 17.333 0 0 0-.945-5.366c-.7-1.879-1.734-2.913-2.9-2.913s-2.2 1.035-2.9 2.913a17.335 17.335 0 0 0-.945 5.366z" class="cls-1" transform="translate(-97.592)"/>
        <path id="Path_1259" d="M81.318 15.663a9.1 9.1 0 0 1 .82-1.683 9.052 9.052 0 0 0-5.511 7.577h3.649a18.911 18.911 0 0 1 1.041-5.894z" class="cls-1" transform="translate(0 -13.279)"/>
        <path id="Path_1260" d="M327.4 21.556h3.649a9.052 9.052 0 0 0-5.511-7.577 9.1 9.1 0 0 1 .82 1.683 18.912 18.912 0 0 1 1.042 5.894z" class="cls-1" transform="translate(-236.422 -13.278)"/>
        <path id="Path_1261" d="M82.138 202.577a9.1 9.1 0 0 1-.82-1.683A18.914 18.914 0 0 1 80.276 195h-3.649a9.052 9.052 0 0 0 5.511 7.577z" class="cls-1" transform="translate(0 -185.216)"/>
        <path id="Path_1262" d="M326.358 200.894a9.1 9.1 0 0 1-.82 1.683 9.052 9.052 0 0 0 5.511-7.577H327.4a18.912 18.912 0 0 1-1.042 5.894z" class="cls-1" transform="translate(-236.422 -185.216)"/>
        <path id="Path_1263" d="M114.28 206.766v-3.637a4.5 4.5 0 0 0 2.147-2.763 17.332 17.332 0 0 0 .945-5.366h-7.689a17.338 17.338 0 0 0 .945 5.366 4.5 4.5 0 0 0 2.147 2.763v3.637a3.594 3.594 0 0 0-3.01-1.806H106c0 2.494 1.685 4.516 3.763 4.516h3.01v1.43h1.505v-1.43h3.01c2.078 0 3.763-2.022 3.763-4.516h-3.761a3.594 3.594 0 0 0-3.01 1.806z" class="cls-1" transform="translate(-27.9 -185.216)"/>
    </g>
</svg>
