<svg xmlns="http://www.w3.org/2000/svg" width="20" height="20" viewBox="0 0 20 20">
    <g fill="#F5BA42">
        <path d="M7.27 14.539c-4.015 0-7.27-3.255-7.27-7.27C0 3.255 3.255 0 7.27 0c4.014 0 7.269 3.255 7.269 7.27-.004 4.012-3.257 7.265-7.27 7.269zm0-13.307c-3.335 0-6.038 2.703-6.038 6.037 0 3.335 2.703 6.038 6.037 6.038 3.335 0 6.038-2.703 6.038-6.038-.005-3.332-2.705-6.033-6.038-6.037z" transform="translate(2.727 2.727)"/>
        <path d="M10.741 12.742c-.505-1.487-1.9-2.488-3.472-2.488-1.57 0-2.967 1-3.472 2.488l-1.165-.397c.675-1.985 2.54-3.32 4.637-3.32 2.098 0 3.962 1.335 4.638 3.32l-1.166.397zM7.27 8.395c-1.473 0-2.667-1.193-2.667-2.666 0-1.472 1.194-2.666 2.666-2.666 1.473 0 2.667 1.194 2.667 2.666-.002 1.472-1.195 2.665-2.667 2.666zm0-4.1c-.793 0-1.435.642-1.435 1.434 0 .792.642 1.434 1.434 1.434.792 0 1.434-.642 1.434-1.434 0-.791-.642-1.433-1.434-1.434z" transform="translate(2.727 2.727)"/>
    </g>
</svg>
