<svg xmlns="http://www.w3.org/2000/svg" xmlns:xlink="http://www.w3.org/1999/xlink" width="776" height="176" viewBox="0 0 776 176">
    <defs>
        <path id="prefix__a" d="M0 0.615L8.983 0.615 8.983 9.387 0 9.387z"/>
        <path id="prefix__c" d="M0 0L76 0 76 29 0 29z"/>
    </defs>
    <g fill="none" fill-rule="evenodd">
        <path fill="#FFF" d="M527.073 34.614c2.092 3.16 4.55 5.925 7.373 8.302.396.333.782-.406.391-.736-2.711-2.282-5.086-4.96-7.095-7.995-.29-.439-.963-.015-.67.43" opacity=".616"/>
        <path fill="#FFF" d="M537.32 32.143c-3.713 4.714-7.776 9.1-12.19 13.159-.392.36.192.945.583.585 4.414-4.058 8.478-8.444 12.191-13.158.325-.413-.254-1.004-.583-.586M538.758 39.969c.501-.414 1.076-.93 1.747-1.092.279-.067.997-.123 1.222.13l.21 1.272c-.21.265-.426.528-.644.787-.867 1.048-1.743 2.09-2.614 3.134-.181.217-.167.616.193.68 1.762.31 3.43.021 4.929-.905.466-.288.029-.994-.441-.703-1.29.798-2.732 1.092-4.256.824l.193.68c1.025-1.23 2.065-2.448 3.076-3.688.528-.647.96-1.377.47-2.157-1.167-1.852-3.497-.535-4.703.463-.42.348.199.922.618.575" opacity=".616"/>
        <g transform="translate(0 88)">
            <mask id="prefix__b" fill="#fff">
                <use xlink:href="#prefix__a"/>
            </mask>
            <path fill="#FFF" d="M.082 1.215c2.292 3.006 5.255 5.6 8.15 8.062.415.354 1.03-.233.611-.59C6.01 6.279 3.073 3.738.83.795.503.367-.248.782.082 1.215" mask="url(#prefix__b)"/>
        </g>
        <path fill="#FFF" d="M8.298 89.137C5.82 92.055 3.097 94.833.135 97.33c-.407.344.197.906.604.563 2.96-2.498 5.684-5.276 8.161-8.193.338-.397-.261-.964-.602-.563M57.245 32.234c-1.719 5.124-3.508 10.23-5.228 15.354-.138.413.6.59.738.178 1.72-5.124 3.508-10.23 5.228-15.355.138-.412-.6-.588-.738-.177"/>
        <path fill="#FFF" d="M57.091 32.587c6.443 7.09 13.03 14.084 19.315 21.3.273.312.722-.086.56-.409-.29-.571-.16-.421-.69-.812-.359-.262-.866.211-.505.476l.58.676.559-.408c-6.285-7.216-12.872-14.21-19.316-21.299-.3-.33-.8.149-.503.476"/>
        <path fill="#FFF" d="M54.245 47.714c7.8 2.02 15.621 3.882 23.331 6.27.425.131.606-.571.183-.702-7.71-2.388-15.533-4.25-23.332-6.27-.429-.111-.612.59-.182.702"/>
        <path fill="#FFF" d="M54.27 42.668c3.061.54 5.414 2.965 4.934 5.901-.07.432.651.618.723.183.538-3.29-1.95-6.126-5.458-6.745-.471-.083-.672.578-.199.661"/>
        <path fill="#FFF" d="M752.033 47.945c1.635 4.085 3.507 8.026 5.642 11.848.21.375.751.204.763-.217.059-2.094.153-4.185.317-6.273.168-2.136-.074-5.475.825-7.37 1.23-2.593 7.72-3.228 10.262-3.897 1.188-.313 3.341-1.349 4.591-1.147-.266-.043-.092-.186.064.932.115.826.47 1.698.695 2.505.148.531.938.305.79-.228l-1.05-3.786c-.066-.233-.285-.35-.505-.3-5.105 1.145-10.15 2.629-15.162 4.151-.126.039-.264.156-.286.301-.761 5.01-1.216 10.039-1.36 15.112l.763-.217c-2.1-3.757-3.952-7.626-5.56-11.643-.201-.502-.993-.281-.789.23" opacity=".538"/>
        <path fill="#FFF" d="M765.714 49.081c-2.407 1.732-5.808 6.094-2.013 8.482 1.274.802 2.812.436 3.843-.572 1.75-1.708 1.304-4.26.697-6.355-.122-.42-.71-.398-.841 0-1.62 4.864 4.954 7.747 7.539 3.302.28-.482-.474-.916-.754-.435-2.032 3.495-7.243 1.262-5.944-2.638h-.841c.365 1.26.792 2.778.374 4.08-.644 2.01-4.108 2.517-4.73.232-.63-2.314 1.435-4.147 3.11-5.352.45-.323.014-1.071-.44-.744" opacity=".538"/>
        <path fill="#FFF" d="M24.067 120.262c2.586 4.185 5.533 8.035 8.884 11.604.318.339.75-.027.697-.416l-1.234-8.955c-.256-1.854-.752-2.855 1.04-3.784 1.219-.63 3.017-.765 4.344-1.1l8.686-2.202c1.19-.3 2.515-.872 3.723-.943.767-.536 1.418-.465 1.956.213 0 .836.002 1.67.003 2.507 0 .55.835.551.834 0l-.005-3.76c0-.284-.265-.479-.527-.413l-21.096 5.345c-.239.06-.322.302-.291.526l1.762 12.794.698-.417c-3.3-3.514-6.208-7.31-8.754-11.431-.286-.464-1.009-.035-.72.432"/>
        <path fill="#FFF" d="M40.221 122.764c4.048 1.822 7.735 4.194 11.04 7.124.406.36 1.012-.23.603-.592-3.357-2.976-7.097-5.403-11.212-7.254-.496-.223-.93.498-.431.722"/>
        <path fill="#FFF" d="M48.186 119.295c-1.048 4.512-2.43 8.907-4.155 13.21-.198.493.606.708.802.219 1.724-4.303 3.106-8.697 4.155-13.21.12-.516-.681-.736-.802-.219M214.264 117.098l-14.12 11.216c-.42.334.175.919.592.588l14.12-11.216c.421-.334-.175-.919-.592-.588M204 114.193c-.558 1.107-1.104 2.958.168 3.681 1.075.613 1.753-1.16 1.825-2.265.085-1.308-.667-2.726-1.79-2.601-.952.104-1.555 1.598-.976 2.605.264.458.871.013.604-.45-.35-.608.093-1.408.663-1.249.646.181.884 1.078.784 1.818-.078.583-.579 2.01-1.1 1.028-.356-.674.143-1.555.426-2.117.245-.484-.36-.932-.603-.45M208.362 128.938c-.296.426-.373.968-.195 1.459.183.5.484.615.988.602.898-.022 1.827-.602 1.845-1.582.015-.831-.682-1.605-1.548-1.376-.887.234-1.276 1.328-1.444 2.126-.083.394.52.562.603.166.106-.503.267-1.07.636-1.449.4-.412.98-.272 1.106.305.133.609-.359 1.041-.913 1.151-.13.026-.277.049-.409.032-.216-.028-.098.06-.24-.1-.235-.268-.052-.783.11-1.018.231-.331-.31-.645-.54-.316"/>
        <path fill="#F4DA57" d="M119 93.216l35.06 40.814c3.555 4.213 11.315 3.751 15.182-.169 3.094-3.136 3.65-8.027 1.338-11.797L143.5 81 119 93.216z"/>
        <path fill="#EDEDED" d="M217.407 32L203 51.918 218.477 55 220 48.136z"/>
        <path fill="#FFF" d="M223 51.432L221.617 31.044 218 31 219.646 53 221.191 52.793z"/>
        <path fill="#FFF" d="M178 46.073s40.029-1.287 42 6.927l-39.373-1.626-.416-1.53-2.211-3.77z"/>
        <path fill="#DE5B28" d="M180.801 49L157 88.989 189.748 89 217 51.029z"/>
        <path fill="#C34921" d="M216.559 52s4.205 2.393 6.441.299l-27.36 36.345s-2.738 2.827-6.64.318L216.559 52z"/>
        <path fill="#FFF" d="M183.001 59L179 65.075 198.724 66 203 60.109z"/>
        <path fill="#EDEDED" d="M180 49.748L177.792 46 154 85.252 156.208 89z"/>
        <path fill="#E2BB96" d="M185 93.33s.8-5.713 10.6-6.563c0 0 3.385-.599 5.538-6.947.58-1.706 2.123-2.88 3.897-2.818 3.628.127 8.78 1.585 6.325 9.319-3.646 11.486-5.598 10.242-17.016 11.679L185 93.33z"/>
        <path fill="#F4DA57" d="M156 113.664L183.355 89 199 101.871 168.799 133z"/>
        <path stroke="#EAAB55" stroke-width="1.013" d="M162 109l-6 5"/>
        <path fill="#F4DA57" d="M129.04 75l11.406 4.93c1.693.733 3.034 2.285 3.184 4.162 2.173 27.243 1.11 69.908 1.11 69.908L122 151.26c1.861-24.717 5.609-63.336 3.734-73.61-.24-1.32 3.455-1.933 3.307-2.65"/>
        <path stroke="#EAAB55" stroke-width="1.013" d="M145 124s.054-17.451-1-33"/>
        <path fill="#FFF" d="M129.222 74.903s8.73 10.588 8.73 24.649c0 0 1.102 11.93-7.179 21.29L133.586 147H92V68l37.222 6.903z"/>
        <g transform="translate(79 147)">
            <mask id="prefix__d" fill="#fff">
                <use xlink:href="#prefix__c"/>
            </mask>
            <path fill="#6680E0" d="M55.754 0S69.31 12.712 76 29H0S.52 11.538 14.055 0h41.699z" mask="url(#prefix__d)"/>
        </g>
        <path fill="#201D3D" d="M145.637 25.628s.448 26.997 4.363 32.437c0 0-21.442 7.492-31.295-1.464 0 0-11.567 3.71-26.207-2.514 0 0-4.15-28.235 11.512-45.087l24.149 3.06 17.478 13.568z"/>
        <path fill="#E2BB96" d="M104.138 70.443L109.51 50s3.28.063 6.587 1.136c3.307 1.074 6.025.847 5.828 2.382-.007.047 3.075-1.91 3.075-1.91l-1.495 21.673c-.031.24-.038.48-.031.719L104 71.062c.06-.201.109-.408.138-.62"/>
        <path fill="#E2BB96" d="M122.356 70.418l6.625 3.45s1.092 12.324-13.429 9.788C101.042 81.124 99 67 99 67l6.266.639 17.09 2.779z"/>
        <path fill="#C08B68" d="M110 49.258s3.707 10.536 14.286 8.475L125 48c.102.367-14.999 1.258-14.999 1.258"/>
        <path fill="#201D3D" d="M99.22 20.65c-1.74 13.29 6.998 25.446 19.517 27.15 12.519 1.702 24.3-7.616 26.04-20.907 1.741-13.292-6.903-24.98-19.422-26.684-12.519-1.703-24.393 7.15-26.134 20.44"/>
        <path fill="#E2BB96" d="M105.694 20.935c-.968 7.329-.77 13.793-.33 18.42.429 4.531 2.864 7.985 6.554 11l.671.548c3.904 3.189 9.384 3.991 14.03 2.052 4.687-1.954 8.175-4.895 9.735-9.484 2.837-8.347 4.278-17.821 4.278-17.821s4.065-18.283-14.825-20.466c-18.889-2.183-20.113 15.751-20.113 15.751"/>
        <path fill="#E2BB96" d="M135.254 43.274c3.003 3.218 13.018-5.003 8.667-10.163-2.863-3.396-6.136 2.077-6.136 2.077l-.794 2.394-1.6 4.523-.391 1.01.254.16z"/>
        <path stroke="#242231" stroke-linecap="round" stroke-linejoin="round" stroke-width="1.182" d="M142 36.768s-1.003-2.376-5 1.232"/>
        <path fill="#E2BB96" d="M103.704 38.674c-3.862 2.329-11.145-8.462-5.83-12.055 3.767-2.547 5.527 3.593 5.527 3.593l.133 2.517.353 4.78.113 1.077-.296.088z"/>
        <path stroke="#242231" stroke-linecap="round" stroke-linejoin="round" stroke-width="1.182" d="M99 30.583s2.073-2.36 5 2.417"/>
        <path fill="#201D3D" d="M101 22s.83-20.642 19.373-19.928c0 0 10.627-1.723 9.627 9.644 0 0-10.4 9.248-29 10.284z"/>
        <path fill="#201D3D" d="M126 11.746s4.611 9.542 16.613 15.254c0 0 3.906-16.37-13.096-22.883 0 0-.08-1.67-3.517 7.629"/>
        <path fill="#1D2237" d="M129.013 32.302c-.11.82.468 1.575 1.29 1.685.82.11 1.574-.467 1.683-1.288.11-.822-.466-1.575-1.288-1.686-.82-.109-1.575.468-1.685 1.289"/>
        <path fill="#201D3D" d="M113.013 30.302c-.109.821.468 1.575 1.288 1.685.822.11 1.576-.467 1.686-1.289.109-.82-.468-1.575-1.288-1.685-.822-.11-1.576.468-1.686 1.289"/>
        <path stroke="#242231" stroke-linecap="round" stroke-linejoin="round" stroke-width="1.182" d="M123 36v2.178c0 .505-.474.927-1 .799l-1-.195"/>
        <path fill="#201D3D" d="M132.456 24.996s-3.736-2.021-4.436-.305c0 0-.444 1.174 2.845 2.865 3.288 1.692 4.27 1.799 4.998.83.728-.968-1.596-2.595-3.407-3.39M114.962 22.093s3.905-.575 4.038 1.132c0 0 .06 1.157-3.35 1.589-3.41.432-5.25.112-5.622-.957-.373-1.07 3.094-1.645 4.934-1.764"/>
        <path fill="#FFF" d="M125 41.783L115.013 40s-.468 4.086 4.218 4.914c3.963.701 5.769-3.131 5.769-3.131"/>
        <path stroke="#FFF" stroke-linecap="round" stroke-linejoin="round" stroke-width="1.773" d="M119.901 32.166c-.644 3.812-4.255 6.379-8.067 5.735-3.811-.644-6.38-4.256-5.735-8.067.644-3.81 4.255-6.379 8.067-5.735 3.811.644 6.38 4.255 5.735 8.067zM137.901 35.166c-.644 3.81-4.256 6.379-8.067 5.735-3.81-.644-6.379-4.256-5.735-8.067.644-3.81 4.256-6.379 8.067-5.735 3.811.644 6.38 4.256 5.735 8.067zM119 32.312s2.868-1.044 5 .688"/>
        <path fill="#FFF" d="M113 24.042L107.552 36s-3.06-3.939-.587-8.301c2.472-4.363 6.035-3.657 6.035-3.657" opacity=".399"/>
        <path stroke="#FFF" stroke-width="2.364" d="M115 25l-5.5 12.5" opacity=".347"/>
        <path fill="#FFF" d="M131 27.042L125.552 39s-3.06-3.94-.587-8.301c2.473-4.363 6.035-3.657 6.035-3.657" opacity=".399"/>
        <path stroke="#FFF" stroke-width="2.364" d="M134 28l-6 13" opacity=".347"/>
        <path fill="#F4DA57" d="M99.135 67.893l-11.833-.848c-2.664-.351-5.17 1.372-5.856 4.027l-6.02 14.66s2.47 37.665-1.426 65.697L96.793 155s12.24-52.685 2.342-87.107"/>
        <path fill="#F4DA57" d="M85 67L28.076 82.969c-5.314 1.364-8.337 8.517-6.57 13.679 1.414 4.13 5.511 6.743 9.88 6.304l51.796-7.918L85 67z"/>
        <path stroke="#EAAB55" stroke-width="1.013" d="M75 96l7-1"/>
        <path fill="#E2BB96" d="M37 37.55l-1.735-18.193c-.13-1.592-1.714-2.68-3.305-2.27-1.211.312-2.029 1.41-1.955 2.624L31.376 39 37 37.55z"/>
        <path fill="#E2BB96" d="M33.573 30s-7.534 2.158-12.387 4.948c-1.22.702-2.038 1.886-2.133 3.202-.227 3.116.078 9.46 4.948 15.85L36 53.057l-.678-20.762L33.572 30z"/>
        <path fill="#E2BB96" d="M35.247 53l3.575-8.915c.24-.599.237-1.257-.008-1.854l-1.858-4.519c-.5-1.217-1.888-1.92-3.273-1.657l-7.825 1.48c-1.305.32-2.099 1.535-1.792 2.745.277 1.094 1.373 1.843 2.591 1.773l3.655-.212s-3.9 1.347-4.834 8.021L35.248 53z"/>
        <path stroke="#C08B68" stroke-linecap="round" stroke-linejoin="round" stroke-width="1.182" d="M37 36.626s-.791-1.999-2.992-1.564c-1.718.34-4.765.91-6.94 1.313-1.399.259-2.303 1.572-2.014 2.917.243 1.136 1.275 1.954 2.477 1.965l3.022.025S26.956 42.498 25.742 49"/>
        <path fill="#F4DA57" d="M21.54 96L20 54.128 39.249 51 43 92.099z"/>
        <path stroke="#EAAB55" stroke-width="1.013" d="M42 80l1 9"/>
    </g>
</svg>
