<svg xmlns="http://www.w3.org/2000/svg" width="925" height="675" viewBox="0 0 925 675">
    <defs>
        <linearGradient id="prefix__a" x1="62.182%" x2="40.693%" y1="55.982%" y2="45.437%">
            <stop offset="0%" stop-color="#CFEAF9"/>
            <stop offset="100%" stop-color="#E5E8EC"/>
        </linearGradient>
    </defs>
    <g fill="none" fill-rule="evenodd">
        <path fill="#E6F2FF" fill-rule="nonzero" d="M728.03 559.191c-65.895-4.132-269.841-17.81-393.376-34.907-228.853-31.914-418.14-6.553-296.74 38.612 33.872 12.68-68.6 73.66 174.059 100.303 212.912 23.366 431.945 5.984 537.832-.855s155.558-25.788 178.614-34.337c20.21-7.551 29.745-54.568-200.389-68.816z"/>
        <g fill-rule="nonzero">
            <g fill="#FFAB01">
                <path d="M6.835 10.767s1.281-3.825-.143-7.509C6.122 1.983 4.13.142 2.848.708 1.424 1.275 1.139 3.4 1.85 5.242c1.424 3.541 4.984 5.525 4.984 5.525zM8.828 16.858s-1.708-3.116-4.841-4.25c-1.14-.425-3.417-.141-3.845 1.134-.427 1.275.712 2.691 2.279 3.258 2.99 1.133 6.407-.142 6.407-.142zM12.53 23.517s-2.847-2.125-6.265-1.842c-1.281.142-3.275 1.275-3.132 2.55.142 1.275 1.708 2.267 3.417 2.125 3.417-.283 5.98-2.833 5.98-2.833zM8.97 17s3.133-1.275 4.842-4.108c.712-.992.997-3.259.142-3.825-.854-.567-2.42.283-3.417 1.7C8.828 13.742 8.971 17 8.971 17z" transform="translate(0 397) translate(8.543)"/>
                <path d="M12.103 23.658s3.133-1.275 4.984-3.966c.712-.992.997-3.259 0-3.825-.997-.567-2.563.283-3.417 1.7-1.852 2.833-1.567 6.091-1.567 6.091zM17.941 32.017s2.848-.709 4.13-2.834c.427-.85.57-2.55-.428-3.258-.996-.567-2.42-.142-3.132.992-1.14 2.266-.57 5.1-.57 5.1zM17.514 32.158s-2.136-1.841-4.841-1.983c-.997-.142-2.706.567-2.848 1.417 0 .991 1.14 1.7 2.563 1.841 2.848.284 5.126-1.275 5.126-1.275z" transform="translate(0 397) translate(8.543)"/>
                <path d="M33.747 69.7c-.57.567-1.14.708-1.282.85l-.142-.708.142.283-.142-.283s1.566-.567 2.136-2.692c.712-2.408.284-5.95-1.567-10.342C30.472 50.717 25.63 43.067 18.796 34 10.679 23.517 8.4 16.575 6.977 12.042c-.427-1.134-.712-2.125-.997-2.975l.57-.284c.427.85.712 1.842 1.14 3.117 1.423 4.533 3.701 11.333 11.675 21.675 15.52 20.117 17.087 29.467 15.806 33.858-.428 1.134-.997 1.842-1.424 2.267z" transform="translate(0 397) translate(8.543)"/>
            </g>
            <path fill="#FFAB01" d="M236.512 75.225c15.663-8.358 3.702-12.042-10.537-12.608 7.12-6.234 3.133-12.609-13.67-20.4-7.546-3.4-16.944-1.984-26.2 1.7-6.692-13.034-15.805-22.242-27.054-17.85-9.255 3.541-16.233 8.075-20.647 12.891-2.847-1.133-5.838-2.266-8.97-3.4-6.977-2.266-12.388-.991-16.233 2.55-13.67-8.216-27.481-13.175-36.025-8.358-14.666 8.642-16.944 16.292-7.831 24.367-14.24-.142-25.204 3.825-6.978 15.016-16.944-2.408-29.047-1.275-22.213 8.642 15.379 21.958 91.416 28.617 148.514 21.25 35.883-.283 65.928-5.242 72.193-15.867 4.556-7.791-7.974-9.208-24.349-7.933z" transform="translate(0 397)"/>
            <g>
                <path fill="#FEC12F" d="M47.132 4.392C62.937 11.333 73.474 25.5 76.464 41.367c-13.812 8.5-31.326 10.341-47.131 3.258C13.527 37.683 2.99 23.517 0 7.65 13.67-.708 31.184-2.55 47.132 4.392z" transform="translate(0 397) translate(0 52.417)"/>
                <g fill="#FFF">
                    <path d="M34.052 -13.359L34.052 -13.359 34.191 60.48 34.191 60.48z" transform="translate(0 397) translate(0 52.417) translate(5.696 1.417) rotate(-66.165 34.122 23.56)"/>
                    <path d="M2.296 17.635L14.815 17.66 14.815 17.66 2.296 17.635z" transform="translate(0 397) translate(0 52.417) translate(5.696 1.417) rotate(-25.271 8.556 17.647)"/>
                    <path d="M10.982 23.275L26.488 23.306 26.488 23.306 10.982 23.275z" transform="translate(0 397) translate(0 52.417) translate(5.696 1.417) rotate(-25.279 18.735 23.29)"/>
                    <path d="M12.713 30.524L38.463 30.575 38.463 30.575 12.713 30.524z" transform="translate(0 397) translate(0 52.417) translate(5.696 1.417) rotate(-25.276 25.588 30.55)"/>
                    <path d="M24.942 35.478L49.98 35.527 49.98 35.527 24.942 35.478z" transform="translate(0 397) translate(0 52.417) translate(5.696 1.417) rotate(-25.289 37.46 35.502)"/>
                    <path d="M47.039 38.176L60.981 38.203 60.981 38.203 47.039 38.176z" transform="translate(0 397) translate(0 52.417) translate(5.696 1.417) rotate(-25.276 54.01 38.19)"/>
                    <path d="M11.118 1.8L11.118 1.8 11.136 14.271 11.136 14.271z" transform="translate(0 397) translate(0 52.417) translate(5.696 1.417) rotate(-17.05 11.127 8.036)"/>
                    <path d="M21.571 0.156L21.571 0.156 21.599 19.574 21.599 19.574z" transform="translate(0 397) translate(0 52.417) translate(5.696 1.417) rotate(-17.049 21.585 9.865)"/>
                    <path d="M32.395 0.393L32.395 0.393 32.43 24.769 32.43 24.769z" transform="translate(0 397) translate(0 52.417) translate(5.696 1.417) rotate(-17.056 32.413 12.581)"/>
                    <path d="M43.759 4.841L43.759 4.841 43.795 29.787 43.795 29.787z" transform="translate(0 397) translate(0 52.417) translate(5.696 1.417) rotate(-17.049 43.777 17.314)"/>
                    <path d="M55.88 13.278L55.88 13.278 55.911 34.82 55.911 34.82z" transform="translate(0 397) translate(0 52.417) translate(5.696 1.417) rotate(-17.056 55.896 24.049)"/>
                </g>
            </g>
            <g>
                <path fill="#FEC12F" d="M50.26 24.217c10.823 15.725 12.389 34.991 5.981 51.708-17.941 0-35.455-8.358-46.277-24.083C-.858 36.117-2.424 16.85 3.984.133c17.799 0 35.313 8.359 46.277 24.084z" transform="translate(0 397) translate(40.87 19.417)"/>
                <g fill="#FFF">
                    <path d="M27.975 -6.006L27.975 -6.006 28.169 75.303 28.169 75.303z" transform="translate(0 397) translate(40.87 19.417) translate(3.272 4.667) rotate(-34.513 28.072 34.648)"/>
                    <path d="M7.558 7.513L7.558 7.513 7.566 21.324 7.566 21.324z" transform="translate(0 397) translate(40.87 19.417) translate(3.272 4.667) rotate(-83.627 7.562 14.418)"/>
                    <path d="M13.899 17.022L13.899 17.022 13.909 34.108 13.909 34.108z" transform="translate(0 397) translate(40.87 19.417) translate(3.272 4.667) rotate(-83.621 13.904 25.565)"/>
                    <path d="M15.929 22.138L15.929 22.138 15.945 50.614 15.945 50.614z" transform="translate(0 397) translate(40.87 19.417) translate(3.272 4.667) rotate(-83.621 15.937 36.376)"/>
                    <path d="M24.28 33.937L24.28 33.937 24.295 61.701 24.295 61.701z" transform="translate(0 397) translate(40.87 19.417) translate(3.272 4.667) rotate(-83.627 24.287 47.82)"/>
                    <path d="M38.232 52.183L38.232 52.183 38.241 67.703 38.241 67.703z" transform="translate(0 397) translate(40.87 19.417) translate(3.272 4.667) rotate(-83.627 38.236 59.943)"/>
                    <path d="M8.514 6.914L22.26 6.931 22.26 6.931 8.514 6.914z" transform="translate(0 397) translate(40.87 19.417) translate(3.272 4.667) rotate(-75.393 15.387 6.923)"/>
                    <path d="M13.582 14.568L35.122 14.595 35.122 14.595 13.582 14.568z" transform="translate(0 397) translate(40.87 19.417) translate(3.272 4.667) rotate(-75.398 24.352 14.581)"/>
                    <path d="M19.459 23.391L46.385 23.424 46.385 23.424 19.459 23.391z" transform="translate(0 397) translate(40.87 19.417) translate(3.272 4.667) rotate(-75.393 32.922 23.407)"/>
                    <path d="M27.06 34.515L54.694 34.549 54.694 34.549 27.06 34.515z" transform="translate(0 397) translate(40.87 19.417) translate(3.272 4.667) rotate(-75.393 40.877 34.532)"/>
                    <path d="M36.311 47.749L59.977 47.779 59.977 47.779 36.311 47.749z" transform="translate(0 397) translate(40.87 19.417) translate(3.272 4.667) rotate(-75.398 48.144 47.764)"/>
                </g>
            </g>
        </g>
        <g fill-rule="nonzero">
            <path fill="#387BFF" d="M.857 94c-2-3.133.572-5.84 10.286-7.264 10.714-1.566 21-.57 29.428 1.425-19.857-9.543-43-23.073-21.857-24.64 6.572-.427 16.715 2.706 28 7.691-12.571-10.254-19.571-18.657-11.857-20.224C42 49.564 56.43 57.824 71.714 68.79 63 59.533 57.857 51.558 61.857 47.712c3.143-3.133 10 .427 17.857 7.121-.285-5.84 2.143-9.257 7.715-8.545C92.714 47 97 53.694 100 61.67c5-12.534 18.286-20.082 31.714-16.38 15.715 4.416 3.143 34.468-4 48.71H.857z" transform="translate(23 411)"/>
            <g>
                <path fill="#387BFF" d="M35.857 79.188C31.714 53.124 24.43 35.036 19.143 24.355 13.429 12.818 8.57 7.406 8.57 7.406L9 6.98c.143.285 19.571 22.218 27.571 72.066l-.714.143zM40.286 74.203h-.572c1.429-29.055-9.714-55.545-9.857-55.83l.572-.285c0 .285 11.285 27.06 9.857 56.115z" transform="translate(23 411) translate(62.429)"/>
                <path fill="#387BFF" d="M29 75.485h-.571c1.285-26.491-16.715-37.173-17-37.315l.285-.57C12 37.742 30.286 48.71 29 75.485zM6.571 2.99C2.286 5.27-.57 8.546.43 10.256 1.286 11.964 5.57 11.536 10 9.4c4.286-2.279 7.143-5.555 6.143-7.264-1-1.851-5.286-1.424-9.572.855z" transform="translate(23 411) translate(62.429)"/>
                <path fill="#0C1153" d="M7.714 5.27c-1.428.712-2.285 1.709-2 2.278.286.57 1.715.428 3-.284 1.429-.712 2.286-1.71 2-2.28-.285-.569-1.714-.569-3 .286z" transform="translate(23 411) translate(62.429)"/>
                <path fill="#387BFF" d="M29.143 16.521c-1.857.997-3 2.279-2.572 2.991.429.712 2.143.57 4-.427 1.858-.997 3-2.279 2.572-2.991-.429-.712-2.143-.57-4 .427z" transform="translate(23 411) translate(62.429)"/>
                <path fill="#0C1153" d="M29.571 17.376c-.571.285-1 .712-.857.997.143.285.715.142 1.286-.143.571-.285 1-.712.857-.997-.143-.142-.714-.142-1.286.143z" transform="translate(23 411) translate(62.429)"/>
                <path fill="#387BFF" d="M10.286 36.46c-2 1.852-2.857 3.846-2.143 4.7.714.713 2.857 0 4.857-1.85 2-1.852 2.857-3.846 2.143-4.7-.714-.713-2.857.142-4.857 1.85z" transform="translate(23 411) translate(62.429)"/>
                <path fill="#0C1153" d="M11.143 37.458c-.572.57-.857 1.281-.714 1.424.285.285.857 0 1.571-.57.571-.57.857-1.282.714-1.424-.285-.285-.857 0-1.571.57z" transform="translate(23 411) translate(62.429)"/>
            </g>
            <path fill="#FFF" d="M59.857 72.636c-.143 0-.143-.142-.286-.142h.143c1.143-.427 2-1.282 1.715-1.994-.286-.57-1.429-.712-2.572-.285-.143 0-.143.143-.286.143v-.143c.143-1.282-.142-2.279-.857-2.421-.714-.142-1.285.854-1.571 2.136v.285s-.143 0-.143-.142c-1-.855-2.143-.997-2.571-.428-.429.57 0 1.567 1 2.422.142 0 .142.142.285.142h-.143c-1.142.427-2 1.282-1.714 1.994.286.57 1.429.712 2.572.285.142 0 .142-.143.285-.143v.143c-.143 1.282.143 2.279.857 2.421.715.143 1.286-.854 1.572-2.136v-.285s.143 0 .143.142c1 .855 2.143.997 2.571.428.429-.57 0-1.567-1-2.422zM57 73.491c-.714-.143-1.143-.712-1-1.424.143-.712.714-1.14 1.429-.997.714.142 1.142.712 1 1.424-.143.712-.715 1.14-1.429.997z" transform="translate(23 411)"/>
        </g>
        <path fill="#60ADFC" fill-rule="nonzero" d="M282.53 99.468c54.097 72.715 1.993 97.191 63.493 146.854C412.22 299.684 503.9 229.53 549.17 316.476c38.437 73.854 60.93 97.333 141.506 118.11C728.4 444.261 815.668 589.692 925 527.65V0H189c2.99 62.185 62.638 58.059 93.53 99.468z"/>
        <g fill-rule="nonzero">
            <g>
                <g>
                    <path fill="#136FB7" d="M291.145 46.651h-4.415c-1.425 0-2.707-1.422-2.707-3.129v-33.14c0-1.706 1.14-3.128 2.707-3.128h4.415V.996H8.546C4.131.996.57 5.12.57 10.383v33.14c0 5.12 3.56 9.386 7.976 9.386h282.742v-6.258h-.143z" transform="translate(469 138) translate(0 203.389) translate(0 115.628)"/>
                    <path fill="#06497D" d="M291.145 46.651h-4.415c-1.425 0-2.707-1.422-2.707-3.129v-33.14c0-1.706 1.14-3.128 2.707-3.128h4.415V.996H144.433v51.913h146.712v-6.258z" transform="translate(469 138) translate(0 203.389) translate(0 115.628)"/>
                    <path fill="#FFF" d="M284.166 43.665v-33.14c0-1.707 1.14-3.13 2.706-3.13H8.546c-1.424 0-2.706 1.423-2.706 3.13v33.14c0 1.706 1.14 3.129 2.706 3.129H286.73c-1.425-.143-2.564-1.423-2.564-3.13z" transform="translate(469 138) translate(0 203.389) translate(0 115.628)"/>
                    <path fill="#BCD0E2" d="M284.166 43.665v-33.14c0-1.707 1.14-3.13 2.706-3.13h-147.71c-1.423 0-2.705 1.423-2.705 3.13v33.14c0 1.706 1.14 3.129 2.706 3.129H286.73c-1.425-.143-2.564-1.423-2.564-3.13z" transform="translate(469 138) translate(0 203.389) translate(0 115.628)"/>
                </g>
                <g>
                    <path fill="#06497D" d="M249.553 46.936h-3.133c-.998 0-1.852-.996-1.852-2.134V7.254c0-1.138.854-2.134 1.852-2.134h3.133V.853H6.125C2.99.853.427 3.698.427 7.253v37.55c0 3.555 2.564 6.4 5.698 6.4h243.428v-4.267z" transform="translate(469 138) translate(0 203.389) translate(12.82 65.848)"/>
                    <path fill="#021E4C" d="M249.553 46.936h-3.133c-.998 0-1.852-.996-1.852-2.134V7.254c0-1.138.854-2.134 1.852-2.134h3.133V.853H103.411v50.35h146.142v-4.267z" transform="translate(469 138) translate(0 203.389) translate(12.82 65.848)"/>
                    <path fill="#FFF" d="M244.425 44.802V7.254c0-1.138.855-2.134 1.852-2.134H6.125c-.997 0-1.852.996-1.852 2.134v37.548c0 1.138.855 2.134 1.852 2.134h240.152c-.997 0-1.852-.854-1.852-2.134z" transform="translate(469 138) translate(0 203.389) translate(12.82 65.848)"/>
                    <path fill="#BCD0E2" d="M244.425 44.802V7.254c0-1.138.855-2.134 1.852-2.134H99.565c-.997 0-1.852.996-1.852 2.134v37.548c0 1.138.855 2.134 1.852 2.134h146.712c-.997 0-1.852-.854-1.852-2.134z" transform="translate(469 138) translate(0 203.389) translate(12.82 65.848)"/>
                    <path fill="#F8C44F" d="M31.052 67.559L21.651 61.728 12.392 67.559 12.392 38.544 21.651 38.544 31.052 38.544z" transform="translate(469 138) translate(0 203.389) translate(12.82 65.848)"/>
                </g>
                <g>
                    <path fill="#06497D" d="M.427 29.584h3.134c.997 0 1.852-.854 1.852-1.991V6.258c0-1.138-.855-1.991-1.852-1.991H.427V.284h197.136c3.134 0 5.555 2.703 5.555 5.974v21.335c0 3.27-2.564 5.973-5.555 5.973H.427v-3.982z" transform="translate(469 138) translate(0 203.389) translate(44.156 33.135)"/>
                    <path fill="#2E95D1" d="M.427 29.584h3.134c.997 0 1.852-.854 1.852-1.991V6.258c0-1.138-.855-1.991-1.852-1.991H.427V.284H102.7v33.424H.427v-4.124z" transform="translate(469 138) translate(0 203.389) translate(44.156 33.135)"/>
                    <path fill="#C4D1E1" d="M5.27 27.593V6.258c0-1.138-.854-1.991-1.851-1.991H197.42c.998 0 1.852.853 1.852 1.991v21.335c0 1.137-.854 1.99-1.852 1.99H3.42c1.139 0 1.851-.853 1.851-1.99z" transform="translate(469 138) translate(0 203.389) translate(44.156 33.135)"/>
                    <path fill="#FFF" d="M5.27 27.593V6.258c0-1.138-.854-1.991-1.851-1.991h102.84c.998 0 1.852.853 1.852 1.991v21.335c0 1.137-.854 1.99-1.851 1.99H3.419c1.139 0 1.851-.853 1.851-1.99z" transform="translate(469 138) translate(0 203.389) translate(44.156 33.135)"/>
                </g>
                <g>
                    <path fill="#B0BFDE" d="M247.556 7.107c-1.282 6.543-1.852-11.094-1.852-3.84 0 8.107.855 15.787 2.422 23.041H58.966v-19.2h188.59z" transform="translate(469 138) translate(0 203.389) translate(13.82)"/>
                    <path fill="#2E95D1" d="M247.556 7.107c-.285 1.565-.57 2.987-.712 4.551H76.202v-4.55h171.354z" opacity=".2" transform="translate(469 138) translate(0 203.389) translate(13.82)"/>
                    <path fill="#F99B1C" d="M51.418.28H249.55c1.14 0 2.137.853 2.137 1.991v4.836h-91.019v19.201h91.019v4.836c0 1.138-.997 1.991-2.137 1.991H51.418c-1.14 0-2.137-.853-2.137-1.991V2.129c0-.996.997-1.849 2.137-1.849z" transform="translate(469 138) translate(0 203.389) translate(13.82)"/>
                    <path fill="#FDBF14" d="M2.561.28h153.122c-1.14 0-2.137.853-2.137 1.991v29.015c0 1.138.997 1.991 2.137 1.991H2.56c-1.14 0-2.137-.853-2.137-1.99V2.27C.282 1.133 1.28.281 2.561.281z" transform="translate(469 138) translate(0 203.389) translate(13.82)"/>
                    <path fill="#FFA813" d="M2.561.28h153.122c-1.14 0-2.137.853-2.137 1.991v6.543H.282V2.27c0-1.138.997-1.99 2.279-1.99z" transform="translate(469 138) translate(0 203.389) translate(13.82)"/>
                </g>
                <g>
                    <path fill="#D8E8ED" d="M4.555 6.97c1.282 6.542 1.852-11.095 1.852-3.84 0 8.106-.855 30.294-2.422 37.548h189.16V6.969H4.554z" transform="translate(469 138) translate(0 203.389) translate(13.82 168.253)"/>
                    <path fill="#2E95D1" d="M4.555 6.97c.285 1.564.57 2.986.712 4.55h170.5V6.97H4.555z" opacity=".2" transform="translate(469 138) translate(0 203.389) translate(13.82 168.253)"/>
                    <path fill="#F99B1C" d="M200.694.142H2.419C1.279.142.282.996.282 2.133V6.97H91.3v33.709H.282v4.836c0 1.137.997 1.99 2.137 1.99H200.55c1.14 0 2.137-.853 2.137-1.99V2.134c.142-1.138-.855-1.992-1.994-1.992z" transform="translate(469 138) translate(0 203.389) translate(13.82 168.253)"/>
                    <path fill="#FDBF14" d="M249.55.142H96.428c1.14 0 2.137.854 2.137 1.991v43.38c0 1.138-.997 1.992-2.137 1.992h153.265c1.14 0 2.136-.854 2.136-1.991V2.134c-.142-1.138-.997-1.992-2.279-1.992z" transform="translate(469 138) translate(0 203.389) translate(13.82 168.253)"/>
                    <path fill="#FFA813" d="M249.55.142H96.428c1.14 0 2.137.854 2.137 1.991v6.543h153.264V2.133c-.142-1.137-.997-1.99-2.279-1.99z" transform="translate(469 138) translate(0 203.389) translate(13.82 168.253)"/>
                </g>
            </g>
            <g>
                <g>
                    <path fill="#06597D" d="M273.195 50.776h-3.56c-1.14 0-2.137-.996-2.137-2.276V7.396c0-1.28.997-2.276 2.136-2.276h3.419V.427H6.407C2.988.427.14 3.556.14 7.396v40.962c0 3.84 2.848 6.97 6.267 6.97h266.646v-4.552h.142z" transform="translate(469 138) translate(4.273) translate(1 148.341)"/>
                    <path fill="#01284C" d="M273.195 50.776h-3.56c-1.14 0-2.137-.996-2.137-2.276V7.396c0-1.28.997-2.276 2.136-2.276h3.419V.427h-159.96v55.185h160.102v-4.836z" transform="translate(469 138) translate(4.273) translate(1 148.341)"/>
                    <path fill="#FFF" d="M267.498 48.358V7.254c0-1.28.997-2.276 2.136-2.276H6.407c-1.14 0-2.137.996-2.137 2.276v41.104c0 1.28.997 2.276 2.137 2.276h263.227c-1.14.142-2.136-.996-2.136-2.276z" transform="translate(469 138) translate(4.273) translate(1 148.341)"/>
                    <path fill="#BCD0E2" d="M267.498 48.358V7.254c0-1.28.997-2.276 2.136-2.276H108.82c-1.139 0-2.136.996-2.136 2.276v41.104c0 1.28.997 2.276 2.136 2.276h160.814c-1.14.142-2.136-.996-2.136-2.276z" transform="translate(469 138) translate(4.273) translate(1 148.341)"/>
                    <path fill="#FF3D0D" d="M33.755 65.426L23.5 59.168 13.386 65.426 13.386 41.389 23.5 41.389 33.755 41.389z" transform="translate(469 138) translate(4.273) translate(1 148.341)"/>
                </g>
                <g>
                    <path fill="#B0BFDE" d="M224.341 6.97c-1.139 6.542-1.709 13.369-1.709 20.623 0 8.107.712 15.787 2.137 23.04H53.129V6.97h171.212z" transform="translate(469 138) translate(4.273) translate(15.668 51.625)"/>
                    <path fill="#06597D" d="M224.341 6.97c-.284 1.564-.427 2.986-.712 4.55H68.798V6.97h155.543z" opacity=".2" transform="translate(469 138) translate(4.273) translate(15.668 51.625)"/>
                    <path fill="#C9300A" d="M46.293.142h179.9c1.14 0 1.994.854 1.994 1.991V6.97h-82.614v43.665h82.614v4.836c0 1.137-.854 1.99-1.994 1.99h-179.9c-1.14 0-1.994-.853-1.994-1.99V1.99c0-.995.997-1.849 1.994-1.849z" transform="translate(469 138) translate(4.273) translate(15.668 51.625)"/>
                    <path fill="#FF3D0D" d="M1.994.142h139.02c-1.139 0-1.994.854-1.994 1.991V55.47c0 1.137.855 1.99 1.995 1.99H1.995C.854 57.46 0 56.608 0 55.47V1.99C0 .996.855.142 1.994.142z" transform="translate(469 138) translate(4.273) translate(15.668 51.625)"/>
                    <path fill="#C9300A" d="M1.994.142h139.02c-1.139 0-1.994.854-1.994 1.991v6.543H0V2.133C0 .996.855.143 1.994.143z" transform="translate(469 138) translate(4.273) translate(15.668 51.625)"/>
                </g>
                <g>
                    <path fill="#06597D" d="M.282 35.557H3.7c1.14 0 1.995-1.137 1.995-2.417V7.823c0-1.28-.855-2.418-1.995-2.418H.282V.71H216.22c3.418 0 6.124 3.271 6.124 7.112V33.14c0 3.982-2.706 7.111-6.124 7.111H.282v-4.694z" transform="translate(469 138) translate(4.273) translate(35.185 108.517)"/>
                    <path fill="#1386B7" d="M.282 35.557H3.7c1.14 0 1.995-1.137 1.995-2.417V7.823c0-1.28-.855-2.418-1.995-2.418H.282V.71h112.1v39.682H.281v-4.836z" transform="translate(469 138) translate(4.273) translate(35.185 108.517)"/>
                    <path fill="#B0BFDE" d="M5.695 33.14V7.823c0-1.28-.855-2.418-1.995-2.418h212.52c1.139 0 1.994 1.138 1.994 2.418V33.14c0 1.28-.855 2.417-1.994 2.417H3.7c1.14 0 1.995-1.137 1.995-2.417z" transform="translate(469 138) translate(4.273) translate(35.185 108.517)"/>
                    <path fill="#D8E8ED" d="M5.695 33.14V7.823c0-1.28-.855-2.418-1.995-2.418h112.67c1.14 0 1.994 1.138 1.994 2.418V33.14c0 1.28-.855 2.417-1.994 2.417H3.7c1.14 0 1.995-1.137 1.995-2.417z" transform="translate(469 138) translate(4.273) translate(35.185 108.517)"/>
                </g>
                <path fill="#06597D" d="M97.428 22.895v-3.983c-33.046 0-65.094-6.542-90.164-18.49l-.854 3.84c25.211 12.09 57.545 18.633 91.018 18.633z" transform="translate(469 138) translate(4.273)"/>
                <path fill="#1386B7" d="M95.434 18.912H259.381V23.320999999999998H95.434zM95.434 23.464H259.381V52.194H95.434z" transform="translate(469 138) translate(4.273)"/>
                <path fill="#06597D" d="M104.55 23.037h84.467c-20.654-3.983-39.314-6.4-66.52-18.632H6.268c28.63 11.947 62.958 18.49 98.283 18.632z" transform="translate(469 138) translate(4.273)"/>
                <path fill="#B0BFDE" d="M104.55 24.46h84.467c-20.654-2.134-39.314-3.272-66.52-9.53H6.268c28.63 6.116 62.958 9.53 98.283 9.53z" transform="translate(469 138) translate(4.273)"/>
                <path fill="#2EABD1" d="M.997 47.927H106.972V52.052H.997zM6.41.28H120.36099999999999V4.2620000000000005H6.41z" transform="translate(469 138) translate(4.273)"/>
                <path fill="#1386B7" d="M210.382 22.895v-3.983c-33.045 0-65.094-6.542-90.163-18.49l-.855 3.84c25.354 12.09 57.545 18.633 91.018 18.633z" transform="translate(469 138) translate(4.273)"/>
                <path fill="#D9E3E4" d="M6.267 23.179H109.393V47.927H6.267z" transform="translate(469 138) translate(4.273)"/>
                <path fill="#BCD0E2" d="M109.108 23.179H255.82V47.927H109.108z" transform="translate(469 138) translate(4.273)"/>
            </g>
        </g>
        <g fill-rule="nonzero">
            <g>
                <path fill="#136FB7" d="M274.43 6.122h-4.132c-1.425 0-2.565 1.28-2.565 2.99V40.43c0 1.566 1.14 2.99 2.565 2.99h4.132v5.836H7.837c-4.132 0-7.552-3.986-7.552-8.826V9.11c0-4.84 3.42-8.826 7.552-8.826H274.43v5.837z" transform="translate(290 397) translate(0 44.556)"/>
                <path fill="#06497D" d="M274.43 6.122h-4.132c-1.425 0-2.565 1.28-2.565 2.99V40.43c0 1.566 1.14 2.99 2.565 2.99h4.132v5.836H136.075V.285H274.43v5.837z" transform="translate(290 397) translate(0 44.556)"/>
                <path fill="#FFF" d="M267.733 8.969v31.32c0 1.565 1.14 2.989 2.565 2.989H7.837c-1.425 0-2.565-1.281-2.565-2.99V8.968c0-1.565 1.14-2.989 2.565-2.989h262.318c-1.424.143-2.422 1.424-2.422 2.99z" transform="translate(290 397) translate(0 44.556)"/>
                <path fill="#BCD0E2" d="M267.733 8.969v31.32c0 1.565 1.14 2.989 2.565 2.989h-139.21c-1.425 0-2.565-1.281-2.565-2.99V8.968c0-1.565 1.14-2.989 2.565-2.989h139.067c-1.424.143-2.422 1.424-2.422 2.99z" transform="translate(290 397) translate(0 44.556)"/>
            </g>
            <g>
                <path fill="#06497D" d="M235.816 20.073h-2.992c-.998 0-1.852.854-1.852 1.993v35.448c0 1.139.854 1.993 1.852 1.993h2.992v3.986H6.27c-2.992 0-5.414-2.705-5.414-5.98V22.067c0-3.274 2.422-5.98 5.414-5.98h229.547v3.987z" transform="translate(290 397) translate(11.399 77.299)"/>
                <path fill="#021E4C" d="M235.816 20.073h-2.992c-.998 0-1.852.854-1.852 1.993v35.448c0 1.139.854 1.993 1.852 1.993h2.992v3.986H98.031V16.087h137.785v3.986z" transform="translate(290 397) translate(11.399 77.299)"/>
                <path fill="#FFF" d="M230.972 22.066v35.448c0 1.139.854 1.993 1.852 1.993H6.269c-.997 0-1.852-.854-1.852-1.993V22.066c0-1.139.855-1.993 1.852-1.993h226.412c-.855 0-1.71.854-1.71 1.993z" transform="translate(290 397) translate(11.399 77.299)"/>
                <path fill="#BCD0E2" d="M230.972 22.066v35.448c0 1.139.854 1.993 1.852 1.993H94.469c-.997 0-1.852-.854-1.852-1.993V22.066c0-1.139.855-1.993 1.852-1.993h138.355c-.998 0-1.852.854-1.852 1.993z" transform="translate(290 397) translate(11.399 77.299)"/>
                <path fill="#FF3D0D" d="M29.78 0.712L20.946 6.122 12.254 0.712 12.254 28.045 20.946 28.045 29.78 28.045z" transform="translate(290 397) translate(11.399 77.299)"/>
            </g>
            <g>
                <path fill="#06497D" d="M.427 4.698H3.42c.997 0 1.71.854 1.71 1.85v20.216c0 .996-.855 1.85-1.71 1.85H.427v3.844h185.804c2.85 0 5.272-2.562 5.272-5.694V6.549c0-3.132-2.423-5.695-5.272-5.695H.427v3.844z" transform="translate(290 397) translate(41.321 139.938)"/>
                <path fill="#2E95D1" d="M.427 4.698H3.42c.997 0 1.71.854 1.71 1.85v20.216c0 .996-.855 1.85-1.71 1.85H.427v3.844h96.464V.854H.427v3.844z" transform="translate(290 397) translate(41.321 139.938)"/>
                <path fill="#C4D1E1" d="M5.13 6.549v20.215c0 .996-.855 1.85-1.71 1.85h182.953c.997 0 1.71-.854 1.71-1.85V6.549c0-.997-.855-1.851-1.71-1.851H3.42c.997 0 1.71.854 1.71 1.85z" transform="translate(290 397) translate(41.321 139.938)"/>
                <path fill="#E4EEF3" d="M5.13 6.549v20.215c0 .996-.855 1.85-1.71 1.85h97.033c.998 0 1.71-.854 1.71-1.85V6.549c0-.997-.712-1.851-1.71-1.851H3.42c.997 0 1.71.854 1.71 1.85z" transform="translate(290 397) translate(41.321 139.938)"/>
            </g>
            <g>
                <path fill="#B0BFDE" d="M233.394 24.767c-1.14-6.121-1.853 10.393-1.853 3.702 0-7.688.855-14.948 2.28-21.782H55.57v18.08h177.824z" transform="translate(290 397) translate(12.824 172.257)"/>
                <path fill="#2E95D1" d="M233.394 24.767c-.285-1.423-.57-2.847-.713-4.27H71.813v4.27h161.58z" opacity=".2" transform="translate(290 397) translate(12.824 172.257)"/>
                <path fill="#F99B1C" d="M48.446 31.316h186.8c1.14 0 1.995-.854 1.995-1.85V24.91h-85.777V6.83h85.777V2.274c0-.996-.855-1.85-1.995-1.85h-186.8c-1.14 0-1.995.854-1.995 1.85v27.334c0 .854.855 1.708 1.995 1.708z" transform="translate(290 397) translate(12.824 172.257)"/>
                <path fill="#FDBF14" d="M2.422 31.316h144.34c-1.14 0-1.995-.854-1.995-1.85V2.131c0-.997.855-1.85 1.995-1.85H2.422c-1.14 0-1.995.853-1.995 1.85v27.333c-.142.997.855 1.851 1.995 1.851z" transform="translate(290 397) translate(12.824 172.257)"/>
            </g>
            <g>
                <path fill="#F7F8FC" d="M4.275 38.434c1.14-6.121 1.852 10.392 1.852 3.701 0-7.687-.855-28.614-2.28-35.447h178.251v31.746H4.275z" transform="translate(290 397) translate(12.824)"/>
                <path fill="#2E95D1" d="M4.275 38.434c.285-1.424.57-2.847.712-4.27h160.868v4.27H4.275z" opacity=".2" transform="translate(290 397) translate(12.824)"/>
                <path fill="#FF3D0D" d="M189.223 44.983H2.423c-1.14 0-1.996-.855-1.996-1.851v-4.556h85.778V6.83H.427V2.274c0-.996.855-1.85 1.995-1.85h186.8c1.14 0 1.996.854 1.996 1.85v40.858c0 .996-.855 1.85-1.995 1.85z" transform="translate(290 397) translate(12.824)"/>
                <path fill="#FF3D0D" d="M235.389 44.983H90.907c1.14 0 1.995-.855 1.995-1.851v-41c0-.997-.855-1.85-1.995-1.85h144.482c1.14 0 1.994.853 1.994 1.85v41c0 .996-.855 1.85-1.994 1.85z" transform="translate(290 397) translate(12.824)"/>
                <path fill="#C9300A" d="M235.389 44.983H90.907c1.14 0 1.995-.855 1.995-1.851V37.01h144.481v6.122c0 .996-.855 1.85-1.994 1.85z" transform="translate(290 397) translate(12.824)"/>
            </g>
        </g>
        <g fill-rule="nonzero">
            <path fill="#06497D" d="M0.282 202.358L97.273 305.526 225.312 104.874 128.321 1.705z" transform="translate(65 295)"/>
            <path fill="#136FB7" d="M1.279 200.795L98.27 304.105 226.309 103.311 129.461 0.142z" transform="translate(65 295)"/>
            <path fill="#021E4C" d="M116.073 275.542L95.564 304.958 120.061 323.716 129.318 319.737z" transform="translate(65 295)"/>
            <path fill="#06497D" d="M117.07 273.979L96.703 303.537 121.342 322.721 142.848 291.742zM226.452 102.884L213.776 121.216 219.9 126.9 233.288 107.574z" transform="translate(65 295)"/>
            <g>
                <path fill="#06497D" d="M0.139 252.8L124.903 201.642 253.512 0.279 235.994 7.668z" transform="translate(65 295) translate(118.212 67.79)"/>
                <path fill="#021E4C" d="M0.139 252.8L3.415 255.358 128.321 204.058 124.903 201.642z" transform="translate(65 295) translate(118.212 67.79)"/>
                <path fill="#136FB7" d="M124.903 201.642L128.321 204.058 256.788 2.695 253.512 0.279z" transform="translate(65 295) translate(118.212 67.79)"/>
            </g>
            <path fill="#F7F8FC" d="M99.409 299.984L218.476 250.105 341.388 57.268 222.321 107.147z" transform="translate(65 295)"/>
            <path fill="url(#prefix__a)" d="M8.115 195.963L100.406 299.7 223.318 106.863 131.027 3.126z" transform="translate(65 295)"/>
            <path fill="#97D3F1" d="M99.409 299.984L121.627 316.753 240.694 266.874 218.476 250.105z" transform="translate(65 295)"/>
            <path fill="#CFEAF9" d="M218.476 250.105L240.694 266.874 363.748 74.037 341.388 57.268z" transform="translate(65 295)"/>
        </g>
        <g fill-rule="nonzero">
            <path fill="#3492A8" d="M55.474 101.315s-6.97 4.423-4.978-1.713c1.991-5.993 4.267-14.84 5.69-14.698 1.422.143 7.111 6.136-.712 16.41z" transform="translate(202 347)"/>
            <path fill="#E2C59C" d="M58.034 99.602s-10.099.428-12.943.856c-2.845.429-3.983 4.139-11.664 9.561-7.681 5.423-11.664 9.133-12.233 11.559-.569 2.425-1.707 5.993-5.547 4.994-3.841-.999-10.384-3.568-13.371-4.281-2.987-.713-2.134-2.14-2.134-2.14s3.983-.714 6.259-.714c2.276 0 5.547.285 7.396-1.284 1.85-1.57 9.246-9.418 12.233-14.413 2.987-5.137 10.953-12.842 13.513-13.841 2.56-.999 13.086-4.566 24.039-2.569 10.952 1.855-2.703 12.272-5.548 12.272z" transform="translate(202 347)"/>
            <path fill="#0063CB" d="M75.815 102.599s-24.893.143-23.755 0c.57 0 4.694-5.85 3.414-11.416-.853-4.138.854-4.566-.427-5.28-1.28-.57 17.496-4.28 17.496-4.28s7.112 11.415 3.272 20.976z" transform="translate(202 347)"/>
            <path fill="#163F59" d="M122.185 45.235s7.255 7.42 13.229 3.425c5.974-3.996 10.099-2.284 11.237-6.85s3.556-5.85 1.707-6.564c-1.707-.713 3.414-9.846 2.702-17.694-.995-10.845-4.41-2.426-5.547-1.142-1.28 1.427-3.13-4.852-4.836-7.42-9.104-13.128-13.655-7.991-13.371-2.711.285 5.28-3.698-2.712-5.263-.143-1.422 2.568-3.698-1.142-3.698-3.71-.142-2.569-7.966 5.993-4.41 17.552 3.414 11.7 4.979 25.257 8.25 25.257z" transform="translate(202 347)"/>
            <path fill="#E9D6B8" d="M117.776 56.508s0-4.566 4.125-7.42c4.125-2.997 10.526-.857 12.944-2.854 2.276-1.998 3.414-6.422.427-5.28-3.13 1.142-6.686 1.855-5.121-.714 1.565-2.568 8.677-1.855 9.246-5.707.71-3.853-4.268-3.425-5.69-5.851-1.423-2.426-.996-4.138 1.138-4.424 2.133-.285 0-1.712-2.845-4.138s-6.828-4.138-5.12-5.137c1.564-1.141-.143-3.14-2.846-2.568-2.702.428-10.81 6.564-14.081 8.133-3.272 1.57-10.1 4.424-7.255 12.986 2.845 8.562 3.699 7.848 2.56 10.131-.426.999-11.948 5.423-2.56 14.84 3.983 3.853 11.664 2.426 15.078-1.997z" transform="translate(202 347)"/>
            <g>
                <path fill="#E2C59C" d="M84.487 82.193l10.241 2.283s-2.133 2.14-7.396.428c-5.405-1.712-6.259-1.855-6.259-1.855l3.414-.856z" transform="translate(202 347) translate(69.276 1.427)"/>
                <path fill="#E2C59C" d="M82.638 82.05l9.957 4.281s-2.703 1.285-5.263 0c-2.703-1.284-7.966-2.71-7.966-2.71l3.272-1.57z" transform="translate(202 347) translate(69.276 1.427)"/>
                <path fill="#E9D6B8" d="M28.586 33.962S25.315 21.119 23.75 18.55c-1.422-2.284-10.384-2.14-14.366-5.566 0 0-.143-1.57 0-3.852 0-1.57.142-3.568 0-4.424-.285-2.14-.712.285-.712.999 0 .57-.569-3.568-.71-3.853-.712-.713-.712 1.712-.996 1.998-.427.713 0-3.853 0-3.853C5.4.285 5.4 2.711 5.4 7.991c0 3.567-.854 7.135-1.85 5.708-.995-1.427-2.275-2.426-2.702-2.283-.569.142.711 2.711 1.992 4.28 1.28 1.57 2.56 2.997 5.405 4.139 2.702 1.141 5.547 2.854 6.258 3.71.854.999 3.556 16.98 3.556 16.98l10.526-6.563z" transform="translate(202 347) translate(69.276 1.427)"/>
                <path fill="#879BA6" d="M62.724 55.937s-6.4 23.26-9.388 16.553c-2.845-6.707 3.272-15.269 9.388-16.553z" transform="translate(202 347) translate(69.276 1.427)"/>
                <path fill="#E9D6B8" d="M59.737 57.65l14.793 2.283s5.405-1.427 5.548 6.42c.142 7.85 1.138 15.127 1.138 15.127s-5.406 2.568-6.401-1.284c-.996-3.853-3.556-10.275-3.414-11.987.142-1.57-19.203 1.998-19.203 1.998s-.995-9.704 7.54-12.558z" transform="translate(202 347) translate(69.276 1.427)"/>
                <path fill="#AEBDDC" d="M45.086 75.201s7.397-3.853 8.961-1.712c.712.999-2.56-4.424 1.707-9.846 4.125-5.423 7.112-7.706 7.112-7.706L50.35 53.226c-.142 0-9.815 6.564-5.263 21.975zM34.418 41.953s-5.69-7.849-5.69-9.133c0-1.284-14.366 5.708-14.366 5.708l2.987 13.699 17.07-10.274z" transform="translate(202 347) translate(69.276 1.427)"/>
                <path fill="#163F59" d="M50.207 53.226s-1.138-.856-1.565-.428c-1.991 2.14-10.383 3.853-13.228 1.141-3.698-3.71-1.707-9.275 0-11.273.284-.428-1.85-1.427-1.85-1.427l-15.646 8.277s-5.69 7.705-7.254 15.268C9.099 72.49 5.97 75.201 2.414 77.627s-2.56 4.709 1.707 7.848c4.41 3.14 17.495-1.712 22.047 5.137 4.552 6.85 5.832 11.559 3.983 14.984-1.85 3.424 16.784-14.698 15.362-30.823-1.28-16.125 4.125-20.263 4.694-21.547z" transform="translate(202 347) translate(69.276 1.427)"/>
                <path fill="#E9D6B8" d="M80.22 79.34s9.672 1.284 13.37.856c3.699-.429-3.698 1.712-4.409 1.997-.569.286-6.828.714-8.392 1.855-1.565 1.285-1.85 3.425-1.28 5.28.569 1.712-1.138 3.996-2.418.285-1.28-3.71-.427-3.995-1.138-5.137-.854-1.284-1.707-3.995-.285-5.137 1.423-.999 4.552 0 4.552 0z" transform="translate(202 347) translate(69.276 1.427)"/>
            </g>
            <path fill="#FFF" d="M119.34 34.247s-7.538-8.847-11.237-9.56c-3.698-.714-2.275 9.275.712 10.131 2.987.999 6.258 1.712 10.526-.57z" transform="translate(202 347)"/>
            <path fill="#E9D6B8" d="M52.772 92.04s.142-6.993.426-10.132c.57-5.993.285-6.279 1.992-8.277 1.422-1.57 2.56-2.568 2.844.571.285 3.853-.568 7.278 2.845 3.425 3.13-3.71-7.112 15.697-8.107 14.412z" transform="translate(202 347)"/>
            <path fill="#3492A8" d="M94.306 77.627s1.28-6.136-1.28-4.852c-2.845 1.427-11.664 3.282-14.224 4.424-2.56.999-7.54 2.854-5.69 5.993 1.707 2.854 21.194-5.565 21.194-5.565z" transform="translate(202 347)"/>
            <path fill="#E9D6B8" d="M94.733 84.476S93.168 63.5 91.034 59.647c-2.133-3.71-4.409-5.565-8.534-3.425-4.125 2.284-23.185 21.833-26.315 26.685-3.129 4.994-5.547 9.989-2.276 10.56 1.28.285 5.975-3.71 8.25-5.851 2.419-2.283 14.794-10.988 16.358-14.413 0 0-3.414 9.561-.284 20.691 3.13 11.273 17.495-4.566 16.5-9.418z" transform="translate(202 347)"/>
            <path fill="#387BFF" d="M94.448 73.06s-3.556 8.99-21.763 7.992c0 0-.284 1.57.427 10.131.569 8.42.854 14.555 6.116 17.695 5.263 3.139 14.936 1.57 21.052-3.14 3.13-2.426-1.422-11.13-1.422-11.13L97.15 87.9c-.142 0-2.56-12.272-2.703-14.84z" transform="translate(202 347)"/>
        </g>
        <g fill-rule="nonzero">
            <path fill="#161711" d="M62.553 124.164s-1.145 4.704-7.014 4.276c-5.868-.427-5.439-4.419-7.014-4.276-1.43.142 13.17-2.281 14.028 0zM34.069 134.713s-11.451.285-11.594 4.847c-.144 4.419 14.17 8.98 17.033.57 2.433-6.7-3.579-4.99-5.44-5.417z" transform="translate(382 141)"/>
            <path fill="#E9D6B8" d="M27.341 135.568s-2.72 2.138-2.576 7.27c.143 5.275 5.01 34.213 6.298 38.775 1.288 4.419 0 9.123.859 12.26.858 3.136-2.147 2.993-2.004 4.133.143 1.14 3.435 2.566 5.01 1.283 1.43-1.14.143-6.7 1.43-8.98 1.29-2.281 3.15-3.564 2.148-6.558-1.002-2.994-4.867-7.983-4.151-14.54.572-6.558 1.002-13.4.859-15.396-.143-1.996-1.432-9.551.143-12.117 1.718-2.566 2.72-6.13 1.002-6.985-1.432-.713-9.018.855-9.018.855z" transform="translate(382 141)"/>
            <path fill="#163F59" d="M38.363 112.76s-11.022 19.244-13.598 22.95c-2.72 3.564-2.72 3.137 3.006 1.426 5.439-1.425 11.88 3.564 10.592 5.275-1.145 1.71 2.862-3.564 3.292-6.273 1.718-9.978 3.149-25.232 5.582-28.368 2.434-3.279-8.015.998-8.874 4.99z" transform="translate(382 141)"/>
            <path fill="#161711" d="M44.947 109.766c-1.145-1.14-2.147-1.853-3.006-2.138-1.288.712-2.433 1.568-3.435 2.566 0 .427-.143.855-.143 1.283 0 3.42-.287 3.706-.43 8.838-.143 5.132 1.289 2.566-.143 4.704-1.431 2.138 0 4.847.716 7.983.43 1.568.716 3.707 1.002 5.275.43-.856.859-1.711.859-2.424 1.574-8.553 2.862-20.527 4.58-26.087z" transform="translate(382 141)"/>
            <path fill="#E9D6B8" d="M52.39 114.47s-10.02 3.85-12.166 11.262c-1.575 5.132 1.145 6.985 12.452 16.821 7.873 6.985 9.734 7.556 11.451 10.692 1.718 3.136 5.01 7.27 5.583 8.98.572 1.711 2.29-1.425 1.288-3.991-.859-2.566-3.722-5.56-3.435-7.413.286-1.995.143-3.421-2.147-4.419-5.153-2.566-6.87-8.696-8.016-11.69-1.145-2.993-4.008-5.701-4.724-6.557-.715-.712 8.589-1.995 9.734-6.842 1.288-5.132-10.02-6.843-10.02-6.843z" transform="translate(382 141)"/>
            <path fill="#163F59" d="M39.365 126.872s1.288-8.553 8.159-6.985c6.298 1.568 12.452 3.564 12.452 7.556 0 .855 4.008-3.422 6.012-8.554 1.288-3.563 1.145-7.412-1.288-9.978-2.576-2.566-2.29-3.992-2.29-5.988 0-1.995-18.322 3.992-20.612 5.132-2.29.998.143 1.283-.859 5.132-.572 1.71-1.574 1.996-1.574 13.685z" transform="translate(382 141)"/>
            <path fill="#161711" d="M66.704 114.613c0-2.139-.716-4.134-2.147-5.702-2.577-2.566-2.29-3.992-2.29-5.988 0-1.995-18.322 3.992-20.612 5.132-.143 0-4.008.285-4.151.428-.43 1.853 1.288 6.13 2.72 4.562.143.142.286.142.572.285.573.142 1.002.427 1.288.57 1.575-1.426 4.438-3.564 9.877-2.138 5.725 1.425 10.878 15.68 14.743 2.85z" transform="translate(382 141)"/>
            <path fill="#E9D6B8" d="M61.694 15.823s2.433-.285 3.15-1.71c.715-1.283 2.432-4.847 3.148-5.417.716-.57-.572-1.283-1.288-.143-.716 1.14-3.435 2.138-4.008.428-.572-1.71-1.145-7.413-2.576-8.126-1.289-.57 1.145 5.702.858 7.27-.286 1.711-.858.713-2.433-.427-1.574-1.14-5.296-5.417-5.296-5.417s-1.145.428-.143 1.853c1.002 1.283 0 .57-.43.713-.429.142 4.724 3.849 5.297 5.56.572 1.71.715 1.853 0 1.995-.716.143-3.006-.142-3.722 0-.716.143-.859.428-.716.855.143.428 6.012.143 6.298.713.287.713 1.861 1.853 1.861 1.853zM9.163 107.057s-1.718.428-1.718-2.993.286-7.27.286-7.27-1.145.142-1.002 1.853c.144 1.71-.143 4.419-.429 5.274-.286.713-1.145-4.847-.859-6.557.286-1.853-.859 0-.859 1.14s-.143 2.994-.286 4.705c-.143 1.71-2.147-1.14-2.29-4.135-.143-2.993-.43-2.423-.43-2.423s-2.003 1.283-.143 4.704c1.861 3.279 1.718 6.7 2.29 7.84.573.999-1.001 1.854-1.717 1.854-.573 0-2.863 2.708-1.002 2.566 1.86-.143 5.296-2.994 6.87-3.136 1.575-.57 1.289-3.422 1.289-3.422z" transform="translate(382 141)"/>
            <path fill="#E9D6B8" d="M41.655 45.332c5.725-9.266 7.3-8.98 9.018-13.258 1.145-2.993 1.717-7.555 5.296-11.831 3.578-4.277 4.723-6.13 5.439-8.839.143-.427 2.147.428 1.288 3.707-1.288 5.132-5.869 13.827-7.586 16.393-2.72 4.134-7.873 14.683-8.159 18.247-.143 3.564-6.155.713-5.296-4.42zM25.91 87.385s-4.294 3.992-7.586 9.979c-3.293 5.987-6.012 9.836-6.871 11.69-.859 1.852-7.157 2.423-4.437-1.141 2.72-3.564 6.011-10.407 8.159-12.545 2.147-2.138 3.292-9.551 4.866-11.974 1.288-2.566 5.869 3.991 5.869 3.991z" transform="translate(382 141)"/>
            <path fill="#FF481C" d="M29.345 66.43s-6.298 6.557-7.872 9.266c-1.432 2.708-3.865 9.836-3.865 9.836s5.868 6.985 8.445 8.125c.286.143 1.718 0 2.004-2.138 0 0 3.721 1.283 5.868 4.562 2.148 3.279 1.146 16.108 2.72 18.532 1.431 2.423.573-5.702 10.163-6.273 9.59-.57 18.321-.855 18.608-5.131.286-4.135-4.438-6.843-5.726-11.405-1.145-4.419-11.45-23.378-13.455-26.942-2.147-3.564 2.147-10.122 3.006-12.545s-.859-2.138-2.72-5.987c-1.86-3.85-3.578-5.417-4.437-5.417-1.002.142-8.445 23.236-12.739 25.517z" transform="translate(382 141)"/>
            <path fill="#6E3A2E" d="M34.498 46.757s.573-7.127-2.72-10.12c-3.292-2.994-7.872-4.135-6.011-1.854 1.86 2.423 3.578 3.849-1.575 1.853-5.153-2.138-11.45-2.423-10.449.855.859 3.28-3.006 2.424-6.012 5.703-3.006 3.278-4.15 4.134-2.147 6.557 2.147 2.423-.859 2.423-3.292 2.423s2.147 2.709 5.44 2.709c3.292 0 .286 3.849-1.146 4.847-1.431.855 0 4.134 10.45 3.849 10.591-.428 17.462-11.405 17.462-16.822z" transform="translate(382 141)"/>
            <path fill="#E9D6B8" d="M25.91 73.272c.286-1.568 2.576-2.85 2.576-5.56 0-2.708-3.149-1.567-5.725-.855-2.863.713-5.726.286-6.585-.285-.858-.57-1.574 1.14-3.864.285-.86-.285-2.147-2.993-.86-3.848 1.146-.856-1.86-11.975 0-15.824 1.862-3.849 1.146.855 6.585-.855 5.44-1.853 4.438-4.42 9.59-4.847 5.153-.285 4.151 2.423 5.44 2.423 1.145 0 .858-1.425 1.431-2.423.573-.855 2.147-.285 2.433 1.426.287 1.853-.858 5.131-.858 5.131s.286 4.134-.573 7.128c-.859 2.994-3.006 7.128-.859 5.702 2.147-1.425 3.006-2.138 3.435-2.138 2.004 0 6.728 9.123 2.004 12.687-5.01 3.421-14.886 5.56-14.17 1.853z" transform="translate(382 141)"/>
        </g>
        <g fill="#2C7EEA" fill-rule="nonzero">
            <path d="M126.443 295.721L129.861 295.721 50.407.284 46.989.284zM79.739 295.721L83.157 295.721 3.845.284.427.284z" transform="translate(612 314)"/>
            <path d="M53.682 18.616L52.827 15.205 4.984 15.205 5.838 18.616zM60.659 44.479L59.804 41.068 11.961 41.068 12.815 44.479zM67.636 70.484L66.782 67.074 18.938 67.074 19.792 70.484zM74.613 96.489L73.759 93.079 25.915 93.079 26.77 96.489zM81.59 122.495L80.736 119.084 32.892 119.084 33.747 122.495zM88.567 148.5L87.713 145.089 39.87 145.089 40.724 148.5zM95.545 174.505L94.69 171.095 46.847 171.095 47.701 174.505zM102.522 200.511L101.667 197.1 53.824 197.1 54.678 200.511zM109.499 226.516L108.645 223.105 60.801 223.105 61.655 226.516zM116.476 252.521L115.622 249.111 67.778 249.111 68.633 252.521zM123.453 278.384L122.599 274.974 74.755 274.974 75.61 278.384z" transform="translate(612 314)"/>
        </g>
        <g fill-rule="nonzero">
            <path fill="#E9D6B8" d="M68.382 173.676s3.433 4.135 10.586-.856c3.72-2.566 7.582-9.126 9.299-12.548 0 0-1.145 6.417-.143 7.985 1.001 1.569 4.005-.998 4.577-4.42.287-1.854-.286-6.987-.286-9.411 0-2.424-2.86-1.854-3.72-.713-.714 1.14-.714 1.283-2.002 1.854-1.574.855-9.156 2.852-10.3 7.272-1.144 4.705-14.592 9.126-8.011 10.837zM70.67 184.513s3.005 3.28 12.733 19.82c3.004 5.134 5.007 7.273 6.294 6.845 1.288-.428 1.002 2.139 1.574 5.846.572 3.707 1.43 7.985 1.287 9.839-.143 1.854-.858 1.426-1.43 1.854-.43.427-.572-4.706-1.43-7.986-.86-3.137-3.148-5.56-4.006-6.987-1.002-1.425-17.167-18.251-19.456-21.959-2.432-3.85 1.717-8.27 4.435-7.272z" transform="translate(751 387)"/>
            <path fill="#163F59" d="M75.106 127.619s-8.012-12.263-12.303-10.41c-4.292 1.997-12.446 44.632-12.16 48.624.143 4.136 6.151 14.402 8.87 19.393 2.718 4.99 2.86 7.415 3.719 8.698.858 1.283 6.151.143 8.297-.57 2.146-.713 4.006-4.848 2.29-8.27-1.718-3.565-6.582-8.414-6.438-17.254.286-8.556 8.726-34.223 7.725-40.211z" transform="translate(751 387)"/>
            <path fill="#194866" d="M74.104 122.913s-7.582 24.098-8.583 34.507c-1.002 11.55.715 15.828 1.716 16.399.859.57 6.152.142 9.156-1.997 2.861-2.139 3.004-7.272 2.861-8.413-.143-1.14 17.882-28.518 14.02-41.494-3.72-13.119-12.446-5.704-19.17.998z" transform="translate(751 387)"/>
            <path fill="#E9D6B8" d="M37.339 64.165s-6.724-10.124-8.87-13.119c-2.145-2.852-9.012-9.839-12.732-18.537-3.719-8.698-6.866-13.403-1.716-7.415 5.15 5.99 8.87 11.123 12.589 16.969 3.576 5.846 7.439 8.27 11.158 11.55 3.72 3.28 5.15 12.833-.43 10.552z" transform="translate(751 387)"/>
            <path fill="#163F59" d="M39.914 61.883c-2.146-.713-6.724 0-8.297 2.995-2.146 3.992-.859 5.703 1.287 7.7 2.146 1.996-1.287 3.85-5.579 1.853 0 0 10.3 6.988 9.585-.998-.716-7.842 2.146-9.126 4.291-10.409.143-.143-.858-.998-1.287-1.14z" transform="translate(751 387)"/>
            <path fill="#FEC00F" d="M40.486 57.32s-5.007 7.273-5.007 8.984c0 1.71 4.721 5.846 7.44 7.7 2.717 1.853-.43.713 6.007 11.122 6.438 10.41 7.296 16.826 11.016 21.389 3.72 4.42-.859 12.833-.859 12.833-.858 2.282 6.152-4.135 12.59 4.99 3.433 4.849 2.574.143 12.445-1.425 9.87-1.569 12.303 2.994 13.161-2.282.859-5.275-5.579-9.125-4.148-14.116 1.43-5.134-8.012-14.117-13.734-20.819-5.722-6.702-3.576-13.26-2.86-19.535.571-6.56-30.615-17.681-36.05-8.84z" transform="translate(751 387)"/>
            <path fill="#E9D6B8" d="M74.39 49.05s4.864-12.263 6.152-15.257c1.287-2.995 3.004-9.697 5.579-13.547 2.575-3.85 3.29-7.985 1.717-9.268-1.431-1.284-2.719-3.137-3.434-3.565 0 0 .859-.57 1.86.285 1.144.998 2.861 1.711 3.576.856.572-.856 2.718-5.276 3.863-7.13 1.001-1.568.858-1.426 1.144-.57.286.855-1.43 3.422-2.146 4.848-.143.428-.143 1.568 1.288.285 1.43-1.283 2.432-2.71 4.005-4.99.287-.286 2.003-.714.573 1.14-1.43 1.854-4.292 6.132-3.434 6.702.716.57 2.003.142 4.292-1.14 2.289-1.284 1.144.57-.286 1.425-1.43.856-2.718 1.569-2.718 1.569s-.143.998 1.573.57c1.145-.285 2.146.57-.286.998-1.716.285-4.291.428-5.579 3.137-1.287 2.71-3.576 9.696-5.007 12.833-1.43 2.995-1.573 1.997-2.289 4.706-.858 2.71-3.433 18.11-3.433 18.11s-6.867.142-7.01-1.997z" transform="translate(751 387)"/>
            <path fill="#163F59" d="M44.349 28.374s-6.438 0-10.3 5.276c-3.005 4.278-3.005 17.396 2.575 22.53 5.579 5.133 8.297 8.698 6.151 10.409-2.289 1.711-5.007 6.417-.858 8.27 4.291 1.854 5.865 2.567 7.295 2.14 1.288-.429-6.437-.856-3.433-5.277 3.004-4.563 7.153-.998 8.44-4.99 1.288-3.993 6.581 6.274 8.87 6.416 2.289.143 7.153.428 9.012-4.42.287-.713-3.72 4.42-4.864-1.854-1.144-6.274-1.144-1.711 1.574-1.711 2.718.143 7.153 7.985 13.59 2.139 3.148-2.852 3.005-4.563 3.005-4.563s-3.577 4.42-4.864.142c-1.288-4.277-.573-5.56-.573-5.56s1.86 4.277 6.009 2.994c2.575-.713 4.148-3.565 2.575-5.704 0 0 .715.998-.715 2.852-.43.57-2.719 2.281-2.719-.998 0-3.28 2.003-7.7-5.436-9.411-7.582-1.711-10.014 1.14-11.158-6.132-1.144-7.272-5.293-22.244-24.176-12.548z" transform="translate(751 387)"/>
            <path fill="#E9D6B8" d="M45.064 36.502s-1.86 7.557-4.72 12.976c-2.862 5.418.285 11.978 5.15 13.974 4.863 1.854 5.578 4.135 3.575 5.276-2.002 1.14 3.72 9.981 7.582 10.124 3.863.142 11.445-5.419 7.153-11.408-2.289-3.28-1.43-4.705-1.43-4.705-1.574 2.139-1.717 5.846-.43 6.702 1.431.855-7.438-.285-2.86-8.27 4.72-7.843 5.722-8.271 4.005-13.262-1.717-4.99-6.867-3.992-11.015-5.418-4.292-1.426-6.295-2.995-7.01-5.99zM14.02 26.235c1.574-2.994-.714-4.848-.428-6.56.286-2.28 2.575-3.706 2.86-3.992.573-.713-1.573-.998-2.431 0-.715 1.141-1.86 1.426-2.146.998-1.144-1.568-3.147-7.7-4.006-8.698-.429-.57-1.287-.142-.143 2.852 1.145 2.995 2.432 5.276 1.717 5.561-1.287.57-5.865-4.848-7.01-5.703-.429-.286-2.145-.286 0 1.996 2.575 2.71 4.721 4.705 4.864 5.561.143.856-2.003 1.426-4.148 1.283-3.005-.285-3.434.143-2.29.713.86.428 5.437.856 5.15 1.426-.572 1.284-2.574 1.426-3.862 1.711-1.144.286-.858 1.141 1.574.713 2.575-.427 1.716-.713 3.576 0 1.86.856 5.007 5.276 6.724 2.14z" transform="translate(751 387)"/>
            <path fill="#FFF" d="M49.642 55.467c-1.43.57-3.005 1.283-4.292 1.996 1.43 2.71 4.72 3.85 7.725 2.567 2.861-1.141 4.435-4.278 3.72-7.13-2.433.713-4.721 1.569-7.153 2.567z" transform="translate(751 387)"/>
        </g>
        <g fill-rule="nonzero">
            <path fill="#0253A2" d="M33 16.349s.857-.996.571-3.84c-.285-2.844 1-9.954 2.858-10.95C38.286.565 41.143-.288 42.286.423c.857.569 1.857 4.693 1.285 9.812-.428 5.12-4.142 9.385-6.571 9.1-2.571-.141-2.857-.426-4-2.985z" transform="translate(498 161)"/>
            <path fill="#0253A2" d="M47.571 23.885s2.429-.71 2.286-3.128c-.143-2.418 1.572-6.115 1.429-7.679-.143-1.564-3.143-4.835-4.286-4.693-1.143 0-4.714 1.422-4.714 4.693 0 3.27-2.857 4.693-2.572 6.257.429 1.422 5.143 8.39 7.857 4.55z" transform="translate(498 161)"/>
            <path fill="#0063CB" d="M38 2.982c-1.429 0-2.857 1.99-4 3.981-.429 2.133-.571 4.266-.429 5.546.286 2.844-.571 3.84-.571 3.84.429 1.137.857 1.848 1.286 2.133 1.714-.57 3.143-1.707 4-3.129C39.57 13.505 41 6.821 41.143 5.541c.143-1.28-.286-2.56-3.143-2.56z" transform="translate(498 161)"/>
            <path fill="#E9D6B8" d="M14.857 45.5s2.429-5.404 2.714-9.528c.286-3.981-1.142-14.22 2.715-17.49 3.857-3.271 7.285-3.698 10.285-3.413 3.143.142 4.143 1.706 5 2.844.858 1.137-.142 6.683-2.285 7.679-2 .995-1.857 18.06-2 19.766-.143 1.99-10.572 14.362-16.429.142z" transform="translate(498 161)"/>
            <path fill="#E2C59C" d="M33.286 25.734c1.857-.995 2.857-5.262 2.428-7.11-1-.427-3 1.422-6.285.284-4.858-1.706-4.286 4.55-4.429 6.115-.286 3.27 6.286 6.541-1.714 27.73 4.714.141 7.857-5.973 7.857-7.253.286-1.849.143-18.77 2.143-19.766z" transform="translate(498 161)"/>
            <path fill="#E2C59C" d="M48 21.894s-9.286-8.674-15.143-1.422C27 27.582 30 39.101 31.286 45.642c1.285 6.541 13.857.142 15.143-1.706 1.285-1.849 2-11.519 1.571-14.22-.571-2.702-.857-4.124.429-5.546C49.57 22.748 48 21.894 48 21.894z" transform="translate(498 161)"/>
            <path fill="#E9D6B8" d="M40 21.752c-1.714-2.844-4.571-2.702-7-1.422l-.143.142c-5.857 7.11-3.143 20.05-2 26.592.857 4.266 6.857 1.564 11-.284.429-2.56-.286-5.973-1.286-9.386C38.857 31.138 40 21.752 40 21.752z" transform="translate(498 161)"/>
            <path fill="#194866" d="M15.286 40.665s-.429 6.684 6.143 6.684c5.285-.143 9.428-2.276 9.428-2.276s-.571 11.377.286 16.496c.857 5.12-16 10.807-16 10.807s-3.429-17.49.143-31.71z" transform="translate(498 161)"/>
            <path fill="#194866" d="M45.714 68.679s7.143-6.4 6.715-14.362c-.429-7.964-4.572-14.932-4.572-14.932s-3.714 4.55-9.714 5.404c-3.143.427-8-.853-8-.853S29 56.45 31 61.569c2 4.977 9.143 10.238 14.714 7.11z" transform="translate(498 161)"/>
            <path fill="#163F59" d="M44.714 65.55c5.715-1.706-.857-5.972-2.714-6.967-1.714-.996-3.286-1.28-2.714-3.271.428-1.99-.572-5.404-3.429-5.83-1.428-.143-2.714-2.133-3.714-3.982-.857 0-1.857-.284-1.857-.284s-1.143 11.234.857 16.21c.571 1.28 1.428 2.56 2.428 3.84 3.286.995 7.858 1.28 11.143.284z" transform="translate(498 161)"/>
            <path fill="#163F59" d="M30.571 54.032s-7.428 4.977-9.285 3.982c-1.715-.996-4-4.124-4.286-4.835-.286-.853 2.143 2.417 1.714-.142-.428-2.56-4.571-4.835-4.571-4.835s-.143 8.532.286 11.376c.428 2.417.142 11.376 2.428 12.087.572-.142 1.143-.426 1.857-.71 3.715-3.272 11.572-5.262 12-13.937v-1.422c0-.426 0-.995-.143-1.564z" transform="translate(498 161)"/>
            <path fill="#194866" d="M15.429 117.17s-5.143 5.688-4.572 10.523c.572 4.835 2.429 11.802 2.572 9.527.142-2.275.857-1.137 2.142 3.27 1.429 4.551 6.572 10.808 6.858 9.386.857-4.408 2.142 1.28 2.428 2.702.429 1.422 2.857-1.28 4.143-2.844 1.286-1.564.571.569 4.429 1.706 3.857 1.28 8.142 3.271 12.142-4.692 1.715-3.555 0-9.386 2.286-9.243 2.286.142 3.143-5.262 1.286-8.675-1.857-3.27-4.286-5.83-3.572-7.82.715-1.992-4.142-11.804-11.142-10.808-7.286 1.137-14.286 13.367-19 6.968z" transform="translate(498 161)"/>
            <path fill="#E9D6B8" d="M35.714 100.106s-3-8.39-8.285-10.097c-5.286-1.706-11.286 2.275-11.715 5.262-.428 2.844 1.429 5.688 1.429 5.688l2.286-.427.857 4.55s-5.572 3.982-5.429 6.826c.143 2.844-2.286-.426-2.428 1.849-.143 2.275 1.571 13.367 4.285 16.069 2.715 2.702 12.143 7.394 14 4.408 1.857-2.986.429-6.826 4.572-5.973 4 .854 4.428-3.128 4.571-5.972.143-2.844-1-8.817-1-8.817s1.143-.284.143-3.128c-1-2.844-2.714-2.417-3-3.555-.571-1.28-2.429-4.55-.286-6.683z" transform="translate(498 161)"/>
            <path fill="#FDBF14" d="M17.143 100.817S11.857 99.679 11 99.679c-.857 0-2.143-19.055 1.714-26.876 3.857-7.964 6.572-10.665 11.286-12.94 4.714-2.276 18.286-1.28 21.714 3.128C49.143 67.399 49.571 76.5 48 79.2c-1.571 2.703-6.143 3.13-6.143 8.39v11.377l-6.286 1.138S34.286 92.71 27.143 92c-7.143-.711-11.143 3.128-10 8.817z" transform="translate(498 161)"/>
            <path fill="#E9D6B8" d="M11 99.679s-7.714-3.413-8.571-10.096c-1-6.684-.143-17.35-.572-24.175-.428-6.825-1.571-18.202-.714-20.477.857-2.275 2.571-9.527 2.571-13.225 0-3.839-3.428-9.385.572-10.665 4-1.422 2.428-.71 2.428-.71s1.143-.996 1.429-.712c.428.427 1 .853 1.571.853.572 0 1.857 1.422 1.572 1.991-.143.57-.286 2.276.428 1.707.715-.57 1.286 1.848.572 3.27-.715 1.422-4 4.55-4.143 5.404-.143.711 1.714 16.78 1 21.33-.714 4.409-.429 6.684.286 11.234.571 4.55 2 14.79 2.285 19.909C12 90.294 12 99.394 11 99.679zM49.429 23.885s1.571-1.422 2.428-.853.572.142 2.429 0c1.857-.142 2.714.427 2.714.427s1.286.284 1.571.853c.286.569-1.714 5.83-1.285 7.679.428 1.848.143 2.275.428 2.986.286.711-.714.995-.857 1.99-.143.996-1.143 14.505-.143 19.056 1 4.55-2 8.105-1.857 10.238.143 2.133-1.143 10.523-1.857 15.5-.714 4.978-7.286 17.776-11.857 16.78-4.572-.853 2-21.614 4.286-25.738 2.285-4.124 3.285-13.083 3.714-16.638.428-3.413 2-19.908 2.286-21.472.285-1.565-2.572-5.12-2.286-6.115.428-.995.286-4.693.286-4.693z" transform="translate(498 161)"/>
        </g>
        <path fill="#8DCFFF" fill-rule="nonzero" d="M877 233s-2.276-2.968-5.12-2.968c-2.987 0-2.845-2.12-4.268-3.674-3.84-4.24-5.262-.566-8.96-.99-3.556-.424-7.681-6.5-10.668-11.164-2.987-4.664-5.548-7.067-9.672-7.49-3.983-.425-7.681 3.391-11.38 1.13-3.84-2.261-5.831-7.773-9.671-7.35-6.117.566-6.97 1.98-10.1-1.554-3.128-3.533-3.413-7.207-7.822-6.925-6.543.424-8.534 15.122-12.802 11.448-7.68-6.643-10.81 5.37-14.365 11.447-8.108 13.568-20.767 17.1-26.172 18.09h131zM861 324h-49s11.749-21 20.345-21c8.023 0 8.31 14.815 13.325 15.534 5.157.72 4.155-2.301 8.31-2.157 3.868 0 7.02 7.623 7.02 7.623z"/>
        <text fill="#FFF" font-family="Roboto-Light, Roboto" font-size="20.25" font-weight="300" letter-spacing=".052" opacity=".695">
            <tspan x="385" y="103">We believe in what students make possible!</tspan>
        </text>
    </g>
</svg>
