<svg xmlns="http://www.w3.org/2000/svg" width="831" height="633" viewBox="0 0 831 633">
    <g fill="none">
        <path fill="#60ADFC" d="M188.53 99.468c54.097 72.715 1.993 97.191 63.493 146.854C318.22 299.684 409.9 229.53 455.17 316.476c38.437 73.854 60.93 97.333 141.506 118.11C634.4 444.261 721.668 589.692 831 527.65V0H95c2.99 62.185 62.638 58.059 93.53 99.468z"/>
        <g>
            <path fill="#EAF4FE" d="M119.478 296.93C253.6 221.437 395.944 35.529 540.6 159.553c71.558 56.62 132.966 163.953 155.962 239.318 10.791 36.205 13.49 65.735 6.809 90.129H25.953c-21.968-37.105-29.548-69.844-24.41-93.082 8.351-42.754 53.058-57.005 117.935-98.988z" transform="translate(0 107)"/>
            <g>
                <g>
                    <g fill="#C5E1F9">
                        <path d="M.642 4.11s10.919 1.414 40.463 22.482M18.626 20.168c-1.67-.642-3.212-1.284-4.625-2.055-.77-.385-1.413-.77-2.055-1.156-.642-.385-1.285-.642-1.927-1.028-1.156-.642-2.312-1.413-3.211-2.184-.9-.642-1.798-1.413-2.57-2.055-.77-.77-1.284-1.285-1.797-2.055-.257-.386-.514-.643-.643-1.028-.257-.385-.385-.642-.513-.9-.129-.256-.257-.642-.386-.899 0-.128-.128-.256-.128-.513v-.386c-.129-.642-.129-1.156 0-1.798.128-.514.257-1.156.77-1.542.257-.257.514-.514.771-.642.257-.257.642-.385 1.028-.514C4.11 1.028 5.01.9 5.909.771 6.423.642 6.936.642 7.45.642s1.156 0 1.67.129c1.156.128 2.44.257 3.854.642 1.284.385 2.697.9 4.11 1.413.77.257 1.413.642 2.184 1.028.77.385 1.413.77 2.183 1.284 1.413.9 2.955 1.927 4.496 3.084 1.285 1.027 2.57 2.312 4.11 3.725.771.77 1.414 1.541 2.184 2.312.771.771 1.542 1.67 2.184 2.57 2.826 3.468 5.267 7.193 6.936 9.891-3.082-.514-7.193-1.413-11.175-2.57-.514-.128-1.027-.256-1.541-.513l-1.542-.385c-1.027-.257-2.055-.643-2.954-.9-2.055-.77-3.854-1.413-5.523-2.184z" transform="translate(0 107) translate(329 74) translate(89.427 20.554)"/>
                    </g>
                    <g fill="#C5E1F9">
                        <path d="M.77 7.836s34.554 1.413 35.967 1.67M19.01 15.544C7.45 17.214.515 12.332.9 7.708c.128-4.625 7.578-8.864 18.753-6.166 2.312.513 5.652 1.67 8.863 3.211 3.212 1.542 6.294 3.212 8.35 4.625-2.312 1.284-5.395 2.569-8.607 3.854-3.21 1.156-6.55 2.055-9.248 2.312z" transform="translate(0 107) translate(329 74) translate(89.427 20.554) translate(12.845 26.977)"/>
                    </g>
                    <g fill="#C5E1F9">
                        <path d="M4.881.437l10.79 30.96M3.725 18.678C-1.798 9.43.385 1.722 4.881.437c4.368-1.542 10.79 3.211 12.203 13.617.642 4.24-.128 12.718-1.413 17.47-3.853-2.954-9.377-8.35-11.946-12.846z" transform="translate(0 107) translate(329 74) translate(89.427 20.554) translate(37.251 4.702)"/>
                    </g>
                    <g fill="#C5E1F9">
                        <path d="M3.854.642s11.303 22.61 1.027 43.806M2.184 23.38c-.386-1.542-.643-3.083-.9-4.496-.256-1.413-.513-2.698-.642-3.982-.257-2.57-.385-4.754-.257-6.68C.642 4.368 1.798 1.67 3.854.642 5.909-.385 9.12.771 11.818 4.625c1.413 1.927 2.569 4.367 3.468 7.45.77 3.083 1.284 6.809.899 10.791-.129 1.67-.514 3.597-1.156 5.78-.642 2.056-1.542 4.369-2.57 6.424-1.155 2.055-2.311 3.982-3.724 5.652-.257.386-.643.771-1.028 1.156-.385.386-.642.771-1.028 1.028-.642.642-1.284 1.156-1.926 1.67v-2.44c0-.9 0-1.8-.129-2.698-.128-1.799-.385-3.726-.642-5.653-.257-1.927-.642-3.725-1.028-5.523-.257-1.799-.513-3.34-.77-4.882z" transform="translate(0 107) translate(329 74) translate(89.427 20.554) translate(57.803 2.57)"/>
                    </g>
                    <g fill="#C5E1F9">
                        <path d="M.437 10.02s20.424-4.368 38.279-.77M20.219 14.902c-1.413.256-2.826.513-4.11.642-1.285.128-2.57.257-3.726.257-2.312 0-4.367-.257-6.037-.771C2.878 14.002.822 12.204.437 9.892-.077 7.708 1.465 5.01 4.804 3.083 6.474 2.183 8.658 1.285 11.1.9c1.284-.257 2.697-.385 4.11-.385 1.413 0 2.954 0 4.624.257 2.698.257 6.423 1.413 10.02 2.954.899.386 1.798.771 2.569 1.285.899.514 1.67.9 2.44 1.413.77.385 1.413.9 2.184 1.413.642.514 1.284.9 1.798 1.413-.642.257-1.284.514-2.055.643-.77.256-1.413.385-2.184.77-1.541.514-3.211 1.028-4.88 1.542-.386.128-.772.257-1.285.385-.386.129-.771.257-1.285.386-.77.257-1.67.513-2.44.77-.771.257-1.542.386-2.313.643-.77.257-1.541.385-2.183.514z" transform="translate(0 107) translate(329 74) translate(89.427 20.554) translate(23.969 42.392)"/>
                    </g>
                    <g fill="#C5E1F9">
                        <path d="M.694 10.534s11.946-8.992 43.674 5.01M22.145 15.544c-.77 0-1.67 0-2.44-.129H17.65c-1.413-.128-2.698-.128-3.854-.257-2.312-.128-4.367-.513-6.037-.899-1.67-.385-3.083-.899-4.24-1.413-1.155-.642-2.054-1.413-2.697-2.312-.77-.9-.77-2.312 0-3.854.771-1.542 2.313-3.083 4.625-4.24.514-.256 1.156-.513 1.798-.898.642-.257 1.285-.386 2.055-.643.386-.128.771-.257 1.156-.257.386-.128.771-.128 1.156-.128.386 0 .771-.129 1.156-.129.386 0 .771-.128 1.285-.128h3.211c.257 0 .386 0 .643.128.385 0 .899.129 1.284.129.514.128.9.128 1.413.257.257 0 .514.128.642.128.257 0 .514.129.643.129.899.257 1.798.514 2.825.77.771.257 1.67.514 2.441.9.9.385 1.798.77 2.698 1.284.899.514 1.798 1.028 2.825 1.67.9.643 1.927 1.156 2.826 1.927.9.643 1.799 1.413 2.57 2.056.385.385.77.642 1.284 1.027.385.386.77.771 1.156 1.028 1.541 1.413 2.826 2.698 3.854 3.854-1.542.128-3.34.128-5.267.128H24.586c-.9 0-1.67-.128-2.44-.128z" transform="translate(0 107) translate(329 74) translate(89.427 20.554) translate(25.253 57.808)"/>
                    </g>
                    <g fill="#C5E1F9">
                        <path d="M14.001.9C9.634 8.606 2.441 48.044 2.441 48.044M.257 23.38C.899 15.415 3.083 9.25 5.78 5.267c1.413-1.927 2.955-3.469 4.368-4.24.385-.128.77-.385 1.027-.385.386-.128.643-.128 1.028-.128.642 0 1.156.128 1.67.514.514.257.899.642 1.284 1.156.129.257.386.514.514.77.129.258.385.643.514.9.514 1.284.9 3.083 1.028 5.138.128 4.24-.643 10.277-3.34 17.343-1.028 2.954-2.955 7.065-5.138 11.047-2.184 3.983-4.496 7.965-6.294 10.663C.899 41.878-.514 31.088.257 23.38z" transform="translate(0 107) translate(329 74) translate(89.427 20.554) translate(70.648 23.123)"/>
                    </g>
                    <g fill="#C5E1F9">
                        <path d="M29.467 1.927S9.172 19.655.31 41.493M6.86 16.443c.257-.514.513-.9.77-1.413.257-.385.514-.9.771-1.285.514-.77 1.156-1.67 1.67-2.44 1.156-1.542 2.312-2.827 3.468-3.983 2.312-2.312 4.624-4.11 6.808-5.138C24.586 0 28.054 0 29.467 1.798c1.542 1.67 1.285 5.01-.642 8.993-.9 2.055-2.312 4.239-4.11 6.551-.9 1.156-1.927 2.441-2.955 3.597-1.028 1.285-2.312 2.441-3.597 3.854-2.183 2.184-5.395 5.01-8.734 8.093-.771.77-1.67 1.542-2.44 2.312-.772.771-1.542 1.542-2.313 2.184-.77.771-1.541 1.413-2.184 2.056L.566 41.365v-2.698c0-.9 0-2.055.256-3.083.129-1.028.257-2.184.514-3.212.129-.514.257-1.156.386-1.67l.385-1.67c.128-.514.257-1.156.385-1.67.129-.514.386-1.156.514-1.67.385-1.156.77-2.312 1.156-3.34.386-1.027.9-2.055 1.413-3.083.257-1.027.77-1.927 1.285-2.826z" transform="translate(0 107) translate(329 74) translate(89.427 20.554) translate(70.211 53.954)"/>
                    </g>
                    <g fill="#C5E1F9">
                        <path d="M.309 8.607s21.194-5.01 42.26 7.194M21.375 15.544h-4.496c-.385 0-.642 0-1.028-.129h-1.027c-.643 0-1.285-.128-1.927-.128-2.44-.257-4.624-.642-6.423-1.285C2.878 12.846.566 11.048.18 8.735c-.257-1.156 0-2.312 1.028-3.597.899-1.156 2.44-2.312 4.624-3.211 2.055-.9 4.753-1.413 7.836-1.542h2.44c.386 0 .77 0 1.285.129.385 0 .899.128 1.284.128.9.129 1.67.257 2.57.514l2.697.77c.77.258 1.541.515 2.44.9.9.386 1.799.77 2.698 1.285.899.514 1.798 1.027 2.826 1.67.514.257.899.642 1.413.899.385.385.899.642 1.284 1.028.386.385.9.642 1.285 1.027.385.386.77.771 1.284 1.028.771.77 1.542 1.413 2.312 2.184 1.413 1.541 2.441 2.955 3.34 4.11-1.541 0-3.211-.128-5.01-.256H24.073c-1.156-.257-1.927-.257-2.697-.257z" transform="translate(0 107) translate(329 74) translate(89.427 20.554) translate(25.253 73.223)"/>
                    </g>
                    <path fill="#9AC7F7" d="M75.016 155.053c-5.395-8.735-8.735-17.6-10.148-26.591-1.027-7.194-.514-12.333-.257-14.517 0-.257 0-.513.129-.642.642-7.065 2.055-12.846 3.211-17.985 2.697-11.69 4.881-20.939-2.826-38.538-6.808-15.415-22.864-29.032-35.067-37.768C16.828 9.506 5.01 3.725 4.88 3.597l.514-.9c.128 0 11.946 5.91 25.305 15.416 12.331 8.735 28.516 22.61 35.453 38.153 7.964 17.856 5.78 27.362 2.954 39.18-1.156 5.01-2.569 10.792-3.211 17.729 0 .128 0 .385-.129.642-1.541 13.488 1.927 27.105 10.276 40.465l-1.027.771z" transform="translate(0 107) translate(329 74) translate(89.427 20.554)"/>
                    <path fill="#9AC7F7" d="M54.849 41.236c-2.698-4.11-5.524-11.304-8.221-21.581-2.055-7.58-3.34-14.131-3.34-14.131l1.028-.257c0 .257 5.266 25.82 11.56 35.327l-1.027.642z" transform="translate(0 107) translate(329 74) translate(89.427 20.554)"/>
                    <path fill="#9AC7F7" d="M53.564 39.18c-11.56-7.45-38.92-3.853-39.177-3.853l-.129-1.028c.129 0 6.937-.899 15.157-.899h.257c11.304 0 19.525 1.67 24.535 4.882l-.643.899zM61.785 49.2l-.899-.513c6.037-9.892 6.294-21.582 5.267-29.546-1.028-8.736-3.469-15.03-3.469-15.159l1.028-.385c0 .128 2.57 6.551 3.597 15.415.899 8.093.642 19.912-5.524 30.189zM25.433 52.67l-.513-.9c.128-.128 4.495-2.826 11.432-4.24 6.422-1.284 16.185-1.67 26.975 3.726l-.514.9c-10.533-5.268-20.039-4.882-26.333-3.598-6.808 1.542-11.047 4.111-11.047 4.111zM71.42 83.628l-1.028-.128c2.825-23.894 13.359-58.578 13.487-58.835l1.028.257c-.129.385-10.662 34.941-13.488 58.706z" transform="translate(0 107) translate(329 74) translate(89.427 20.554)"/>
                    <path fill="#9AC7F7" d="M70.392 76.692c-1.157-3.854-7.065-7.58-15.8-10.02-10.148-2.827-23.635-3.34-28.388 1.156l-.77-.771c2.954-2.826 8.349-3.469 12.46-3.597 5.266-.128 11.303.642 16.955 2.184 9.248 2.57 15.286 6.423 16.57 10.79l-1.027.258zM65.767 112.66l-1.027-.128c1.156-7.836 5.138-20.939 17.854-38.281 7.58-10.277 14.644-17.343 14.772-17.471l.771.77c-.128.13-7.193 7.066-14.643 17.343-6.937 9.506-15.543 23.765-17.727 37.768zM68.979 91.722c-6.937-8.864-17.727-11.434-25.562-12.076-8.607-.642-15.543.77-15.543.77l-.257-1.027c.129 0 7.193-1.541 15.928-.77 11.56.899 20.68 5.266 26.333 12.589l-.9.514z" transform="translate(0 107) translate(329 74) translate(89.427 20.554)"/>
                </g>
                <g>
                    <path fill="#C5E1F9" d="M101.092 112.147S42.774 115.23 22.222 82.6C1.67 49.97 6.294 3.725 6.294 3.725S73.988 2.57 92.1 40.594c18.112 38.024 4.753 62.047 8.992 71.553z" transform="translate(0 107) translate(329 74) translate(.795)"/>
                    <path fill="#9AC7F7" d="M214 178.305c-29.929-9.892-59.344-25.179-87.732-45.476-22.736-16.186-44.701-35.712-65.382-57.936C25.69 37.125 6.166 4.24 5.91 3.983l.77-.515c.129.386 19.654 33.144 54.85 70.783 20.68 22.095 42.645 41.493 65.253 57.807 28.26 20.297 57.675 35.456 87.476 45.347l-.257.9z" transform="translate(0 107) translate(329 74) translate(.795)"/>
                    <g fill="#9AC7F7">
                        <g>
                            <path d="M1.028 3.468H.77V2.57h.257c5.651 0 10.019-.77 13.23-2.184l.385.9c-3.21 1.413-7.835 2.183-13.615 2.183zM5.652 13.745c-1.285 0-2.57 0-3.982-.128v-.9c9.377.386 16.442-.642 20.81-2.954l.384.77c-3.853 2.056-9.633 3.212-17.212 3.212zM11.175 24.793c-2.569 0-5.138-.128-8.092-.385l.128-.9c11.818 1.028 20.938-.128 26.204-3.34l.514.771c-4.239 2.57-10.533 3.854-18.754 3.854zM15.286 35.455c-3.083 0-6.166-.128-8.992-.385l.129-.9c9.762.9 22.864.772 30.443-4.238l.513.77c-5.523 3.597-14 4.753-22.093 4.753zM20.038 46.246c-3.082 0-6.55-.128-10.404-.514l.128-.899c9.249.9 26.204 1.285 35.068-5.267l.513.77c-3.853 2.827-11.303 5.91-25.305 5.91zM23.764 56.908c-3.469 0-6.68-.128-9.377-.385l.128-.9c10.276.772 29.03.9 38.536-6.55l.642.77c-7.322 5.652-19.782 7.065-29.93 7.065zM26.333 67.7c-2.441 0-4.625-.13-6.423-.13v-.898c9.12.385 31.342.513 41.747-8.35l.642.77c-4.624 3.854-11.817 6.552-21.323 7.836-5.138.514-10.276.771-14.643.771zM29.8 78.618v-.899c10.79 0 30.444-1.284 40.078-10.02l.642.643c-9.762 8.992-29.672 10.276-40.72 10.276zM46.371 89.024l-.128-.9c10.918-1.156 25.433-3.982 33.012-11.432l.642.642c-4.239 4.11-13.616 9.634-33.526 11.69zM67.437 96.475l-.257-.9c9.763-2.697 16.827-6.294 21.195-10.79l.642.642c-4.367 4.625-11.56 8.35-21.58 11.048z" transform="translate(0 107) translate(329 74) translate(.795) translate(0 16.7)"/>
                        </g>
                        <g>
                            <path d="M1.208 16.186h-.9c0-4.753.514-9.891 1.67-15.415l.9.128c-1.156 5.396-1.67 10.534-1.67 15.287zM7.63 27.362c-.385-7.707 1.285-16.186 4.753-25.435l.9.385c-3.469 9.121-5.01 17.471-4.753 25.05h-.9zM15.209 37.768c-1.028-12.846 4.624-25.436 9.634-33.657l.77.514c-4.88 8.093-10.532 20.553-9.505 33.143h-.899zM22.788 47.145C20.86 30.188 32.165 14.902 39.1 7.194l.642.642c-6.808 7.58-17.983 22.61-16.056 39.18l-.9.13zM30.752 56.908c-1.927-13.103 4.88-24.921 11.047-32.372 6.55-8.093 13.744-13.231 13.744-13.36l.514.77c-.129 0-7.065 5.14-13.616 13.232-5.909 7.451-12.717 18.884-10.79 31.602l-.9.128zM39.101 66.415c-1.028-6.038-.257-12.333 2.312-18.499 2.055-4.881 5.395-9.891 9.763-14.644 7.45-8.094 15.542-13.104 15.67-13.104l.514.771c-.128 0-8.092 4.882-15.414 12.975-4.239 4.753-7.578 9.506-9.634 14.388-2.569 6.037-3.34 12.075-2.312 17.984l-.899.129zM47.836 75.792c-1.285-6.423-.514-12.846 2.44-19.14 2.313-5.01 5.91-10.02 10.79-14.774 8.221-8.093 17.213-12.717 17.341-12.846l.386.9c-.129 0-8.992 4.753-17.084 12.589-4.753 4.624-8.35 9.506-10.533 14.387-2.826 6.167-3.597 12.333-2.313 18.627l-1.027.257zM56.057 84.4c-2.056-9.378.385-18.37 7.193-26.978 5.78-7.194 13.616-12.46 19.268-15.672l.514.77C77.508 45.733 69.8 50.87 64.02 57.937c-6.68 8.35-9.12 17.086-7.065 26.206l-.9.257zM65.305 93.777c-2.183-8.735-.385-17.214 5.395-25.05 4.11-5.652 10.276-10.92 18.112-15.544l.514.77c-7.707 4.625-13.745 9.764-17.855 15.288-5.524 7.579-7.322 15.8-5.267 24.15l-.899.386zM74.04 102.127c-2.055-7.58-1.028-14.773 2.826-21.453 3.083-5.267 7.964-10.149 14.643-14.516l.514.77c-6.422 4.368-11.304 9.121-14.386 14.26-3.854 6.423-4.753 13.488-2.826 20.81l-.771.129z" transform="translate(0 107) translate(329 74) translate(.795) translate(13.693)"/>
                        </g>
                    </g>
                </g>
                <g>
                    <g>
                        <path fill="#C5E1F9" d="M92.28 37.69l6.294 7.708c7.579-2.569 14.515-5.909 20.681-9.634-2.57-6.552-5.909-12.846-10.148-18.756C88.298-11.895 32.678-2.903 19.063 41.802c12.845 8.221 33.14 12.075 55.876 9.12 5.909-.77 11.69-1.927 17.084-3.468l.257-9.763z" transform="translate(0 107) translate(329 74) translate(300.935 20.554) translate(1.285 190.97)"/>
                        <g fill="#9AC7F7">
                            <path d="M1.465 69.292l-1.156-.514c7.707-19.14 22.222-30.573 22.35-30.702 10.919-8.35 22.736-13.745 35.324-15.93 10.02-1.798 20.424-1.54 31.086.772 17.983 3.854 30.443 12.204 30.571 12.332l-.77 1.028c-.129-.129-12.332-8.35-30.187-12.076-10.404-2.184-20.68-2.44-30.571-.642-12.331 2.184-24.02 7.45-34.682 15.672-.128 0-14.258 11.176-21.965 30.06z" transform="translate(0 107) translate(329 74) translate(300.935 20.554) translate(1.285 190.97)"/>
                            <path d="M100.93 23.692L112.749 23.692 112.749 24.977 100.93 24.977z" transform="translate(0 107) translate(329 74) translate(300.935 20.554) translate(1.285 190.97) rotate(-30.542 106.84 24.334)"/>
                            <path d="M87.175 17.291L106.444 17.29 106.444 18.574 87.175 18.575z" transform="translate(0 107) translate(329 74) translate(300.935 20.554) translate(1.285 190.97) rotate(-36.186 96.81 17.933)"/>
                            <path d="M72.874 12.88L97.923 12.879 97.923 14.163 72.874 14.164z" transform="translate(0 107) translate(329 74) translate(300.935 20.554) translate(1.285 190.97) rotate(-40.746 85.399 13.522)"/>
                            <path d="M58.668 10.882L86.286 10.881 86.286 12.166 58.667 12.167z" transform="translate(0 107) translate(329 74) translate(300.935 20.554) translate(1.285 190.97) rotate(-49.933 72.477 11.524)"/>
                            <path d="M46.858 11.539L74.221 11.539 74.221 12.823 46.858 12.824z" transform="translate(0 107) translate(329 74) translate(300.935 20.554) translate(1.285 190.97) rotate(-56.791 60.54 12.181)"/>
                            <path d="M32.828 15.797L59.805 15.796 59.804 17.08 32.828 17.081z" transform="translate(0 107) translate(329 74) translate(300.935 20.554) translate(1.285 190.97) rotate(-61.861 46.316 16.438)"/>
                            <path d="M21.411 23.245L45.561 23.244 45.561 24.528 21.411 24.529z" transform="translate(0 107) translate(329 74) translate(300.935 20.554) translate(1.285 190.97) rotate(-65.26 33.486 23.887)"/>
                            <path d="M104.486 26.635L105.771 26.635 105.771 42.05 104.486 42.05z" transform="translate(0 107) translate(329 74) translate(300.935 20.554) translate(1.285 190.97) rotate(-22.47 105.129 34.343)"/>
                            <path d="M93.659 22.295L94.943 22.295 94.942 46.188 93.658 46.188z" transform="translate(0 107) translate(329 74) translate(300.935 20.554) translate(1.285 190.97) rotate(-26.232 94.3 34.242)"/>
                            <path d="M80.664 20.619L81.946 20.619 81.945 49.649 80.663 49.649z" transform="translate(0 107) translate(329 74) translate(300.935 20.554) translate(1.285 190.97) rotate(-22.143 81.304 35.134)"/>
                            <path d="M67.847 21.223L69.13 21.223 69.13 51.924 67.846 51.924z" transform="translate(0 107) translate(329 74) translate(300.935 20.554) translate(1.285 190.97) rotate(-19.051 68.488 36.574)"/>
                            <path d="M56.827 23.011L58.112 23.011 58.111 52.429 56.827 52.429z" transform="translate(0 107) translate(329 74) translate(300.935 20.554) translate(1.285 190.97) rotate(-17.103 57.47 37.72)"/>
                            <path d="M43.327 27.786L44.61 27.786 44.609 52.064 43.327 52.064z" transform="translate(0 107) translate(329 74) translate(300.935 20.554) translate(1.285 190.97) rotate(-19.118 43.968 39.925)"/>
                            <path d="M30.956 34.056L32.24 34.056 32.239 49.085 30.956 49.085z" transform="translate(0 107) translate(329 74) translate(300.935 20.554) translate(1.285 190.97) rotate(-24.533 31.598 41.57)"/>
                        </g>
                    </g>
                    <g>
                        <path fill="#C5E1F9" d="M16.313 48.944c1.927 15.03 11.176 22.61 26.076 25.692 13.744-8.607 18.626-21.581 12.717-37.254C49.197 21.838 34.939 7.065 21.45.385c-3.982 13.874-7.064 33.657-5.138 48.559z" transform="translate(0 107) translate(329 74) translate(300.935 20.554) translate(13.282)"/>
                        <path fill="#9AC7F7" d="M1.413 219.284l-.77-1.028c11.688-9.25 21.194-21.838 28.387-37.254 5.78-12.589 10.02-27.105 12.588-43.291 5.01-31.216 1.927-55.881 1.799-56.138-3.854-25.307-11.69-54.981-19.653-73.737l1.156-.514c7.964 18.884 15.928 48.687 19.653 73.994.257 1.799 1.027 8.736 1.027 19.14 0 8.736-.385 22.353-2.826 37.383-2.569 16.186-6.808 30.96-12.716 43.549-7.194 15.8-16.827 28.518-28.645 37.896z" transform="translate(0 107) translate(329 74) translate(300.935 20.554) translate(13.282)"/>
                        <path fill="#9AC7F7" d="M31.085 24.536l-1.156-.514c1.413-3.34 2.826-7.579 3.854-11.561l1.156.385c-1.028 3.982-2.44 8.222-3.854 11.69zM34.554 36.098l-1.028-.643c.514-.899.9-1.67 1.413-2.569 1.798-3.211 3.725-6.68 5.01-10.02l1.156.386c-1.285 3.468-3.212 6.936-5.139 10.148-.385.9-.899 1.798-1.412 2.698zM37.893 48.173l-1.027-.77c4.495-6.295 8.477-13.618 11.175-20.683l1.156.514c-2.697 7.194-6.808 14.644-11.304 20.94zM40.334 58.065l-.9-.771c5.139-5.78 9.506-11.819 12.974-18.242l1.156.643c-3.596 6.294-8.092 12.589-13.23 18.37zM41.747 67.442l-.9-.899c3.212-2.955 6.166-6.038 8.992-9.12l.9.77c-2.698 3.212-5.652 6.295-8.992 9.25zM29.672 22.738c-3.468-1.927-6.936-3.854-10.276-5.781l.642-1.028c3.34 1.927 6.808 3.854 10.277 5.781l-.643 1.028zM33.012 34.942c-2.954-1.542-5.78-3.084-8.478-4.497-2.183-1.156-4.367-2.312-6.68-3.597l.515-1.156c2.312 1.156 4.495 2.441 6.68 3.597 2.697 1.413 5.523 2.955 8.477 4.496l-.514 1.157zM36.223 46.503c-4.11-1.798-7.835-3.725-11.817-5.652-2.44-1.156-4.881-2.313-7.45-3.597l.513-1.156c2.57 1.156 5.01 2.44 7.45 3.597 3.983 1.927 7.708 3.725 11.818 5.652l-.514 1.156zM39.178 57.037c-6.68-2.698-13.616-5.524-20.552-8.479l.513-1.156c6.937 2.955 13.873 5.781 20.553 8.479l-.514 1.156z" transform="translate(0 107) translate(329 74) translate(300.935 20.554) translate(13.282)"/>
                        <path fill="#9AC7F7" d="M40.976 66.672c-7.065-2.441-12.717-4.497-17.983-6.424l.385-1.156c5.138 1.927 10.919 3.983 17.855 6.423l-.257 1.157z" transform="translate(0 107) translate(329 74) translate(300.935 20.554) translate(13.282)"/>
                    </g>
                    <g>
                        <path fill="#C5E1F9" d="M37.688 89.024S28.311 44.576 50.79 24.922c22.608-19.784 58.574-21.71 58.574-21.71s9.12 51.898-17.855 70.396c-26.974 18.37-47.141 11.048-53.82 15.416z" transform="translate(0 107) translate(329 74) translate(300.935 20.554) translate(0 84.785)"/>
                        <path fill="#9AC7F7" d="M1.465 183.957L.18 183.7c3.982-24.15 12.203-48.687 24.278-72.966C34.22 91.336 46.55 72.067 61.066 53.44 85.858 21.71 108.722 2.826 108.98 2.57l.77 1.027c-.256.128-23.12 19.14-47.784 50.614-14.515 18.498-26.717 37.767-36.48 57.037-11.946 24.279-20.167 48.687-24.02 72.709z" transform="translate(0 107) translate(329 74) translate(300.935 20.554) translate(0 84.785)"/>
                        <g fill="#9AC7F7">
                            <path d="M66.795 11.305c-1.67-2.441-2.826-5.91-3.468-10.406L64.61.771c.642 4.367 1.799 7.707 3.34 10.02l-1.156.514zM60.63 18.884c-2.441-3.34-4.111-8.736-5.01-16.186l1.284-.129c.77 7.194 2.44 12.461 4.753 15.544l-1.028.77zM53.436 25.564c-3.211-3.854-5.267-10.79-6.037-20.297l1.284-.129c.514 6.424 1.799 15.03 5.652 19.655l-.9.77zM47.013 32.5c-5.01-5.395-6.68-15.8-7.193-23.508l1.285-.128c.513 7.58 2.183 17.6 6.936 22.738l-1.028.899zM40.462 39.823c-3.34-3.34-7.45-10.662-8.606-26.977l1.285-.128c.513 7.194 2.183 20.168 8.22 26.206l-.899.9zM34.168 47.274c-7.193-6.68-9.377-21.325-10.02-29.418l1.285-.128c1.542 18.627 6.68 25.949 9.634 28.647l-.899.899zM28.26 54.982c-3.597-3.084-6.552-8.35-8.735-15.544-1.799-6.038-2.698-12.076-3.083-16.186l1.284-.129c.771 7.065 3.469 24.022 11.433 30.96l-.9.899zM21.965 62.432c-3.596-2.826-6.68-7.707-8.991-14.259-2.056-5.78-3.34-11.818-3.982-15.93l1.284-.256c1.285 8.35 4.624 23.123 12.46 29.418l-.77 1.027zM16.313 70.782C9.505 65.644 5.395 54.596 3.211 46.246l1.156-.257c2.184 8.222 6.166 18.884 12.717 23.894l-.77.9zM11.175 78.875C7.065 75.921 3.34 70.782 0 63.46l1.156-.514c3.211 7.066 6.808 12.204 10.79 14.902l-.77 1.027z" transform="translate(0 107) translate(329 74) translate(300.935 20.554) translate(0 84.785) translate(32.55)"/>
                            <g>
                                <path d="M58.06 2.44l-.128-1.284c3.725-.514 7.707-.77 12.074-.642v1.284c-4.367-.128-8.35.129-11.946.643zM70.135 10.02c-7.322-1.542-14.002-1.798-19.653-.642l-.257-1.285c5.908-1.156 12.716-1.028 20.167.642l-.257 1.285zM69.878 19.912c-6.808-2.827-16.956-5.653-26.461-3.34l-.257-1.157c9.762-2.44 20.167.514 27.232 3.34l-.514 1.157zM68.979 31.088c-6.551-4.368-19.525-11.048-31.856-7.58l-.386-1.156c12.845-3.597 26.076 3.34 32.884 7.708l-.642 1.028zM67.823 44.062s-4.753-4.881-11.69-8.864c-6.294-3.725-15.928-7.45-25.433-4.367l-.385-1.156c7.835-2.441 16.955-.9 26.46 4.496 7.066 4.11 11.947 8.992 11.947 8.992l-.9.9zM62.17 53.825s-4.752-5.652-11.817-10.277c-6.423-4.239-16.185-8.606-26.076-5.138l-.385-1.156c8.22-2.826 17.598-1.028 27.232 5.395 7.193 4.753 11.946 10.406 12.074 10.534l-1.027.642zM56.647 63.588s-4.624-6.294-11.689-11.561c-4.11-3.083-8.22-5.139-12.331-6.295-5.01-1.413-9.763-1.284-14.387.514l-.385-1.156c8.606-3.212 18.24-1.156 27.874 6.038 7.193 5.395 11.946 11.818 11.946 11.818l-1.028.642zM47.527 68.47C32.241 49.586 19.14 51 12.717 53.568l-.514-1.156c7.065-2.826 14.387-2.055 21.837 2.313 6.294 3.597 11.303 8.992 14.386 12.974l-.899.771zM39.435 74.636c-4.496-5.395-9.12-9.378-13.873-11.818-6.423-3.34-12.845-3.726-19.011-1.028l-.514-1.156c6.551-2.698 13.23-2.312 20.039 1.156 4.88 2.57 9.634 6.552 14.258 12.075l-.9.771z" transform="translate(0 107) translate(329 74) translate(300.935 20.554) translate(0 84.785) translate(32.55) translate(10.276 8.992)"/>
                                <path d="M29.93 78.362c-4.111-4.368-8.35-7.58-12.589-9.25-5.395-2.184-10.79-2.055-16.056.386L.77 68.342c10.019-4.497 20.424-1.285 30.057 9.12l-.899.9z" transform="translate(0 107) translate(329 74) translate(300.935 20.554) translate(0 84.785) translate(32.55) translate(10.276 8.992)"/>
                            </g>
                        </g>
                    </g>
                </g>
                <g>
                    <path fill="#0561FC" d="M102.942 2.492C34.477 15.338-10.738 81.625 2.235 150.095c12.846 68.47 79.127 113.688 147.591 100.713 68.465-12.974 113.68-79.132 100.707-147.602-12.846-68.341-79.127-113.56-147.591-100.714z" transform="translate(0 107) translate(329 74) translate(113.395 65.078)"/>
                    <g fill="#7AC943">
                        <path d="M238.715 50.87l-6.808 21.197-11.047 39.951-15.8-20.553-14.9 14.644-15.414-18.37-7.45 14.26-5.138-.257-16.956-3.084 6.166 15.801 12.974 2.441-11.176 55.752-8.092 7.708-12.075-17.6-11.689-31.087-15.928 2.312-9.12-10.662 4.239-26.335 12.717-5.652 9.248 3.854 18.626-8.478-23.635-7.708-18.497.385-1.927-5.267 15.414-13.231-9.505-9.892 14.515-19.269 19.91 3.083 29.158-15.544S177.957 10.15 190.803 0c20.167 11.818 36.865 29.418 47.912 50.87zM30.238 26.592L25.485 40.08l-7.964 24.665c-.257.642 0 1.413.386 1.927l11.175 12.075c.514.514 1.284.642 1.798.642.642-.128 1.156-.642 1.413-1.156l5.01-13.36 17.983 15.03-23.507 30.702-15.8 4.497c-.77.256-1.284.77-1.412 1.541l-1.542 10.534c-.128.642.129 1.285.643 1.798l13.359 11.69-18.754-4.753-6.038-5.01C-4.829 92.235 6.603 54.34 30.238 26.592zM55.414 178.947l-15.028-19.27 6.55-28.004 39.435 24.15-17.34 63.718-8.35-12.076-5.01-27.619c.129-.385-.128-.642-.257-.9zM61.709 56.395L42.184 29.803c18.24-14.13 31.47-19.012 36.609-20.554l-.9 28.133L61.71 56.395z" transform="translate(0 107) translate(329 74) translate(113.395 65.078) translate(0 18.422)"/>
                    </g>
                </g>
                <g>
                    <path fill="#163F59" d="M51.047 8.864s-2.055-5.396-3.853-7.066c-1.67-1.67-3.982-2.183-5.139-.77-1.156 1.413-1.67 7.45 0 11.304 1.542 3.726 9.763-1.413 8.992-3.468zM29.981 12.59s1.156-7.195 2.44-8.35c1.285-1.157 2.313-2.056 3.469-2.185 1.156-.257 2.569 1.927 3.083 4.24.77 2.954.77 6.037-.257 6.937-1.156.899-8.35.513-8.735-.643z" transform="translate(0 107) translate(329 74) translate(182.76 46.246)"/>
                    <path fill="#212A54" d="M25.485 59.478s-7.964-13.489-5.01-20.426c2.955-6.937 6.68-12.846 6.68-12.846s-3.725-3.982-2.569-6.808c1.156-2.826 4.496-11.562 10.148-11.305 5.523.257 10.918 3.725 12.588 6.809 1.67 3.083-.128 29.417-.128 30.702-.129 1.156-19.14 20.682-21.709 13.874z" transform="translate(0 107) translate(329 74) translate(182.76 46.246)"/>
                    <path fill="#212A54" d="M64.535 22.224s-1.157-6.809-2.184-7.708c-4.753-4.24-8.735-6.423-12.075-7.58-3.34-1.155-5.652.9-7.321 1.928-1.799 1.028-2.441 3.982 0 7.45 2.44 3.47 6.68 7.066 5.78 9.121-.9 2.056-2.954 14.131-2.44 18.627.513 4.496 5.908 8.093 8.863 4.753 3.082-3.597 8.477-22.994 9.377-26.591z" transform="translate(0 107) translate(329 74) translate(182.76 46.246)"/>
                    <path fill="#F7B68B" d="M80.077 65.772s-1.541-8.093-1.156-11.047c.514-2.955.385-13.874-.642-18.37-1.028-4.368-2.955-18.113-2.44-20.683.513-2.44-3.854-1.284-3.854-1.284l-2.312.899L68.26 16.7l.128 2.312-1.028 1.156s.514 1.542 1.285 2.184c.77.643 2.826 1.156.9 14.26-.9 5.909-.643 6.294-.772 10.919-.256 4.624.771 10.405 1.285 14.644.642 4.24 8.735 7.194 10.02 3.597z" transform="translate(0 107) translate(329 74) translate(182.76 46.246)"/>
                    <path fill="#FD2227" d="M69.416 71.553s-.771-10.405.257-11.048c1.027-.642 3.34.129 6.68 1.028 3.21.9 4.366 2.184 4.752 6.809.257 4.753.899 15.158-6.166 19.397-6.936 4.368-5.523-16.186-5.523-16.186z" transform="translate(0 107) translate(329 74) translate(182.76 46.246)"/>
                    <path fill="#DD000B" d="M26.256 61.533S28.568 46.76 41.413 45.09c12.845-1.67 13.745-5.267 16.57 3.468 3.34 10.02 10.02 7.194 11.946 15.673 1.927 8.478 3.854 7.322 5.139 12.075 1.67 6.166 3.725 9.378-2.184 12.975-5.524 3.34-25.947 8.093-27.874 8.221-1.927.129-1.028-7.322-2.955-13.617-1.798-6.294-17.212-13.488-15.8-22.352z" transform="translate(0 107) translate(329 74) translate(182.76 46.246)"/>
                    <path fill="#F7B68B" d="M33.45 72.966s-2.184-5.652-3.084-8.093c-.899-2.44-3.982-9.635-6.037-13.103-2.055-3.468-8.992-10.92-10.02-13.103-1.027-2.184.643-5.139.772-7.065.128-1.927-3.597-2.955-4.625-3.084-1.027-.128-3.34.129-3.34.129l-2.055.385s-1.67 0-1.798.771c-.128.77-2.312.129-2.44.9-.129.77-1.157 2.825.513 3.082 1.67.257 3.34 1.157 3.468 2.056.129.899 0 3.083 2.184 4.624 2.184 1.542 2.184-.128 3.854 7.451 1.798 7.58 3.468 9.763 7.193 13.103 3.725 3.469 8.35 16.058 10.79 20.169 2.44 4.11 6.166-5.139 4.624-8.222z" transform="translate(0 107) translate(329 74) translate(182.76 46.246)"/>
                    <path fill="#FD2227" d="M45.267 97.63s-1.413-12.717-2.44-16.314c-1.028-3.597-8.093-11.048-8.093-11.048s-5.267 4.497-5.91 6.295c-.641 1.799-1.412 4.368-1.284 5.01 0 .514 5.91 12.975 17.727 16.058z" transform="translate(0 107) translate(329 74) translate(182.76 46.246)"/>
                    <path fill="#343E68" d="M56.956 43.805s2.697-5.78 3.982-11.947c1.413-6.166 3.211-9.377 1.156-13.103-2.055-3.725-4.239-4.11-7.193-3.34-2.955.771-2.056 3.212-3.597 3.983-1.541.77-1.285 2.569 1.413 2.44 2.569-.128 4.624.386 2.569 2.441-2.055 2.056-4.753 4.625-2.826 5.91 1.927 1.413 1.028 3.211.129 5.266-.9 2.056 5.266 3.212 4.367 8.35zM38.073 8.35s-.128.514-1.541 2.184c-1.413 1.67-1.028 1.156-3.34 1.284-2.312.129-.128 2.184 1.285 3.34 1.413 1.157-1.799.771-3.597 1.028s-1.541 3.34 2.312 3.982c3.982.514 6.68.129 5.395 1.927-1.413 1.927-3.211 5.139-4.752 8.864-1.542 3.854-6.937 7.323-.771 12.333 2.954 2.312 10.404-7.708 9.89-5.01-.513 2.697 5.396-9.121 5.91-13.232 1.155-7.58-1.799-6.68-3.212-8.093-1.413-1.413-2.697.642-3.211-2.312-.257-1.927-1.413-4.368-1.413-4.368L38.073 8.35z" transform="translate(0 107) translate(329 74) translate(182.76 46.246)"/>
                    <g>
                        <path fill="#212A54" d="M24.586 30.112s16.699 2.44 21.451 6.037c4.753 3.726-3.596 4.24-3.596 11.947-.129 7.58-3.34 27.234-8.478 16.186-5.138-11.047.257-15.672.385-10.148.129 5.395 4.368 19.654-11.175 19.012-15.543-.642-21.066-10.405-8.22-15.544C27.668 52.464-.078 71.476.436 61.2c.385-10.148 9.506-9.249 12.588-9.12 3.083 0-12.331 7.964-10.79-2.827 1.413-10.662 10.533-15.544 22.351-19.14z" transform="translate(0 107) translate(329 74) translate(182.76 46.246) translate(28.26 84.348)"/>
                        <path fill="#F7B68B" d="M33.835 28.955s-1.285-15.287 1.798-18.498c2.312-2.44 4.496-1.927 3.725-5.139C38.33.694 33.192-2.26 20.604 3.263c-3.597 1.542 5.395 2.44 2.184 19.14-1.542 8.35 11.047 6.552 11.047 6.552z" transform="translate(0 107) translate(329 74) translate(182.76 46.246) translate(28.26 84.348)"/>
                        <path fill="#EC9568" d="M34.605 12.255c-1.541 4.24-1.027 12.975-.899 15.801-2.184.386-4.496.642-6.422.642-2.698-.642-5.139-2.312-4.368-6.294.514-2.57.642-4.882.642-6.809 3.469-3.083 9.249-3.34 11.047-3.34z" transform="translate(0 107) translate(329 74) translate(182.76 46.246) translate(28.26 84.348)"/>
                        <path fill="#F7B68B" d="M14.053 53.235s-2.826-7.708-1.156-20.04c1.67-12.333 7.707-15.673 17.983-13.489C41.028 21.762 42.055 34.094 41.8 37.048c-.386 2.955 9.248 1.028 6.936 7.837-2.44 6.808-6.551 3.982-6.808 1.284-.385-2.697-2.055-6.294-4.239-4.11-2.312 2.055 1.67 12.974-3.211 11.047-5.138-1.927-13.488-4.496-20.424.129z" transform="translate(0 107) translate(329 74) translate(182.76 46.246) translate(28.26 84.348)"/>
                    </g>
                </g>
            </g>
            <g>
                <path fill="#F7B68B" d="M143.501 112.485c1.847-5.994 2.668-13.486 3.695-15.627 1.026-2.14 7.183-7.92 8.414-9.847 1.232-1.926 2.668-7.706 3.284-9.847.616-2.14-1.642-1.498-1.847 0-.205 1.499-.616-2.14-1.232-3.639-.41-1.498-2.462.642-2.873 1.07-.205.429-1.642 5.78-1.847 6.422-.205.643-2.052 3.425-2.258 1.713-.205-1.713-1.641-2.997-1.641 0s-.41 2.569-1.232 4.281c-.82 1.713-2.668 2.997-3.078 7.492-.41 4.496-4.516 13.486-9.03 22.477-4.105 8.777 7.798 1.284 9.645-4.495z" transform="translate(0 107) translate(36)"/>
                <path fill="#202954" d="M49.301 101.059s-14.833 3.42-16.74-2.78c-1.907-6.2 4.45-10.689-1.06-14.75-5.297-4.062-12.713-6.2-2.118-12.614 10.595-6.2.636-15.606 8.688-18.171 8.052-2.566 10.807 2.351 18.647.64 7.84-1.71 15.892-10.26 22.885-1.496 6.993 8.766 8.688 18.172 4.026 20.096-4.662 1.924 2.33 4.703 4.45 7.696 2.119 2.993 2.33 16.462-19.283 14.11-21.402-2.565-10.595 4.49-19.495 7.269z" transform="translate(0 107) translate(36)"/>
                <path fill="#0253A2" d="M63.301 107.071c1.294-2.96 4.96-4.018 9.705-2.115 23.507 9.517 50.895 34.26 50.895 34.26s1.078 6.132-3.882 7.401c-6.038 1.692-23.506-1.692-53.051-20.936-8.627-5.287-6.039-13.323-3.667-18.61z" transform="translate(0 107) translate(36)"/>
                <path fill="#F7B68B" d="M37 126.998s18.776 16.76 32.431 14.85c13.655-1.909 18.776-7 18.563-12.729-.214-5.728-3.414-15.699-7.255-17.184-3.84-1.485-7.68-2.758-11.948-6.577-3.414-2.97-5.547-10.183-6.188-16.123-.64-5.94 3.628-7.85-1.706-8.698-5.334-.849-4.481-4.031-8.535-1.697-4.054 2.333-7.254 1.697-5.547 5.728 2.987 7.637 7.68 17.82 5.334 24.397-2.774 7.213-6.828 10.608-15.149 18.033z" transform="translate(0 107) translate(36)"/>
                <path fill="#8DCFFF" d="M95.665 146.382c-4.496-9.55-8.992-19.313-13.488-28.864-1.07-2.122-2.141-4.032-3.212-5.518 4.925 24.195-26.119 18.89-27.404 8.702-3.425 6.155-14.772 14.432-14.558 15.28 2.57 11.037 6.209 21.861 8.778 32.897 1.07 4.67 4.496 8.49 8.135 10.825 0 .848 0 1.91.429 2.759l.856 5.518c1.07 4.457-2.783 21.436 0 21.011l39.607-8.065c2.784-.424 3.854-10.4 2.784-14.856l-1.927-22.497c0-.425-.214-.637-.428-1.062 1.712-5.093 2.569-11.248.428-16.13z" transform="translate(0 107) translate(36)"/>
                <path fill="#0253A2" d="M149 110.467c-2.927-4.907-6.273-5.12-11.082-7.467-7.945 9.813-17.563 24.96-25.09 36.053-2.718 4.053 1.882 8.107 4.809 9.6 5.018 2.347 12.963-7.68 18.609-16 5.227-7.893 11.29-15.36 12.754-22.186z" transform="translate(0 107) translate(36)"/>
                <path fill="#F7B68B" d="M47.775 60c-.428 0-.856 0-1.284.213.856 4.682-.642 11.28-4.495 17.666-.856 1.49-1.926 2.98-2.996 4.256l1.712 4.257c2.355 6.173 9.631 9.152 16.052 6.811 6.421-2.554 9.845-9.578 7.491-15.75l-3.638-9.365c-4.28-1.277-8.99-4.044-12.842-8.088z" transform="translate(0 107) translate(36)"/>
                <path fill="#0253A2" d="M48.56 114s-15.927 4.252-17.218 12.756c-1.722 11.268 3.443 20.623 6.887 26.788 4.09 7.229 7.317 17.221 12.913 26.363 6.672 11.056.646 25.513 2.152 22.749.215-.638 15.065-5.953 21.522-12.544 6.457-6.378-3.228-18.071-5.596-22.323-5.165-9.355-3.874-32.103-8.178-39.332C56.307 120.803 48.559 114 48.559 114zM89.883 120.595c-1.456-2.729-4.369-5.458-8.114-8.607-3.12-2.519-12.066-3.778-10.61-3.988.208 0 9.778 1.26 17.268 30.018 1.248 4.828 1.248 17.423 1.664 25.61.416 7.977 2.705 22.671 2.705 22.671s8.53-.63 9.154.63c.624 1.05-4.785-9.656-5.201-21.202-.832-27.709 0-32.537-6.866-45.132z" transform="translate(0 107) translate(36)"/>
                <path fill="#0253A2" d="M50.724 144.121c3.141-1.275 10.262-6.586 7.749-11.473-11.938-21.672-41.47-58.64-41.47-58.64s-6.282-.425-6.91 5.099c-.629 6.799 1.465 25.283 21.572 59.702 5.864 9.774 14.032 7.437 19.059 5.312z" transform="translate(0 107) translate(36)"/>
                <path fill="#F7B68B" d="M11.477 42.055S9.778 28.098 9.991 26.829c.212-1.269 1.062-1.903 2.76-4.441 1.488-2.538 1.7-3.172 2.975-5.075C16.788 15.198 17 14.986 17 14.986s-1.274-.423-1.912.212c-.637.634-1.486 2.326-2.124 2.96-.424.423.85-1.48 1.7-4.863 1.062-3.384 1.486-6.767 1.699-8.248V3.99c-.425-.212-.85-.212-1.062.211-.213.423-.637 1.692-.637 1.48-.213-.422 0-2.537 0-2.96 0-.423.212-.846.212-1.269 0-.634-.85-.634-1.487.212 0 0-.637 0-.85.423l-.424.423c-.213.211-.213.423-.213.634-.425.634-.85 1.269-1.062 1.903-.212.212-.85 2.75-1.062 2.75l.213-2.115c-.425 0-.85.211-1.062.423-.213.634-.425 1.691-1.062 4.229-.638 2.96-.638 3.595-2.55 7.19-1.698 2.96-1.486 4.23-.849 6.767 2.124 8.67-.212 23.897.425 26.434.425 2.115 6.584-8.67 6.584-8.67z" transform="translate(0 107) translate(36)"/>
                <path fill="#0253A2" d="M1.34 43.403c4.626-3.401 7.99-2.126 13.245-2.338 3.364 12.327 7.779 31.03 10.302 44.207C25.937 90.161 19.42 101 16.057 101c-5.466 0-9.88-22.529-11.773-32.306C2.602 59.555.08 50.204 1.341 43.403z" transform="translate(0 107) translate(36)"/>
                <path fill="#F7B68B" d="M85.92 288.11c-1.697-1.064-7.846 5.752-10.39 11.716-5.089 11.715-6.36 18.319-8.269 31.312-3.18 20.661-8.481 53.464-10.177 67.31-1.484 12.567-6.573 27.477.848 25.347-.212-17.253 7.845-43.24 12.297-56.872 15.69-46.648 21.203-75.404 15.69-78.812zM50.343 298.572c.638-3.397 1.276-6.581 2.127-9.765 2.34-4.67 4.468-7.006 5.957-6.794 5.958 1.486 11.277 28.022-7.233 91.072-.851 3.184-13.404 58.167-13.191 56.893 1.914-35.24 2.34-82.58 12.34-131.406z" transform="translate(0 107) translate(36)"/>
                <path fill="#0253A2" d="M36.535 434.514c-3.14 6.49-7.116 11.25-8.79 10.384-1.675-.865-.42-6.922 2.72-13.412 3.14-6.49 7.116-11.25 8.79-10.384 1.675.865.42 6.922-2.72 13.412z" transform="translate(0 107) translate(36)"/>
                <path fill="#F7B68B" d="M38.216 430.035c-1.803 5.086-5.408 8.689-7.21 7.841-1.802-.848-1.127-5.086 1.577-9.749 3.38-5.934 4.731-7.63 4.957-11.656.225-4.027 7.21-5.299.676 13.564zM70.675 420.199s-1.678-.657-6.293-1.75c-2.727-.438-4.824-.438-5.873-1.533-1.678-1.75-.63-6.127-1.469-5.908-3.775.875-5.244 10.285-2.936 11.598 2.307 1.094 14.893-.438 15.942-.438 1.258 0 1.049-2.188.63-1.97z" transform="translate(0 107) translate(36)"/>
                <path fill="#0253A2" d="M68.05 420c.632 3.5-8.65 2.25-10.971 1.25-2.32-1-3.798-1.25-3.798-1.25h-.21v.25c0 2-.634 4.75 1.898 4.75h16.878c13.502 0-3.798-5-3.798-5zM55.37 207.17s33.672-9.148 39.178-8.084c5.295 1.064 15.248 11.063 14.401 32.975-.847 21.912-20.754 85.522-20.754 85.522s-3.6-9.999-25.413 0-24.566 12.764-31.767 10.85c-7.2-1.915 26.26-61.057 26.26-63.823-.211-2.553-21.177-25.741-1.905-57.44z" transform="translate(0 107) translate(36)"/>
            </g>
            <g>
                <path fill="#FFF" d="M1.269 0H239V131.148H1.269z" transform="translate(0 107) translate(198 49)"/>
                <path fill="#9AC7F7" d="M1.269 0H239V21.929H1.269z" transform="translate(0 107) translate(198 49)"/>
                <path fill="#EAF4FE" d="M8.249 7.026H14.594000000000001V14.478H8.249zM20.516 7.026H26.860999999999997V14.478H20.516zM32.995 7.026H39.339999999999996V14.478H32.995z" transform="translate(0 107) translate(198 49)"/>
                <path fill="#B5D6F9" d="M19 59H200V69H19zM19 77H137V87H19z" transform="translate(0 107) translate(198 49)"/>
                <path fill="#FEC12F" d="M18 105H29V115H18z" transform="translate(0 107) translate(198 49)"/>
                <path fill="#B5D6F9" d="M33 105H82V115H33z" transform="translate(0 107) translate(198 49)"/>
                <path fill="#7AC943" d="M96 105H107V115H96z" transform="translate(0 107) translate(198 49)"/>
                <path fill="#B5D6F9" d="M111 105H154V115H111z" transform="translate(0 107) translate(198 49)"/>
                <path fill="#0561FC" d="M169 105H180V115H169z" transform="translate(0 107) translate(198 49)"/>
                <path fill="#B5D6F9" d="M183 105H226V115H183z" transform="translate(0 107) translate(198 49)"/>
                <path fill="#0561FC" d="M19 38H95V48H19z" transform="translate(0 107) translate(198 49)"/>
            </g>
            <g>
                <g>
                    <g>
                        <path fill="#136FB7" d="M209.358 32.984h-3.254c-1.05 0-1.89-1.053-1.89-2.21V6.779c0-1.263.84-2.21 1.89-2.21h3.254V.043H5.92C2.771.043.147 3.095.147 6.78v23.995c0 3.683 2.624 6.735 5.773 6.735h203.438v-4.525z" transform="translate(0 107) translate(178 223) translate(78 157) translate(0 54.366)"/>
                        <path fill="#06497D" d="M209.358 32.984h-3.254c-1.05 0-1.89-1.053-1.89-2.21V6.779c0-1.263.84-2.21 1.89-2.21h3.254V.043H103.86V37.51h105.498v-4.525z" transform="translate(0 107) translate(178 223) translate(78 157) translate(0 54.366)"/>
                        <path fill="#FFF" d="M204.215 30.774V6.779c0-1.263.84-2.21 1.889-2.21H5.92c-1.05 0-1.89 1.052-1.89 2.21v23.995c0 1.262.84 2.21 1.89 2.21h200.184c-.945 0-1.89-1.053-1.89-2.21z" transform="translate(0 107) translate(178 223) translate(78 157) translate(0 54.366)"/>
                        <path fill="#C5E1F9" d="M204.215 30.774V6.779c0-1.263.84-2.21 1.889-2.21H99.976c-1.05 0-1.89 1.052-1.89 2.21v23.995c0 1.262.84 2.21 1.89 2.21h106.128c-.945 0-1.89-1.053-1.89-2.21z" transform="translate(0 107) translate(178 223) translate(78 157) translate(0 54.366)"/>
                    </g>
                    <g>
                        <path fill="#EDB62E" d="M.147 26.31h2.729c.945 0 1.68-.842 1.68-1.789V5.578c0-.947-.735-1.79-1.68-1.79H.146V.21h173.416c2.73 0 4.934 2.421 4.934 5.368V24.52c0 2.947-2.204 5.367-4.934 5.367H.147V26.31z" transform="translate(0 107) translate(178 223) translate(78 157) translate(7.348 24.205)"/>
                        <path fill="#FCCC42" d="M.147 26.31h2.729c.945 0 1.68-.842 1.68-1.789V5.578c0-.947-.735-1.79-1.68-1.79H.146V.21H90.11v29.573H.147V26.31z" transform="translate(0 107) translate(178 223) translate(78 157) translate(7.348 24.205)"/>
                        <path fill="#C5E1F9" d="M4.556 24.521V5.578c0-.947-.735-1.79-1.68-1.79h170.686c.945 0 1.68.843 1.68 1.79V24.52c0 .947-.735 1.79-1.68 1.79H2.876c.945 0 1.68-.843 1.68-1.79z" transform="translate(0 107) translate(178 223) translate(78 157) translate(7.348 24.205)"/>
                        <path fill="#E4EEF3" d="M4.556 24.521V5.578c0-.947-.735-1.79-1.68-1.79h90.487c.945 0 1.68.843 1.68 1.79V24.52c0 .947-.735 1.79-1.68 1.79H2.876c.945 0 1.68-.843 1.68-1.79z" transform="translate(0 107) translate(178 223) translate(78 157) translate(7.348 24.205)"/>
                    </g>
                    <g>
                        <path fill="#C5E1F9" d="M178.181 5.578c-.945 4.736-1.364-7.999-1.364-2.842 0 5.894.63 11.471 1.784 16.628H42.556V5.473H178.18v.105z" transform="translate(0 107) translate(178 223) translate(78 157) translate(17.845)"/>
                        <path fill="#2E95D1" d="M178.181 5.578c-.21 1.052-.42 2.21-.525 3.262H54.943V5.578H178.18z" opacity=".2" transform="translate(0 107) translate(178 223) translate(78 157) translate(17.845)"/>
                        <path fill="#48BCB6" d="M37.097.631h142.659c.84 0 1.574.632 1.574 1.369v3.578h-65.503V19.47h65.503v3.578c0 .736-.734 1.368-1.574 1.368H37.097c-.84 0-1.574-.632-1.574-1.368V2.105c0-.842.734-1.474 1.574-1.474z" transform="translate(0 107) translate(178 223) translate(78 157) translate(17.845)"/>
                        <path fill="#65D6D4" d="M1.826.631h110.222c-.84 0-1.574.632-1.574 1.369v20.942c0 .737.734 1.369 1.574 1.369H1.826c-.84 0-1.574-.632-1.574-1.369V2C.357 1.263.986.63 1.826.63z" transform="translate(0 107) translate(178 223) translate(78 157) translate(17.845)"/>
                    </g>
                    <g>
                        <path fill="#F7F8FC" d="M3.254 5.052C4.2 9.787 4.62-2.947 4.62 2.21c0 5.894-.63 21.89-1.785 27.152H138.88V5.052H3.254z" transform="translate(0 107) translate(178 223) translate(78 157) translate(9.804 91.56)"/>
                        <path fill="#2E95D1" d="M3.254 5.052c.21 1.052.42 2.21.525 3.262h122.714V5.052H3.254z" opacity=".2" transform="translate(0 107) translate(178 223) translate(78 157) translate(9.804 91.56)"/>
                        <path fill="#FF3D0D" d="M144.338.105H1.785C.945.105.21.737.21 1.473v3.579h65.503v24.31H.21v3.578c0 .737.735 1.368 1.575 1.368h142.553c.84 0 1.575-.631 1.575-1.368V1.58c0-.842-.735-1.474-1.575-1.474z" transform="translate(0 107) translate(178 223) translate(78 157) translate(9.804 91.56)"/>
                        <path fill="#FF3D0D" d="M179.61.105H69.281c.84 0 1.575.632 1.575 1.368v31.362c0 .737-.735 1.368-1.575 1.368h110.222c.84 0 1.575-.631 1.575-1.368V1.473c0-.736-.63-1.368-1.47-1.368z" transform="translate(0 107) translate(178 223) translate(78 157) translate(9.804 91.56)"/>
                        <path fill="#C9300A" d="M179.61.105H69.281c.84 0 1.575.632 1.575 1.368V6.21h110.222V1.473c0-.736-.63-1.368-1.47-1.368z" transform="translate(0 107) translate(178 223) translate(78 157) translate(9.804 91.56)"/>
                    </g>
                    <path fill="#FF3D0D" d="M176.397 63.46L169.678 59.25 163.065 63.46 163.065 42.517 169.678 42.517 176.397 42.517z" transform="translate(0 107) translate(178 223) translate(78 157)"/>
                </g>
                <g>
                    <path fill="#FCCC42" d="M162.36 31.974L49.61.568c-4.51-1.26-9.23 1.366-10.488 5.987L.944 144.153c-1.259 4.517 1.363 9.243 5.978 10.504l112.646 31.3c4.51 1.261 9.23-1.365 10.488-5.987l38.178-137.597c1.258-4.517-1.364-9.138-5.874-10.399z" transform="translate(0 107) translate(178 223) translate(0 116)"/>
                    <path fill="#F9A918" d="M6.817 154.552l112.75 31.406c4.51 1.26 9.23-1.366 10.489-5.988l4.615-16.49L13.74 129.868c-4.51-1.26-9.23 1.366-10.489 5.987l-2.307 8.298c-1.259 4.412 1.363 9.138 5.873 10.399z" transform="translate(0 107) translate(178 223) translate(0 116)"/>
                    <path fill="#E19710" d="M45.1 143.313c-2.098-.63-4.3.63-4.93 2.836l-2.307 8.298c-.63 2.1.63 4.306 2.832 4.936l87.263 24.264c.944-.946 1.678-2.206 1.993-3.571l3.356-12.185L45.1 143.313z" transform="translate(0 107) translate(178 223) translate(0 116)"/>
                    <path fill="#FFF" d="M8.076 150.245c-2.098-.63-3.356-2.836-2.832-4.937l2.308-8.297c.629-2.101 2.831-3.362 4.93-2.836l116.525 32.456-3.356 12.184c-.63 2.1-2.832 3.361-4.93 2.836L8.076 150.245z" transform="translate(0 107) translate(178 223) translate(0 116)"/>
                    <path fill="#EAEAEC" d="M12.481 134.175c-2.098-.63-4.3.63-4.93 2.836l-1.258 4.411c.63-2.1 2.412-1.785 4.51-1.26l116.63 32.456 1.679-5.987-116.63-32.456z" transform="translate(0 107) translate(178 223) translate(0 116)"/>
                    <path fill="#136FB7" d="M22.235 167.051L15.313 162.324 6.922 162.745 11.747 145.414 19.404 147.514 27.06 149.72z" transform="translate(0 107) translate(178 223) translate(0 116)"/>
                    <path fill="#FFF" d="M99.214 19.995L101.42 19.994 101.405 59.015 99.2 59.016z" transform="translate(0 107) translate(178 223) translate(0 116) rotate(-74.449 100.31 39.505)"/>
                    <path fill="#FFF" d="M92.604 15.32L96.7 15.319 96.667 104.895 92.571 104.896z" transform="translate(0 107) translate(178 223) translate(0 116) rotate(-74.46 94.636 60.107)"/>
                    <path fill="#FFF" d="M89.867 32.927L93.962 32.925 93.935 106.139 89.839 106.14z" transform="translate(0 107) translate(178 223) translate(0 116) rotate(-74.46 91.9 69.533)"/>
                </g>
                <g>
                    <g>
                        <path fill="#EC9568" d="M3.987 13.198s-2.308-1.052-1.889-1.368c.525-.42 2.099.21 3.567.632 1.784.315-1.259.526-1.678.736zM94.109 13.514s3.777-1.79 3.252-2c-.525-.315-1.993.421-3.567.842-1.574.527-.105 1.053.315 1.158z" transform="translate(0 107) translate(178 223) translate(46 35) translate(0 39.991)"/>
                        <path fill="#EC9568" d="M92.955 14.461s3.672-1.052 3.462-1.368c-.21-.42-1.784 0-3.148.105-1.573.106-.63.947-.314 1.263z" transform="translate(0 107) translate(178 223) translate(46 35) translate(0 39.991)"/>
                        <path fill="#FFD463" d="M72.706 8.147s-.63 10.313-5.35 8.735c-4.722-1.474-.84-10.945 5.35-8.735z" transform="translate(0 107) translate(178 223) translate(46 35) translate(0 39.991)"/>
                        <path fill="#F7B68B" d="M59.382 6.252s5.246-3.262 14.793-.21c9.442 3.052 14.373 7.262 16.262 6.735 1.888-.526 5.98-3.157 7.029-3.262 1.049 0-3.777 4.21-5.875 6.42-1.154 1.262-1.994 2.736-2.308 4.104-.315 1.158-.84 2.21-1.47 2.631-.524.42-.21-1.368-.21-2.736s.735-2.42-1.888-3.157c-2.413-.737-11.855-2.105-15.422-2.421-3.567-.316-13.01-.947-16.577-.21-3.357.736 3.987-7.578 5.666-7.894zM36.51.99S27.802.675 20.878 4.148c-7.03 3.473-11.12 6.525-12.485 7.05-1.469.527-1.574.843-4.616 1.474-1.679.421-2.098-.526-3.357.105-.63.316 1.364 1.263 2.413 1.684 1.049.316 2.518.105 3.252 1.474.63 1.368 1.154 1.683.84 3.262-.315 1.579.314 1.473 1.049.842.629-.631 2.727-2.42 2.937-3.262.21-.842 1.26-.948 4.092-2.21 2.308-1.053 7.449-2.737 18.57-2.632 11.54.316 4.511-10.84 2.937-10.945z" transform="translate(0 107) translate(178 223) translate(46 35) translate(0 39.991)"/>
                        <path fill="#387BFF" d="M63.369 3.621s7.134.21 7.553.316c.525.105-2.098 6.315-2.098 8.946 0 1.683-.524 3.683.735 3.788 1.363.106-4.302.947-5.77 1.895-1.47 1.052-2.729 9.682-1.89 18.101.84 8.42 6.4 12.734-3.252 13.26-9.652.527-13.848 3.263-21.717-.736-7.869-4.105-7.24-5.368-9.547-3.684-2.413 1.579 4.091-6.525 5.665-13.155 1.574-6.63 4.197-13.786 4.092-15.155 0-1.368-1.364-1.683-4.826-3.788 0 0 .315-6.946 1.049-12.313.21-1.368 4.092-.948 6.82-1.053 3.462-.315 20.353 4.315 23.186 3.578z" transform="translate(0 107) translate(178 223) translate(46 35) translate(0 39.991)"/>
                        <path fill="#0063CB" d="M54.66 23.196c3.358 3.052 3.043 3.157 3.778-.947.734-4.21 1.259-5.157 4.616-7.367 2.203-1.473 4.406-2.42 5.665-2.947 0 .316-.105.527-.105.842 0 1.684-.524 3.684.735 3.789 1.364.105-4.302.947-5.77 1.894-1.47 1.053-2.728 9.682-1.89 18.102.63 7.05 4.827 11.26.21 12.734-.104-.105-.104-.21-.21-.316-2.202-3.578-7.238-.737-6.609-2.947.525-2.104-4.511-5.577-.944-5.156 3.462.42 2.098-5.683-.525-11.261-2.413-5.473-2.308-9.472 1.05-6.42z" transform="translate(0 107) translate(178 223) translate(46 35) translate(0 39.991)"/>
                        <g>
                            <path fill="#F7B68B" d="M16.157 38.413s0 2 .21 3.578c.21 1.473-.21 3.052-1.05 3.789-.734.736-5.035 1.473-6.294 3.262-1.26 1.79-4.826 4-5.036 3.263-.21-.737-1.05-4-.735-5.789.21-1.789 3.253-4.315 4.931-6.314 1.679-2.105 6.4-4.63 7.974-1.79zM59.067 40.202s-1.259 3.789.525 4.525c1.783.737 4.511 1.79 6.295 3.578 1.783 1.79 5.245 4.315 7.029 3.052 1.783-1.262.524-4.84.21-6.84-.21-2-4.512-3.263-5.98-5.578-1.47-2.315-8.604-3.368-8.079 1.263z" transform="translate(0 107) translate(178 223) translate(46 35) translate(0 39.991) translate(17.836 41.403)"/>
                            <path fill="#AEBDDC" d="M21.927 5.157C16.157 2.84 11.226.63 7.03.947c-3.252.21-6.714.947-5.14 5.157 1.678 4.21 3.567 11.576 20.248 12.418 13.43.632 14.373 0 20.458-2.104 4.197-1.369 7.45 10.208 11.646 17.47 4.197 7.261 2.413 6.524 5.35 7.261 3.463.947 7.03.21 9.023-2.736.42-.632-9.757-30.415-12.275-33.467-2.518-3.052-8.603-7.893-19.304-1.684C26.334 9.577 24.13 6 21.927 5.157z" transform="translate(0 107) translate(178 223) translate(46 35) translate(0 39.991) translate(17.836 41.403)"/>
                            <path fill="#D1DBEA" d="M14.898 12.84s-.525 2.84.21 6.209c1.783 8.735 2.308 20.521 2.308 20.521s-7.659 2.21-9.233.632C6.505 38.518 0 13.576 0 10.314 0 7.05 0 0 6.295 2.84c6.295 2.737 8.918 7.473 8.603 9.998z" transform="translate(0 107) translate(178 223) translate(46 35) translate(0 39.991) translate(17.836 41.403)"/>
                            <path fill="#AEBDDC" d="M17.416 39.57s-.63-11.681-2.308-20.521c-.63-3.368-.21-6.21-.21-6.21.21-2.104-1.364-9.471-7.869-10.208-1.783.526 3.777 3.473 1.784 12.313-1.784 7.577 3.147 19.154 5.455 25.363 1.784-.316 3.148-.737 3.148-.737z" transform="translate(0 107) translate(178 223) translate(46 35) translate(0 39.991) translate(17.836 41.403)"/>
                            <path fill="#D1DBEA" d="M65.362 40.307c-.63-3.052-2.203-5.999-2.203-5.999s-7.03-17.259-8.079-19.68c-1.993-5.051-1.993.632-3.042 1.474-1.26 1.052-1.26-2.526-2.728-5.262-1.469-2.736-7.03-1.263-8.288.736-1.26 2 3.777 1.58 5.14 6.525 2.623 3.368 5.141 10.63 8.079 15.681 4.197 7.262 8.918 6.63 11.12 6.525z" transform="translate(0 107) translate(178 223) translate(46 35) translate(0 39.991) translate(17.836 41.403)"/>
                        </g>
                    </g>
                    <g>
                        <path fill="#F7B68B" d="M16.094 33.3s2.937 6.735 1.783 9.576c-2.203 5.262 1.469 14.944 12.905 3.789 1.888-1.894-7.554-6.21-6.085-11.787 1.469-5.788-8.603-1.579-8.603-1.579z" transform="translate(0 107) translate(178 223) translate(46 35) translate(27.97)"/>
                        <path fill="#EC9568" d="M14.94 33.825s2.622 1.158 3.462 9.683c0 0 5.35.105 6.82-4.42-.63-1.158-.945-2.526-.525-4.315 1.469-5.683-9.757-.948-9.757-.948z" transform="translate(0 107) translate(178 223) translate(46 35) translate(27.97)"/>
                        <path fill="#202954" d="M14.94 30.774s-8.603 2-9.757-1.684c-1.155-3.579 2.622-6.21-.525-8.525-3.147-2.315-7.344-3.683-1.154-7.261 6.19-3.684.315-9.051 5.036-10.525 4.721-1.473 6.295 1.369 10.806.421 4.511-1.052 9.233-5.893 13.324-.947 3.987 5.052 5.036 10.524 2.413 11.577-2.728 1.157 1.364 2.63 2.623 4.42 1.26 1.789 1.364 9.577-11.226 8.103-12.59-1.262-6.295 2.947-11.54 4.42z" transform="translate(0 107) translate(178 223) translate(46 35) translate(27.97)"/>
                        <path fill="#F7B68B" d="M26.9 12.462s2.833 4.84 3.252 13.365c.315 8.525-3.357 11.577-10.491 11.366-7.134-.21-9.338-8.42-9.443-10.419-.104-2.104-6.4.421-5.56-4.42.84-4.946 3.882-3.473 4.511-1.684.63 1.79 2.099 4 3.358 2.316 1.259-1.684-2.623-8.63.839-7.893 3.357.526 9.442 1.368 13.534-2.631z" transform="translate(0 107) translate(178 223) translate(46 35) translate(27.97)"/>
                    </g>
                </g>
                <g>
                    <g>
                        <path fill="#212A54" d="M7.363 61.459c1.262.946 5.048 5.048 14.094 2.313 9.15-2.84 9.887-9.885 23.456-9.464 13.568.42 22.088-3.892 23.455-15.67 1.262-11.673 7.573-9.255 14.305-16.721C89.404 14.555 84.25-2.587 63.109.778c-13.148 2.104-17.67 2.314-28.4 20.297-10.938 18.299-18.09 7.993-27.977 13.987-9.993 5.995-7.048 20.508.63 26.397z" transform="translate(0 107) translate(178 223) translate(134) translate(0 8.056)"/>
                        <path fill="#F7B68B" d="M84.356 36.85c-.421 2.945-1.789 5.153-3.892 5.994-2.84 1.052-6.311-.63-9.256-4.206.105 0 .105 0 .21-.105 3.997-1.262-.21-7.888-2.314-10.832-2.103-2.945 8.94-.421 8.94-.421s-1.682 3.68.211 6.73c1.052 1.683 3.366 2.21 6.1 2.84z" transform="translate(0 107) translate(178 223) translate(134) translate(0 8.056)"/>
                        <path fill="#EC9568" d="M78.991 34.957c-2.419-.315-4.733-.946-6.836-1.788-.842-1.998-2.21-3.996-3.156-5.258-2.104-2.945 8.94-.42 8.94-.42s-1.682 3.68.21 6.73c.316.21.527.42.842.736z" transform="translate(0 107) translate(178 223) translate(134) translate(0 8.056)"/>
                        <path fill="#F7B68B" d="M69.315 2.882s26.82 20.822 7.362 25.975c-7.888 2.104-9.782-.946-11.464-2.839-1.683-1.893-2.946 2.734-5.26-1.472-2.314-4.207-.841-4.628 1.999-3.366s3.26-.105 2.209-3.47c-1.052-3.365-4.418-2.945 1.683-5.363 6.205-2.314 7.573-5.47 3.47-9.465z" transform="translate(0 107) translate(178 223) translate(134) translate(0 8.056)"/>
                    </g>
                    <g>
                        <path fill="#F7B68B" d="M70.093 98.224c-.105-.63-.315-2.313-.315-2.734 0-.42-3.26-.736-3.576.947-.316 1.577-.947 5.679-.947 6.94 0 1.263 1.157 2.104 2.209 2.945.946.947 2.734-7.677 2.63-8.098zM76.72 140.501s.42 1.052-.947 2.734c-1.472 1.683-2.42 3.26-1.472 5.153.841 1.893 2.419 2.63 3.47 7.152.421 1.682 2.42 3.26 3.366 1.682 1.894-3.155 2.314-4.942 1.683-5.889-.63-.946-3.47-3.996-2.945-6.1.631-2.103-3.155-4.732-3.155-4.732z" transform="translate(0 107) translate(178 223) translate(134) translate(12.264)"/>
                        <path fill="#EC9568" d="M8.247 47.535L5.09 49.112s-4.418.42-4.838 1.157c-.421.736 3.576.526 3.576.526l5.049-.947-.631-2.313z" transform="translate(0 107) translate(178 223) translate(134) translate(12.264)"/>
                        <path fill="#EC9568" d="M8.562 49.112L5.407 50.69s-4.418.42-4.839 1.157c-.42.736 3.576.42 3.576.42l5.05-.946-.632-2.209zM10.035 46.168l-3.156 1.577s-4.417.42-4.838 1.157c-.42.736 3.576.42 3.576.42l5.049-.946-.631-2.208z" transform="translate(0 107) translate(178 223) translate(134) translate(12.264)"/>
                        <path fill="#F7B68B" d="M16.24 44.8s-1.577-2.208-5.574-1.156c-4.102 1.051-7.047 2.734-4.208 2.629 2.84-.21 1.789-.316 1.052 2.419L6.67 51.32s-2.735 1.262-3.471 1.893c-.842.63-.42 1.472-.42 1.472l4.837-1.683s3.471-2.629 4.734-2.944c1.262-.316 4.628.105 4.628.105L16.24 44.8z" transform="translate(0 107) translate(178 223) translate(134) translate(12.264)"/>
                        <path fill="#EC9568" d="M90.814 7.151l2.63-2.313S95.442.84 96.284.63c.84-.105-.842 3.47-.842 3.47l-2.63 4.417-1.998-1.367z" transform="translate(0 107) translate(178 223) translate(134) translate(12.264)"/>
                        <path fill="#EC9568" d="M92.181 7.887l2.63-2.418s1.998-3.997 2.84-4.207c.841-.105-.842 3.47-.842 3.47L94.18 9.15l-1.998-1.262zM88.92 8.308l2.63-2.314s1.999-3.996 2.84-4.206c.842-.105-.841 3.47-.841 3.47l-2.63 4.417-1.998-1.367z" transform="translate(0 107) translate(178 223) translate(134) translate(12.264)"/>
                        <path fill="#F7B68B" d="M86.922 12.935s-2.209-2.84-.63-5.048c2.418-3.47 5.153-5.573 3.996-3.05-1.157 2.525-.947 1.578 1.893 1.788l2.84.21s2.104-2.103 2.945-2.628c.842-.526 1.473.105 1.473.105l-3.366 4.101s-3.681 2.314-4.418 3.366c-.736 1.051-4.838 3.785-4.838 3.785l.105-2.629z" transform="translate(0 107) translate(178 223) translate(134) translate(12.264)"/>
                        <path fill="#0E2537" d="M70.409 120.835s-3.156.526-3.892-9.36c-.841-9.885.316-14.512 2.209-14.723 1.998-.21 5.785 3.786 5.785 14.408-.105 10.727-2.84 8.623-4.102 9.675zM85.029 107.69c-1.157 5.468-3.366 16.405-5.049 20.822-2.209 5.89-3.366 10.937-3.891 15.039-.316 2.208 1.262 5.889 3.68 2.734 2.42-3.155 6.943-12.41 8.31-16.826 1.368-4.417 9.256-23.663 8.836-30.393-.316-4.207-9.256-9.15-12.096-6.31-1.894 1.788 2.103 6.415.21 14.933z" transform="translate(0 107) translate(178 223) translate(134) translate(12.264)"/>
                        <path fill="#0E2537" d="M86.712 95.175s-7.784 18.72-9.361 23.452c-1.578 4.732-2.945 5.258-5.26 4.942-2.418-.42-3.68-2.313-4.101-3.996-.421-1.683 7.678-28.815 7.678-29.762 0-1.157 10.308 2.524 11.044 5.364z" transform="translate(0 107) translate(178 223) translate(134) translate(12.264)"/>
                        <path fill="#3A395B" d="M74.3 112.527c1.473-3.47 6.101-14.934 8.52-20.612-3.155-1.683-7.152-2.84-7.152-2.209 0 .631-3.681 13.356-5.995 21.98-.632 2.313-.947 13.671 4.628.841z" transform="translate(0 107) translate(178 223) translate(134) translate(12.264)"/>
                        <path fill="#3A395B" d="M74.932 88.654s17.986 1.157 21.457 0c3.47-1.156 1.683 11.463-2.735 22.716-4.418 11.253-8.204 21.875-8.625 15.354-.42-6.415 2.209-23.03 1.683-28.184-.105-1.052 4.102-3.365 3.47-4.207-.735-.841-7.572.316-8.519-.315-2.84-1.998-6.1-3.47-6.731-5.364z" transform="translate(0 107) translate(178 223) translate(134) translate(12.264)"/>
                        <path fill="#FCCC42" d="M72.828 79.82s3.155 4.523 2.84 9.886c-.316 5.364 21.352-.736 21.562 1.262.21 1.998 2.42-8.203-2.524-20.297-4.839-12.199-18.617.21-21.878 9.15zM72.092 42.592s2.524-11.568 5.259-17.563c2.734-5.994 7.573-13.881 7.573-13.881s3.786 0 4.312 2.944c.526 2.945-.946 3.26-2.945 9.15-1.998 5.784-6.626 19.455-3.892 25.765 2.63 6.415-9.887-5.784-10.307-6.415z" transform="translate(0 107) translate(178 223) translate(134) translate(12.264)"/>
                        <path fill="#FFDC68" d="M51.476 51.741s5.89-4.522 8.1-5.679c2.208-1.051 9.57 1.788 10.097 2.735.946 1.577-2.21-6.52-2.21-6.52l6.838-1.999s7.257 4.417 15.672 16.406c8.414 11.989 10.413 13.987 10.623 16.721 0 0 .21-3.05-7.573-1.787-6.627 1.051-10.203 1.367-16.514 9.36-11.254 14.302-6.836 2.839-9.36-3.156-2.104-4.837-5.26-8.518-7.784-10.411-2.63-1.893 1.893-8.098-7.889-15.67z" transform="translate(0 107) translate(178 223) translate(134) translate(12.264)"/>
                        <path fill="#FCCC42" d="M52.738 51.952s-14.935-2.945-19.774-4.207c-4.838-1.262-17.986-4.943-17.986-4.943s-.526 5.68.316 7.046c.841 1.262 22.509 8.834 32.29 11.358 9.782 2.524 12.201 7.993 12.622 5.574.316-2.524-.526-9.36-7.468-14.828z" transform="translate(0 107) translate(178 223) translate(134) translate(12.264)"/>
                        <path fill="#3A395B" d="M69.041 99.066s-.525 4.101-.525 6.205c0 1.998 1.157-1.157 3.05-2.735 1.998-1.577-2.84-5.679-2.525-3.47z" transform="translate(0 107) translate(178 223) translate(134) translate(12.264)"/>
                    </g>
                </g>
            </g>
        </g>
    </g>
</svg>
