<svg xmlns="http://www.w3.org/2000/svg" xmlns:xlink="http://www.w3.org/1999/xlink" width="202" height="44" viewBox="0 0 202 44">
    <defs>
        <path id="prefix__a" d="M0 0.761L42.331 0.761 42.331 43.214 0 43.214z"/>
        <path id="prefix__c" d="M0.295 0.105L8.8 0.105 8.8 13.762 0.295 13.762z"/>
    </defs>
    <g fill="none" fill-rule="evenodd">
        <g transform="translate(0 .025)">
            <mask id="prefix__b" fill="#fff">
                <use xlink:href="#prefix__a"/>
            </mask>
            <path fill="#f59730" d="M13.394 15.027c-.055-.165-.092-.284-.135-.4-.44-1.198-1.574-1.902-2.815-1.75-1.245.15-2.101 1.027-2.275 2.315-.046.343-.067.686-.067 1.032.001 4.377.002 8.754 0 13.13 0 .417.032.828.134 1.232.328 1.3 1.5 2.215 2.792 2.177 1.353-.039 2.403-.974 2.657-2.358.098-.536.104-1.078.11-1.618.018-2.13.025-4.261.04-6.392.008-.97.143-1.922.383-2.866.364-1.43.914-1.972 2.613-2.096 1.314-.097 2 .579 2.088 1.904.214 3.245.063 6.494.126 9.74.011.603.063 1.196.238 1.773.385 1.261 1.475 2.016 2.735 1.902 1.42-.128 2.443-1.045 2.615-2.361.182-1.388.097-2.783.105-4.176.01-1.703-.04-3.409.098-5.11.045-.563.15-1.118.292-1.663.354-1.355 1.987-2.294 3.334-1.932.753.203 1.206.806 1.208 1.64.004 2.166-.008 4.332.001 6.497.008 1.576.024 3.152.257 4.72.36 2.42 1.838 3.833 4.273 4.064 1.205.114 2.404.118 3.603-.066.123-.02.248-.02.38-.029.012.194-.116.292-.2.406-2.719 3.765-6.348 6.28-10.77 7.544-7.55 2.16-14.33.52-20.23-4.609-3.741-3.254-5.913-7.46-6.71-12.355C-1.527 14.267 5.74 3.63 16.698 1.24 26.278-.85 36.192 4.056 40.33 12.958c1.673 3.595 2.292 7.379 1.875 11.33-.195 1.853-.645 3.64-1.352 5.364-.113.277-.221.319-.464.159-.503-.333-1.057-.398-1.649-.317-.613.083-1.23.143-1.848.182-.783.048-1.096-.208-1.2-.993-.057-.443-.079-.895-.08-1.343-.012-2.845-.012-5.69-.015-8.534-.001-.524.065-.585.584-.629.606-.051 1.21-.12 1.803-.262.982-.235 1.518-.785 1.646-1.705.124-.896-.355-1.812-1.166-2.247-.492-.266-1.03-.295-1.569-.314-.31-.012-.62-.017-.93-.002-.269.013-.365-.098-.365-.361.001-.75-.011-1.498-.02-2.246-.007-.794.011-1.594-.125-2.378-.324-1.857-2.59-2.889-4.218-1.933-.982.576-1.473 1.45-1.497 2.589-.023 1.093-.052 2.188-.063 3.282-.003.222-.059.29-.288.29-2.118-.01-3.91.765-5.39 2.281-.118.122-.198.27-.382.03-1.343-1.744-3.176-2.365-5.304-2.296-1.794.06-3.34.727-4.677 1.912l-.242.21" mask="url(#prefix__b)"/>
        </g>
        <path fill="#f59730" d="M51.708 17.653c.887.098 1.777.04 2.664.034.388-.001.555.09.517.507-.034.371-.007.748-.007 1.162.274-.07.385-.287.54-.437 1.32-1.261 2.868-1.744 4.66-1.378 1.006.206 1.81.747 2.366 1.61.226.35.335.317.593.032.97-1.077 2.147-1.745 3.637-1.754 2.68-.017 4.28 1.432 4.347 4.124.077 3.054.025 6.111.038 9.167 0 .242-.051.351-.321.347-.944-.014-1.89-.022-2.832.002-.417.011-.346-.248-.346-.49-.001-2.341.003-4.682-.004-7.023-.002-.66.01-1.32-.121-1.975-.216-1.082-1.032-1.649-2.113-1.422-1.043.218-1.686.877-1.962 1.896-.15.553-.221 1.121-.222 1.695-.007 2.27-.02 4.54-.007 6.809.003.387-.077.53-.494.513-.853-.034-1.71-.031-2.564 0-.39.013-.464-.122-.462-.485.015-2.376.007-4.753.007-7.13 0-.626-.01-1.25-.105-1.872-.143-.94-.717-1.448-1.671-1.461-1.484-.021-2.477 1.019-2.614 2.734-.183 2.284-.05 4.573-.091 6.859-.008.426.138.99-.077 1.243-.254.3-.835.085-1.273.097-.694.018-1.388.004-2.083.004V17.653zM93.044 19.468c.445-.445.787-.8 1.184-1.091 1.9-1.394 4.556-1.259 6.02.291.24.253.347.763.674.741.253-.016.471-.444.72-.673 1.328-1.22 2.888-1.563 4.613-1.16 1.765.413 2.851 1.715 2.915 3.802.096 3.124.037 6.254.055 9.381.002.292-.14.307-.362.306-.89-.007-1.78-.022-2.67.005-.375.011-.479-.102-.476-.477.016-2.34.012-4.682.005-7.022-.002-.66.009-1.321-.12-1.976-.218-1.107-1.054-1.673-2.153-1.428-1.018.228-1.645.88-1.92 1.874-.152.551-.224 1.12-.226 1.695-.007 2.269-.022 4.539-.004 6.808.003.428-.116.544-.534.528-.818-.033-1.638-.032-2.457-.001-.407.015-.538-.086-.535-.522.02-2.537.012-5.075 0-7.612-.002-.463-.042-.928-.106-1.387-.122-.893-.693-1.391-1.59-1.426-1.473-.056-2.51.944-2.67 2.611-.062.64-.096 1.284-.1 1.925-.013 1.966-.015 3.932.004 5.898.003.381-.063.533-.488.515-.835-.037-1.674-.034-2.51-.001-.402.016-.52-.098-.503-.502.03-.821.009-1.644.009-2.466 0-3.288.006-6.576-.007-9.864-.002-.397.066-.577.519-.554.764.04 1.53.025 2.296.005.332-.008.44.11.422.435-.022.401-.005.804-.005 1.342M166.814 19.441c.934-1.046 1.93-1.715 3.19-1.952 2.304-.434 4.497.739 5.104 2.753.182.604.251 1.228.255 1.852.016 2.86.01 5.72.023 8.58.002.296-.071.402-.382.394-.855-.02-1.711-.03-2.564.004-.435.017-.572-.093-.568-.551.02-2.485.004-4.97-.001-7.454-.001-.215-.01-.43-.02-.643-.055-1.322-.496-1.971-1.511-2.224-1.157-.288-2.41.195-2.98 1.157-.413.7-.521 1.481-.53 2.27-.019 2.305-.024 4.611-.005 6.917.003.43-.119.544-.535.528-.818-.033-1.639-.033-2.457-.001-.411.016-.537-.09-.534-.523.02-2.967.01-5.934.01-8.902 0-2.842.009-5.684-.01-8.526-.002-.409.114-.515.51-.502.854.03 1.71.026 2.565.002.355-.01.45.106.447.455-.016 1.948-.007 3.896-.007 5.844v.522zM142.348 25.778c0-.311-.005-.56.002-.81.004-.177-.043-.28-.244-.215-1.131.365-2.337.46-3.442.92-1.115.463-1.374 1.69-.566 2.586.497.55 1.134.745 1.838.611 1.473-.281 2.5-1.084 2.412-3.092m4.173 5.283c-1.132 0-2.194-.004-3.254.003-.217.001-.261-.137-.311-.296-.11-.353-.224-.704-.339-1.062-.23.042-.335.224-.481.344-1.651 1.346-3.497 1.7-5.506 1.023-1.496-.504-2.432-1.86-2.489-3.469-.058-1.633.772-2.972 2.253-3.62 1.334-.583 2.78-.726 4.176-1.071.5-.124.993-.276 1.488-.418.137-.04.252-.084.292-.263.203-.885-.368-1.812-1.25-2.002-.42-.09-.845-.117-1.275-.107-.94.022-1.653.403-1.998 1.318-.119.312-.263.383-.592.31-.78-.173-1.57-.31-2.362-.425-.34-.05-.342-.173-.251-.458.692-2.178 2.25-3.213 4.442-3.397 1.101-.092 2.208-.091 3.3.107 2.282.414 3.303 1.566 3.386 3.897.05 1.427.002 2.858.006 4.287.001.893-.007 1.787.035 2.679.042.897.316 1.746.73 2.62M77.328 24.427c-.01.83.08 1.647.483 2.386.582 1.062 1.458 1.68 2.703 1.69 1.247.01 2.182-.57 2.71-1.66.76-1.574.769-3.223.031-4.807-.53-1.142-1.486-1.744-2.78-1.717-1.266.027-2.139.667-2.703 1.769-.376.733-.451 1.53-.444 2.34m10.023-.058c-.024 3.44-2.032 6.182-5.18 6.836-2.639.548-5.067.008-6.903-2.09-2.66-3.039-2.241-10.207 3.577-11.522 4.073-.92 7.682 1.42 8.398 5.498.074.42.074.852.108 1.278M184.155 23.253c.747 0 1.494-.007 2.24.004.253.004.328-.076.33-.337.007-1.537-1.14-2.792-2.574-2.796-1.442-.005-2.587 1.229-2.596 2.768-.001.285.084.37.361.365.746-.014 1.493-.004 2.24-.004m5.85 4.177c-.688 2.255-2.474 3.712-4.88 3.923-1.775.156-3.496-.05-4.957-1.215-1.347-1.074-1.96-2.558-2.191-4.213-.201-1.446-.13-2.89.31-4.294.697-2.238 2.71-4.416 6.203-4.201 2.708.166 4.766 1.909 5.417 4.716.21.909.271 1.833.32 2.762.024.434-.123.538-.537.535-2.546-.017-5.092.006-7.639-.02-.529-.006-.616.143-.527.64.314 1.744 1.364 2.716 2.927 2.665.976-.031 1.606-.55 1.918-1.433.144-.405.33-.45.703-.375.958.188 1.924.337 2.933.51M126.102 23.253c.764 0 1.528.002 2.292-.002.166 0 .35.053.364-.243.046-1.012-.625-2.22-1.532-2.641-.853-.396-1.699-.342-2.48.194-.849.584-1.138 1.464-1.196 2.449-.016.292.2.24.367.241.729.004 1.456.002 2.185.002m1.768 2.182c-1.299 0-2.6.012-3.898-.008-.382-.007-.48.107-.451.488.126 1.712 1.382 2.897 3.007 2.81.978-.054 1.567-.611 1.884-1.487.103-.285.213-.406.531-.346.873.167 1.749.326 2.629.445.45.06.45.227.293.585-.949 2.155-2.612 3.277-4.925 3.449-.799.059-1.601.031-2.39-.146-2.505-.566-4.145-2.397-4.53-5.07-.217-1.5-.189-2.994.26-4.453.882-2.875 3.2-4.433 6.306-4.26 2.746.154 4.81 2.046 5.387 4.942.172.86.234 1.73.248 2.607.005.36-.11.455-.454.45-1.298-.017-2.597-.006-3.897-.006M152.058 24.268c-.012.844.053 1.68.347 2.48.51 1.39 1.916 2.079 3.332 1.65.949-.288 1.39-1.012 1.59-1.91.095-.422.263-.536.687-.445.799.173 1.609.297 2.417.422.351.053.47.156.363.552-.753 2.764-2.753 4.315-5.608 4.373-1.894.039-3.602-.374-4.96-1.795-.863-.905-1.357-1.993-1.588-3.214-.308-1.625-.273-3.237.225-4.818.757-2.402 2.748-3.958 5.251-4.114 1.162-.073 2.313-.015 3.42.407 1.629.623 2.542 1.881 3.086 3.473.074.222.061.358-.227.405-.93.152-1.857.326-2.782.506-.251.049-.332-.041-.405-.275-.37-1.183-1.03-1.71-2.134-1.748-1.303-.044-2.237.519-2.673 1.628-.092.23-.153.475-.211.717-.137.561-.126 1.135-.13 1.706M116.372 24.234c0 1.054-.014 2.11.004 3.164.012.838.46 1.177 1.293 1.02.157-.03.324-.045.465-.114.457-.221.642-.094.666.418.03.623.108 1.246.188 1.866.029.227-.053.323-.252.391-1.312.449-2.64.6-3.982.17-1.132-.362-1.658-1.211-1.803-2.357-.144-1.14-.092-2.285-.1-3.428-.009-1.465-.012-2.931.005-4.397.004-.341-.081-.456-.44-.456-1.17 0-1.17-.016-1.17-1.202 0-.411.012-.822-.005-1.233-.01-.263.051-.387.348-.387.403 0 .935.187 1.177-.082.258-.287.13-.832.068-1.243-.146-.98.195-1.589 1.114-1.988.696-.302 1.33-.755 1.977-1.167.336-.214.438-.187.431.24-.019 1.25.011 2.502-.016 3.753-.008.41.119.53.513.503.497-.033.998 0 1.496-.01.253-.007.397.034.389.343-.02.714-.015 1.43-.002 2.145.004.256-.081.348-.337.341-.534-.014-1.07.015-1.603-.01-.346-.016-.46.092-.453.448.02 1.09.008 2.181.008 3.272h.02z"/>
        <g transform="translate(192.605 17.31)">
            <mask id="prefix__d" fill="#fff">
                <use xlink:href="#prefix__c"/>
            </mask>
            <path fill="#f59730" d="M3.523 2.236c.259-.349.439-.582.608-.821C5.408-.397 7.383.004 8.62.645c.174.09.22.183.15.378-.304.837-.6 1.679-.884 2.524-.094.28-.22.25-.426.128-.324-.192-.673-.317-1.05-.369-.919-.127-1.642.254-2.052 1.097-.432.893-.494 1.862-.513 2.824-.042 2.002-.048 4.004-.036 6.006.002.43-.122.543-.537.528-.854-.033-1.71-.027-2.564-.001-.34.01-.413-.101-.412-.424.01-4.165.01-8.33 0-12.496C.294.503.365.367.732.378c.8.026 1.602.02 2.404.003.306-.007.407.095.392.398-.022.438-.005.878-.005 1.457" mask="url(#prefix__d)"/>
        </g>
    </g>
</svg>
