<svg xmlns="http://www.w3.org/2000/svg" width="27" height="26" viewBox="0 0 27 26">
    <g fill="#A4A3AE">
        <path d="M20.705 7.063c0-1.477-1.202-2.679-2.678-2.679-.703 0-1.34.275-1.818.718-1.04-.437-2.134-.656-3.27-.656C8.25 4.44 4.44 8.249 4.44 12.934s3.81 8.494 8.494 8.494c4.685 0 8.494-3.809 8.494-8.494 0-1.543-.417-3.03-1.201-4.343.3-.433.478-.958.478-1.528zM18.022 5.82c.687 0 1.242.556 1.242 1.243 0 .769-.56 1.243-1.242 1.243-.688 0-1.243-.556-1.243-1.243s.56-1.243 1.243-1.243zm-5.088 14.167c-3.89 0-7.052-3.162-7.052-7.053 0-3.89 3.162-7.052 7.052-7.052 1.554 0 2.5.499 2.496.519-.056.214-.087.433-.087.662 0 1.477 1.202 2.679 2.679 2.679.381 0 .743-.082 1.074-.225.005 0 .896 1.37.896 3.417-.005 3.89-3.167 7.053-7.058 7.053z" transform="translate(.102)"/>
        <path d="M25.869 12.934C25.869 5.8 20.069 0 12.934 0 5.8 0 0 5.8 0 12.934 0 20.07 5.8 25.87 12.934 25.87c2.48 0 4.869-.708 6.946-2.042.448.336.998.534 1.6.534 1.476 0 2.678-1.201 2.678-2.678 0-.576-.184-1.105-.494-1.543 1.446-2.134 2.205-4.614 2.205-7.206zm-4.39 9.991c-.687 0-1.242-.555-1.242-1.242 0-.688.555-1.243 1.242-1.243.688 0 1.243.555 1.243 1.243 0 .682-.555 1.242-1.243 1.242zm1.065-3.702c-.326-.142-.688-.219-1.065-.219-1.477 0-2.678 1.202-2.678 2.679 0 .356.071.692.198 1.003-1.823 1.14-3.905 1.742-6.065 1.742-6.34.005-11.498-5.154-11.498-11.494S6.595 1.436 12.934 1.436c6.34 0 11.499 5.159 11.499 11.498 0 2.256-.657 4.415-1.89 6.29z" transform="translate(.102)"/>
        <path d="M12.934 8.886c-1.395 0-2.688.733-3.427 1.9-1.145.05-2.062.992-2.062 2.148 0 1.156.917 2.103 2.062 2.15.734 1.165 2.032 1.899 3.427 1.899 2.236 0 4.049-1.818 4.049-4.049 0-2.23-1.813-4.048-4.049-4.048zm-3.33 4.766c-.397 0-.718-.32-.718-.718 0-.397.32-.718.718-.718.397 0 .718.321.718.718 0 .398-.32.718-.718.718zm3.33 1.895c-.774 0-1.497-.352-1.99-.932.493-.397.814-1.003.814-1.686 0-.682-.32-1.288-.815-1.685.49-.576 1.217-.927 1.991-.927 1.442 0 2.613 1.171 2.613 2.612s-1.171 2.618-2.613 2.618z" transform="translate(.102)"/>
    </g>
</svg>
