<svg xmlns="http://www.w3.org/2000/svg" width="26" height="26" viewBox="0 0 26 26">
    <g fill="#A4A3AE">
        <path d="M19.76 7.649H1.062C.476 7.649 0 7.173 0 6.587 0 6 .476 5.524 1.062 5.524H19.76c.586 0 1.062.476 1.062 1.063 0 .586-.476 1.062-1.062 1.062z"/>
        <path d="M6.162 12.748c-.282.001-.553-.11-.753-.31L.31 7.338C-.1 6.923-.1 6.252.31 5.835L5.41.735C5.824.32 6.497.32 6.913.735c.415.416.415 1.089 0 1.504L2.55 6.587l4.364 4.347c.411.417.411 1.087 0 1.504-.2.2-.47.311-.752.31zM24.01 20.397H5.311c-.587 0-1.063-.476-1.063-1.062 0-.587.476-1.063 1.063-1.063h18.697c.587 0 1.062.476 1.062 1.063 0 .586-.475 1.062-1.062 1.062z"/>
        <path d="M18.91 25.496c-.282.001-.553-.11-.752-.31-.412-.417-.412-1.087 0-1.504l4.364-4.347-4.364-4.347c-.416-.416-.416-1.09 0-1.505.415-.415 1.089-.415 1.504 0l5.1 5.1c.41.417.41 1.087 0 1.504l-5.1 5.1c-.2.199-.47.31-.752.31z"/>
    </g>
</svg>
