<svg xmlns="http://www.w3.org/2000/svg" width="19" height="22" viewBox="0 0 19 22">
    <g fill="#A4A3AE">
        <path d="M13.962 12.955h-.288c-.397 0-.72-.387-.72-.864s.323-.864.72-.864h.288c.398 0 .72.387.72.864s-.322.864-.72.864zM13.962 18.136h-.288c-.397 0-.72-.386-.72-.863s.323-.864.72-.864h.288c.398 0 .72.387.72.864s-.322.863-.72.863zM5.326 12.955h-.288c-.398 0-.72-.387-.72-.864s.322-.864.72-.864h.288c.397 0 .72.387.72.864s-.323.864-.72.864zM5.326 18.136h-.288c-.398 0-.72-.386-.72-.863s.322-.864.72-.864h.288c.397 0 .72.387.72.864s-.323.863-.72.863zM9.644 12.955h-.288c-.397 0-.72-.387-.72-.864s.323-.864.72-.864h.288c.397 0 .72.387.72.864s-.323.864-.72.864zM9.644 18.136h-.288c-.397 0-.72-.386-.72-.863s.323-.864.72-.864h.288c.397 0 .72.387.72.864s-.323.863-.72.863zM13.818 4.318c-.477 0-.863-.403-.863-.9V.9c0-.497.386-.9.863-.9s.864.403.864.9v2.519c0 .238-.091.467-.253.636-.162.168-.382.263-.61.263zM5.182 4.318c-.477 0-.864-.403-.864-.9V.9c0-.497.387-.9.864-.9s.863.403.863.9v2.519c0 .238-.09.467-.252.636-.162.168-.382.263-.611.263z"/>
        <path d="M15.236 21.59H3.764C1.686 21.59.002 19.873 0 17.755V6.427C.002 4.31 1.686 2.593 3.764 2.591h11.472c2.078.002 3.762 1.718 3.764 3.836v11.327c-.002 2.118-1.686 3.835-3.764 3.837zM3.764 4.419c-1.088.002-1.97.9-1.972 2.01v11.326c.002 1.11.884 2.008 1.972 2.01h11.472c1.088-.002 1.97-.9 1.972-2.01V6.427c-.002-1.109-.884-2.007-1.972-2.01H3.764z"/>
        <path d="M18.104 9.5H.896C.401 9.5 0 9.113 0 8.636s.401-.863.896-.863h17.208c.495 0 .896.386.896.863s-.401.864-.896.864z"/>
    </g>
</svg>
