<svg xmlns="http://www.w3.org/2000/svg" width="20" height="20" viewBox="0 0 20 20">
    <path fill="#90A6BB" d="M14.593 19.2c-.546 0-1.084-.122-1.576-.358-2.747-1.32-5.25-3.098-7.404-5.256C3.455 11.434 1.677 8.93.357 6.183c-.67-1.408-.38-3.085.725-4.185L2.84.238C2.993.085 3.2 0 3.416 0c.216 0 .423.085.576.238l4.186 4.188c.152.152.238.359.238.574 0 .216-.086.422-.238.575l-1.51 1.51c.66 1.118 1.46 2.15 2.379 3.068.918.92 1.95 1.72 3.069 2.38l1.51-1.51c.152-.154.359-.24.574-.24.216 0 .423.086.575.24l4.189 4.184c.315.32.315.833 0 1.152l-1.761 1.757c-.692.694-1.631 1.083-2.61 1.084zM3.416 1.953L2.231 3.147c-.615.613-.778 1.548-.406 2.333 1.24 2.58 2.91 4.932 4.937 6.954 2.024 2.028 4.376 3.699 6.958 4.94.786.372 1.722.208 2.334-.41l1.194-1.181-3.036-3.036-1.37 1.37c-.256.262-.656.32-.977.143-1.46-.787-2.799-1.783-3.97-2.958-1.176-1.171-2.173-2.509-2.959-3.97-.178-.32-.119-.72.143-.976l1.37-1.374-3.033-3.03z"/>
</svg>
