<svg xmlns="http://www.w3.org/2000/svg" width="150" height="145" viewBox="0 0 150 145">
    <g fill="#FFF" fill-rule="evenodd" opacity=".184">
        <path d="M45.957.026c-6.946.079-13.89.337-20.822.778-6.593.42-13.747.101-20.233 1.387-1.841.365-4.329 2.054-1.88 3.911 1.721 1.306 8.018-.196 10.073-.323 7.57-.468 15.142-1.029 22.722-1.298 7.176-.255 14.351-.345 21.53-.417 1.096-.011 2.916-.365 4.007-.045 1.569.46 1.197.586 1.314 2.589.213 3.629.154 7.27.083 10.903-.07 3.515-.199 7.03-.186 10.546.009 2.509-.789 7.495.463 9.673 1.8 3.137 3.67-.27 3.804-2.354.258-3.986.142-8.02.143-12.012.001-3.746.028-7.493-.103-11.237-.096-2.705.289-7.426-1.16-9.885C64.237-.263 60.686.277 58.095.158c-4.042-.187-8.092-.174-12.138-.132" transform="rotate(-10 125.935 18.565)"/>
        <path d="M1.146 5.135C1.154 12.2.335 19.22.106 26.278c-.106 3.245-.32 6.808.503 9.994.83 3.216 3.468 3.913 3.772.322.615-7.27.464-14.81.944-22.14.169-2.588 1.27-7.33.242-9.754-.905-2.135-4.425-2.544-4.42.435" transform="rotate(-10 125.935 18.565)"/>
        <path d="M66.06 36.01c-11.998 1.54-24.541.978-36.625 1.22-5.798.116-11.594.123-17.393.182-2.023.02-7.162-.725-8.913.377-2.787 1.755.237 3.109 2.082 3.148 11.442.243 23.013-.267 34.453-.631 5.14-.163 10.297-.243 15.423-.667 3.156-.26 6.605-.513 9.67-1.335.653-.175 2.075-.139 2.221-1.002.09-.534-.073-1.405-.917-1.292M16.16 45.385c-3.356.021-13.47-1.673-14.859 1.884-1.853 4.743 5.375 3.636 7.319 3.581 4.415-.123 8.827-.136 13.243-.134 4.333.002 8.666-.028 12.999-.14 1.255-.033 4.176.533 4.898-1.11.55-1.248.116-2.233-.896-2.894-2.436-1.59-8.762-.668-11.613-.811-3.692-.185-7.395-.376-11.092-.376M57.585 46.223c-1.893.116-5.72-.69-7.416.205-1.927 1.02-1.248 2.614.416 3.315 1.152.486 5.877.231 7-.331 1.17-.587 2.492-3.348 0-3.19M77.773 6.007c-2.15.555-1.498 12.033-1.553 13.853-.152 4.986-.748 11.256 1.013 16.057 1.124 3.061 3.281 2.646 2.914-.576-.323-2.829-.877-5.624-1.117-8.471-.542-6.442-1.28-13.313-.768-19.76.219.375 2.258 3.85 2.738 3.59-.145.08-2.352-4.91-3.227-4.693" transform="rotate(-10 125.935 18.565)"/>
        <path d="M101.76 1.063c-4.117.06-8.235.134-12.351.248-3.273.091-8.416-.447-11.418.931-3.574 1.64-1.878 5.296 1.479 5.373 2.97.069 6.136-.601 9.133-.704 8.094-.278 16.203-.337 24.3-.406 7.324-.063 14.96.719 22.219-.382 1.077 9.57-1.836 19.18-.845 28.858.154 1.503.085 3.626 1.996 3.968 2.413.432 2.512-1.96 2.603-3.672.262-4.89.12-9.783.478-14.68.331-4.536.984-9.173.432-13.718-.678-5.592-3.355-5.144-8.088-5.376-9.996-.49-19.93-.587-29.938-.44" transform="rotate(-10 125.935 18.565)"/>
        <path d="M87.485 35.117c-2.11.052-5.613-.587-6.964 1.402-1.406 2.068.262 3.873 2.307 4.298 2.42.502 5.576-.187 8.088-.194 2.616-.008 5.233.02 7.85.03 11.215.044 22.48.211 33.688-.245 1.565-.063 6.007.453 7.09-1.023.962-1.31.29-2.484-.977-3.15-2.077-1.095-6.343-.679-8.654-.765-2.853-.107-5.71-.142-8.565-.186-11.268-.17-22.596-.44-33.863-.167M96.786 45c-4.203.07-8.687-.11-12.847.51-3.659.544-4.109 3.981-.17 4.383 3.618.37 8.006-.32 11.642-.548 1.292-.08 2.794.034 3.413-1.354.646-1.45-.59-2.84-2.038-2.991M128.909 45.298c-2.188.058-8.58-.93-9.663 1.694-1.804 4.37 6.848 2.71 8.507 2.646 2.092-.081 10.245 1.202 10.247-2.296.002-3.43-7.088-2.096-9.091-2.044M1.144 66.619c.005 7.689-.44 15.45.212 23.118.27 3.172.224 9.248 1.936 11.937 1.215 1.909 2.9 1.775 3.563-.517.444-1.532-.266-4.596-.345-6.236-.076-1.573-.165-3.145-.233-4.718-.174-4.054-.16-8.101-.108-12.157.044-3.479.824-8.081.089-11.427-.686-3.118-5.114-3.847-5.114 0" transform="rotate(-10 125.935 18.565)"/>
        <path d="M79.362 60.264c-13.405.34-26.84.036-40.232.707-6.606.33-13.185 1.056-19.756 1.78-3.23.356-6.456.723-9.68 1.124-.972.121-9.054.438-6.014 3.544 1.327 1.356 5.551-.06 7.222-.26 3.236-.386 6.479-.723 9.72-1.07 6.166-.659 12.34-1.283 18.533-1.63 14.585-.816 29.23-.571 43.83-1.115 3.949-.147 7.886-.253 11.837-.096 1.037.041 8.66.433 5.35-2.412-1.564-1.346-7.465-.652-9.421-.692-3.796-.08-7.595.024-11.39.12" transform="rotate(-10 125.935 18.565)"/>
        <path d="M99.922 101.157l-.007.01c-.735 1.088-3.45.785-4.64.866-3.62.247-7.172.665-10.76 1.205-7.148 1.077-14.234 1.738-21.46 1.918-14.29.355-28.64.023-42.91 1.007-3.16.218-6.272.592-9.381 1.19-2.22.427-6.498 1.89-6.757-1.795-.314-4.44 10.774-4.433 13.945-4.73 13.613-1.272 27.45-1.004 41.104-.813 6.603.093 13.194.295 19.791-.11 6.591-.405 13.406-.299 19.949-1.011-.843-3.283-.72-7.389-.956-10.743-.607-8.613-.445-17.255-.836-25.876-.172-3.799 4.977-4.374 6.504-1.3 1.543 3.106.54 9.268.64 12.712.231 7.972 1.702 16.896.148 24.781-.54 2.742-2.842 4.184-4.374 2.689zM107.761 64.545c-1.827.248-3.351 1.805-2.535 3.78 1.027 2.486 4.088 1.514 6.11 1.357 6.426-.501 13.135.5 19.484-.256 1.733-.206 4.249-1.146 2.692-3.465-1.17-1.743-5.433-1.437-7.246-1.604-6.198-.571-12.315-.419-18.505.188M118.838 76.083c-2.541.154-8.457.033-9.527 2.647-1.921 4.69 5.602 3.038 7.893 2.771 2.661-.31 8.934.52 10.351-1.813 2.534-4.174-6.489-3.744-8.717-3.605M112.874 87.058c-1.164 1.138-1.166 3.171 0 4.31 1.427 1.394 4.537 1.104 6.413 1.206 2.615.143 10.129 1.496 11.428-1.516 1.752-4.063-5.051-3.978-7.289-4.208-2.586-.267-8.409-1.89-10.552.208M20 14.504c0 4.661 7 4.661 7 0 0-4.637-7-4.707-7 0M33 15.005c0 5.332 8 5.321 8 0 0-5.313-8-5.367-8 0M25.687 22.075c-3.767 1.157-.297 4.708 1.452 5.52 2.78 1.289 6.574 2.24 9.355.306 1.106-.77 2.004-1.792 1.194-3.285-.864-1.59-2.047-.882-3.362-.736-1.666.187-3.013.158-4.622-.436-1.2-.444-2.707-1.77-4.017-1.37M96 15.5c0 3.333 5 3.333 5 0s-5-3.333-5 0M107 15.5c0 3.333 5 3.334 5 0s-5-3.333-5 0M106.472 23.141c-2.82.34-10.976 1.115-11.433 4.37-.704 5.022 8.233.957 10.273.563 2.598-.502 4.918-.371 7.511-.273 1.424.053 3.318.269 3.169-1.762-.245-3.336-7.055-3.194-9.52-2.898M36.567 72.065c-1.969.509-4.544 3.805-3.19 5.823 2.221 3.309 3.2-1.772 4.13-2.26 1.69-.89 3.063 2.36 4.83.655 2.789-2.69-4.015-4.673-5.77-4.218" transform="rotate(-10 125.935 18.565)"/>
        <path d="M59.764 69c-2.373.023-7.38 3.47-7.736 6.014-.21 1.513.767 2.965 2.355 2.986 2.163.027 2.85-2.86 4.725-3.463 2.023-.65 1.723.848 3.47 1.625 1.277.57 2.876.331 3.32-1.282.838-3.042-3.697-5.927-6.134-5.88M41.235 83.358c-3.913 2.172 2.525 6.828 4.757 7.41 3.37.88 10.152-.76 10.95-4.66.318-1.552-.706-2.958-2.514-2.68-1.489.229-2.444 1.998-3.822 2.631-1.861.855-3.516.797-5.097-.49-1.289-1.049-1.979-3.48-4.274-2.211M44.074 116.316c-3.405.704-6.866.231-10.288.894-3.489.676-5.574 1.956-8.815.667l-.457-.188c-2.508-1.049-5.138-1.36-7.764.313-1.554.989-6.271 4.41-5.703 6.498 1.232 4.527 6.54-2.571 7.894-3.263 2.582-1.319 4.351.366 7.009.842 3.183.57 5.744-1.063 8.742-1.713 3.507-.76 7.452-1.026 11.02-1.433 1.41-.16 6.748.921 7.23-.781.828-2.926-7.53-2.112-8.868-1.836M68.844 125.818c.222.172.044.034 0 0m9.477-9.748c2.896-.3 12.164-2.421 14.067.646 1.239 1.997-.728 9.37-2.604 10.324-1.5.761-4.993-.08-6.638-.14-3.062-.11-6.13-.16-9.189-.355-1.025-.066-4.326.127-5.13-.803-.95-1.098-.907-6.954-1.13-8.406 2.662.884 7.84-.976 10.624-1.266m6.185-3.007c-3.71.165-7.419.45-11.1.96-2.053.285-4.133 1.04-6.028 1.398-.612.116-1.603-.204-2.353.167-2.19 1.083-.272 8.412.256 10.37.811 3.007 2.852 3.494 5.712 3.778 3.767.373 7.611.256 11.39.208 3.642-.045 8.553.782 10.597-2.963 1.321-2.421 2.738-8.06 1.609-10.758-1.486-3.55-7.032-3.29-10.083-3.16M125.743 127.329c-.2.261-.2.261 0 0m.818-1.005c-.062.096-.348.404 0 0m-8.897-.276c1.644-.315 3.29-.627 4.936-.933-1.56 2.224-3.2 1.305-5.864 1.111l.928-.178m-7.846-.787l1.25-.426c-.012.323.056.626.205.908-.714-.079-1.426-.163-2.139-.252l.684-.23m-3.635-2.737c-.024-.583.837-.183 1.33-.222-.95.854-1.394.928-1.33.222m13.002-6.62c.125-.163.291-.155.497.025-.225.077-1.092.452-.497-.025m8.432-1.01c.022 0 .49.643 0 0m-.236-.212c.122.096.122.096 0 0m-1.053-.125c1.724.296 1.593 2.359 0 0m-20.255-.14c-.35.296-.23.008 0 0m6.593-4.392c-2.927.174-8.3-.001-10.744 1.589-3.19 2.075-1.512 9.218-1.226 12.35.422 4.628 2.558 5.946 6.834 6.432 5.103.58 10.347.688 15.476.55 4.62-.123 7.251-1.743 8.097-6.701.26-1.518.917-3.864.897-5.318-.015-1.007-.507-1.467-.694-2.324-1.06-4.88-2.835-5.459-7.741-5.672-3.612-.156-7.356-1.095-10.899-.906" transform="rotate(-10 125.935 18.565)"/>
    </g>
</svg>
