<svg xmlns="http://www.w3.org/2000/svg" width="20" height="21" viewBox="0 0 20 21">
    <g fill="none">
        <path fill="#748196" d="M12.28 21H3.737C1.674 20.998.002 19.326 0 17.263V6.229c.002-2.063 1.674-3.736 3.737-3.737h8.543c2.063.001 3.735 1.674 3.737 3.737v11.034c-.002 2.063-1.674 3.735-3.737 3.737zM3.737 4.271c-1.08.002-1.955.877-1.957 1.958v11.034c.002 1.08.877 1.955 1.957 1.957h8.543c1.08-.002 1.955-.877 1.957-1.957V6.229c-.002-1.08-.877-1.956-1.957-1.958H3.737z" transform="translate(2)"/>
        <path fill="#748196" d="M10.856 16.729H5.16c-.491 0-.89-.399-.89-.89s.399-.89.89-.89h5.695c.491 0 .89.399.89.89s-.399.89-.89.89zM11.212 12.636H4.805c-.491 0-.89-.399-.89-.89 0-.492.399-.89.89-.89h6.407c.491 0 .89.398.89.89 0 .491-.399.89-.89.89zM11.212 8.542H4.805c-.491 0-.89-.398-.89-.89 0-.49.399-.89.89-.89h6.407c.491 0 .89.4.89.89 0 .492-.399.89-.89.89z" transform="translate(2)"/>
        <path fill="#FFF" d="M10.5 3.381C10.5 2.005 9.385.89 8.008.89 6.632.89 5.517 2.005 5.517 3.38H10.5z" transform="translate(2)"/>
        <path fill="#748196" d="M10.5 4.271H5.517c-.491 0-.89-.398-.89-.89C4.627 1.514 6.141 0 8.008 0c1.868 0 3.382 1.514 3.382 3.381 0 .236-.094.463-.26.63-.168.166-.394.26-.63.26zm-3.823-1.78H9.34c-.298-.444-.797-.71-1.332-.71-.534 0-1.033.266-1.33.71z" transform="translate(2)"/>
    </g>
</svg>
