<svg xmlns="http://www.w3.org/2000/svg" width="27" height="22" viewBox="0 0 27 22">
    <g fill="#3699FF">
        <path d="M15.367 21.407H3.082c-.808.002-1.573-.369-2.074-1.004-.49-.612-.67-1.415-.49-2.178.959-4.033 4.562-6.88 8.707-6.88 4.145 0 7.748 2.847 8.708 6.88.179.764-.002 1.568-.491 2.182-.502.633-1.267 1.001-2.075 1zM9.226 13.59c-3.112-.02-5.822 2.12-6.525 5.152-.021.094.002.192.063.266.076.094.19.148.31.149H15.36c.12 0 .234-.055.31-.149.06-.074.084-.172.063-.265-.701-3.026-3.402-5.164-6.507-5.153zM9.225 10.193c-1.972.001-3.75-1.185-4.506-3.006-.755-1.82-.34-3.918 1.054-5.312C7.166.48 9.263.062 11.084.816c1.822.754 3.01 2.531 3.01 4.503-.002 2.689-2.18 4.869-4.869 4.874zm0-7.493c-1.062-.002-2.02.637-2.427 1.617-.408.981-.183 2.11.567 2.862.751.75 1.88.975 2.862.567.98-.407 1.619-1.365 1.617-2.427-.002-1.445-1.174-2.617-2.619-2.619z"/>
        <path d="M24.633 21.407H14.067c-.621 0-1.125-.504-1.125-1.125 0-.622.504-1.125 1.125-1.125h10.566c.038 0 .075-.016.099-.046.008-.017.008-.036 0-.053-.43-1.81-1.775-3.264-3.546-3.834-1.772-.57-3.712-.172-5.116 1.048-.301.28-.73.374-1.121.245-.39-.13-.679-.461-.753-.866-.074-.404.078-.816.398-1.075 1.997-1.741 4.76-2.309 7.283-1.497 2.522.813 4.435 2.886 5.042 5.465.16.689-.007 1.412-.45 1.962-.445.562-1.12.893-1.836.9zM19.575 12.15c-2.324 0-4.207-1.884-4.207-4.208 0-2.323 1.883-4.207 4.207-4.207s4.207 1.884 4.207 4.207c0 1.116-.443 2.187-1.232 2.976-.789.789-1.86 1.232-2.975 1.232zm0-6.165c-1.081 0-1.957.876-1.957 1.957 0 1.082.876 1.958 1.957 1.958s1.957-.876 1.957-1.958c-.01-1.074-.883-1.939-1.957-1.939v-.018z"/>
    </g>
</svg>
