<svg xmlns="http://www.w3.org/2000/svg" width="20" height="20" viewBox="0 0 20 20">
    <g fill="#3699FF">
        <path d="M10 20C4.477 20 0 15.523 0 10S4.477 0 10 0s10 4.477 10 10c-.006 5.52-4.48 9.994-10 10zm0-18.305c-4.587 0-8.305 3.718-8.305 8.305S5.413 18.305 10 18.305s8.305-3.718 8.305-8.305C18.3 5.416 14.585 1.7 10 1.695z"/>
        <path d="M7.661 14.915c-.27.001-.535-.071-.766-.21-.468-.27-.756-.771-.753-1.312v-6.78c0-.54.286-1.04.752-1.313.466-.272 1.042-.277 1.513-.012l6.034 3.39c.478.27.773.776.773 1.325 0 .55-.295 1.056-.773 1.326l-6.034 3.39c-.228.128-.485.196-.746.196zm.176-8.01v6.19L13.34 10 7.837 6.905z"/>
    </g>
</svg>
