<svg xmlns="http://www.w3.org/2000/svg" width="20" height="15" viewBox="0 0 20 15">
    <g fill="#90A6BB">
        <path d="M10 8.197c-.468 0-.931-.086-1.367-.256L.846 4.859c-.313-.124-.518-.426-.518-.762 0-.337.205-.639.518-.763L8.633.26c.879-.344 1.855-.344 2.734 0l7.787 3.075c.313.124.518.426.518.763 0 .336-.205.638-.518.762l-7.787 3.079c-.435.17-.9.258-1.367.259zM3.377 4.098l5.86 2.315c.49.19 1.035.19 1.527 0l5.859-2.315-5.86-2.314c-.49-.194-1.036-.194-1.527 0L3.377 4.098z"/>
        <path d="M13.141 14.213H6.859c-1.614-.002-2.923-1.31-2.925-2.924V5.52c0-.452.367-.82.82-.82.453 0 .82.368.82.82v5.768c0 .71.575 1.285 1.285 1.285h6.282c.71 0 1.285-.576 1.285-1.285V5.52c0-.452.367-.82.82-.82.453 0 .82.368.82.82v5.768c-.002 1.614-1.31 2.922-2.925 2.924zM18.852 12.213c-.217.001-.426-.085-.58-.239-.154-.154-.24-.363-.24-.58V4.097c0-.452.368-.82.82-.82.453 0 .82.368.82.82v7.295c.001.218-.085.427-.239.581-.154.154-.363.24-.58.24z"/>
    </g>
</svg>
