<svg xmlns="http://www.w3.org/2000/svg" width="20" height="17" viewBox="0 0 20 17">
    <g fill="#90A6BB">
        <path d="M11.016 16.987c-1.739.004-3.435-.54-4.846-1.557-.252-.165-.394-.455-.369-.756.026-.3.214-.562.49-.683.276-.12.597-.079.834.107 2.645 1.906 6.28 1.626 8.602-.662 2.323-2.288 2.657-5.918.792-8.592C14.653 2.17 11.13 1.23 8.182 2.62c-2.95 1.39-4.467 4.704-3.592 7.845.08.282.002.585-.203.795-.205.21-.506.294-.79.22-.284-.072-.508-.29-.587-.573-.968-3.446.374-7.125 3.333-9.14 2.96-2.014 6.874-1.912 9.725.252 2.851 2.165 4.001 5.909 2.856 9.3-1.145 3.392-4.328 5.673-7.908 5.667z"/>
        <path d="M13.184 12.187c-.14-.001-.277-.038-.397-.108l-2.18-1.26c-.254-.145-.41-.415-.41-.708V5.944c0-.452.367-.82.82-.82.452 0 .82.368.82.82v3.699l1.756 1.016c.32.186.475.563.38.92-.096.358-.42.607-.79.608zM3.784 11.607c-.218 0-.427-.086-.58-.24L.251 8.417C.04 8.21-.045 7.904.03 7.618c.076-.287.3-.51.586-.585.287-.074.592.012.797.225l2.384 2.384 2.387-2.384c.324-.29.818-.276 1.125.032.308.307.322.801.032 1.125l-2.95 2.968c-.164.154-.383.235-.607.223z"/>
    </g>
</svg>
