<svg xmlns="http://www.w3.org/2000/svg" width="17" height="22" viewBox="0 0 17 22">
    <g fill="#90A6BB">
        <path d="M12.42 21.24H3.78C1.693 21.238.002 19.547 0 17.46V9.18c.002-1.292 1.048-2.338 2.34-2.34h11.52c1.292.002 2.338 1.048 2.34 2.34v8.28c-.002 2.087-1.693 3.778-3.78 3.78zM2.34 8.64c-.298 0-.54.242-.54.54v8.28c.002 1.093.887 1.978 1.98 1.98h8.64c1.093-.002 1.978-.887 1.98-1.98V9.18c0-.298-.242-.54-.54-.54H2.34z"/>
        <path d="M12.42 8.64H3.78c-.239 0-.468-.095-.636-.264-.17-.168-.264-.397-.264-.636V3.78C2.882 1.693 4.573.002 6.66 0h2.88c2.087.002 3.778 1.693 3.78 3.78v3.96c0 .239-.095.468-.264.636-.168.17-.397.264-.636.264zm-7.74-1.8h6.84V3.78c-.002-1.093-.887-1.978-1.98-1.98H6.66c-1.093.002-1.978.887-1.98 1.98v3.06zM8.1 16.92c-.497 0-.9-.403-.9-.9v-2.88c0-.497.403-.9.9-.9s.9.403.9.9v2.88c0 .497-.403.9-.9.9z"/>
        <path d="M8.82 14.04H7.38c-.497 0-.9-.403-.9-.9s.403-.9.9-.9h1.44c.497 0 .9.403.9.9s-.403.9-.9.9z"/>
    </g>
</svg>
