<svg xmlns="http://www.w3.org/2000/svg" width="22" height="27" viewBox="0 0 22 27">
    <g fill="#1DC9B7" fill-rule="evenodd">
        <path d="M16.5 6.188c0 .38.29.687.649.687H18.6c.359 0 .649-.308.649-.688 0-.38-.29-.687-.649-.687H17.15c-.172 0-.337.072-.459.201-.122.13-.19.304-.19.487zM6.875 6.188c0 .38.29.687.649.687h1.452c.359 0 .649-.308.649-.688 0-.38-.29-.687-.649-.687H7.524c-.359 0-.649.308-.649.688zM13.75 2.101V.65c0-.359-.308-.649-.688-.649-.38 0-.687.29-.687.649V2.1c0 .359.308.649.688.649.38 0 .687-.29.687-.649zM16.57 1.599L15.35 2.82c-.299.299-.299.783 0 1.081.298.299.782.299 1.08 0l1.222-1.221c.193-.193.269-.475.198-.738-.07-.264-.277-.47-.54-.54-.264-.072-.546.004-.739.197zM10.235 4.125c.31 0 .588-.186.707-.471.118-.286.053-.615-.166-.833L9.555 1.599c-.299-.299-.783-.299-1.081 0-.299.299-.299.783 0 1.081l1.221 1.222c.143.143.338.224.54.223z"/>
        <path d="M1.393 11.712c-.77 0-1.393.6-1.393 1.34v11.733c0 .74.624 1.34 1.393 1.34h4.033c.733.002 1.341-.543 1.393-1.247l.863.499c.822.475 1.763.726 2.722.727h5.885c.712.007 1.418-.128 2.072-.397 1.88-.805 2.176-2.217 2.037-3.156.988-.799 1.35-2.11.905-3.276.466-.542.713-1.229.696-1.933-.03-.551-.229-1.082-.57-1.525.437-.971.18-2.103-.639-2.81-.057-.052-.118-.1-.18-.147-.318-.227-.683-.383-1.07-.456h-.031c-1.847-.378-3.089-.402-4.916-.402-.07-.405-.067-1.255.484-2.855.51-1.483.466-2.708-.133-3.644-.5-.757-1.324-1.262-2.248-1.378h-.086c-.657-.01-1.243.398-1.435 1.003-.01.032-.017.064-.022.097l-.21 1.447c-.062.435-.194.858-.39 1.255l-2.03 4.104c-.308.687-.944 1.187-1.704 1.34v-.318c0-.74-.624-1.34-1.393-1.34H1.393zm0 13.073V13.053h4.033v11.732H1.393zm5.57-10.065c1.254-.211 2.313-1.018 2.814-2.144l2.014-4.094c.256-.52.428-1.076.51-1.646l.214-1.354c.01-.01.022-.016.036-.019.491.075.927.346 1.2.745.368.574.368 1.446 0 2.518-.54 1.566-.707 2.801-.5 3.675.13.555.645.948 1.236.944 1.841 0 2.978.016 4.735.373h.028c.186.032.362.103.515.209l.09.072c.712.62.261 1.413.167 1.56-.184.277-.132.642.122.861.271.264.438.611.47.981-.016.5-.242.97-.626 1.306-.214.218-.252.547-.092.804.03.051.747 1.25-.671 2.252-.244.177-.342.483-.245.762.075.214.37 1.313-1.159 1.96-.485.194-1.007.29-1.532.278h-5.897c-.705 0-1.397-.186-2.002-.536l-1.571-.906v-8.58l.145-.02z"/>
        <circle cx="3.438" cy="22.688" r="1"/>
    </g>
</svg>
