<svg xmlns="http://www.w3.org/2000/svg" width="24" height="25" viewBox="0 0 24 25">
    <g fill="#3699FF">
        <path d="M23.542 16.054c-.114-.232-.345-.378-.6-.378H4.578c-2.306 0-4.186 1.875-4.186 4.185 0 2.306 1.876 4.186 4.186 4.186h18.364c.255 0 .486-.146.6-.378.113-.231.08-.5-.076-.704-.718-.902-1.077-1.989-1.082-3.075 0-.01.066-2.121 1.082-3.133.18-.179.184-.472.076-.703zm-18.78 4.474h16.323c.08.75.293 1.492.643 2.182H4.578c-1.573 0-2.854-1.28-2.854-2.853 0-1.574 1.28-2.854 2.854-2.854h17.15c-.35.695-.563 1.432-.643 2.183H4.762c-.368 0-.666.297-.666.666 0 .378.298.676.666.676zM23.518 3.302L12.184.071c-.118-.033-.245-.033-.364 0L.482 3.302C.198 3.387 0 3.647 0 3.945c0 .298.198.557.482.642l4.19 1.196v7.866c0 .24.133.463.34.58.213.119.468.114.676-.013 2.103-1.29 4.224-1.942 6.312-1.942s4.205.652 6.312 1.942c.108.066.43.15.675.014.213-.118.34-.34.34-.581V5.783l2.207-.629V8.85c0 .368.297.666.666.666.369 0 .666-.298.666-.666V4.772l.652-.185c.288-.08.482-.344.482-.642 0-.298-.198-.558-.482-.643zm-5.527 9.204C16 11.466 13.994 10.942 12 10.942c-1.994 0-4.006.524-5.99 1.564v-6.34l5.806 1.658c.118.033.245.033.364 0l5.806-1.659v6.34h.005zM12 6.486L3.1 3.946 12 1.408l8.9 2.537L12 6.487z"/>
    </g>
</svg>
