<svg xmlns="http://www.w3.org/2000/svg" width="21" height="24" viewBox="0 0 21 24">
    <g fill="#959699">
        <path d="M.492 23.226H6.26l.006-.001h13.372c.27 0 .491-.216.491-.483V10.104c0-.224-.157-.419-.378-.47l-5.39-1.261V6.554c0-.178-.1-.341-.258-.426l-3.54-1.886v-.256c.188.058.376.092.561.092.614 0 1.197-.275 1.678-.502.9-.425 1.397-.623 1.965-.087.142.134.352.172.533.096.181-.076.299-.251.299-.445V.938c0-.131-.055-.258-.151-.349-1.086-1.025-2.234-.482-3.072-.087-.902.425-1.398.622-1.965.087-.142-.134-.352-.172-.533-.096-.181.076-.299.251-.299.445V4.242l-3.54 1.886c-.16.085-.258.248-.258.426V8.37L.378 9.633C.157 9.685 0 9.88 0 10.104v12.638c0 .267.22.484.492.484zM14.36 9.368l4.786 1.119v11.77H14.36V9.368zm-3.798-7.575c.816.253 1.614-.123 2.24-.418.82-.387 1.306-.585 1.813-.214v1.124c-.815-.254-1.613.123-2.239.419-.82.387-1.305.585-1.814.214V1.793zm.885 20.465H8.695V18.36c0-.747.617-1.354 1.376-1.354.758 0 1.376.607 1.376 1.354v3.897zM6.764 6.842l3.307-1.761 3.306 1.761v15.416h-.947V18.36c0-1.28-1.058-2.322-2.36-2.322-1.3 0-2.359 1.042-2.359 2.322v3.897h-.947V6.842zm-5.78 3.645l4.785-1.12v12.89H.983v-11.77z"/>
        <path d="M4.183 12.387H2.01c-.255 0-.462.224-.462.5v3.258c0 .276.207.5.462.5h2.173c.255 0 .462-.224.462-.5v-3.258c0-.276-.207-.5-.462-.5zm-.462 3.258H2.472v-2.257h1.25v2.257zM4.183 17.032H2.01c-.255 0-.462.224-.462.5v3.258c0 .276.207.5.462.5h2.173c.255 0 .462-.224.462-.5v-3.258c0-.276-.207-.5-.462-.5zm-.462 3.258H2.472v-2.257h1.25v2.257zM17.732 12.387h-2.173c-.255 0-.462.224-.462.5v3.258c0 .276.207.5.462.5h2.173c.255 0 .462-.224.462-.5v-3.258c0-.276-.207-.5-.462-.5zm-.462 3.258h-1.25v-2.257h1.25v2.257zM17.732 17.032h-2.173c-.255 0-.462.224-.462.5v3.258c0 .276.207.5.462.5h2.173c.255 0 .462-.224.462-.5v-3.258c0-.276-.207-.5-.462-.5zm-.462 3.258h-1.25v-2.257h1.25v2.257zM9.871 10.065c.96 0 1.742-.782 1.742-1.743 0-.96-.781-1.741-1.742-1.741-.96 0-1.742.78-1.742 1.741 0 .961.782 1.743 1.742 1.743zm0-2.5c.418 0 .758.34.758.757 0 .418-.34.758-.758.758s-.758-.34-.758-.758c0-.417.34-.757.758-.757z"/>
    </g>
</svg>
