<svg xmlns="http://www.w3.org/2000/svg" width="24" height="24" viewBox="0 0 24 24">
    <g fill="#2B2E34" opacity=".5">
        <path d="M17.59 23.275v-9.548l5.116-5.115c.103-.104.17-.236.188-.377L23.944.8c.028-.207-.043-.414-.189-.56-.146-.146-.357-.216-.56-.188l-7.44 1.05c-.14.018-.273.084-.376.187l-5.115 5.116H.71c-.269 0-.513.16-.612.41-.104.249-.047.53.146.724l4.442 4.442-.41.41c-.122.122-.446.489 0 .936l6.391 6.386c.41.41.814.122.941 0l.41-.41 4.442 4.443c.264.263.513.23.725.146.245-.104.405-.348.405-.617zM5.625 11.04L2.315 7.732h6.621L5.624 11.04zm5.51 7.266l-5.45-5.45L16.16 2.386l6.348-.894-.894 6.343-10.48 10.47zm1.821.061l3.309-3.308v6.616l-3.309-3.308zM3.562 16.108c-.258-.259-.677-.259-.94 0L.24 18.49c-.259.26-.259.678 0 .937.226.226.678.263.941 0l2.386-2.381c.259-.254.259-.678-.005-.937zM6.88 17.11c-.259-.258-.678-.258-.941 0l-2.386 2.382c-.259.259-.259.677 0 .936.226.226.678.264.941 0l2.386-2.38c.259-.26.259-.679 0-.937zM7.882 20.424c-.258-.26-.677-.26-.94 0l-2.387 2.38c-.259.26-.259.678 0 .937.226.226.678.264.941 0l2.386-2.381c.26-.254.26-.678 0-.936z" transform="translate(.047)"/>
        <path d="M14.019 7.656c-1.28 0-2.325 1.04-2.325 2.325 0 1.28 1.045 2.325 2.325 2.325 1.28 0 2.325-1.04 2.325-2.325 0-1.285-1.045-2.325-2.325-2.325zm.993 2.32c0 .551-.447.998-.998.998-.55 0-.998-.447-.998-.998 0-.55.448-.997.998-.997.55.005.998.452.998.997z" transform="translate(.047)"/>
    </g>
</svg>
