<svg xmlns="http://www.w3.org/2000/svg" width="20" height="27" viewBox="0 0 20 27">
    <g fill="#A4A3AE">
        <path d="M15.333 26.222H4.667C2.09 26.22.002 24.132 0 21.556V7.778C.002 5.2 2.09 3.114 4.667 3.11h10.666c2.577.003 4.665 2.09 4.667 4.667v13.778c-.002 2.576-2.09 4.664-4.667 4.666zM4.667 5.333c-1.35.003-2.442 1.096-2.445 2.445v13.778c.003 1.349 1.096 2.442 2.445 2.444h10.666c1.35-.002 2.442-1.095 2.445-2.444V7.778c-.003-1.35-1.096-2.442-2.445-2.445H4.667z"/>
        <path d="M13.111 5.333H6.89c-.614 0-1.111-.497-1.111-1.11C5.778 1.89 7.668 0 10 0c2.332 0 4.222 1.89 4.222 4.222 0 .295-.117.578-.325.786-.209.208-.491.325-.786.325zM8.338 3.111h3.324c-.371-.555-.994-.888-1.662-.888-.668 0-1.291.333-1.662.888zM8.827 18.92c-.295 0-.577-.117-.787-.324l-3.049-3.04c-.288-.28-.404-.693-.301-1.081.102-.389.406-.692.794-.793.389-.1.802.015 1.08.305l2.263 2.262 4.609-4.622c.434-.435 1.138-.435 1.573 0 .434.434.434 1.139 0 1.573l-5.396 5.396c-.21.207-.492.323-.786.324z"/>
    </g>
</svg>
