<svg xmlns="http://www.w3.org/2000/svg" width="24" height="24" viewBox="0 0 24 24">
    <g fill="#A4A3AE">
        <path d="M14.591 24H9.71c-.562 0-1.017-.455-1.017-1.017v-2.156c.01-.591-.3-1.142-.813-1.438-.513-.296-1.145-.29-1.652.014l-1.86 1.078c-.485.28-1.105.115-1.386-.37L.54 15.89c-.138-.232-.175-.51-.102-.769.07-.26.24-.483.472-.618l1.871-1.078c.518-.287.84-.832.84-1.424s-.322-1.137-.84-1.424L.915 9.498C.682 9.363.513 9.14.443 8.88c-.073-.26-.036-.537.102-.769l2.44-4.222c.282-.485.902-.65 1.388-.37L6.24 4.597c.507.304 1.14.31 1.652.014s.824-.847.813-1.438V1.017c0-.56.453-1.015 1.013-1.017h4.881c.562 0 1.017.455 1.017 1.017v2.156c-.005.586.306 1.13.814 1.424.505.282 1.121.282 1.627 0l1.875-1.078c.486-.28 1.106-.115 1.387.37L23.76 8.11c.28.486.114 1.106-.37 1.387l-1.863 1.078c-.518.287-.84.832-.84 1.424s.322 1.137.84 1.424l1.867 1.078c.484.281.65.901.37 1.387l-2.44 4.222c-.282.485-.902.65-1.388.37l-1.863-1.078c-.505-.282-1.121-.282-1.627 0-.508.294-.819.838-.813 1.424v2.156c0 .274-.11.536-.307.728-.196.191-.46.296-.735.289zm-3.856-2.034h2.847v-1.139c-.01-1.318.689-2.54 1.83-3.2 1.142-.658 2.55-.653 3.686.015l.985.57 1.42-2.441-.985-.57c-1.147-.65-1.856-1.866-1.856-3.185 0-1.318.709-2.535 1.856-3.185l.984-.57-1.42-2.44-.984.57c-1.142.675-2.56.68-3.706.012s-1.842-1.904-1.818-3.23v-1.14h-2.847v1.14c.01 1.318-.689 2.54-1.83 3.2-1.142.658-2.55.653-3.686-.015l-.985-.57-1.42 2.441.985.57c1.147.65 1.856 1.866 1.856 3.185 0 1.318-.709 2.535-1.856 3.185l-.984.57 1.42 2.44.984-.57c1.142-.675 2.56-.68 3.706-.012 1.147.668 1.842 1.904 1.818 3.23v1.14z"/>
        <path d="M12.155 15.864c-1.563 0-2.973-.941-3.57-2.385-.599-1.444-.268-3.106.837-4.212 1.105-1.105 2.767-1.435 4.211-.837 1.444.598 2.386 2.007 2.386 3.57-.002 2.133-1.731 3.862-3.864 3.864zm0-5.695c-1.011 0-1.83.82-1.83 1.831 0 1.011.819 1.83 1.83 1.83 1.01 0 1.83-.819 1.83-1.83-.002-1.01-.82-1.828-1.83-1.83z"/>
    </g>
</svg>
