<svg xmlns="http://www.w3.org/2000/svg" width="16" height="16" viewBox="0 0 16 16">
    <g fill="#A4A3AE">
        <path d="M8 16c-4.418 0-8-3.582-8-8s3.582-8 8-8 8 3.582 8 8c-.004 4.416-3.584 7.996-8 8zM8 1.356C4.33 1.356 1.356 4.33 1.356 8c0 3.67 2.975 6.644 6.644 6.644 3.67 0 6.644-2.975 6.644-6.644C14.64 4.332 11.668 1.36 8 1.356z"/>
        <path d="M11.821 14.023c-.556-1.637-2.092-2.738-3.821-2.738s-3.265 1.101-3.821 2.738l-1.283-.437C3.64 11.401 5.692 9.932 8 9.932c2.308 0 4.36 1.47 5.104 3.654l-1.283.437zM8 9.24c-1.62 0-2.934-1.314-2.934-2.935 0-1.62 1.313-2.934 2.934-2.934 1.62 0 2.934 1.314 2.934 2.934C10.933 7.925 9.62 9.238 8 9.24zm0-4.513c-.872 0-1.578.706-1.578 1.578 0 .872.706 1.578 1.578 1.578.872 0 1.578-.706 1.578-1.578C9.577 5.434 8.871 4.728 8 4.727z"/>
    </g>
</svg>
