<svg xmlns="http://www.w3.org/2000/svg" width="17" height="22" viewBox="0 0 17 22">
    <g fill="#90A6BB">
        <path d="M10.99 17.309H5.21c-.488-.004-.948-.23-1.25-.612-.3-.378-.411-.873-.299-1.343.488-2.067 2.333-3.528 4.457-3.528 2.124 0 3.969 1.46 4.457 3.528.102.475-.021.971-.335 1.343-.301.384-.761.61-1.25.612zm-5.522-1.8h5.264c-.383-1.127-1.441-1.886-2.632-1.886-1.19 0-2.249.759-2.632 1.886zM8.1 11.066c-1.38-.01-2.49-1.134-2.484-2.514.007-1.379 1.128-2.493 2.508-2.49 1.38.004 2.496 1.123 2.496 2.502-.01 1.385-1.135 2.502-2.52 2.502zm0-3.2c-.284 0-.54.171-.649.434-.108.263-.048.565.154.766.201.2.504.26.766.15.262-.11.432-.367.431-.652-.011-.382-.32-.689-.702-.698z"/>
        <path d="M12.42 21.24H3.78C1.693 21.238.002 19.547 0 17.46V6.3c.002-2.087 1.693-3.778 3.78-3.78h8.64c2.087.002 3.778 1.693 3.78 3.78v11.16c-.002 2.087-1.693 3.778-3.78 3.78zM3.78 4.32c-1.093.002-1.978.887-1.98 1.98v11.16c.002 1.093.887 1.978 1.98 1.98h8.64c1.093-.002 1.978-.887 1.98-1.98V6.3c-.002-1.093-.887-1.978-1.98-1.98H3.78z"/>
        <path d="M10.62 4.32H5.58c-.497 0-.9-.403-.9-.9C4.68 1.531 6.211 0 8.1 0s3.42 1.531 3.42 3.42c0 .239-.095.468-.264.636-.168.17-.397.264-.636.264zm-3.866-1.8h2.692c-.3-.45-.805-.72-1.346-.72-.54 0-1.046.27-1.346.72z"/>
    </g>
</svg>
