<svg xmlns="http://www.w3.org/2000/svg" width="20" height="19" viewBox="0 0 20 19">
    <g fill="none" fill-rule="evenodd">
        <path fill="#48475C" fill-rule="nonzero" d="M9 1.5c0-.276-.224-.5-.5-.5s-.5.224-.5.5v1.527c-2.25.25-4 2.157-4 4.473v5.914L2.414 15h12.172L13 13.414V7.5c0-2.316-1.75-4.224-4-4.473V1.5zM8.5 0c.828 0 1.5.672 1.5 1.5v.707c2.309.653 4 2.775 4 5.293V13l3 3H0l3-3V7.5c0-2.518 1.691-4.64 4-5.293V1.5C7 .672 7.672 0 8.5 0zm0 19c-1.21 0-2.218-.859-2.45-2h1.035c.206.583.762 1 1.415 1s1.209-.417 1.415-1h1.035c-.232 1.141-1.24 2-2.45 2z" opacity=".7"/>
        <circle cx="16" cy="6" r="4" fill="#E16C4F"/>
    </g>
</svg>
