<svg xmlns="http://www.w3.org/2000/svg" width="20" height="21" viewBox="0 0 20 21">
    <g fill="#748196">
        <path d="M13.283 20.355h-9.66c-2-.002-3.621-1.623-3.623-3.622V3.623C.002 1.623 1.623.002 3.623 0h8.28c.228 0 .448.09.61.252l4.14 4.14c.161.162.252.382.252.61v1.38c0 .477-.386.863-.863.863h-5.52c-.476 0-.862-.386-.862-.862V1.724H3.623c-1.048.002-1.896.85-1.898 1.897v13.11c.002 1.048.85 1.896 1.897 1.898h9.66c.477 0 .863.386.863.863 0 .476-.386.862-.862.862zM11.385 5.52h3.795v-.159l-3.636-3.636h-.159V5.52z"/>
        <path d="M11.502 16.905h-1.497c-.476 0-.863-.386-.863-.863V9.768c0-.476.387-.863.863-.863h1.49c1.62.002 2.931 1.314 2.933 2.933v2.136c-.002 1.616-1.31 2.926-2.926 2.932zm-.628-1.725h.628c.667 0 1.208-.54 1.208-1.207v-2.136c0-.667-.54-1.208-1.208-1.208h-.628v4.551zM4.313 16.905c-.477 0-.863-.386-.863-.863V9.768c0-.476.386-.863.862-.863h1.553c1.342 0 2.43 1.089 2.43 2.431s-1.088 2.43-2.43 2.43h-.69v2.277c0 .477-.386.863-.862.863zm.862-4.865h.69c.39 0 .706-.315.706-.705 0-.39-.316-.706-.706-.706h-.69v1.412zM16.346 16.905c-.476 0-.862-.386-.862-.863V10.91c.001-1.106.898-2.003 2.004-2.005h1.594c.476 0 .862.387.862.863s-.386.862-.862.862h-1.594c-.154 0-.28.126-.28.28v5.133c.002.23-.09.45-.251.611-.162.162-.382.253-.61.252z"/>
        <path d="M19.082 13.42h-2.736c-.476 0-.862-.386-.862-.862s.386-.863.862-.863h2.736c.476 0 .862.387.862.863s-.386.863-.862.863z"/>
    </g>
</svg>
