<svg xmlns="http://www.w3.org/2000/svg" width="26" height="21" viewBox="0 0 26 21">
    <g fill="#A4A3AE">
        <path d="M14.798 20.614H2.968c-.779.002-1.515-.355-1.997-.967-.472-.59-.646-1.362-.473-2.097.924-3.883 4.394-6.624 8.385-6.624 3.992 0 7.462 2.74 8.385 6.624.173.736-.001 1.51-.472 2.102-.484.609-1.22.963-1.998.962zm-5.915-7.527c-2.997-.019-5.606 2.042-6.283 4.961-.02.09.002.185.06.256.074.09.184.143.3.143h11.83c.116 0 .226-.053.299-.143.058-.071.08-.166.06-.256-.675-2.913-3.275-4.972-6.266-4.961zM8.883 9.815c-1.898.002-3.61-1.14-4.339-2.894-.727-1.754-.327-3.773 1.015-5.116C6.901.462 8.919.06 10.674.785c1.754.727 2.898 2.438 2.898 4.337-.002 2.59-2.1 4.688-4.689 4.693zm0-7.215c-1.022-.002-1.945.613-2.337 1.558-.392.944-.176 2.032.547 2.755.723.723 1.81.939 2.755.547.944-.393 1.56-1.315 1.557-2.338-.002-1.392-1.13-2.52-2.522-2.522z"/>
        <path d="M23.72 20.614H13.547c-.598 0-1.083-.485-1.083-1.084 0-.598.485-1.083 1.083-1.083h10.175c.036 0 .071-.015.095-.043.007-.017.007-.036 0-.052-.414-1.743-1.71-3.143-3.415-3.692-1.706-.548-3.574-.165-4.927 1.01-.29.27-.703.36-1.079.235-.375-.124-.653-.444-.725-.833-.07-.39.076-.787.383-1.036 1.924-1.677 4.585-2.223 7.014-1.441 2.429.782 4.27 2.779 4.855 5.263.154.663-.006 1.36-.433 1.889-.428.541-1.078.86-1.768.867zM18.85 11.7c-2.238 0-4.052-1.814-4.052-4.052 0-2.237 1.814-4.051 4.052-4.051 2.238 0 4.052 1.814 4.052 4.051 0 1.075-.427 2.105-1.187 2.865-.76.76-1.79 1.187-2.865 1.187zm0-5.937c-1.041 0-1.885.844-1.885 1.885s.844 1.885 1.885 1.885 1.885-.844 1.885-1.885c-.01-1.034-.85-1.867-1.885-1.867v-.018z"/>
    </g>
</svg>
