<svg xmlns="http://www.w3.org/2000/svg" width="14" height="13" viewBox="0 0 14 13">
    <g opacity=".5">
        <path d="M11.508 12.102H2.492C1.116 12.1.002 10.986 0 9.61V2.492C.001 1.116 1.116.002 2.492 0h9.016c1.376.001 2.49 1.116 2.492 2.492V9.61c-.001 1.376-1.116 2.49-2.492 2.492zM2.492 1.186c-.72.002-1.304.585-1.306 1.306V9.61c.002.72.585 1.304 1.306 1.305h9.016c.72-.001 1.304-.585 1.306-1.305V2.492c-.002-.72-.585-1.304-1.306-1.306H2.492z"/>
        <path d="M7 6.765c-.428.001-.849-.108-1.222-.318L.337 3.388C.05 3.228-.05 2.865.112 2.58c.16-.285.523-.386.809-.225l5.438 3.06c.398.221.881.221 1.28 0l5.44-3.06c.185-.104.412-.102.594.006.183.108.294.305.292.517-.002.212-.117.407-.302.511l-5.441 3.06c-.373.209-.794.318-1.222.317z"/>
    </g>
</svg>
