<svg xmlns="http://www.w3.org/2000/svg" width="20" height="20" viewBox="0 0 20 20">
    <g fill="#748196">
        <path d="M13.05 6.44c-.467 0-.847-.379-.847-.847V.847c0-.468.38-.847.848-.847.468 0 .847.38.847.847v4.746c0 .225-.089.44-.248.6-.159.158-.374.248-.6.248zM9.661 4.068H.847C.38 4.068 0 3.688 0 3.22c0-.468.38-.847.847-.847h8.814c.468 0 .847.38.847.847 0 .468-.379.848-.847.848z"/>
        <path d="M19.153 4.068H13.67c-.468 0-.847-.38-.847-.848 0-.468.38-.847.847-.847h5.482c.468 0 .847.38.847.847 0 .468-.38.848-.847.848zM13.05 19.61c-.224.001-.44-.088-.6-.247-.159-.16-.248-.375-.247-.6v-4.746c0-.303.162-.583.424-.734.262-.151.585-.151.848 0 .262.151.423.431.423.734v4.746c.001.225-.088.44-.247.6-.159.16-.375.248-.6.247z"/>
        <path d="M13.05 19.61c-.224.001-.44-.088-.6-.247-.159-.16-.248-.375-.247-.6v-4.746c0-.303.162-.583.424-.734.262-.151.585-.151.848 0 .262.151.423.431.423.734v4.746c.001.225-.088.44-.247.6-.159.16-.375.248-.6.247zM10 17.237H.847c-.468 0-.847-.38-.847-.847 0-.468.38-.848.847-.848H10c.468 0 .847.38.847.848 0 .468-.379.847-.847.847z"/>
        <path d="M10 17.237H.847c-.468 0-.847-.38-.847-.847 0-.468.38-.848.847-.848H10c.468 0 .847.38.847.848 0 .468-.379.847-.847.847zM19.153 17.237H13.67c-.468 0-.847-.38-.847-.847 0-.468.38-.848.847-.848h5.482c.468 0 .847.38.847.848 0 .468-.38.847-.847.847z"/>
        <path d="M19.153 17.237H13.67c-.468 0-.847-.38-.847-.847 0-.468.38-.848.847-.848h5.482c.468 0 .847.38.847.848 0 .468-.38.847-.847.847zM6.95 13.027c-.469 0-.848-.38-.848-.847V7.434c0-.468.38-.848.847-.848.468 0 .848.38.848.848v4.746c0 .468-.38.847-.848.847z"/>
        <path d="M6.95 13.027c-.469 0-.848-.38-.848-.847V7.434c0-.468.38-.848.847-.848.468 0 .848.38.848.848v4.746c0 .468-.38.847-.848.847zM19.153 10.654H10c-.468 0-.847-.38-.847-.847 0-.468.379-.848.847-.848h9.153c.468 0 .847.38.847.848 0 .468-.38.847-.847.847z"/>
        <path d="M19.153 10.654H10c-.468 0-.847-.38-.847-.847 0-.468.379-.848.847-.848h9.153c.468 0 .847.38.847.848 0 .468-.38.847-.847.847zM6.329 10.654H.847c-.468 0-.847-.38-.847-.847 0-.468.38-.848.847-.848H6.33c.468 0 .847.38.847.848 0 .468-.38.847-.847.847z"/>
        <path d="M6.329 10.654H.847c-.468 0-.847-.38-.847-.847 0-.468.38-.848.847-.848H6.33c.468 0 .847.38.847.848 0 .468-.38.847-.847.847z"/>
    </g>
</svg>
