<svg xmlns="http://www.w3.org/2000/svg" width="18" height="18" viewBox="0 0 18 18">
    <g fill="#90A6BB">
        <path d="M4.15 15.639c-.422 0-.764-.342-.764-.763s.342-.763.763-.763c2.315-.001 4.192-1.877 4.195-4.192V7.337c0-.42.342-.762.763-.762s.762.341.762.762v2.584c-.003 3.158-2.562 5.716-5.72 5.718z"/>
        <path d="M9.003 16.17c-.316-.002-.599-.198-.71-.494-.112-.296-.03-.63.207-.84 1.406-1.246 2.212-3.035 2.215-4.915V7.337c-.038-.861-.747-1.54-1.61-1.54-.862 0-1.572.679-1.61 1.54v2.584c0 .89-.353 1.744-.982 2.373-.63.63-1.483.983-2.373.983-.421 0-.763-.341-.763-.762 0-.422.342-.763.763-.763 1.011 0 1.83-.82 1.83-1.83V7.336C6.024 5.644 7.412 4.3 9.106 4.3c1.694 0 3.082 1.345 3.135 3.038v2.584c-.002 2.317-.996 4.521-2.73 6.056-.14.124-.32.192-.507.192z"/>
        <path d="M12.155 16.17c-.284 0-.544-.157-.676-.408s-.114-.555.047-.788c1.022-1.487 1.567-3.249 1.562-5.053V7.444c0-2.258-1.83-4.088-4.088-4.088s-4.088 1.83-4.088 4.088v1.08c0 .421-.342.763-.763.763s-.763-.342-.763-.763v-1.08c0-3.1 2.514-5.613 5.614-5.613s5.614 2.513 5.614 5.613v2.477c.003 2.111-.636 4.173-1.83 5.913-.142.21-.377.335-.63.335zM17.237 4.576c-.42 0-.762-.341-.762-.762V1.525h-2.289c-.42 0-.762-.341-.762-.762 0-.422.341-.763.762-.763h3.051c.422 0 .763.341.763.763v3.05c0 .422-.341.763-.763.763zM.763 4.576C.34 4.576 0 4.235 0 3.814V.763C0 .34.341 0 .763 0h3.05c.422 0 .763.341.763.763 0 .42-.341.762-.762.762H1.525v2.289c0 .42-.341.762-.762.762zM17.237 18h-3.05c-.422 0-.763-.341-.763-.763 0-.42.341-.762.762-.762h2.289v-2.289c0-.42.341-.762.762-.762.422 0 .763.341.763.762v3.051c0 .422-.341.763-.763.763zM3.814 18H.763C.34 18 0 17.659 0 17.237v-3.05c0-.422.341-.763.763-.763.42 0 .762.341.762.762v2.289h2.289c.42 0 .762.341.762.762 0 .422-.341.763-.762.763z"/>
    </g>
</svg>
