<?xml version="1.0" encoding="UTF-8"?>
<svg width="24px" height="24px" viewBox="0 0 24 24" version="1.1" xmlns="http://www.w3.org/2000/svg" xmlns:xlink="http://www.w3.org/1999/xlink">
    <title>9B3A273B-08F7-4071-95E2-D48B1FB8CB5E</title>
    <g id="Admin-Portal" stroke="none" stroke-width="1" fill="none" fill-rule="evenodd">
        <g id="09k_Admin_Father-Profile-repeat" transform="translate(-212.000000, -765.000000)" fill="#1DC9B7" fill-rule="nonzero">
            <g id="info" transform="translate(212.000000, 765.000000)">
                <path d="M12,17.8983051 C11.4383545,17.8983051 10.9830508,17.4430014 10.9830508,16.8813559 L10.9830508,11.1864407 C10.9830508,10.6247952 11.4383545,10.1694915 12,10.1694915 C12.5616455,10.1694915 13.0169492,10.6247952 13.0169492,11.1864407 L13.0169492,16.8813559 C13.0169492,17.4430014 12.5616455,17.8983051 12,17.8983051 Z" id="Path"></path>
                <path d="M12,8.61152542 C11.7302883,8.61152542 11.4716233,8.50438287 11.2809084,8.31366791 C11.0901934,8.12295295 10.9830508,7.86428796 10.9830508,7.59457627 L10.9830508,7.11864407 C10.9830508,6.55699856 11.4383545,6.10169492 12,6.10169492 C12.5616455,6.10169492 13.0169492,6.55699856 13.0169492,7.11864407 L13.0169492,7.59457627 C13.0169492,7.86428796 12.9098066,8.12295295 12.7190916,8.31366791 C12.5283767,8.50438287 12.2697117,8.61152542 12,8.61152542 L12,8.61152542 Z" id="Path"></path>
                <path d="M12,24 C5.372583,24 0,18.627417 0,12 C0,5.372583 5.372583,0 12,0 C18.627417,0 24,5.372583 24,12 C23.9932733,18.6246287 18.6246287,23.9932733 12,24 Z M12,2.03389831 C6.49587402,2.03389831 2.03389831,6.49587402 2.03389831,12 C2.03389831,17.504126 6.49587402,21.9661017 12,21.9661017 C17.504126,21.9661017 21.9661017,17.504126 21.9661017,12 C21.9593777,6.49866159 17.5013384,2.0406223 12,2.03389831 Z" id="Shape"></path>
            </g>
        </g>
    </g>
</svg>