<svg width="16" height="16" viewBox="0 0 16 16" fill="none" xmlns="http://www.w3.org/2000/svg">
<path d="M10 12.2C9.7 12.2 9.5 12.1 9.2 12L8 11.5L6.8 12C6.6 12.1 6.3 12.2 6 12.2C5.8 12.2 5.7 12.2 5.5 12.1L5 16L8 14L11 16L10.4 12.1C10.3 12.2 10.1 12.2 10 12.2Z" fill="#F9E320"/>
<path d="M13.0528 3.77639L12.4558 4.97031C12.3467 4.19881 12.0403 3.48875 11.5896 2.89323L12.817 3.36531C13.0887 3.47529 13.1007 3.68058 13.0528 3.77639ZM11.5215 8.3945C12.022 7.76563 12.3584 7.0009 12.4643 6.16662L12.9291 7.46817L12.9393 7.4966L12.9528 7.52361C12.964 7.546 12.9781 7.60071 12.9278 7.70139C12.8791 7.79875 12.7905 7.89016 12.6939 7.94354L11.5215 8.3945ZM8.47313 10.0752C9.26795 9.99124 10.0026 9.69844 10.6208 9.25304L10.1554 10.4632C10.0255 10.6373 9.88342 10.6964 9.80695 10.6998L9.7905 10.6834L9.70953 10.646L8.47381 10.0757C8.47359 10.0755 8.47336 10.0753 8.47313 10.0752ZM7.36947 10.0557L6.09047 10.646L6.0095 10.6834L5.99303 10.6999C5.95691 10.6984 5.92013 10.6858 5.88735 10.6596C5.85427 10.6331 5.81059 10.5808 5.78507 10.4787L5.77765 10.4491L5.76667 10.4205L5.29323 9.18957C5.88854 9.64011 6.5983 9.94651 7.36947 10.0557ZM3.54417 6.22969C3.65327 7.00119 3.95973 7.71125 4.41043 8.30677L3.18301 7.83468C2.91134 7.7247 2.89931 7.51942 2.94721 7.42361L3.54417 6.22969ZM4.41224 2.89084C3.94561 3.50656 3.63326 4.24492 3.53398 5.04715L2.96017 3.80388C2.90681 3.66377 2.91639 3.54697 2.94316 3.47556C2.96991 3.40423 3.00524 3.38908 3.02127 3.38507L3.04507 3.37912L3.06817 3.37087L4.41224 2.89084ZM10.2149 0.721268L10.2223 0.750941L10.2333 0.77949L10.7068 2.01043C10.0915 1.5448 9.35404 1.23314 8.55285 1.13398L9.80953 0.55398L9.8905 0.51661L9.90417 0.502935C9.91231 0.502169 9.9216 0.501523 9.93208 0.501047C9.95374 0.500062 9.97454 0.5 10 0.5C10.0383 0.5 10.0778 0.512518 10.1127 0.540434C10.1457 0.566896 10.1894 0.619201 10.2149 0.721268ZM7.44222 1.03656C7.48835 1.07093 7.53474 1.09809 7.58017 1.11954C6.67489 1.20418 5.84551 1.55963 5.17438 2.10353C5.18237 2.07203 5.18873 2.03947 5.19311 2.0059L5.64795 0.732361C5.78096 0.556311 5.92604 0.5 6 0.5C6.02546 0.5 6.04626 0.500062 6.06792 0.501047C6.0784 0.501523 6.08769 0.502169 6.09583 0.502935L6.12148 0.528583L6.22051 0.566673L7.44222 1.03656Z" fill="#F9E320" stroke="#F9E320"/>
<path d="M11 5.59998C11 6.39563 10.6839 7.15869 10.1213 7.7213C9.55871 8.2839 8.79565 8.59998 8 8.59998C7.20435 8.59998 6.44129 8.2839 5.87868 7.7213C5.31607 7.15869 5 6.39563 5 5.59998C5 4.80433 5.31607 4.04126 5.87868 3.47866C6.44129 2.91605 7.20435 2.59998 8 2.59998C8.79565 2.59998 9.55871 2.91605 10.1213 3.47866C10.6839 4.04126 11 4.80433 11 5.59998Z" fill="#F9E320"/>
</svg>
