<svg xmlns="http://www.w3.org/2000/svg" width="24" height="23" viewBox="0 0 24 23">
    <g fill="#48475C" opacity=".5">
        <path d="M22.368 0H3.438c-1.2 0-2.17.86-2.17 1.915v1.069H.723c-.4 0-.724.285-.724.638 0 .353.323.638.724.638h.543v1.662H.724c-.4 0-.724.285-.724.638 0 .354.323.639.724.639h.543V15.8H.724c-.4 0-.724.285-.724.639 0 .353.323.638.724.638h.543v1.662H.724c-.4 0-.724.285-.724.638 0 .353.323.638.724.638h.543v1.069c0 1.055.975 1.915 2.171 1.915h18.935c.4 0 .724-.285.724-.638V.638c0-.353-.329-.638-.729-.638zM5.388 21.553h-1.95c-.4 0-.723-.28-.723-.625v-1.045h.502c.4 0 .724-.279.724-.624 0-.346-.323-.625-.724-.625h-.502V17.01h.502c.4 0 .724-.279.724-.624 0-.346-.323-.625-.724-.625h-.502V7.346h.502c.4 0 .724-.28.724-.625s-.323-.624-.724-.624h-.502V4.47h.502c.4 0 .724-.279.724-.624s-.323-.624-.724-.624h-.502V2.177c0-.345.323-.624.723-.624h1.95v20zm16.256 0H6.835v-20h14.81v20z"/>
        <path d="M9.73 18.043h9.02c.4 0 .724-.323.724-.723v-3.3c0-1.21-.74-2.278-1.883-2.714-2.145-.821-4.557-.821-6.702 0-1.144.436-1.883 1.503-1.883 2.714v3.3c0 .395.323.723.723.723zm.728-4.023c0-.605.374-1.144.954-1.365 1.812-.692 3.854-.697 5.665 0 .58.221.955.76.955 1.365v2.576h-7.574V14.02zM14.24 9.736c1.575 0 2.853-1.278 2.853-2.853 0-1.576-1.278-2.854-2.853-2.854-1.576 0-2.853 1.278-2.853 2.854 0 1.575 1.277 2.853 2.853 2.853zm0-4.26c.775 0 1.406.632 1.406 1.407 0 .774-.631 1.406-1.406 1.406-.775 0-1.406-.632-1.406-1.406 0-.775.63-1.406 1.406-1.406z"/>
    </g>
</svg>
