<svg xmlns="http://www.w3.org/2000/svg" width="24" height="24" viewBox="0 0 24 24">
    <g fill="#3699FF">
        <path d="M3.784 15.746h-.449c-.368 0-.666.298-.666.667 0 .368.298.666.666.666h.45c.368 0 .665-.298.665-.666 0-.369-.297-.667-.666-.667zM7.36 15.746h-.448c-.369 0-.666.298-.666.667 0 .368.297.666.666.666h.449c.368 0 .666-.298.666-.666 0-.369-.303-.667-.666-.667zM3.784 13.318h-.449c-.368 0-.666.298-.666.666 0 .369.298.666.666.666h.45c.368 0 .665-.297.665-.666 0-.368-.297-.666-.666-.666zM7.36 13.318h-.448c-.369 0-.666.298-.666.666 0 .369.297.666.666.666h.449c.368 0 .666-.297.666-.666 0-.368-.303-.666-.666-.666zM10.932 13.318h-.449c-.368 0-.666.298-.666.666 0 .369.298.666.666.666h.45c.368 0 .665-.297.665-.666 0-.368-.297-.666-.666-.666zM3.784 10.89h-.449c-.368 0-.666.297-.666.666 0 .368.298.666.666.666h.45c.368 0 .665-.298.665-.666 0-.369-.297-.666-.666-.666zM7.36 10.89h-.448c-.369 0-.666.297-.666.666 0 .368.297.666.666.666h.449c.368 0 .666-.298.666-.666 0-.369-.303-.666-.666-.666zM10.932 10.89h-.449c-.368 0-.666.297-.666.666 0 .368.298.666.666.666h.45c.368 0 .665-.298.665-.666 0-.369-.297-.666-.666-.666zM3.784 8.461h-.449c-.368 0-.666.298-.666.667 0 .368.298.666.666.666h.45c.368 0 .665-.298.665-.666 0-.369-.297-.667-.666-.667zM7.36 8.461h-.448c-.369 0-.666.298-.666.667 0 .368.297.666.666.666h.449c.368 0 .666-.298.666-.666 0-.369-.303-.667-.666-.667zM10.932 8.461h-.449c-.368 0-.666.298-.666.667 0 .368.298.666.666.666h.45c.368 0 .665-.298.665-.666 0-.369-.297-.667-.666-.667zM17.631 9.794h.45c.368 0 .665-.298.665-.666 0-.369-.297-.667-.666-.667h-.449c-.368 0-.666.298-.666.667 0 .368.298.666.666.666zM14.06 9.794h.449c.368 0 .666-.298.666-.666 0-.369-.298-.667-.666-.667h-.45c-.368 0-.665.298-.665.667 0 .368.297.666.666.666z"/>
        <path d="M21.416 12.576V.666c0-.368-.298-.666-.666-.666H.666C.298 0 0 .298 0 .666v18.416c0 .368.298.666.666.666h11.022c.865 2.47 3.213 4.252 5.977 4.252C21.155 24 24 21.16 24 17.665c0-2.084-1.02-3.936-2.584-5.089zM1.332 1.332h18.751v4.262H1.333V1.332zm10.05 17.084H1.331V6.926h18.751v4.885c-.746-.307-1.563-.482-2.418-.482-3.492 0-6.336 2.84-6.336 6.336.005.255.024.505.052.75zm6.283 4.252c-2.76 0-4.999-2.244-4.999-4.999 0-2.754 2.244-4.998 4.999-4.998 2.759 0 4.998 2.244 4.998 4.998 0 2.755-2.24 4.999-4.998 4.999z"/>
        <path d="M17.665 13.876c-.369 0-.667.297-.667.666v2.456h-.978c-.368 0-.666.298-.666.667 0 .368.298.666.666.666h1.65c.368 0 .665-.298.665-.666v-3.123c0-.369-.302-.666-.67-.666zM5.102 2.797h-.396c-.369 0-.667.297-.667.666 0 .368.298.666.667.666h.396c.369 0 .667-.298.667-.666 0-.369-.298-.666-.667-.666zM16.71 2.797h-.397c-.368 0-.666.297-.666.666 0 .368.298.666.666.666h.397c.369 0 .666-.298.666-.666 0-.369-.297-.666-.666-.666z"/>
    </g>
</svg>
