<svg xmlns="http://www.w3.org/2000/svg" width="24" height="24" viewBox="0 0 24 24">
    <g fill="#959699">
        <path d="M22.452 15.555v-.845c0-.428-.347-.775-.775-.775h-.774v-1.548c0-.214-.173-.387-.387-.387H15.96c.61-.78.975-1.723 1.051-2.71h.215c.748 0 1.355-.606 1.355-1.355 0-.748-.607-1.354-1.355-1.354h-.194V5.032c0-2.869-2.33-5.032-5.42-5.032-3.089 0-5.418 2.163-5.418 5.032v1.549H6c-.748 0-1.355.606-1.355 1.354 0 .749.607 1.355 1.355 1.355h.214c.077.987.443 1.93 1.052 2.71H2.71c-.214 0-.387.173-.387.387v1.548h-.775c-.427 0-.774.347-.774.775v.845c-.462.164-.772.6-.774 1.09v3.484c0 .641.52 1.161 1.161 1.161h1.162v1.542c0 .214.173.387.387.387l17.806.013c.214 0 .387-.173.387-.387V21.29h1.162c.64 0 1.16-.52 1.16-1.161v-3.484c-.001-.49-.311-.926-.773-1.09zm-.775-.845v.774h-.774v-.774h.774zm-5.845-7.742c-.183-.902-.976-1.55-1.897-1.55-.92 0-1.713.648-1.896 1.55h-.852c-.183-.902-.976-1.55-1.897-1.55-.92 0-1.713.648-1.896 1.55h-.426v-1.63l6.155-1.448 3.135 1.394v1.684h-.426zm-.735.387c0 .641-.52 1.161-1.162 1.161-.64 0-1.16-.52-1.16-1.161 0-.642.52-1.161 1.16-1.161.642 0 1.162.52 1.162 1.16zm-4.645 0c0 .641-.52 1.161-1.162 1.161-.641 0-1.161-.52-1.161-1.161 0-.642.52-1.161 1.161-1.161.642 0 1.162.52 1.162 1.16zm6.774 0c.32 0 .58.26.58.58 0 .321-.26.581-.58.581h-.194V7.355h.194zM11.613.775c2.46 0 4.3 1.498 4.598 3.64L13.318 3.13c-.077-.034-.163-.042-.245-.023L6.998 4.536C7.251 2.361 9.148.774 11.613.774zm-6.194 7.16c0-.32.26-.58.581-.58h.194v1.161H6c-.32 0-.58-.26-.58-.58zm1.549.968V7.742h.426c.183.902.976 1.55 1.896 1.55.92 0 1.714-.648 1.897-1.55h.852c.183.902.976 1.55 1.896 1.55.921 0 1.714-.648 1.897-1.55h.426v1.161c-.002 1.173-.488 2.293-1.342 3.097H8.31c-.855-.804-1.34-1.924-1.342-3.097zM12 22.452h-.774v-9.678H12v9.678zM1.548 14.71h.775v.774h-.775v-.774zm-.774 5.419v-3.484c0-.214.174-.387.387-.387h2.71v2.766c.001.293-.164.562-.426.693l-.132.066c-.132.065-.216.199-.216.346v.387H1.16c-.213 0-.387-.173-.387-.387zm2.323 1.161h.387c.214 0 .387-.173.387-.387v-.538c.48-.275.776-.787.774-1.34V15.87c0-.214-.173-.387-.387-.387H3.097v-2.71h7.355v9.678l-7.355-.006V21.29zm17.032 1.168l-7.355-.006v-9.678h7.355v2.71h-1.161c-.214 0-.387.173-.387.387v3.153c-.002.554.293 1.066.774 1.341v.538c0 .214.173.387.387.387h.387v1.168zm2.323-2.329c0 .214-.174.387-.387.387h-1.936v-.387c0-.147-.082-.282-.214-.348l-.132-.066c-.263-.13-.428-.398-.428-.69v-2.767h2.71c.213 0 .387.173.387.387v3.484z"/>
        <path d="M14.71 13.548H17.42V14.548H14.71zM8.516 7.355h.774V6.58c-.427 0-.774.346-.774.774zM13.161 7.355h.774V6.58c-.427 0-.774.346-.774.774z"/>
    </g>
</svg>
