<svg xmlns="http://www.w3.org/2000/svg" width="24" height="24" viewBox="0 0 24 24">
    <g fill="#3699FF">
        <path d="M15.93 3.5h-3.4l-.45-1.185c-.099-.26-.345-.43-.623-.43h-.94v-.354C10.517.685 9.83 0 8.986 0h-1.38c-.845 0-1.53.685-1.53 1.53v.355H4.819c-.279 0-.525.17-.624.43l-.449 1.186H.666C.298 3.5 0 3.798 0 4.167v19.167c0 .368.298.666.666.666h15.265c.368 0 .666-.298.666-.666V4.167c0-.369-.298-.666-.666-.666zM5.278 3.218h1.465c.368 0 .666-.297.666-.666v-1.02c0-.109.09-.199.198-.199h1.38c.108 0 .198.09.198.199v1.02c0 .369.298.666.666.666h1.148l.756 1.99H4.526l.751-1.99zm9.988 19.45H1.332V4.834h1.909l-.307.803c-.076.203 0 .903.623.903H12.718c.78 0 .638-.893.586-.988l-.274-.723h2.23v17.84h.005z"/>
        <path d="M3.5 8.797c-.368 0-.665.297-.665.666 0 .368.297.666.666.666h9.595c.369 0 .666-.298.666-.666 0-.369-.297-.666-.666-.666H3.501zM13.096 12.345H3.501c-.369 0-.666.298-.666.666 0 .369.297.666.666.666h9.595c.369 0 .666-.297.666-.666 0-.364-.297-.666-.666-.666zM13.096 15.898H3.501c-.369 0-.666.297-.666.666 0 .368.297.666.666.666h9.595c.369 0 .666-.298.666-.666 0-.369-.297-.666-.666-.666zM9.732 19.446H3.501c-.369 0-.666.297-.666.666 0 .368.297.666.666.666h6.231c.369 0 .666-.298.666-.666 0-.369-.297-.666-.666-.666zM23.906 6.51l-1.952-3.245c-.123-.199-.335-.322-.571-.322-.237 0-.45.123-.572.322L18.86 6.51c-.062.104-.095.222-.095.345v11.59c0 1.445 1.177 2.616 2.618 2.616 1.445 0 2.617-1.176 2.617-2.617V6.85c0-.118-.033-.236-.094-.34zM21.383 4.9l.774 1.284h-1.55l.776-1.285zm1.285 13.54c0 .708-.577 1.284-1.285 1.284-.709 0-1.285-.576-1.285-1.285v-.212h2.574v.212h-.004zm0-1.546h-2.575V7.521h2.575v9.373z"/>
    </g>
</svg>
