<svg xmlns="http://www.w3.org/2000/svg" width="25" height="25" viewBox="0 0 25 25">
    <g fill="#959699">
        <path d="M24.887 10.86l-2.362-3.579c-.128-.197-.345-.31-.581-.31h-2.44V4.968h1.15c.257 0 .493-.143.611-.365.123-.226.108-.497-.03-.714L18.873.31c-.128-.197-.344-.31-.58-.31H6.709c-.231 0-.453.118-.58.31L3.765 3.884c-.142.212-.152.488-.03.714.124.227.355.365.61.365h1.152v2.003h-2.44c-.232 0-.453.118-.581.31l-2.362 3.58c-.143.211-.153.487-.03.714.123.226.355.364.61.364h1.669v12.372c0 .384.31.694.694.694h18.886c.384 0 .694-.31.694-.694V11.939h1.668c.256 0 .492-.143.61-.365.123-.226.109-.502-.03-.713zM7.083 1.384h10.84l1.447 2.191H5.641l1.442-2.19zm-5.098 9.162l1.447-2.19h2.066v2.19H1.985zm12.228 13.072h-3.42v-5.12h3.42v5.12zm7.037 0h-5.649v-5.82c0-.384-.31-.694-.694-.694h-4.812c-.384 0-.694.31-.694.694v5.815H3.75V11.939h2.441c.384 0 .694-.31.694-.694V4.963h11.23v6.277c0 .384.31.694.693.694h2.441v11.683zm-1.747-13.072v-2.19h2.067l1.447 2.19h-3.514z"/>
        <path d="M12.538 6.346c-2.315 0-4.205 1.901-4.205 4.243 0 2.336 1.885 4.243 4.205 4.243 2.316 0 4.205-1.902 4.205-4.243 0-2.337-1.89-4.243-4.205-4.243zm0 7.088c-1.556 0-2.82-1.28-2.82-2.845 0-1.571 1.268-2.846 2.82-2.846 1.552 0 2.82 1.28 2.82 2.846 0 1.57-1.263 2.845-2.82 2.845z"/>
        <path d="M12.528 8.486c-.386 0-.697.311-.697.696v.74h-.124c-.386 0-.698.312-.698.697 0 .385.312.696.698.696h.821c.387 0 .698-.311.698-.696V9.182c0-.385-.311-.696-.698-.696zM6.798 13.99h-.752c-.384 0-.694.308-.694.689 0 .38.31.688.694.688h.752c.384 0 .694-.307.694-.688 0-.38-.31-.688-.694-.688zM6.798 17.355h-.752c-.384 0-.694.307-.694.688 0 .38.31.688.694.688h.752c.384 0 .694-.308.694-.688 0-.38-.31-.688-.694-.688zM6.798 20.642h-.752c-.384 0-.694.308-.694.688 0 .38.31.688.694.688h.752c.384 0 .694-.307.694-.688 0-.375-.31-.688-.694-.688zM17.584 14.679c0 .38.31.688.694.688h.753c.384 0 .694-.307.694-.688 0-.38-.31-.688-.694-.688h-.753c-.384 0-.694.307-.694.688zM19.03 17.355h-.752c-.384 0-.694.307-.694.688 0 .38.31.688.694.688h.753c.384 0 .694-.308.694-.688 0-.38-.31-.688-.694-.688zM19.03 20.642h-.752c-.384 0-.694.308-.694.688 0 .38.31.688.694.688h.753c.384 0 .694-.307.694-.688 0-.375-.31-.688-.694-.688z"/>
    </g>
</svg>
