<svg xmlns="http://www.w3.org/2000/svg" width="24" height="20" viewBox="0 0 24 20">
    <g fill="#48475C" opacity=".5">
        <path d="M23.901 18.276l-1.9-4.536V.707c0-.368-.297-.665-.665-.665H2.622c-.368 0-.665.297-.665.665V13.74L.052 18.276c-.085.207-.066.438.061.627.123.184.33.297.557.297h22.623c.221 0 .429-.113.551-.297.123-.189.142-.424.057-.627zM3.286 1.372h17.385v11.835H3.286V1.372zM1.664 17.866l1.396-3.33h17.828l1.396 3.33H1.664z"/>
        <path d="M5.135 10.095c-.368 0-.665.297-.665.665v.599c0 .368.297.665.665.665.368 0 .665-.297.665-.665v-.6c0-.367-.297-.664-.665-.664zM7.648 8.209c-.368 0-.665.297-.665.665v2.485c0 .368.297.665.665.665.368 0 .665-.297.665-.665V8.874c0-.368-.297-.665-.665-.665zM10.161 5.696c-.368 0-.665.297-.665.665v4.998c0 .368.297.665.665.665.368 0 .665-.297.665-.665V6.36c0-.368-.297-.665-.665-.665zM11.665 3c-.368 0-.665.297-.665.665v7.511c0 .368.297.665.665.665.368 0 .665-.297.665-.665V3.665c0-.368-.297-.665-.665-.665zM13.325 15.536h-2.697c-.368 0-.665.297-.665.665 0 .368.297.665.665.665h2.697c.368 0 .665-.297.665-.665 0-.368-.297-.665-.665-.665zM17.62 6.431h.731c.368 0 .665-.297.665-.664 0-.368-.297-.665-.665-.665h-2.334c-.367 0-.665.297-.665.665V8.1c0 .367.298.664.665.664.368 0 .665-.297.665-.664V7.37l1.67 1.669c.24.24.697.245.942 0 .26-.26.26-.68 0-.943L17.62 6.43z"/>
    </g>
</svg>
