<svg xmlns="http://www.w3.org/2000/svg" width="14" height="18" viewBox="0 0 14 18">
    <g fill="none">
        <path fill="#A4A3AE" d="M9.314 14.668h-4.9c-.413-.003-.802-.194-1.058-.518-.255-.32-.348-.74-.253-1.138.413-1.752 1.977-2.99 3.777-2.99s3.363 1.238 3.777 2.99c.086.403-.018.823-.284 1.138-.255.325-.645.516-1.059.518zm-4.68-1.525h4.46c-.324-.955-1.22-1.598-2.23-1.598-1.008 0-1.905.643-2.23 1.598zM6.864 9.378c-1.169-.008-2.11-.961-2.105-2.13.006-1.17.957-2.113 2.126-2.11C8.054 5.14 9 6.088 9 7.258c-.008 1.173-.962 2.12-2.136 2.12zm0-2.712c-.24 0-.458.145-.55.368-.091.223-.04.479.13.649.172.17.428.22.65.127.222-.093.367-.311.365-.552-.01-.324-.27-.584-.595-.592z"/>
        <path fill="#A4A3AE" d="M10.525 18H3.203C1.435 17.998.002 16.565 0 14.797V5.339C.002 3.57 1.435 2.137 3.203 2.136h7.322c1.769.001 3.202 1.434 3.204 3.203v9.458c-.002 1.768-1.435 3.201-3.204 3.203zM3.203 3.661c-.926.002-1.676.752-1.678 1.678v9.458c.002.926.752 1.676 1.678 1.678h7.322c.926-.002 1.677-.752 1.678-1.678V5.339c-.001-.926-.752-1.676-1.678-1.678H3.203z"/>
        <path fill="#A4A3AE" d="M9 2.898C9 1.718 8.044.763 6.864.763c-1.179 0-2.135.956-2.135 2.135H9z"/>
        <path fill="#A4A3AE" d="M9 3.661H4.729c-.421 0-.763-.341-.763-.763C3.966 1.298 5.264 0 6.864 0c1.601 0 2.899 1.298 2.899 2.898 0 .203-.08.397-.224.54-.143.143-.337.223-.539.223zM5.723 2.136h2.282c-.254-.381-.682-.61-1.14-.61-.459 0-.887.229-1.142.61z"/>
        <circle cx="6.864" cy="2.136" r="1" fill="#FFF"/>
    </g>
</svg>
