<svg xmlns="http://www.w3.org/2000/svg" width="14" height="14" viewBox="0 0 14 14">
    <path d="M10.64 14c-.398 0-.79-.089-1.148-.261-2.004-.963-3.829-2.259-5.399-3.832C2.52 8.337 1.224 6.512.261 4.508c-.488-1.026-.276-2.249.53-3.051L2.07.173c.112-.11.263-.173.42-.173.158 0 .309.062.42.173l3.052 3.054c.111.111.174.262.174.419 0 .157-.063.308-.174.419l-1.101 1.1c.482.817 1.065 1.568 1.735 2.238.67.67 1.421 1.254 2.237 1.735l1.101-1.101c.111-.111.262-.174.42-.174.156 0 .307.063.418.174l3.054 3.051c.23.233.23.608 0 .84l-1.284 1.282c-.504.505-1.189.79-1.903.79zM2.492 1.424l-.864.87c-.45.448-.568 1.13-.297 1.702.905 1.881 2.122 3.596 3.6 5.07 1.475 1.48 3.19 2.697 5.073 3.603.573.271 1.255.151 1.701-.3l.871-.86-2.214-2.214-.999.999c-.186.19-.478.233-.711.104-1.066-.574-2.041-1.3-2.895-2.157-.858-.854-1.584-1.83-2.157-2.895-.13-.234-.087-.525.104-.712l1-1.001-2.212-2.21z" opacity=".5"/>
</svg>
