<svg xmlns="http://www.w3.org/2000/svg" width="23" height="17" viewBox="0 0 23 17">
    <g fill="#7E7E8C">
        <path d="M21.344 17H.944C.423 17 0 16.577 0 16.056V10.01c0-.521.423-.944.944-.944.522 0 .945.423.945.944v5.1H20.4v-5.1c0-.521.423-.944.944-.944.522 0 .945.423.945.944v6.045c0 .521-.423.944-.945.944z"/>
        <path d="M11.144 12.467c-.521 0-.944-.423-.944-.945V.944c0-.521.423-.944.944-.944.522 0 .945.423.945.944v10.578c0 .522-.423.945-.945.945z"/>
        <path d="M11.144 12.467c-.25 0-.491-.099-.668-.276L5.565 7.28c-.37-.37-.37-.968 0-1.338.369-.369.968-.369 1.337 0l4.242 4.258 4.243-4.258c.37-.369.968-.369 1.337 0 .37.37.37.968 0 1.338l-4.91 4.91c-.178.178-.419.278-.67.277z"/>
    </g>
</svg>
