<svg xmlns="http://www.w3.org/2000/svg" width="25" height="25" viewBox="0 0 25 25">
    <g fill="#3699FF">
        <path d="M20.55 25H4.45C1.992 24.998.001 23.007 0 20.55v-7.626c.002-2.457 1.993-4.447 4.45-4.45h16.1c2.457.003 4.448 1.993 4.45 4.45v7.627c-.002 2.456-1.993 4.447-4.45 4.449zM4.45 10.593c-1.287.003-2.329 1.045-2.331 2.33v7.628c.002 1.286 1.044 2.328 2.33 2.33h16.102c1.286-.002 2.328-1.044 2.33-2.33v-7.627c-.002-1.286-1.044-2.328-2.33-2.33H4.449zM20.975 6.356H4.025c-.585 0-1.059-.474-1.059-1.06 0-.584.474-1.059 1.06-1.059h16.949c.585 0 1.059.475 1.059 1.06 0 .585-.474 1.059-1.06 1.059zM19.28 2.119H5.72c-.585 0-1.059-.475-1.059-1.06C4.661.474 5.135 0 5.721 0H19.28c.585 0 1.059.474 1.059 1.06 0 .584-.474 1.059-1.06 1.059z"/>
        <path d="M11.475 20.004c-.281 0-.551-.11-.75-.31L8.36 17.327c-.275-.266-.385-.66-.287-1.03.097-.37.387-.66.757-.756.37-.096.765.015 1.03.29l1.615 1.615 3.665-3.665c.414-.415 1.086-.415 1.5 0 .414.414.414 1.085 0 1.5l-4.415 4.415c-.2.198-.47.31-.75.31z"/>
    </g>
</svg>
